G75*
G70*
%OFA0B0*%
%FSLAX24Y24*%
%IPPOS*%
%LPD*%
%AMOC8*
5,1,8,0,0,1.08239X$1,22.5*
%
%ADD10C,0.0740*%
%ADD11C,0.0360*%
%ADD12C,0.0120*%
%ADD13C,0.0240*%
%ADD14C,0.0080*%
D10*
X002140Y001487D03*
X003140Y001487D03*
X010640Y001487D03*
X011640Y001487D03*
X012640Y001487D03*
X013640Y001487D03*
X014640Y001487D03*
X015640Y001487D03*
X016640Y001487D03*
X017640Y001487D03*
X018640Y001487D03*
X019640Y001487D03*
X020640Y001487D03*
X021640Y001487D03*
X022640Y001487D03*
X023640Y001487D03*
X023640Y010487D03*
X022640Y010487D03*
X021640Y010487D03*
X020640Y010487D03*
X019640Y010487D03*
X018640Y010487D03*
X017640Y010487D03*
X016640Y010487D03*
X015640Y010487D03*
X014640Y010487D03*
X013640Y010487D03*
X012640Y010487D03*
X011640Y010487D03*
X010640Y010487D03*
X003140Y010487D03*
X002140Y010487D03*
D11*
X000731Y010239D03*
X000731Y009254D03*
X000731Y008270D03*
X001715Y008270D03*
X002699Y008270D03*
X002699Y007286D03*
X001715Y007286D03*
X000731Y007286D03*
X000731Y006302D03*
X001715Y006302D03*
X002699Y006302D03*
X003683Y007286D03*
X006518Y006538D03*
X007935Y006459D03*
X006518Y005672D03*
X009195Y004609D03*
X011557Y005711D03*
X011951Y006105D03*
X012384Y006695D03*
X013329Y005908D03*
X015297Y005908D03*
X016557Y005711D03*
X016675Y006302D03*
X017975Y006656D03*
X016872Y006892D03*
X016794Y007758D03*
X017502Y007876D03*
X016754Y008310D03*
X017975Y008782D03*
X018841Y009451D03*
X020022Y009451D03*
X021203Y009451D03*
X022660Y009372D03*
X024943Y009058D03*
X026321Y009058D03*
X026321Y010239D03*
X025140Y010239D03*
X020809Y008270D03*
X020416Y007876D03*
X021754Y007089D03*
X022778Y007483D03*
X023250Y007089D03*
X023723Y006695D03*
X024943Y007089D03*
X025534Y006695D03*
X025219Y005042D03*
X024353Y004333D03*
X024549Y003743D03*
X026124Y004333D03*
X023171Y002955D03*
X025140Y001774D03*
X026321Y001774D03*
X020997Y004097D03*
X022581Y004333D03*
X021085Y005042D03*
X021242Y006341D03*
X020258Y006695D03*
X017345Y004136D03*
X016675Y003743D03*
X015101Y003349D03*
X014707Y002955D03*
X015101Y002286D03*
X017148Y002561D03*
X019628Y003349D03*
X020219Y003349D03*
X014313Y004924D03*
X012463Y004806D03*
X013329Y003939D03*
X010376Y002561D03*
X009195Y002758D03*
X009392Y001577D03*
X006046Y003546D03*
X003683Y003349D03*
X002699Y003349D03*
X003683Y004333D03*
X004668Y002365D03*
X010376Y005869D03*
X009353Y007365D03*
X007581Y008034D03*
X006833Y008270D03*
X013841Y007483D03*
X014116Y007010D03*
X014195Y009609D03*
D12*
X012640Y010487D02*
X011951Y009798D01*
X011951Y006105D01*
X011557Y005711D02*
X011557Y010404D01*
X011640Y010487D01*
X016794Y007758D02*
X017305Y008270D01*
X020809Y008270D01*
X020416Y007876D02*
X017502Y007876D01*
X017463Y007483D02*
X022778Y007483D01*
X023250Y007089D02*
X021754Y007089D01*
X017660Y007089D01*
X016872Y006302D01*
X016675Y006302D01*
X016872Y006892D02*
X017463Y007483D01*
X022640Y009392D02*
X022660Y009372D01*
X023250Y007089D02*
X024943Y007089D01*
X024549Y003743D02*
X016675Y003743D01*
X015101Y003349D02*
X019628Y003349D01*
X019825Y002955D02*
X014707Y002955D01*
X017148Y002561D02*
X021006Y002561D01*
X021640Y001928D01*
X021640Y001487D01*
X019825Y002955D02*
X020219Y003349D01*
D13*
X020997Y004097D02*
X020760Y004333D01*
X017227Y004333D01*
X017227Y004372D01*
X017423Y004176D01*
X017345Y004136D01*
X017227Y004333D02*
X014234Y004333D01*
X013683Y004884D01*
X014274Y004884D01*
X014313Y004924D01*
X013683Y004884D02*
X012679Y005888D01*
X012679Y006420D01*
X012660Y006420D01*
X012384Y006695D01*
X012679Y006420D02*
X012679Y009235D01*
X013640Y010195D01*
X013640Y010487D01*
X017975Y008782D02*
X022030Y008782D01*
X022640Y009392D01*
X022640Y010487D01*
X024668Y008782D02*
X024943Y009058D01*
X024668Y008782D02*
X022030Y008782D01*
X017975Y006656D02*
X017227Y005908D01*
X017227Y004372D01*
X020760Y004333D02*
X022581Y004333D01*
X024353Y004333D01*
X026124Y004333D01*
X014116Y007010D02*
X013546Y006439D01*
X013191Y006439D01*
X012660Y005908D01*
X009510Y002758D01*
X009195Y002758D01*
X008723Y003231D01*
X008723Y004136D01*
X009195Y004609D01*
X007935Y004727D02*
X007463Y004727D01*
X006518Y005672D01*
X007935Y006459D02*
X007935Y004727D01*
X007935Y004018D01*
X008723Y003231D01*
X012660Y005908D02*
X012679Y005888D01*
X007581Y008034D02*
X006833Y007286D01*
X005258Y007286D01*
X002699Y004727D01*
X001912Y004727D01*
X001715Y006617D02*
X001715Y007010D01*
X002109Y007483D02*
X002502Y007483D01*
X000731Y006971D02*
X000731Y006577D01*
X002109Y008467D02*
X002502Y008467D01*
X002502Y009451D02*
X002109Y009451D01*
D14*
X000380Y004987D02*
X000380Y001227D01*
X001700Y001227D01*
X001667Y001291D01*
X001643Y001367D01*
X001630Y001447D01*
X001630Y001447D01*
X002100Y001447D01*
X002100Y001527D01*
X002100Y001997D01*
X002100Y001997D01*
X002021Y001984D01*
X001944Y001959D01*
X001873Y001923D01*
X001808Y001876D01*
X001751Y001819D01*
X001704Y001754D01*
X001667Y001682D01*
X001643Y001606D01*
X001630Y001527D01*
X001630Y001527D01*
X002100Y001527D01*
X002140Y001527D01*
X002140Y004987D01*
X000380Y004987D01*
X000380Y004912D02*
X002140Y004912D01*
X002140Y004833D02*
X000380Y004833D01*
X000380Y004755D02*
X002140Y004755D01*
X002140Y004676D02*
X000380Y004676D01*
X000380Y004598D02*
X002140Y004598D01*
X002140Y004519D02*
X000380Y004519D01*
X000380Y004441D02*
X002140Y004441D01*
X002140Y004362D02*
X000380Y004362D01*
X000380Y004284D02*
X002140Y004284D01*
X002140Y004205D02*
X000380Y004205D01*
X000380Y004127D02*
X002140Y004127D01*
X002140Y004048D02*
X000380Y004048D01*
X000380Y003970D02*
X002140Y003970D01*
X002140Y003891D02*
X000380Y003891D01*
X000380Y003813D02*
X002140Y003813D01*
X002140Y003734D02*
X000380Y003734D01*
X000380Y003656D02*
X002140Y003656D01*
X002140Y003577D02*
X000380Y003577D01*
X000380Y003499D02*
X002140Y003499D01*
X002140Y003420D02*
X000380Y003420D01*
X000380Y003342D02*
X002140Y003342D01*
X002140Y003263D02*
X000380Y003263D01*
X000380Y003185D02*
X002140Y003185D01*
X002140Y003106D02*
X000380Y003106D01*
X000380Y003028D02*
X002140Y003028D01*
X002140Y002949D02*
X000380Y002949D01*
X000380Y002871D02*
X002140Y002871D01*
X002140Y002792D02*
X000380Y002792D01*
X000380Y002714D02*
X002140Y002714D01*
X002140Y002635D02*
X000380Y002635D01*
X000380Y002557D02*
X002140Y002557D01*
X002140Y002478D02*
X000380Y002478D01*
X000380Y002400D02*
X002140Y002400D01*
X002140Y002321D02*
X000380Y002321D01*
X000380Y002243D02*
X002140Y002243D01*
X002140Y002164D02*
X000380Y002164D01*
X000380Y002086D02*
X002140Y002086D01*
X002140Y002007D02*
X000380Y002007D01*
X000380Y001929D02*
X001884Y001929D01*
X001782Y001850D02*
X000380Y001850D01*
X000380Y001772D02*
X001717Y001772D01*
X001673Y001693D02*
X000380Y001693D01*
X000380Y001615D02*
X001645Y001615D01*
X001631Y001536D02*
X000380Y001536D01*
X000380Y001458D02*
X002100Y001458D01*
X002100Y001536D02*
X002140Y001536D01*
X002140Y001615D02*
X002100Y001615D01*
X002100Y001693D02*
X002140Y001693D01*
X002140Y001772D02*
X002100Y001772D01*
X002100Y001850D02*
X002140Y001850D01*
X002140Y001929D02*
X002100Y001929D01*
X002440Y001936D02*
X002440Y004447D01*
X002755Y004447D01*
X002858Y004489D01*
X002936Y004568D01*
X005374Y007006D01*
X006889Y007006D01*
X006992Y007049D01*
X007637Y007694D01*
X007649Y007694D01*
X007774Y007746D01*
X007869Y007841D01*
X007921Y007966D01*
X007921Y008102D01*
X007869Y008227D01*
X007774Y008322D01*
X007649Y008374D01*
X007513Y008374D01*
X007388Y008322D01*
X007293Y008227D01*
X007241Y008102D01*
X007241Y008090D01*
X006717Y007566D01*
X005202Y007566D01*
X005100Y007523D01*
X002583Y005007D01*
X002440Y005007D01*
X002440Y005287D01*
X000380Y005287D01*
X000380Y006687D01*
X002440Y006687D01*
X002440Y010074D01*
X002472Y010098D01*
X002529Y010154D01*
X002576Y010219D01*
X002613Y010291D01*
X002628Y010338D01*
X002691Y010186D01*
X002840Y010037D01*
X002840Y009187D01*
X005940Y009187D01*
X005940Y010747D01*
X010200Y010747D01*
X010167Y010682D01*
X010143Y010606D01*
X010130Y010527D01*
X010130Y010527D01*
X010600Y010527D01*
X010600Y010447D01*
X010130Y010447D01*
X010130Y010447D01*
X010143Y010367D01*
X010167Y010291D01*
X010204Y010219D01*
X010251Y010154D01*
X010308Y010098D01*
X010373Y010050D01*
X010444Y010014D01*
X005940Y010014D01*
X005940Y009936D02*
X011337Y009936D01*
X011337Y010014D02*
X010836Y010014D01*
X010907Y010050D01*
X010972Y010098D01*
X011029Y010154D01*
X011076Y010219D01*
X011113Y010291D01*
X011128Y010338D01*
X011191Y010186D01*
X011337Y010040D01*
X011337Y005972D01*
X011269Y005904D01*
X011217Y005779D01*
X011217Y005643D01*
X011269Y005518D01*
X011365Y005423D01*
X011490Y005371D01*
X011625Y005371D01*
X011750Y005423D01*
X011846Y005518D01*
X011897Y005643D01*
X011897Y005765D01*
X012019Y005765D01*
X012144Y005817D01*
X012239Y005912D01*
X012291Y006037D01*
X012291Y006172D01*
X012239Y006297D01*
X012171Y006366D01*
X012171Y006428D01*
X012191Y006407D01*
X012316Y006355D01*
X012328Y006355D01*
X012399Y006284D01*
X012399Y006044D01*
X009395Y003039D01*
X009388Y003047D01*
X009263Y003098D01*
X009251Y003098D01*
X009003Y003347D01*
X009003Y004020D01*
X009251Y004269D01*
X009263Y004269D01*
X009388Y004320D01*
X009483Y004416D01*
X009535Y004541D01*
X009535Y004676D01*
X011032Y004676D01*
X010953Y004598D02*
X009535Y004598D01*
X009535Y004676D02*
X009483Y004801D01*
X009388Y004897D01*
X009263Y004949D01*
X009127Y004949D01*
X009003Y004897D01*
X008907Y004801D01*
X008855Y004676D01*
X008215Y004676D01*
X008215Y004598D02*
X008788Y004598D01*
X008855Y004665D02*
X008564Y004374D01*
X008485Y004295D01*
X008443Y004192D01*
X008443Y003907D01*
X008215Y004134D01*
X008215Y006258D01*
X008224Y006267D01*
X008275Y006391D01*
X008275Y006527D01*
X008224Y006652D01*
X008128Y006747D01*
X008003Y006799D01*
X007868Y006799D01*
X007743Y006747D01*
X007647Y006652D01*
X007595Y006527D01*
X007595Y006391D01*
X007647Y006267D01*
X007655Y006258D01*
X007655Y005007D01*
X007579Y005007D01*
X006858Y005728D01*
X006858Y005739D01*
X006806Y005864D01*
X006711Y005960D01*
X006586Y006012D01*
X006450Y006012D01*
X006325Y005960D01*
X006230Y005864D01*
X006178Y005739D01*
X006178Y005604D01*
X006230Y005479D01*
X006325Y005383D01*
X006450Y005332D01*
X006462Y005332D01*
X007225Y004568D01*
X007304Y004489D01*
X007407Y004447D01*
X007655Y004447D01*
X007655Y003962D01*
X007698Y003860D01*
X007777Y003781D01*
X008485Y003072D01*
X008564Y002993D01*
X008855Y002702D01*
X008855Y002691D01*
X008907Y002566D01*
X009003Y002470D01*
X009127Y002418D01*
X009263Y002418D01*
X009388Y002470D01*
X009396Y002478D01*
X016814Y002478D01*
X016808Y002494D02*
X016860Y002369D01*
X016955Y002273D01*
X017080Y002221D01*
X017216Y002221D01*
X017340Y002273D01*
X017409Y002341D01*
X020915Y002341D01*
X021330Y001926D01*
X021191Y001787D01*
X021140Y001665D01*
X021089Y001787D01*
X020940Y001936D01*
X020745Y002017D01*
X020535Y002017D01*
X020340Y001936D01*
X020191Y001787D01*
X020140Y001665D01*
X020089Y001787D01*
X019940Y001936D01*
X019745Y002017D01*
X019535Y002017D01*
X019340Y001936D01*
X019191Y001787D01*
X019128Y001635D01*
X019113Y001682D01*
X019076Y001754D01*
X019029Y001819D01*
X018972Y001876D01*
X018907Y001923D01*
X018836Y001959D01*
X018759Y001984D01*
X018680Y001997D01*
X018680Y001527D01*
X018600Y001527D01*
X018600Y001997D01*
X018600Y001997D01*
X018521Y001984D01*
X018444Y001959D01*
X018373Y001923D01*
X018308Y001876D01*
X018251Y001819D01*
X018204Y001754D01*
X018167Y001682D01*
X018152Y001635D01*
X018089Y001787D01*
X017940Y001936D01*
X017745Y002017D01*
X017535Y002017D01*
X017340Y001936D01*
X017191Y001787D01*
X017140Y001665D01*
X017089Y001787D01*
X016940Y001936D01*
X016745Y002017D01*
X016535Y002017D01*
X016340Y001936D01*
X016191Y001787D01*
X016128Y001635D01*
X016113Y001682D01*
X016076Y001754D01*
X016029Y001819D01*
X015972Y001876D01*
X015907Y001923D01*
X015836Y001959D01*
X015759Y001984D01*
X015680Y001997D01*
X015680Y001527D01*
X015600Y001527D01*
X015600Y001997D01*
X015600Y001997D01*
X015521Y001984D01*
X015444Y001959D01*
X015373Y001923D01*
X015308Y001876D01*
X015251Y001819D01*
X015204Y001754D01*
X015167Y001682D01*
X015152Y001635D01*
X015089Y001787D01*
X014940Y001936D01*
X014745Y002017D01*
X014535Y002017D01*
X014340Y001936D01*
X014191Y001787D01*
X014140Y001665D01*
X014089Y001787D01*
X013940Y001936D01*
X013745Y002017D01*
X013535Y002017D01*
X013340Y001936D01*
X013191Y001787D01*
X013140Y001665D01*
X013089Y001787D01*
X012940Y001936D01*
X012745Y002017D01*
X012535Y002017D01*
X012340Y001936D01*
X012191Y001787D01*
X012140Y001665D01*
X012089Y001787D01*
X011940Y001936D01*
X011745Y002017D01*
X011535Y002017D01*
X011340Y001936D01*
X011191Y001787D01*
X011128Y001635D01*
X011113Y001682D01*
X011076Y001754D01*
X011029Y001819D01*
X010972Y001876D01*
X010907Y001923D01*
X010836Y001959D01*
X010759Y001984D01*
X010680Y001997D01*
X010680Y001527D01*
X010600Y001527D01*
X010600Y001997D01*
X010600Y001997D01*
X010521Y001984D01*
X010444Y001959D01*
X010373Y001923D01*
X010308Y001876D01*
X010251Y001819D01*
X010204Y001754D01*
X010167Y001682D01*
X010143Y001606D01*
X010130Y001527D01*
X010130Y001527D01*
X010600Y001527D01*
X010600Y001447D01*
X010130Y001447D01*
X010130Y001447D01*
X010143Y001367D01*
X010167Y001291D01*
X010200Y001227D01*
X003580Y001227D01*
X003613Y001291D01*
X003637Y001367D01*
X003650Y001447D01*
X003180Y001447D01*
X003180Y001527D01*
X003100Y001527D01*
X003100Y001997D01*
X003100Y001997D01*
X003021Y001984D01*
X002944Y001959D01*
X002873Y001923D01*
X002808Y001876D01*
X002751Y001819D01*
X002704Y001754D01*
X002667Y001682D01*
X002652Y001635D01*
X002589Y001787D01*
X002440Y001936D01*
X002440Y001936D01*
X002448Y001929D02*
X002884Y001929D01*
X002782Y001850D02*
X002526Y001850D01*
X002596Y001772D02*
X002717Y001772D01*
X002673Y001693D02*
X002628Y001693D01*
X002440Y002007D02*
X011512Y002007D01*
X011332Y001929D02*
X010896Y001929D01*
X010998Y001850D02*
X011254Y001850D01*
X011184Y001772D02*
X011063Y001772D01*
X011107Y001693D02*
X011152Y001693D01*
X010680Y001693D02*
X010600Y001693D01*
X010600Y001615D02*
X010680Y001615D01*
X010680Y001536D02*
X010600Y001536D01*
X010600Y001458D02*
X003180Y001458D01*
X003180Y001527D02*
X003650Y001527D01*
X003637Y001606D01*
X003613Y001682D01*
X003576Y001754D01*
X003529Y001819D01*
X003472Y001876D01*
X003407Y001923D01*
X003336Y001959D01*
X003259Y001984D01*
X003180Y001997D01*
X003180Y001527D01*
X003180Y001536D02*
X003100Y001536D01*
X003100Y001615D02*
X003180Y001615D01*
X003180Y001693D02*
X003100Y001693D01*
X003100Y001772D02*
X003180Y001772D01*
X003180Y001850D02*
X003100Y001850D01*
X003100Y001929D02*
X003180Y001929D01*
X003180Y001997D02*
X003180Y001997D01*
X003396Y001929D02*
X010384Y001929D01*
X010282Y001850D02*
X003498Y001850D01*
X003563Y001772D02*
X010217Y001772D01*
X010173Y001693D02*
X003607Y001693D01*
X003635Y001615D02*
X010145Y001615D01*
X010131Y001536D02*
X003649Y001536D01*
X003650Y001527D02*
X003650Y001527D01*
X003650Y001447D02*
X003650Y001447D01*
X003639Y001379D02*
X010141Y001379D01*
X010164Y001301D02*
X003616Y001301D01*
X002440Y002086D02*
X021171Y002086D01*
X021092Y002164D02*
X002440Y002164D01*
X002440Y002243D02*
X017029Y002243D01*
X016907Y002321D02*
X002440Y002321D01*
X002440Y002400D02*
X016847Y002400D01*
X016808Y002494D02*
X016808Y002629D01*
X016852Y002735D01*
X014968Y002735D01*
X014900Y002667D01*
X014775Y002615D01*
X014639Y002615D01*
X014514Y002667D01*
X014419Y002763D01*
X014367Y002888D01*
X014367Y003023D01*
X014419Y003148D01*
X014514Y003243D01*
X014639Y003295D01*
X014761Y003295D01*
X014761Y003417D01*
X014812Y003541D01*
X014908Y003637D01*
X015033Y003689D01*
X015168Y003689D01*
X015293Y003637D01*
X015361Y003569D01*
X016379Y003569D01*
X016335Y003675D01*
X016335Y003810D01*
X016387Y003935D01*
X016483Y004031D01*
X016537Y004053D01*
X014179Y004053D01*
X014076Y004096D01*
X013525Y004647D01*
X013525Y004647D01*
X013446Y004726D01*
X013446Y004726D01*
X012660Y005512D01*
X009747Y002600D01*
X009669Y002521D01*
X009566Y002478D01*
X009396Y002478D01*
X009704Y002557D02*
X016808Y002557D01*
X016810Y002635D02*
X014823Y002635D01*
X014946Y002714D02*
X016843Y002714D01*
X017388Y002321D02*
X020935Y002321D01*
X021014Y002243D02*
X017267Y002243D01*
X017332Y001929D02*
X016948Y001929D01*
X017026Y001850D02*
X017254Y001850D01*
X017184Y001772D02*
X017096Y001772D01*
X017128Y001693D02*
X017152Y001693D01*
X017512Y002007D02*
X016768Y002007D01*
X016512Y002007D02*
X014768Y002007D01*
X014948Y001929D02*
X015384Y001929D01*
X015282Y001850D02*
X015026Y001850D01*
X015096Y001772D02*
X015217Y001772D01*
X015173Y001693D02*
X015128Y001693D01*
X015600Y001693D02*
X015680Y001693D01*
X015680Y001615D02*
X015600Y001615D01*
X015600Y001536D02*
X015680Y001536D01*
X015680Y001772D02*
X015600Y001772D01*
X015600Y001850D02*
X015680Y001850D01*
X015680Y001929D02*
X015600Y001929D01*
X015680Y001997D02*
X015680Y001997D01*
X015896Y001929D02*
X016332Y001929D01*
X016254Y001850D02*
X015998Y001850D01*
X016063Y001772D02*
X016184Y001772D01*
X016152Y001693D02*
X016107Y001693D01*
X014512Y002007D02*
X013768Y002007D01*
X013948Y001929D02*
X014332Y001929D01*
X014254Y001850D02*
X014026Y001850D01*
X014096Y001772D02*
X014184Y001772D01*
X014152Y001693D02*
X014128Y001693D01*
X013512Y002007D02*
X012768Y002007D01*
X012948Y001929D02*
X013332Y001929D01*
X013254Y001850D02*
X013026Y001850D01*
X013096Y001772D02*
X013184Y001772D01*
X013152Y001693D02*
X013128Y001693D01*
X012512Y002007D02*
X011768Y002007D01*
X011948Y001929D02*
X012332Y001929D01*
X012254Y001850D02*
X012026Y001850D01*
X012096Y001772D02*
X012184Y001772D01*
X012152Y001693D02*
X012128Y001693D01*
X010680Y001772D02*
X010600Y001772D01*
X010600Y001850D02*
X010680Y001850D01*
X010680Y001929D02*
X010600Y001929D01*
X010680Y001997D02*
X010680Y001997D01*
X009783Y002635D02*
X014591Y002635D01*
X014468Y002714D02*
X009861Y002714D01*
X009940Y002792D02*
X014406Y002792D01*
X014374Y002871D02*
X010018Y002871D01*
X010097Y002949D02*
X014367Y002949D01*
X014369Y003028D02*
X010175Y003028D01*
X010254Y003106D02*
X014401Y003106D01*
X014456Y003185D02*
X010332Y003185D01*
X010411Y003263D02*
X014562Y003263D01*
X014761Y003342D02*
X010489Y003342D01*
X010568Y003420D02*
X014762Y003420D01*
X014795Y003499D02*
X010646Y003499D01*
X010725Y003577D02*
X014848Y003577D01*
X014953Y003656D02*
X010803Y003656D01*
X010882Y003734D02*
X016335Y003734D01*
X016336Y003813D02*
X010960Y003813D01*
X011039Y003891D02*
X016369Y003891D01*
X016422Y003970D02*
X011117Y003970D01*
X011196Y004048D02*
X016525Y004048D01*
X016343Y003656D02*
X015248Y003656D01*
X015353Y003577D02*
X016376Y003577D01*
X016947Y004613D02*
X014452Y004613D01*
X014506Y004635D01*
X014601Y004731D01*
X014653Y004856D01*
X014653Y004991D01*
X014601Y005116D01*
X014506Y005212D01*
X014381Y005264D01*
X014246Y005264D01*
X014121Y005212D01*
X014073Y005164D01*
X013799Y005164D01*
X013056Y005908D01*
X013307Y006159D01*
X013601Y006159D01*
X013704Y006202D01*
X013783Y006281D01*
X014172Y006670D01*
X014184Y006670D01*
X014309Y006722D01*
X014405Y006818D01*
X014456Y006943D01*
X014456Y007078D01*
X014405Y007203D01*
X014309Y007299D01*
X014184Y007350D01*
X014049Y007350D01*
X013924Y007299D01*
X013828Y007203D01*
X013776Y007078D01*
X013776Y007066D01*
X013430Y006719D01*
X013135Y006719D01*
X013033Y006677D01*
X012959Y006604D01*
X012959Y009119D01*
X013834Y009993D01*
X013940Y010037D01*
X014089Y010186D01*
X014140Y010309D01*
X014191Y010186D01*
X014340Y010037D01*
X014535Y009957D01*
X014745Y009957D01*
X014940Y010037D01*
X015089Y010186D01*
X015140Y010309D01*
X015191Y010186D01*
X015340Y010037D01*
X015535Y009957D01*
X015745Y009957D01*
X015940Y010037D01*
X016089Y010186D01*
X016140Y010309D01*
X016191Y010186D01*
X016340Y010037D01*
X016535Y009957D01*
X016745Y009957D01*
X016940Y010037D01*
X017089Y010186D01*
X017152Y010338D01*
X017167Y010291D01*
X017204Y010219D01*
X017251Y010154D01*
X017308Y010098D01*
X017373Y010050D01*
X017444Y010014D01*
X016884Y010014D01*
X016996Y010093D02*
X017315Y010093D01*
X017239Y010171D02*
X017074Y010171D01*
X017116Y010250D02*
X017188Y010250D01*
X017155Y010328D02*
X017148Y010328D01*
X017444Y010014D02*
X017521Y009989D01*
X017600Y009977D01*
X017600Y010447D01*
X017680Y010447D01*
X017680Y009977D01*
X017680Y009977D01*
X017759Y009989D01*
X017836Y010014D01*
X018396Y010014D01*
X018340Y010037D02*
X018535Y009957D01*
X018745Y009957D01*
X018940Y010037D01*
X019089Y010186D01*
X019152Y010338D01*
X019167Y010291D01*
X019204Y010219D01*
X019251Y010154D01*
X019308Y010098D01*
X019373Y010050D01*
X019444Y010014D01*
X018884Y010014D01*
X018996Y010093D02*
X019315Y010093D01*
X019239Y010171D02*
X019074Y010171D01*
X019116Y010250D02*
X019188Y010250D01*
X019155Y010328D02*
X019148Y010328D01*
X019600Y010328D02*
X019680Y010328D01*
X019680Y010250D02*
X019600Y010250D01*
X019600Y010171D02*
X019680Y010171D01*
X019680Y010093D02*
X019600Y010093D01*
X019600Y010014D02*
X019680Y010014D01*
X019680Y009977D02*
X019759Y009989D01*
X019836Y010014D01*
X020396Y010014D01*
X020340Y010037D02*
X020535Y009957D01*
X020745Y009957D01*
X020940Y010037D01*
X021089Y010186D01*
X021140Y010309D01*
X021191Y010186D01*
X021340Y010037D01*
X021535Y009957D01*
X021745Y009957D01*
X021940Y010037D01*
X022089Y010186D01*
X022140Y010309D01*
X022191Y010186D01*
X022340Y010037D01*
X022360Y010029D01*
X022360Y009537D01*
X022339Y009487D01*
X021914Y009062D01*
X018175Y009062D01*
X018167Y009070D01*
X018042Y009122D01*
X017907Y009122D01*
X017782Y009070D01*
X017686Y008975D01*
X017635Y008850D01*
X017635Y008714D01*
X017686Y008589D01*
X017782Y008494D01*
X017791Y008490D01*
X017214Y008490D01*
X017085Y008361D01*
X016822Y008098D01*
X016726Y008098D01*
X016601Y008047D01*
X016505Y007951D01*
X016454Y007826D01*
X016454Y007691D01*
X016505Y007566D01*
X016601Y007470D01*
X016726Y007418D01*
X016861Y007418D01*
X016986Y007470D01*
X017082Y007566D01*
X017134Y007691D01*
X017134Y007787D01*
X017162Y007816D01*
X017162Y007809D01*
X017214Y007684D01*
X017283Y007614D01*
X017243Y007574D01*
X016901Y007232D01*
X016805Y007232D01*
X016680Y007180D01*
X016584Y007085D01*
X016532Y006960D01*
X016532Y006825D01*
X016584Y006700D01*
X016642Y006642D01*
X016608Y006642D01*
X016483Y006590D01*
X016387Y006494D01*
X016335Y006369D01*
X016335Y006234D01*
X016387Y006109D01*
X016483Y006013D01*
X016608Y005962D01*
X016743Y005962D01*
X016868Y006013D01*
X016936Y006082D01*
X016963Y006082D01*
X017655Y006774D01*
X017635Y006724D01*
X017635Y006712D01*
X017068Y006145D01*
X016989Y006067D01*
X016947Y005964D01*
X016947Y004613D01*
X016947Y004676D02*
X014547Y004676D01*
X014611Y004755D02*
X016947Y004755D01*
X016947Y004833D02*
X014644Y004833D01*
X014653Y004912D02*
X016947Y004912D01*
X016947Y004990D02*
X014653Y004990D01*
X014621Y005069D02*
X016947Y005069D01*
X016947Y005147D02*
X014571Y005147D01*
X014473Y005226D02*
X016947Y005226D01*
X016947Y005304D02*
X013659Y005304D01*
X013581Y005383D02*
X016947Y005383D01*
X016947Y005461D02*
X013502Y005461D01*
X013424Y005540D02*
X016947Y005540D01*
X016947Y005618D02*
X013345Y005618D01*
X013267Y005697D02*
X016947Y005697D01*
X016947Y005775D02*
X013188Y005775D01*
X013110Y005854D02*
X016947Y005854D01*
X016947Y005932D02*
X013080Y005932D01*
X013158Y006011D02*
X016489Y006011D01*
X016407Y006089D02*
X013237Y006089D01*
X013621Y006168D02*
X016363Y006168D01*
X016335Y006246D02*
X013748Y006246D01*
X013827Y006325D02*
X016335Y006325D01*
X016349Y006403D02*
X013905Y006403D01*
X013984Y006482D02*
X016382Y006482D01*
X016453Y006560D02*
X014062Y006560D01*
X014141Y006639D02*
X016601Y006639D01*
X016577Y006717D02*
X014297Y006717D01*
X014383Y006796D02*
X016544Y006796D01*
X016532Y006874D02*
X014428Y006874D01*
X014456Y006953D02*
X016532Y006953D01*
X016562Y007031D02*
X014456Y007031D01*
X014443Y007110D02*
X016609Y007110D01*
X016698Y007188D02*
X014411Y007188D01*
X014341Y007267D02*
X016936Y007267D01*
X017014Y007345D02*
X014196Y007345D01*
X014036Y007345D02*
X012959Y007345D01*
X012959Y007267D02*
X013892Y007267D01*
X013822Y007188D02*
X012959Y007188D01*
X012959Y007110D02*
X013790Y007110D01*
X013741Y007031D02*
X012959Y007031D01*
X012959Y006953D02*
X013663Y006953D01*
X013584Y006874D02*
X012959Y006874D01*
X012959Y006796D02*
X013506Y006796D01*
X013130Y006717D02*
X012959Y006717D01*
X012959Y006639D02*
X012994Y006639D01*
X012359Y006325D02*
X012212Y006325D01*
X012201Y006403D02*
X012171Y006403D01*
X012260Y006246D02*
X012399Y006246D01*
X012399Y006168D02*
X012291Y006168D01*
X012291Y006089D02*
X012399Y006089D01*
X012366Y006011D02*
X012280Y006011D01*
X012288Y005932D02*
X012248Y005932D01*
X012209Y005854D02*
X012181Y005854D01*
X012131Y005775D02*
X012044Y005775D01*
X012052Y005697D02*
X011897Y005697D01*
X011887Y005618D02*
X011974Y005618D01*
X011895Y005540D02*
X011854Y005540D01*
X011817Y005461D02*
X011788Y005461D01*
X011738Y005383D02*
X011653Y005383D01*
X011660Y005304D02*
X008215Y005304D01*
X008215Y005226D02*
X011581Y005226D01*
X011503Y005147D02*
X008215Y005147D01*
X008215Y005069D02*
X011424Y005069D01*
X011346Y004990D02*
X008215Y004990D01*
X008215Y004912D02*
X009038Y004912D01*
X008939Y004833D02*
X008215Y004833D01*
X008215Y004755D02*
X008888Y004755D01*
X008855Y004676D02*
X008855Y004665D01*
X008710Y004519D02*
X008215Y004519D01*
X008215Y004441D02*
X008631Y004441D01*
X008553Y004362D02*
X008215Y004362D01*
X008215Y004284D02*
X008481Y004284D01*
X008448Y004205D02*
X008215Y004205D01*
X008223Y004127D02*
X008443Y004127D01*
X008443Y004048D02*
X008301Y004048D01*
X008380Y003970D02*
X008443Y003970D01*
X007902Y003656D02*
X002440Y003656D01*
X002440Y003734D02*
X007823Y003734D01*
X007745Y003813D02*
X002440Y003813D01*
X002440Y003891D02*
X007685Y003891D01*
X007655Y003970D02*
X002440Y003970D01*
X002440Y004048D02*
X007655Y004048D01*
X007655Y004127D02*
X002440Y004127D01*
X002440Y004205D02*
X007655Y004205D01*
X007655Y004284D02*
X002440Y004284D01*
X002440Y004362D02*
X007655Y004362D01*
X007655Y004441D02*
X002440Y004441D01*
X002887Y004519D02*
X007275Y004519D01*
X007196Y004598D02*
X002966Y004598D01*
X003044Y004676D02*
X007118Y004676D01*
X007039Y004755D02*
X003123Y004755D01*
X003201Y004833D02*
X006960Y004833D01*
X006882Y004912D02*
X003280Y004912D01*
X003358Y004990D02*
X006803Y004990D01*
X006725Y005069D02*
X003437Y005069D01*
X003515Y005147D02*
X006646Y005147D01*
X006568Y005226D02*
X003594Y005226D01*
X003672Y005304D02*
X006489Y005304D01*
X006327Y005383D02*
X003751Y005383D01*
X003829Y005461D02*
X006248Y005461D01*
X006205Y005540D02*
X003908Y005540D01*
X003986Y005618D02*
X006178Y005618D01*
X006178Y005697D02*
X004065Y005697D01*
X004143Y005775D02*
X006193Y005775D01*
X006225Y005854D02*
X004222Y005854D01*
X004300Y005932D02*
X006298Y005932D01*
X006448Y006011D02*
X004379Y006011D01*
X004457Y006089D02*
X007655Y006089D01*
X007655Y006011D02*
X006588Y006011D01*
X006738Y005932D02*
X007655Y005932D01*
X007655Y005854D02*
X006811Y005854D01*
X006843Y005775D02*
X007655Y005775D01*
X007655Y005697D02*
X006889Y005697D01*
X006967Y005618D02*
X007655Y005618D01*
X007655Y005540D02*
X007046Y005540D01*
X007124Y005461D02*
X007655Y005461D01*
X007655Y005383D02*
X007203Y005383D01*
X007281Y005304D02*
X007655Y005304D01*
X007655Y005226D02*
X007360Y005226D01*
X007438Y005147D02*
X007655Y005147D01*
X007655Y005069D02*
X007517Y005069D01*
X008215Y005383D02*
X011462Y005383D01*
X011326Y005461D02*
X008215Y005461D01*
X008215Y005540D02*
X011260Y005540D01*
X011228Y005618D02*
X008215Y005618D01*
X008215Y005697D02*
X011217Y005697D01*
X011217Y005775D02*
X008215Y005775D01*
X008215Y005854D02*
X011248Y005854D01*
X011298Y005932D02*
X008215Y005932D01*
X008215Y006011D02*
X011337Y006011D01*
X011337Y006089D02*
X008215Y006089D01*
X008215Y006168D02*
X011337Y006168D01*
X011337Y006246D02*
X008215Y006246D01*
X008248Y006325D02*
X011337Y006325D01*
X011337Y006403D02*
X008275Y006403D01*
X008275Y006482D02*
X011337Y006482D01*
X011337Y006560D02*
X008261Y006560D01*
X008229Y006639D02*
X011337Y006639D01*
X011337Y006717D02*
X008158Y006717D01*
X008011Y006796D02*
X011337Y006796D01*
X011337Y006874D02*
X005242Y006874D01*
X005164Y006796D02*
X007859Y006796D01*
X007713Y006717D02*
X005085Y006717D01*
X005007Y006639D02*
X007642Y006639D01*
X007609Y006560D02*
X004928Y006560D01*
X004850Y006482D02*
X007595Y006482D01*
X007595Y006403D02*
X004771Y006403D01*
X004693Y006325D02*
X007623Y006325D01*
X007655Y006246D02*
X004614Y006246D01*
X004536Y006168D02*
X007655Y006168D01*
X006950Y007031D02*
X011337Y007031D01*
X011337Y006953D02*
X005321Y006953D01*
X004764Y007188D02*
X002440Y007188D01*
X002440Y007110D02*
X004686Y007110D01*
X004607Y007031D02*
X002440Y007031D01*
X002440Y006953D02*
X004529Y006953D01*
X004450Y006874D02*
X002440Y006874D01*
X002440Y006796D02*
X004372Y006796D01*
X004293Y006717D02*
X002440Y006717D01*
X002140Y006987D02*
X000380Y006987D01*
X000380Y010747D01*
X001700Y010747D01*
X001667Y010682D01*
X001643Y010606D01*
X001630Y010527D01*
X001630Y010527D01*
X002100Y010527D01*
X002100Y010447D01*
X001630Y010447D01*
X001630Y010447D01*
X001643Y010367D01*
X001667Y010291D01*
X001704Y010219D01*
X001751Y010154D01*
X001808Y010098D01*
X001873Y010050D01*
X001944Y010014D01*
X000380Y010014D01*
X000380Y009936D02*
X002140Y009936D01*
X002100Y009977D02*
X002100Y010447D01*
X002140Y010447D01*
X002140Y006987D01*
X002140Y007031D02*
X000380Y007031D01*
X000380Y007110D02*
X002140Y007110D01*
X002140Y007188D02*
X000380Y007188D01*
X000380Y007267D02*
X002140Y007267D01*
X002140Y007345D02*
X000380Y007345D01*
X000380Y007424D02*
X002140Y007424D01*
X002140Y007502D02*
X000380Y007502D01*
X000380Y007581D02*
X002140Y007581D01*
X002140Y007659D02*
X000380Y007659D01*
X000380Y007738D02*
X002140Y007738D01*
X002140Y007816D02*
X000380Y007816D01*
X000380Y007895D02*
X002140Y007895D01*
X002140Y007973D02*
X000380Y007973D01*
X000380Y008052D02*
X002140Y008052D01*
X002140Y008130D02*
X000380Y008130D01*
X000380Y008209D02*
X002140Y008209D01*
X002140Y008287D02*
X000380Y008287D01*
X000380Y008366D02*
X002140Y008366D01*
X002140Y008444D02*
X000380Y008444D01*
X000380Y008523D02*
X002140Y008523D01*
X002140Y008601D02*
X000380Y008601D01*
X000380Y008680D02*
X002140Y008680D01*
X002140Y008758D02*
X000380Y008758D01*
X000380Y008837D02*
X002140Y008837D01*
X002140Y008915D02*
X000380Y008915D01*
X000380Y008994D02*
X002140Y008994D01*
X002140Y009072D02*
X000380Y009072D01*
X000380Y009151D02*
X002140Y009151D01*
X002140Y009229D02*
X000380Y009229D01*
X000380Y009308D02*
X002140Y009308D01*
X002140Y009386D02*
X000380Y009386D01*
X000380Y009465D02*
X002140Y009465D01*
X002140Y009543D02*
X000380Y009543D01*
X000380Y009622D02*
X002140Y009622D01*
X002140Y009700D02*
X000380Y009700D01*
X000380Y009779D02*
X002140Y009779D01*
X002140Y009857D02*
X000380Y009857D01*
X000380Y010093D02*
X001815Y010093D01*
X001739Y010171D02*
X000380Y010171D01*
X000380Y010250D02*
X001688Y010250D01*
X001655Y010328D02*
X000380Y010328D01*
X000380Y010407D02*
X001636Y010407D01*
X001636Y010564D02*
X000380Y010564D01*
X000380Y010642D02*
X001654Y010642D01*
X001687Y010721D02*
X000380Y010721D01*
X000380Y010485D02*
X002100Y010485D01*
X002100Y010407D02*
X002140Y010407D01*
X002140Y010328D02*
X002100Y010328D01*
X002100Y010250D02*
X002140Y010250D01*
X002140Y010171D02*
X002100Y010171D01*
X002100Y010093D02*
X002140Y010093D01*
X002140Y010014D02*
X002100Y010014D01*
X002100Y009977D02*
X002021Y009989D01*
X001944Y010014D01*
X002100Y009977D02*
X002100Y009977D01*
X002440Y010014D02*
X002840Y010014D01*
X002840Y010037D02*
X002840Y010037D01*
X002784Y010093D02*
X002465Y010093D01*
X002541Y010171D02*
X002706Y010171D01*
X002664Y010250D02*
X002592Y010250D01*
X002625Y010328D02*
X002632Y010328D01*
X003140Y010328D02*
X003180Y010328D01*
X003180Y010250D02*
X003140Y010250D01*
X003140Y010171D02*
X003180Y010171D01*
X003180Y010093D02*
X003140Y010093D01*
X003140Y010014D02*
X003180Y010014D01*
X003180Y009977D02*
X003259Y009989D01*
X003336Y010014D01*
X005640Y010014D01*
X005640Y009936D02*
X003140Y009936D01*
X003180Y009977D02*
X003180Y009977D01*
X003180Y010447D01*
X003180Y010527D01*
X003650Y010527D01*
X003637Y010606D01*
X003613Y010682D01*
X003580Y010747D01*
X005640Y010747D01*
X005640Y009487D01*
X003140Y009487D01*
X003140Y010447D01*
X003180Y010447D01*
X003650Y010447D01*
X003650Y010447D01*
X003637Y010367D01*
X003613Y010291D01*
X003576Y010219D01*
X003529Y010154D01*
X003472Y010098D01*
X003407Y010050D01*
X003336Y010014D01*
X003465Y010093D02*
X005640Y010093D01*
X005640Y010171D02*
X003541Y010171D01*
X003592Y010250D02*
X005640Y010250D01*
X005640Y010328D02*
X003625Y010328D01*
X003644Y010407D02*
X005640Y010407D01*
X005640Y010485D02*
X003180Y010485D01*
X003180Y010407D02*
X003140Y010407D01*
X003650Y010527D02*
X003650Y010527D01*
X003644Y010564D02*
X005640Y010564D01*
X005640Y010642D02*
X003626Y010642D01*
X003593Y010721D02*
X005640Y010721D01*
X005940Y010721D02*
X010187Y010721D01*
X010154Y010642D02*
X005940Y010642D01*
X005940Y010564D02*
X010136Y010564D01*
X010136Y010407D02*
X005940Y010407D01*
X005940Y010485D02*
X010600Y010485D01*
X010600Y010447D02*
X010680Y010447D01*
X010680Y009977D01*
X010680Y009977D01*
X010759Y009989D01*
X010836Y010014D01*
X010965Y010093D02*
X011284Y010093D01*
X011206Y010171D02*
X011041Y010171D01*
X011092Y010250D02*
X011164Y010250D01*
X011132Y010328D02*
X011125Y010328D01*
X010680Y010328D02*
X010600Y010328D01*
X010600Y010250D02*
X010680Y010250D01*
X010680Y010171D02*
X010600Y010171D01*
X010600Y010093D02*
X010680Y010093D01*
X010680Y010014D02*
X010600Y010014D01*
X010600Y009977D02*
X010600Y010447D01*
X010600Y010407D02*
X010680Y010407D01*
X010239Y010171D02*
X005940Y010171D01*
X005940Y010093D02*
X010315Y010093D01*
X010444Y010014D02*
X010521Y009989D01*
X010600Y009977D01*
X010600Y009977D01*
X010188Y010250D02*
X005940Y010250D01*
X005940Y010328D02*
X010155Y010328D01*
X011337Y009857D02*
X005940Y009857D01*
X005940Y009779D02*
X011337Y009779D01*
X011337Y009700D02*
X005940Y009700D01*
X005940Y009622D02*
X011337Y009622D01*
X011337Y009543D02*
X005940Y009543D01*
X005940Y009465D02*
X011337Y009465D01*
X011337Y009386D02*
X005940Y009386D01*
X005940Y009308D02*
X011337Y009308D01*
X011337Y009229D02*
X005940Y009229D01*
X005640Y009543D02*
X003140Y009543D01*
X003140Y009622D02*
X005640Y009622D01*
X005640Y009700D02*
X003140Y009700D01*
X003140Y009779D02*
X005640Y009779D01*
X005640Y009857D02*
X003140Y009857D01*
X002840Y009857D02*
X002440Y009857D01*
X002440Y009779D02*
X002840Y009779D01*
X002840Y009700D02*
X002440Y009700D01*
X002440Y009622D02*
X002840Y009622D01*
X002840Y009543D02*
X002440Y009543D01*
X002440Y009465D02*
X002840Y009465D01*
X002840Y009386D02*
X002440Y009386D01*
X002440Y009308D02*
X002840Y009308D01*
X002840Y009229D02*
X002440Y009229D01*
X002440Y009151D02*
X011337Y009151D01*
X011337Y009072D02*
X002440Y009072D01*
X002440Y008994D02*
X011337Y008994D01*
X011337Y008915D02*
X002440Y008915D01*
X002440Y008837D02*
X011337Y008837D01*
X011337Y008758D02*
X002440Y008758D01*
X002440Y008680D02*
X011337Y008680D01*
X011337Y008601D02*
X002440Y008601D01*
X002440Y008523D02*
X011337Y008523D01*
X011337Y008444D02*
X002440Y008444D01*
X002440Y008366D02*
X007493Y008366D01*
X007353Y008287D02*
X002440Y008287D01*
X002440Y008209D02*
X007285Y008209D01*
X007253Y008130D02*
X002440Y008130D01*
X002440Y008052D02*
X007203Y008052D01*
X007124Y007973D02*
X002440Y007973D01*
X002440Y007895D02*
X007046Y007895D01*
X006967Y007816D02*
X002440Y007816D01*
X002440Y007738D02*
X006889Y007738D01*
X006810Y007659D02*
X002440Y007659D01*
X002440Y007581D02*
X006732Y007581D01*
X007210Y007267D02*
X011337Y007267D01*
X011337Y007345D02*
X007288Y007345D01*
X007367Y007424D02*
X011337Y007424D01*
X011337Y007502D02*
X007445Y007502D01*
X007524Y007581D02*
X011337Y007581D01*
X011337Y007659D02*
X007602Y007659D01*
X007754Y007738D02*
X011337Y007738D01*
X011337Y007816D02*
X007844Y007816D01*
X007891Y007895D02*
X011337Y007895D01*
X011337Y007973D02*
X007921Y007973D01*
X007921Y008052D02*
X011337Y008052D01*
X011337Y008130D02*
X007909Y008130D01*
X007877Y008209D02*
X011337Y008209D01*
X011337Y008287D02*
X007808Y008287D01*
X007668Y008366D02*
X011337Y008366D01*
X012959Y008366D02*
X017090Y008366D01*
X017168Y008444D02*
X012959Y008444D01*
X012959Y008523D02*
X017753Y008523D01*
X017682Y008601D02*
X012959Y008601D01*
X012959Y008680D02*
X017649Y008680D01*
X017635Y008758D02*
X012959Y008758D01*
X012959Y008837D02*
X017635Y008837D01*
X017662Y008915D02*
X012959Y008915D01*
X012959Y008994D02*
X017706Y008994D01*
X017787Y009072D02*
X012959Y009072D01*
X012991Y009151D02*
X022003Y009151D01*
X022081Y009229D02*
X013070Y009229D01*
X013148Y009308D02*
X022160Y009308D01*
X022238Y009386D02*
X013227Y009386D01*
X013305Y009465D02*
X022317Y009465D01*
X022360Y009543D02*
X013384Y009543D01*
X013462Y009622D02*
X022360Y009622D01*
X022360Y009700D02*
X013541Y009700D01*
X013619Y009779D02*
X022360Y009779D01*
X022360Y009857D02*
X013698Y009857D01*
X013776Y009936D02*
X022360Y009936D01*
X022360Y010014D02*
X021884Y010014D01*
X021996Y010093D02*
X022284Y010093D01*
X022206Y010171D02*
X022074Y010171D01*
X022116Y010250D02*
X022164Y010250D01*
X022920Y010029D02*
X022940Y010037D01*
X023089Y010186D01*
X023152Y010338D01*
X023167Y010291D01*
X023204Y010219D01*
X023251Y010154D01*
X023308Y010098D01*
X023373Y010050D01*
X023444Y010014D01*
X022920Y010014D01*
X022920Y010029D02*
X022920Y009593D01*
X022948Y009565D01*
X023000Y009440D01*
X023000Y009305D01*
X022948Y009180D01*
X022852Y009084D01*
X022798Y009062D01*
X024552Y009062D01*
X024603Y009114D01*
X024603Y009125D01*
X024655Y009250D01*
X024751Y009346D01*
X024876Y009398D01*
X025011Y009398D01*
X025136Y009346D01*
X025231Y009250D01*
X025283Y009125D01*
X025283Y008990D01*
X025231Y008865D01*
X025136Y008769D01*
X025011Y008718D01*
X024999Y008718D01*
X024905Y008623D01*
X024905Y008623D01*
X024826Y008545D01*
X024723Y008502D01*
X021058Y008502D01*
X021098Y008463D01*
X021149Y008338D01*
X021149Y008202D01*
X021098Y008078D01*
X021002Y007982D01*
X020877Y007930D01*
X020756Y007930D01*
X020756Y007809D01*
X020712Y007703D01*
X022517Y007703D01*
X022585Y007771D01*
X022710Y007823D01*
X022845Y007823D01*
X022970Y007771D01*
X023066Y007675D01*
X023118Y007550D01*
X023118Y007415D01*
X023111Y007400D01*
X023183Y007429D01*
X023318Y007429D01*
X023443Y007377D01*
X023511Y007309D01*
X024682Y007309D01*
X024751Y007377D01*
X024876Y007429D01*
X025011Y007429D01*
X025136Y007377D01*
X025231Y007282D01*
X025283Y007157D01*
X025283Y007021D01*
X025231Y006896D01*
X025136Y006801D01*
X025011Y006749D01*
X024876Y006749D01*
X024751Y006801D01*
X024682Y006869D01*
X023511Y006869D01*
X023443Y006801D01*
X023318Y006749D01*
X023183Y006749D01*
X023058Y006801D01*
X022989Y006869D01*
X022015Y006869D01*
X021947Y006801D01*
X021822Y006749D01*
X021687Y006749D01*
X021562Y006801D01*
X021493Y006869D01*
X018242Y006869D01*
X018263Y006849D01*
X018315Y006724D01*
X018315Y006588D01*
X018263Y006463D01*
X018167Y006368D01*
X018042Y006316D01*
X018031Y006316D01*
X017507Y005792D01*
X017507Y004613D01*
X022380Y004613D01*
X022388Y004621D01*
X022513Y004673D01*
X022649Y004673D01*
X022774Y004621D01*
X022782Y004613D01*
X024152Y004613D01*
X024160Y004621D01*
X024285Y004673D01*
X024420Y004673D01*
X024545Y004621D01*
X024553Y004613D01*
X025923Y004613D01*
X025932Y004621D01*
X026057Y004673D01*
X026192Y004673D01*
X026317Y004621D01*
X026412Y004526D01*
X026464Y004401D01*
X026464Y004265D01*
X026412Y004141D01*
X026317Y004045D01*
X026192Y003993D01*
X026057Y003993D01*
X025932Y004045D01*
X025923Y004053D01*
X024688Y004053D01*
X024742Y004031D01*
X024838Y003935D01*
X024889Y003810D01*
X024889Y003675D01*
X024838Y003550D01*
X024742Y003454D01*
X024617Y003403D01*
X024482Y003403D01*
X024357Y003454D01*
X024289Y003523D01*
X020515Y003523D01*
X020559Y003417D01*
X020559Y003281D01*
X020507Y003156D01*
X020411Y003061D01*
X020286Y003009D01*
X020190Y003009D01*
X020045Y002864D01*
X019962Y002781D01*
X020915Y002781D01*
X021097Y002781D01*
X021731Y002148D01*
X021860Y002019D01*
X021860Y001969D01*
X021940Y001936D01*
X022089Y001787D01*
X022140Y001665D01*
X022191Y001787D01*
X022340Y001936D01*
X022535Y002017D01*
X022745Y002017D01*
X022940Y001936D01*
X023089Y001787D01*
X023152Y001635D01*
X023167Y001682D01*
X023204Y001754D01*
X023251Y001819D01*
X023308Y001876D01*
X023373Y001923D01*
X023444Y001959D01*
X023521Y001984D01*
X023600Y001997D01*
X023600Y001997D01*
X023600Y001527D01*
X023680Y001527D01*
X023680Y001997D01*
X023680Y001997D01*
X023759Y001984D01*
X023836Y001959D01*
X023907Y001923D01*
X023972Y001876D01*
X024029Y001819D01*
X024076Y001754D01*
X024113Y001682D01*
X024137Y001606D01*
X024150Y001527D01*
X024150Y001527D01*
X023680Y001527D01*
X023680Y001447D01*
X024150Y001447D01*
X024150Y001447D01*
X024137Y001367D01*
X024113Y001291D01*
X024080Y001227D01*
X026900Y001227D01*
X026900Y010747D01*
X024080Y010747D01*
X024113Y010682D01*
X024137Y010606D01*
X024150Y010527D01*
X024150Y010527D01*
X023680Y010527D01*
X023680Y010447D01*
X024150Y010447D01*
X024150Y010447D01*
X024137Y010367D01*
X024113Y010291D01*
X024076Y010219D01*
X024029Y010154D01*
X023972Y010098D01*
X023907Y010050D01*
X023836Y010014D01*
X026900Y010014D01*
X026900Y009936D02*
X022920Y009936D01*
X022920Y009857D02*
X026900Y009857D01*
X026900Y009779D02*
X022920Y009779D01*
X022920Y009700D02*
X026900Y009700D01*
X026900Y009622D02*
X022920Y009622D01*
X022957Y009543D02*
X026900Y009543D01*
X026900Y009465D02*
X022990Y009465D01*
X023000Y009386D02*
X024848Y009386D01*
X024712Y009308D02*
X023000Y009308D01*
X022968Y009229D02*
X024646Y009229D01*
X024614Y009151D02*
X022919Y009151D01*
X022823Y009072D02*
X024562Y009072D01*
X025038Y009386D02*
X026900Y009386D01*
X026900Y009308D02*
X025174Y009308D01*
X025240Y009229D02*
X026900Y009229D01*
X026900Y009151D02*
X025273Y009151D01*
X025283Y009072D02*
X026900Y009072D01*
X026900Y008994D02*
X025283Y008994D01*
X025252Y008915D02*
X026900Y008915D01*
X026900Y008837D02*
X025203Y008837D01*
X025109Y008758D02*
X026900Y008758D01*
X026900Y008680D02*
X024961Y008680D01*
X024883Y008601D02*
X026900Y008601D01*
X026900Y008523D02*
X024773Y008523D01*
X023004Y007738D02*
X026900Y007738D01*
X026900Y007816D02*
X022861Y007816D01*
X022694Y007816D02*
X020756Y007816D01*
X020756Y007895D02*
X026900Y007895D01*
X026900Y007973D02*
X020981Y007973D01*
X021072Y008052D02*
X026900Y008052D01*
X026900Y008130D02*
X021119Y008130D01*
X021149Y008209D02*
X026900Y008209D01*
X026900Y008287D02*
X021149Y008287D01*
X021138Y008366D02*
X026900Y008366D01*
X026900Y008444D02*
X021105Y008444D01*
X021924Y009072D02*
X018162Y009072D01*
X017600Y009977D02*
X017600Y009977D01*
X017600Y010014D02*
X017680Y010014D01*
X017680Y010093D02*
X017600Y010093D01*
X017600Y010171D02*
X017680Y010171D01*
X017680Y010250D02*
X017600Y010250D01*
X017600Y010328D02*
X017680Y010328D01*
X017680Y010407D02*
X017600Y010407D01*
X017972Y010098D02*
X018029Y010154D01*
X018076Y010219D01*
X018113Y010291D01*
X018128Y010338D01*
X018191Y010186D01*
X018340Y010037D01*
X018284Y010093D02*
X017965Y010093D01*
X017972Y010098D02*
X017907Y010050D01*
X017836Y010014D01*
X018041Y010171D02*
X018206Y010171D01*
X018164Y010250D02*
X018092Y010250D01*
X018125Y010328D02*
X018132Y010328D01*
X019444Y010014D02*
X019521Y009989D01*
X019600Y009977D01*
X019600Y010447D01*
X019680Y010447D01*
X019680Y009977D01*
X019680Y009977D01*
X019600Y009977D02*
X019600Y009977D01*
X019836Y010014D02*
X019907Y010050D01*
X019972Y010098D01*
X020029Y010154D01*
X020076Y010219D01*
X020113Y010291D01*
X020128Y010338D01*
X020191Y010186D01*
X020340Y010037D01*
X020284Y010093D02*
X019965Y010093D01*
X020041Y010171D02*
X020206Y010171D01*
X020164Y010250D02*
X020092Y010250D01*
X020125Y010328D02*
X020132Y010328D01*
X019680Y010407D02*
X019600Y010407D01*
X020884Y010014D02*
X021396Y010014D01*
X021284Y010093D02*
X020996Y010093D01*
X021074Y010171D02*
X021206Y010171D01*
X021164Y010250D02*
X021116Y010250D01*
X022996Y010093D02*
X023315Y010093D01*
X023239Y010171D02*
X023074Y010171D01*
X023116Y010250D02*
X023188Y010250D01*
X023155Y010328D02*
X023148Y010328D01*
X023444Y010014D02*
X023521Y009989D01*
X023600Y009977D01*
X023600Y010447D01*
X023680Y010447D01*
X023680Y009977D01*
X023680Y009977D01*
X023759Y009989D01*
X023836Y010014D01*
X023965Y010093D02*
X026900Y010093D01*
X026900Y010171D02*
X024041Y010171D01*
X024092Y010250D02*
X026900Y010250D01*
X026900Y010328D02*
X024125Y010328D01*
X024144Y010407D02*
X026900Y010407D01*
X026900Y010485D02*
X023680Y010485D01*
X023680Y010407D02*
X023600Y010407D01*
X023600Y010328D02*
X023680Y010328D01*
X023680Y010250D02*
X023600Y010250D01*
X023600Y010171D02*
X023680Y010171D01*
X023680Y010093D02*
X023600Y010093D01*
X023600Y010014D02*
X023680Y010014D01*
X023600Y009977D02*
X023600Y009977D01*
X024144Y010564D02*
X026900Y010564D01*
X026900Y010642D02*
X024126Y010642D01*
X024093Y010721D02*
X026900Y010721D01*
X022552Y007738D02*
X020726Y007738D01*
X021574Y006796D02*
X018285Y006796D01*
X018315Y006717D02*
X026900Y006717D01*
X026900Y006639D02*
X018315Y006639D01*
X018303Y006560D02*
X026900Y006560D01*
X026900Y006482D02*
X018270Y006482D01*
X018203Y006403D02*
X026900Y006403D01*
X026900Y006325D02*
X018063Y006325D01*
X017961Y006246D02*
X026900Y006246D01*
X026900Y006168D02*
X017882Y006168D01*
X017804Y006089D02*
X026900Y006089D01*
X026900Y006011D02*
X017725Y006011D01*
X017647Y005932D02*
X026900Y005932D01*
X026900Y005854D02*
X017568Y005854D01*
X017507Y005775D02*
X026900Y005775D01*
X026900Y005697D02*
X017507Y005697D01*
X017507Y005618D02*
X026900Y005618D01*
X026900Y005540D02*
X017507Y005540D01*
X017507Y005461D02*
X026900Y005461D01*
X026900Y005383D02*
X017507Y005383D01*
X017507Y005304D02*
X026900Y005304D01*
X026900Y005226D02*
X017507Y005226D01*
X017507Y005147D02*
X026900Y005147D01*
X026900Y005069D02*
X017507Y005069D01*
X017507Y004990D02*
X026900Y004990D01*
X026900Y004912D02*
X017507Y004912D01*
X017507Y004833D02*
X026900Y004833D01*
X026900Y004755D02*
X017507Y004755D01*
X017507Y004676D02*
X026900Y004676D01*
X026900Y004598D02*
X026341Y004598D01*
X026415Y004519D02*
X026900Y004519D01*
X026900Y004441D02*
X026448Y004441D01*
X026464Y004362D02*
X026900Y004362D01*
X026900Y004284D02*
X026464Y004284D01*
X026439Y004205D02*
X026900Y004205D01*
X026900Y004127D02*
X026399Y004127D01*
X026320Y004048D02*
X026900Y004048D01*
X026900Y003970D02*
X024803Y003970D01*
X024856Y003891D02*
X026900Y003891D01*
X026900Y003813D02*
X024888Y003813D01*
X024889Y003734D02*
X026900Y003734D01*
X026900Y003656D02*
X024881Y003656D01*
X024849Y003577D02*
X026900Y003577D01*
X026900Y003499D02*
X024786Y003499D01*
X024660Y003420D02*
X026900Y003420D01*
X026900Y003342D02*
X020559Y003342D01*
X020557Y003420D02*
X024439Y003420D01*
X024313Y003499D02*
X020525Y003499D01*
X020551Y003263D02*
X026900Y003263D01*
X026900Y003185D02*
X020519Y003185D01*
X020457Y003106D02*
X026900Y003106D01*
X026900Y003028D02*
X020332Y003028D01*
X020130Y002949D02*
X026900Y002949D01*
X026900Y002871D02*
X020052Y002871D01*
X019973Y002792D02*
X026900Y002792D01*
X026900Y002714D02*
X021165Y002714D01*
X021244Y002635D02*
X026900Y002635D01*
X026900Y002557D02*
X021322Y002557D01*
X021401Y002478D02*
X026900Y002478D01*
X026900Y002400D02*
X021479Y002400D01*
X021558Y002321D02*
X026900Y002321D01*
X026900Y002243D02*
X021636Y002243D01*
X021715Y002164D02*
X026900Y002164D01*
X026900Y002086D02*
X021793Y002086D01*
X021860Y002007D02*
X022512Y002007D01*
X022332Y001929D02*
X021948Y001929D01*
X022026Y001850D02*
X022254Y001850D01*
X022184Y001772D02*
X022096Y001772D01*
X022128Y001693D02*
X022152Y001693D01*
X022768Y002007D02*
X026900Y002007D01*
X026900Y001929D02*
X023896Y001929D01*
X023998Y001850D02*
X026900Y001850D01*
X026900Y001772D02*
X024063Y001772D01*
X024107Y001693D02*
X026900Y001693D01*
X026900Y001615D02*
X024135Y001615D01*
X024149Y001536D02*
X026900Y001536D01*
X026900Y001458D02*
X023680Y001458D01*
X023680Y001536D02*
X023600Y001536D01*
X023600Y001615D02*
X023680Y001615D01*
X023680Y001693D02*
X023600Y001693D01*
X023600Y001772D02*
X023680Y001772D01*
X023680Y001850D02*
X023600Y001850D01*
X023600Y001929D02*
X023680Y001929D01*
X023384Y001929D02*
X022948Y001929D01*
X023026Y001850D02*
X023282Y001850D01*
X023217Y001772D02*
X023096Y001772D01*
X023128Y001693D02*
X023173Y001693D01*
X024139Y001379D02*
X026900Y001379D01*
X026900Y001301D02*
X024116Y001301D01*
X021328Y001929D02*
X020948Y001929D01*
X021026Y001850D02*
X021254Y001850D01*
X021184Y001772D02*
X021096Y001772D01*
X021128Y001693D02*
X021152Y001693D01*
X021249Y002007D02*
X020768Y002007D01*
X020512Y002007D02*
X019768Y002007D01*
X019948Y001929D02*
X020332Y001929D01*
X020254Y001850D02*
X020026Y001850D01*
X020096Y001772D02*
X020184Y001772D01*
X020152Y001693D02*
X020128Y001693D01*
X019512Y002007D02*
X017768Y002007D01*
X017948Y001929D02*
X018384Y001929D01*
X018282Y001850D02*
X018026Y001850D01*
X018096Y001772D02*
X018217Y001772D01*
X018173Y001693D02*
X018128Y001693D01*
X018600Y001693D02*
X018680Y001693D01*
X018680Y001615D02*
X018600Y001615D01*
X018600Y001536D02*
X018680Y001536D01*
X018680Y001772D02*
X018600Y001772D01*
X018600Y001850D02*
X018680Y001850D01*
X018680Y001929D02*
X018600Y001929D01*
X018680Y001997D02*
X018680Y001997D01*
X018896Y001929D02*
X019332Y001929D01*
X019254Y001850D02*
X018998Y001850D01*
X019063Y001772D02*
X019184Y001772D01*
X019152Y001693D02*
X019107Y001693D01*
X014045Y004127D02*
X011274Y004127D01*
X011353Y004205D02*
X013966Y004205D01*
X013888Y004284D02*
X011431Y004284D01*
X011510Y004362D02*
X013809Y004362D01*
X013731Y004441D02*
X011588Y004441D01*
X011667Y004519D02*
X013652Y004519D01*
X013574Y004598D02*
X011745Y004598D01*
X011824Y004676D02*
X013495Y004676D01*
X013417Y004755D02*
X011902Y004755D01*
X011981Y004833D02*
X013338Y004833D01*
X013260Y004912D02*
X012059Y004912D01*
X012138Y004990D02*
X013181Y004990D01*
X013103Y005069D02*
X012216Y005069D01*
X012295Y005147D02*
X013024Y005147D01*
X012946Y005226D02*
X012373Y005226D01*
X012452Y005304D02*
X012867Y005304D01*
X012789Y005383D02*
X012530Y005383D01*
X012609Y005461D02*
X012710Y005461D01*
X013738Y005226D02*
X014154Y005226D01*
X016861Y006011D02*
X016966Y006011D01*
X016971Y006089D02*
X017012Y006089D01*
X017068Y006145D02*
X017068Y006145D01*
X017049Y006168D02*
X017090Y006168D01*
X017128Y006246D02*
X017169Y006246D01*
X017206Y006325D02*
X017247Y006325D01*
X017285Y006403D02*
X017326Y006403D01*
X017363Y006482D02*
X017404Y006482D01*
X017442Y006560D02*
X017483Y006560D01*
X017520Y006639D02*
X017561Y006639D01*
X017599Y006717D02*
X017635Y006717D01*
X017093Y007424D02*
X016874Y007424D01*
X016713Y007424D02*
X012959Y007424D01*
X012959Y007502D02*
X016569Y007502D01*
X016499Y007581D02*
X012959Y007581D01*
X012959Y007659D02*
X016467Y007659D01*
X016454Y007738D02*
X012959Y007738D01*
X012959Y007816D02*
X016454Y007816D01*
X016482Y007895D02*
X012959Y007895D01*
X012959Y007973D02*
X016528Y007973D01*
X016613Y008052D02*
X012959Y008052D01*
X012959Y008130D02*
X016854Y008130D01*
X016933Y008209D02*
X012959Y008209D01*
X012959Y008287D02*
X017011Y008287D01*
X017134Y007738D02*
X017192Y007738D01*
X017239Y007659D02*
X017120Y007659D01*
X017088Y007581D02*
X017250Y007581D01*
X017171Y007502D02*
X017018Y007502D01*
X021934Y006796D02*
X023070Y006796D01*
X023431Y006796D02*
X024763Y006796D01*
X025123Y006796D02*
X026900Y006796D01*
X026900Y006874D02*
X025209Y006874D01*
X025255Y006953D02*
X026900Y006953D01*
X026900Y007031D02*
X025283Y007031D01*
X025283Y007110D02*
X026900Y007110D01*
X026900Y007188D02*
X025270Y007188D01*
X025238Y007267D02*
X026900Y007267D01*
X026900Y007345D02*
X025168Y007345D01*
X025024Y007424D02*
X026900Y007424D01*
X026900Y007502D02*
X023118Y007502D01*
X023118Y007424D02*
X023170Y007424D01*
X023331Y007424D02*
X024863Y007424D01*
X024718Y007345D02*
X023475Y007345D01*
X023105Y007581D02*
X026900Y007581D01*
X026900Y007659D02*
X023073Y007659D01*
X016396Y010014D02*
X015884Y010014D01*
X015996Y010093D02*
X016284Y010093D01*
X016206Y010171D02*
X016074Y010171D01*
X016116Y010250D02*
X016164Y010250D01*
X015396Y010014D02*
X014884Y010014D01*
X014996Y010093D02*
X015284Y010093D01*
X015206Y010171D02*
X015074Y010171D01*
X015116Y010250D02*
X015164Y010250D01*
X014396Y010014D02*
X013884Y010014D01*
X013996Y010093D02*
X014284Y010093D01*
X014206Y010171D02*
X014074Y010171D01*
X014116Y010250D02*
X014164Y010250D01*
X011337Y007188D02*
X007131Y007188D01*
X007053Y007110D02*
X011337Y007110D01*
X011267Y004912D02*
X009352Y004912D01*
X009451Y004833D02*
X011189Y004833D01*
X011110Y004755D02*
X009503Y004755D01*
X009526Y004519D02*
X010875Y004519D01*
X010796Y004441D02*
X009494Y004441D01*
X009429Y004362D02*
X010718Y004362D01*
X010639Y004284D02*
X009299Y004284D01*
X009188Y004205D02*
X010561Y004205D01*
X010482Y004127D02*
X009109Y004127D01*
X009031Y004048D02*
X010404Y004048D01*
X010325Y003970D02*
X009003Y003970D01*
X009003Y003891D02*
X010247Y003891D01*
X010168Y003813D02*
X009003Y003813D01*
X009003Y003734D02*
X010090Y003734D01*
X010011Y003656D02*
X009003Y003656D01*
X009003Y003577D02*
X009933Y003577D01*
X009854Y003499D02*
X009003Y003499D01*
X009003Y003420D02*
X009776Y003420D01*
X009697Y003342D02*
X009008Y003342D01*
X009086Y003263D02*
X009619Y003263D01*
X009540Y003185D02*
X009165Y003185D01*
X009243Y003106D02*
X009462Y003106D01*
X008765Y002792D02*
X002440Y002792D01*
X002440Y002714D02*
X008844Y002714D01*
X008878Y002635D02*
X002440Y002635D01*
X002440Y002557D02*
X008916Y002557D01*
X008994Y002478D02*
X002440Y002478D01*
X002440Y002871D02*
X008687Y002871D01*
X008608Y002949D02*
X002440Y002949D01*
X002440Y003028D02*
X008530Y003028D01*
X008451Y003106D02*
X002440Y003106D01*
X002440Y003185D02*
X008373Y003185D01*
X008294Y003263D02*
X002440Y003263D01*
X002440Y003342D02*
X008216Y003342D01*
X008137Y003420D02*
X002440Y003420D01*
X002440Y003499D02*
X008059Y003499D01*
X007980Y003577D02*
X002440Y003577D01*
X002440Y005069D02*
X002645Y005069D01*
X002723Y005147D02*
X002440Y005147D01*
X002440Y005226D02*
X002802Y005226D01*
X002880Y005304D02*
X000380Y005304D01*
X000380Y005383D02*
X002959Y005383D01*
X003037Y005461D02*
X000380Y005461D01*
X000380Y005540D02*
X003116Y005540D01*
X003194Y005618D02*
X000380Y005618D01*
X000380Y005697D02*
X003273Y005697D01*
X003351Y005775D02*
X000380Y005775D01*
X000380Y005854D02*
X003430Y005854D01*
X003508Y005932D02*
X000380Y005932D01*
X000380Y006011D02*
X003587Y006011D01*
X003665Y006089D02*
X000380Y006089D01*
X000380Y006168D02*
X003744Y006168D01*
X003822Y006246D02*
X000380Y006246D01*
X000380Y006325D02*
X003901Y006325D01*
X003979Y006403D02*
X000380Y006403D01*
X000380Y006482D02*
X004058Y006482D01*
X004136Y006560D02*
X000380Y006560D01*
X000380Y006639D02*
X004215Y006639D01*
X004843Y007267D02*
X002440Y007267D01*
X002440Y007345D02*
X004921Y007345D01*
X005000Y007424D02*
X002440Y007424D01*
X002440Y007502D02*
X005078Y007502D01*
X002840Y009936D02*
X002440Y009936D01*
X001641Y001379D02*
X000380Y001379D01*
X000380Y001301D02*
X001664Y001301D01*
X024700Y004048D02*
X025928Y004048D01*
M02*
