G75*
G70*
%OFA0B0*%
%FSLAX24Y24*%
%IPPOS*%
%LPD*%
%AMOC8*
5,1,8,0,0,1.08239X$1,22.5*
%
%ADD10C,0.0080*%
%ADD11C,0.0120*%
%ADD12C,0.0060*%
%ADD13C,0.0079*%
%ADD14C,0.0050*%
%ADD15C,0.0070*%
D10*
X000290Y000987D02*
X026990Y000987D01*
X027013Y000989D01*
X027036Y000994D01*
X027058Y001003D01*
X027078Y001016D01*
X027096Y001031D01*
X027111Y001049D01*
X027124Y001069D01*
X027133Y001091D01*
X027138Y001114D01*
X027140Y001137D01*
X027140Y010837D01*
X027138Y010860D01*
X027133Y010883D01*
X027124Y010905D01*
X027111Y010925D01*
X027096Y010943D01*
X027078Y010958D01*
X027058Y010971D01*
X027036Y010980D01*
X027013Y010985D01*
X026990Y010987D01*
X000290Y010987D01*
X000267Y010985D01*
X000244Y010980D01*
X000222Y010971D01*
X000202Y010958D01*
X000184Y010943D01*
X000169Y010925D01*
X000156Y010905D01*
X000147Y010883D01*
X000142Y010860D01*
X000140Y010837D01*
X000140Y001137D01*
X000142Y001114D01*
X000147Y001091D01*
X000156Y001069D01*
X000169Y001049D01*
X000184Y001031D01*
X000202Y001016D01*
X000222Y001003D01*
X000244Y000994D01*
X000267Y000989D01*
X000290Y000987D01*
X001640Y001237D02*
X001890Y000987D01*
X002390Y000987D01*
X002640Y001237D01*
X002890Y000987D01*
X003390Y000987D01*
X003640Y001237D01*
X003640Y001737D01*
X003390Y001987D01*
X002890Y001987D01*
X002640Y001737D01*
X002390Y001987D01*
X001890Y001987D01*
X001640Y001737D01*
X001640Y001237D01*
X010140Y001237D02*
X010140Y001737D01*
X010390Y001987D01*
X010890Y001987D01*
X011140Y001737D01*
X011390Y001987D01*
X011890Y001987D01*
X012140Y001737D01*
X012390Y001987D01*
X012890Y001987D01*
X013140Y001737D01*
X013390Y001987D01*
X013890Y001987D01*
X014140Y001737D01*
X014390Y001987D01*
X014890Y001987D01*
X015140Y001737D01*
X015390Y001987D01*
X015890Y001987D01*
X016140Y001737D01*
X016390Y001987D01*
X016890Y001987D01*
X017140Y001737D01*
X017390Y001987D01*
X017890Y001987D01*
X018140Y001737D01*
X018390Y001987D01*
X018890Y001987D01*
X019140Y001737D01*
X019390Y001987D01*
X019890Y001987D01*
X020140Y001737D01*
X020390Y001987D01*
X020890Y001987D01*
X021140Y001737D01*
X021390Y001987D01*
X021890Y001987D01*
X022140Y001737D01*
X022390Y001987D01*
X022890Y001987D01*
X023140Y001737D01*
X023390Y001987D01*
X023890Y001987D01*
X024140Y001737D01*
X024140Y001237D01*
X023890Y000987D01*
X023390Y000987D01*
X023140Y001237D01*
X022890Y000987D01*
X022390Y000987D01*
X022140Y001237D01*
X021890Y000987D01*
X021390Y000987D01*
X021140Y001237D01*
X020890Y000987D01*
X020390Y000987D01*
X020140Y001237D01*
X019890Y000987D01*
X019390Y000987D01*
X019140Y001237D01*
X018890Y000987D01*
X018390Y000987D01*
X018140Y001237D01*
X017890Y000987D01*
X017390Y000987D01*
X017140Y001237D01*
X016890Y000987D01*
X016390Y000987D01*
X016140Y001237D01*
X015890Y000987D01*
X015390Y000987D01*
X015140Y001237D01*
X014890Y000987D01*
X014390Y000987D01*
X014140Y001237D01*
X013890Y000987D01*
X013390Y000987D01*
X013140Y001237D01*
X012890Y000987D01*
X012390Y000987D01*
X012140Y001237D01*
X011890Y000987D01*
X011390Y000987D01*
X011140Y001237D01*
X010890Y000987D01*
X010390Y000987D01*
X010140Y001237D01*
X023853Y008148D02*
X024065Y008148D01*
X024519Y008298D02*
X024519Y008636D01*
X023399Y008636D02*
X023399Y008298D01*
X023390Y009987D02*
X023140Y010237D01*
X022890Y009987D01*
X022390Y009987D01*
X022140Y010237D01*
X021890Y009987D01*
X021390Y009987D01*
X021140Y010237D01*
X020890Y009987D01*
X020390Y009987D01*
X020140Y010237D01*
X019890Y009987D01*
X019390Y009987D01*
X019140Y010237D01*
X018890Y009987D01*
X018390Y009987D01*
X018140Y010237D01*
X017890Y009987D01*
X017390Y009987D01*
X017140Y010237D01*
X016890Y009987D01*
X016390Y009987D01*
X016140Y010237D01*
X015890Y009987D01*
X015390Y009987D01*
X015140Y010237D01*
X014890Y009987D01*
X014390Y009987D01*
X014140Y010237D01*
X013890Y009987D01*
X013390Y009987D01*
X013140Y010237D01*
X012890Y009987D01*
X012390Y009987D01*
X012140Y010237D01*
X011890Y009987D01*
X011390Y009987D01*
X011140Y010237D01*
X010890Y009987D01*
X010390Y009987D01*
X010140Y010237D01*
X010140Y010737D01*
X010390Y010987D01*
X010890Y010987D01*
X011140Y010737D01*
X011390Y010987D01*
X011890Y010987D01*
X012140Y010737D01*
X012390Y010987D01*
X012890Y010987D01*
X013140Y010737D01*
X013390Y010987D01*
X013890Y010987D01*
X014140Y010737D01*
X014390Y010987D01*
X014890Y010987D01*
X015140Y010737D01*
X015390Y010987D01*
X015890Y010987D01*
X016140Y010737D01*
X016390Y010987D01*
X016890Y010987D01*
X017140Y010737D01*
X017390Y010987D01*
X017890Y010987D01*
X018140Y010737D01*
X018390Y010987D01*
X018890Y010987D01*
X019140Y010737D01*
X019390Y010987D01*
X019890Y010987D01*
X020140Y010737D01*
X020390Y010987D01*
X020890Y010987D01*
X021140Y010737D01*
X021390Y010987D01*
X021890Y010987D01*
X022140Y010737D01*
X022390Y010987D01*
X022890Y010987D01*
X023140Y010737D01*
X023390Y010987D01*
X023890Y010987D01*
X024140Y010737D01*
X024140Y010237D01*
X023890Y009987D01*
X023390Y009987D01*
X017187Y009510D02*
X017187Y008998D01*
X015770Y008998D02*
X015770Y009510D01*
X009983Y009845D02*
X009983Y010396D01*
X009195Y010396D01*
X009195Y009845D01*
X009353Y009569D02*
X009589Y009333D01*
X009825Y009569D01*
X009353Y009569D01*
X009313Y009333D02*
X009589Y009333D01*
X009864Y009333D01*
X009983Y009058D02*
X009983Y008506D01*
X009195Y008506D01*
X009195Y009058D01*
X008928Y009164D02*
X008928Y009502D01*
X008474Y009652D02*
X008263Y009652D01*
X007808Y009502D02*
X007808Y009164D01*
X006203Y009058D02*
X006203Y008506D01*
X005416Y008506D01*
X005416Y009058D01*
X005258Y009058D02*
X005258Y008506D01*
X004471Y008506D01*
X004471Y009058D01*
X004589Y009333D02*
X004864Y009333D01*
X004628Y009569D01*
X005101Y009569D01*
X004864Y009333D01*
X005140Y009333D01*
X005534Y009333D02*
X005809Y009333D01*
X005573Y009569D01*
X006046Y009569D01*
X005809Y009333D01*
X006085Y009333D01*
X006203Y009845D02*
X006203Y010396D01*
X005416Y010396D01*
X005416Y009845D01*
X005258Y009845D02*
X005258Y010396D01*
X004471Y010396D01*
X004471Y009845D01*
X003640Y010237D02*
X003390Y009987D01*
X002890Y009987D01*
X002640Y010237D01*
X002390Y009987D01*
X001890Y009987D01*
X001640Y010237D01*
X001640Y010737D01*
X001890Y010987D01*
X002390Y010987D01*
X002640Y010737D01*
X002890Y010987D01*
X003390Y010987D01*
X003640Y010737D01*
X003640Y010237D01*
D11*
X020691Y002876D02*
X020809Y003152D01*
X020927Y002876D01*
X020809Y003152D02*
X020809Y002365D01*
X021597Y002365D01*
X021321Y002247D01*
X021321Y002483D02*
X021597Y002365D01*
X021715Y002561D02*
X021990Y002168D01*
X021715Y002168D02*
X021990Y002561D01*
X021046Y003191D02*
X021046Y003349D01*
X021203Y003467D01*
X021203Y003624D01*
X020888Y003624D02*
X020888Y003467D01*
X021046Y003349D01*
D12*
X016115Y005908D02*
X015995Y005788D01*
X016115Y005908D02*
X015995Y006028D01*
X010684Y006047D02*
X010684Y005769D01*
X013209Y003242D02*
X013329Y003122D01*
X013449Y003242D01*
X008448Y002944D02*
X007380Y002944D01*
X007380Y002547D01*
X008451Y002413D02*
X008451Y002272D01*
X008451Y001822D02*
X008451Y001681D01*
X007380Y001572D02*
X007380Y001155D01*
X008448Y001155D01*
X005967Y001735D02*
X005731Y001735D01*
X005731Y002207D02*
X005967Y002207D01*
X013209Y008574D02*
X013329Y008694D01*
X013449Y008574D01*
X002227Y009018D02*
X001990Y009018D01*
X001990Y009491D02*
X002227Y009491D01*
D13*
X006242Y008034D02*
X006439Y008034D01*
X006439Y007837D01*
X007786Y007581D02*
X007786Y007455D01*
X007786Y007581D02*
X007920Y007581D01*
X008640Y007581D02*
X008770Y007581D01*
X008770Y007455D01*
X004274Y006302D02*
X004274Y005514D01*
X007786Y004372D02*
X007786Y004235D01*
X007920Y004235D01*
X008640Y004235D02*
X008770Y004235D01*
X008770Y004349D01*
X006439Y003743D02*
X006439Y003546D01*
X006242Y003546D01*
X004471Y003546D02*
X004274Y003546D01*
X004274Y003743D01*
D14*
X023300Y005307D02*
X023302Y005319D01*
X023307Y005330D01*
X023316Y005339D01*
X023327Y005344D01*
X023339Y005346D01*
X023351Y005344D01*
X023362Y005339D01*
X023371Y005330D01*
X023376Y005319D01*
X023378Y005307D01*
X023376Y005295D01*
X023371Y005284D01*
X023362Y005275D01*
X023351Y005270D01*
X023339Y005268D01*
X023327Y005270D01*
X023316Y005275D01*
X023307Y005284D01*
X023302Y005295D01*
X023300Y005307D01*
X025140Y005475D02*
X025927Y005475D01*
X025940Y005465D01*
X025949Y005452D01*
X025956Y005438D01*
X025959Y005422D01*
X025958Y005406D01*
X025954Y005391D01*
X025947Y005377D01*
X025937Y005364D01*
X025924Y005355D01*
X025910Y005348D01*
X025894Y005345D01*
X025878Y005346D01*
X025863Y005350D01*
X025849Y005357D01*
X025836Y005367D01*
X025827Y005380D01*
X025820Y005394D01*
X025817Y005410D01*
X025818Y005426D01*
X025822Y005441D01*
X025829Y005455D01*
X025927Y006341D02*
X025140Y006341D01*
D15*
X023171Y006437D02*
X023171Y006498D01*
X022913Y006498D01*
X022249Y006498D02*
X021990Y006498D01*
X021990Y006437D01*
X020022Y006459D02*
X020022Y006695D01*
X019786Y006695D01*
X018683Y006695D02*
X018447Y006459D01*
X018447Y005357D02*
X018447Y005121D01*
X018683Y005121D01*
X019786Y005121D02*
X020022Y005121D01*
X020022Y005357D01*
X021990Y005379D02*
X021990Y005317D01*
X022249Y005317D01*
X022913Y005317D02*
X023171Y005317D01*
X023171Y005379D01*
M02*
