G75*
G70*
%OFA0B0*%
%FSLAX24Y24*%
%IPPOS*%
%LPD*%
%AMOC8*
5,1,8,0,0,1.08239X$1,22.5*
%
%ADD10R,0.0394X0.0433*%
%ADD11R,0.0433X0.0394*%
%ADD12R,0.0217X0.0472*%
%ADD13C,0.0740*%
%ADD14R,0.0315X0.0472*%
%ADD15R,0.0335X0.0374*%
%ADD16R,0.0236X0.0394*%
%ADD17R,0.0551X0.0571*%
%ADD18R,0.1492X0.0472*%
%ADD19R,0.0492X0.0236*%
%ADD20R,0.0551X0.0276*%
%ADD21R,0.0276X0.0669*%
%ADD22R,0.0472X0.0080*%
%ADD23R,0.0591X0.0098*%
%ADD24R,0.0098X0.0591*%
%ADD25R,0.0433X0.0276*%
%ADD26R,0.0709X0.0276*%
%ADD27R,0.1102X0.0787*%
%ADD28R,0.0200X0.0591*%
%ADD29R,0.0551X0.0472*%
%ADD30R,0.0591X0.0157*%
%ADD31R,0.0157X0.0591*%
%ADD32C,0.0360*%
%ADD33C,0.0160*%
%ADD34C,0.0080*%
%ADD35C,0.0120*%
%ADD36C,0.0240*%
D10*
X011164Y002424D03*
X011164Y003093D03*
X009864Y004983D03*
X009864Y005652D03*
X015888Y003287D03*
X015888Y002617D03*
X018841Y003408D03*
X018841Y004077D03*
X022581Y003684D03*
X022581Y003014D03*
X023762Y003014D03*
X023762Y003684D03*
X025337Y003684D03*
X026124Y003684D03*
X026124Y003014D03*
X025337Y003014D03*
X026124Y007148D03*
X026124Y007817D03*
X025297Y007739D03*
X025297Y008408D03*
X022660Y008093D03*
X021675Y008093D03*
X021675Y008762D03*
X022660Y008762D03*
X019628Y008211D03*
X018841Y008211D03*
X018841Y007542D03*
X019628Y007542D03*
D11*
X016223Y008231D03*
X015553Y008231D03*
X013664Y009451D03*
X012994Y009451D03*
X011301Y009451D03*
X010632Y009451D03*
X010632Y008664D03*
X011301Y008664D03*
X010514Y007876D03*
X009845Y007876D03*
X007286Y009058D03*
X006616Y009058D03*
X006616Y009845D03*
X007286Y009845D03*
X004018Y008861D03*
X003349Y008861D03*
X003427Y005711D03*
X002758Y005711D03*
X005514Y002758D03*
X006183Y002758D03*
X017049Y005278D03*
X017719Y005278D03*
D12*
X023585Y007955D03*
X024333Y007955D03*
X024333Y008979D03*
X023959Y008979D03*
X023585Y008979D03*
X008742Y008821D03*
X008368Y008821D03*
X007994Y008821D03*
X007994Y009845D03*
X008742Y009845D03*
D13*
X010640Y010487D03*
X011640Y010487D03*
X012640Y010487D03*
X013640Y010487D03*
X014640Y010487D03*
X015640Y010487D03*
X016640Y010487D03*
X017640Y010487D03*
X018640Y010487D03*
X019640Y010487D03*
X020640Y010487D03*
X021640Y010487D03*
X022640Y010487D03*
X023640Y010487D03*
X023640Y001487D03*
X022640Y001487D03*
X021640Y001487D03*
X020640Y001487D03*
X019640Y001487D03*
X018640Y001487D03*
X017640Y001487D03*
X016640Y001487D03*
X015640Y001487D03*
X014640Y001487D03*
X013640Y001487D03*
X012640Y001487D03*
X011640Y001487D03*
X010640Y001487D03*
X003140Y001487D03*
X002140Y001487D03*
X002140Y010487D03*
X003140Y010487D03*
D14*
X002463Y009254D03*
X001754Y009254D03*
X005494Y001971D03*
X006203Y001971D03*
D15*
X004362Y004028D03*
D16*
X004746Y003664D03*
D17*
X005238Y003752D03*
D18*
X004941Y007876D03*
D19*
X005918Y007424D03*
X005918Y006991D03*
X005918Y006558D03*
X005918Y006124D03*
X005918Y005691D03*
X005918Y005258D03*
X005918Y004825D03*
X005918Y004392D03*
D20*
X008612Y004599D03*
X008612Y004973D03*
X008612Y005347D03*
X008612Y005721D03*
X008612Y006095D03*
X008612Y006469D03*
X008612Y006843D03*
X008612Y007217D03*
D21*
X016006Y009254D03*
X016479Y009254D03*
X016951Y009254D03*
D22*
X025061Y006228D03*
X025061Y006068D03*
X025061Y005908D03*
X025061Y005748D03*
X025061Y005588D03*
X026006Y005588D03*
X026006Y005748D03*
X026006Y005908D03*
X026006Y006068D03*
X026006Y006228D03*
D23*
X023207Y006302D03*
X023207Y006105D03*
X023207Y005908D03*
X023207Y005711D03*
X023207Y005514D03*
X021955Y005514D03*
X021955Y005711D03*
X021955Y005908D03*
X021955Y006105D03*
X021955Y006302D03*
D24*
X022384Y006534D03*
X022581Y006534D03*
X022778Y006534D03*
X022778Y005282D03*
X022581Y005282D03*
X022384Y005282D03*
D25*
X008703Y002640D03*
X008703Y001459D03*
D26*
X008565Y002050D03*
D27*
X007660Y002050D03*
D28*
G36*
X012349Y004179D02*
X012491Y004037D01*
X012075Y003621D01*
X011933Y003763D01*
X012349Y004179D01*
G37*
G36*
X012126Y004402D02*
X012268Y004260D01*
X011852Y003844D01*
X011710Y003986D01*
X012126Y004402D01*
G37*
G36*
X011903Y004624D02*
X012045Y004482D01*
X011629Y004066D01*
X011487Y004208D01*
X011903Y004624D01*
G37*
G36*
X011681Y004847D02*
X011823Y004705D01*
X011407Y004289D01*
X011265Y004431D01*
X011681Y004847D01*
G37*
G36*
X011458Y005070D02*
X011600Y004928D01*
X011184Y004512D01*
X011042Y004654D01*
X011458Y005070D01*
G37*
G36*
X011235Y005292D02*
X011377Y005150D01*
X010961Y004734D01*
X010819Y004876D01*
X011235Y005292D01*
G37*
G36*
X011012Y005515D02*
X011154Y005373D01*
X010738Y004957D01*
X010596Y005099D01*
X011012Y005515D01*
G37*
G36*
X010790Y005738D02*
X010932Y005596D01*
X010516Y005180D01*
X010374Y005322D01*
X010790Y005738D01*
G37*
G36*
X010932Y006220D02*
X010790Y006078D01*
X010374Y006494D01*
X010516Y006636D01*
X010932Y006220D01*
G37*
G36*
X011154Y006443D02*
X011012Y006301D01*
X010596Y006717D01*
X010738Y006859D01*
X011154Y006443D01*
G37*
G36*
X011377Y006665D02*
X011235Y006523D01*
X010819Y006939D01*
X010961Y007081D01*
X011377Y006665D01*
G37*
G36*
X011600Y006888D02*
X011458Y006746D01*
X011042Y007162D01*
X011184Y007304D01*
X011600Y006888D01*
G37*
G36*
X011823Y007111D02*
X011681Y006969D01*
X011265Y007385D01*
X011407Y007527D01*
X011823Y007111D01*
G37*
G36*
X012045Y007334D02*
X011903Y007192D01*
X011487Y007608D01*
X011629Y007750D01*
X012045Y007334D01*
G37*
G36*
X012268Y007556D02*
X012126Y007414D01*
X011710Y007830D01*
X011852Y007972D01*
X012268Y007556D01*
G37*
G36*
X012491Y007779D02*
X012349Y007637D01*
X011933Y008053D01*
X012075Y008195D01*
X012491Y007779D01*
G37*
G36*
X012713Y008002D02*
X012571Y007860D01*
X012155Y008276D01*
X012297Y008418D01*
X012713Y008002D01*
G37*
G36*
X012936Y008224D02*
X012794Y008082D01*
X012378Y008498D01*
X012520Y008640D01*
X012936Y008224D01*
G37*
G36*
X013159Y008447D02*
X013017Y008305D01*
X012601Y008721D01*
X012743Y008863D01*
X013159Y008447D01*
G37*
G36*
X013915Y008863D02*
X014057Y008721D01*
X013641Y008305D01*
X013499Y008447D01*
X013915Y008863D01*
G37*
G36*
X014138Y008640D02*
X014280Y008498D01*
X013864Y008082D01*
X013722Y008224D01*
X014138Y008640D01*
G37*
G36*
X014361Y008418D02*
X014503Y008276D01*
X014087Y007860D01*
X013945Y008002D01*
X014361Y008418D01*
G37*
G36*
X014583Y008195D02*
X014725Y008053D01*
X014309Y007637D01*
X014167Y007779D01*
X014583Y008195D01*
G37*
G36*
X014806Y007972D02*
X014948Y007830D01*
X014532Y007414D01*
X014390Y007556D01*
X014806Y007972D01*
G37*
G36*
X015029Y007750D02*
X015171Y007608D01*
X014755Y007192D01*
X014613Y007334D01*
X015029Y007750D01*
G37*
G36*
X015251Y007527D02*
X015393Y007385D01*
X014977Y006969D01*
X014835Y007111D01*
X015251Y007527D01*
G37*
G36*
X015474Y007304D02*
X015616Y007162D01*
X015200Y006746D01*
X015058Y006888D01*
X015474Y007304D01*
G37*
G36*
X015697Y007081D02*
X015839Y006939D01*
X015423Y006523D01*
X015281Y006665D01*
X015697Y007081D01*
G37*
G36*
X015920Y006859D02*
X016062Y006717D01*
X015646Y006301D01*
X015504Y006443D01*
X015920Y006859D01*
G37*
G36*
X016142Y006636D02*
X016284Y006494D01*
X015868Y006078D01*
X015726Y006220D01*
X016142Y006636D01*
G37*
G36*
X016284Y005322D02*
X016142Y005180D01*
X015726Y005596D01*
X015868Y005738D01*
X016284Y005322D01*
G37*
G36*
X016062Y005099D02*
X015920Y004957D01*
X015504Y005373D01*
X015646Y005515D01*
X016062Y005099D01*
G37*
G36*
X015839Y004876D02*
X015697Y004734D01*
X015281Y005150D01*
X015423Y005292D01*
X015839Y004876D01*
G37*
G36*
X015616Y004654D02*
X015474Y004512D01*
X015058Y004928D01*
X015200Y005070D01*
X015616Y004654D01*
G37*
G36*
X015393Y004431D02*
X015251Y004289D01*
X014835Y004705D01*
X014977Y004847D01*
X015393Y004431D01*
G37*
G36*
X015171Y004208D02*
X015029Y004066D01*
X014613Y004482D01*
X014755Y004624D01*
X015171Y004208D01*
G37*
G36*
X014948Y003986D02*
X014806Y003844D01*
X014390Y004260D01*
X014532Y004402D01*
X014948Y003986D01*
G37*
G36*
X014725Y003763D02*
X014583Y003621D01*
X014167Y004037D01*
X014309Y004179D01*
X014725Y003763D01*
G37*
G36*
X014503Y003540D02*
X014361Y003398D01*
X013945Y003814D01*
X014087Y003956D01*
X014503Y003540D01*
G37*
G36*
X014280Y003317D02*
X014138Y003175D01*
X013722Y003591D01*
X013864Y003733D01*
X014280Y003317D01*
G37*
G36*
X014057Y003095D02*
X013915Y002953D01*
X013499Y003369D01*
X013641Y003511D01*
X014057Y003095D01*
G37*
G36*
X013017Y003511D02*
X013159Y003369D01*
X012743Y002953D01*
X012601Y003095D01*
X013017Y003511D01*
G37*
G36*
X012794Y003733D02*
X012936Y003591D01*
X012520Y003175D01*
X012378Y003317D01*
X012794Y003733D01*
G37*
G36*
X012571Y003956D02*
X012713Y003814D01*
X012297Y003398D01*
X012155Y003540D01*
X012571Y003956D01*
G37*
D29*
X009589Y008861D03*
X009589Y010042D03*
X005809Y010042D03*
X004864Y010042D03*
X004864Y008861D03*
X005809Y008861D03*
D30*
X018408Y006292D03*
X018408Y006036D03*
X018408Y005780D03*
X018408Y005524D03*
X020061Y005524D03*
X020061Y005780D03*
X020061Y006036D03*
X020061Y006292D03*
D31*
X019618Y006735D03*
X019362Y006735D03*
X019107Y006735D03*
X018851Y006735D03*
X018851Y005081D03*
X019107Y005081D03*
X019362Y005081D03*
X019618Y005081D03*
D32*
X021085Y005042D03*
X022581Y004333D03*
X020997Y004097D03*
X020219Y003349D03*
X019628Y003349D03*
X017345Y004136D03*
X016675Y003743D03*
X015101Y003349D03*
X014707Y002955D03*
X015101Y002286D03*
X017148Y002561D03*
X013329Y003939D03*
X012463Y004806D03*
X014313Y004924D03*
X016557Y005711D03*
X015297Y005908D03*
X016675Y006302D03*
X017975Y006656D03*
X016872Y006892D03*
X016794Y007758D03*
X017502Y007876D03*
X016754Y008310D03*
X017975Y008782D03*
X018841Y009451D03*
X020022Y009451D03*
X021203Y009451D03*
X022660Y009372D03*
X024943Y009058D03*
X026321Y009058D03*
X026321Y010239D03*
X025140Y010239D03*
X020809Y008270D03*
X020416Y007876D03*
X021754Y007089D03*
X022778Y007483D03*
X023250Y007089D03*
X023723Y006695D03*
X024943Y007089D03*
X025534Y006695D03*
X025219Y005042D03*
X024353Y004333D03*
X024549Y003743D03*
X026124Y004333D03*
X023171Y002955D03*
X025140Y001774D03*
X026321Y001774D03*
X021242Y006341D03*
X020258Y006695D03*
X014116Y007010D03*
X013841Y007483D03*
X012384Y006695D03*
X011951Y006105D03*
X011557Y005711D03*
X010376Y005869D03*
X007935Y006459D03*
X006518Y006538D03*
X006518Y005672D03*
X009195Y004609D03*
X006046Y003546D03*
X003683Y003349D03*
X002699Y003349D03*
X003683Y004333D03*
X004668Y002365D03*
X009195Y002758D03*
X010376Y002561D03*
X009392Y001577D03*
X013329Y005908D03*
X009353Y007365D03*
X007581Y008034D03*
X006833Y008270D03*
X003683Y007286D03*
X002699Y007286D03*
X001715Y007286D03*
X000731Y007286D03*
X000731Y008270D03*
X001715Y008270D03*
X002699Y008270D03*
X000731Y009254D03*
X000731Y010239D03*
X000731Y006302D03*
X001715Y006302D03*
X002699Y006302D03*
X014195Y009609D03*
D33*
X022778Y007483D02*
X023565Y007483D01*
X023605Y007443D01*
X024156Y006892D01*
X024156Y006302D01*
X023959Y006105D01*
X006518Y005672D02*
X006498Y005691D01*
X005918Y005691D01*
X003447Y005691D01*
X003427Y005711D01*
D34*
X000380Y001227D02*
X000380Y010747D01*
X001700Y010747D01*
X001667Y010682D01*
X001643Y010606D01*
X001630Y010527D01*
X001630Y010527D01*
X002100Y010527D01*
X002100Y010447D01*
X001630Y010447D01*
X001630Y010447D01*
X001643Y010367D01*
X001667Y010291D01*
X001704Y010219D01*
X001751Y010154D01*
X001808Y010098D01*
X001873Y010050D01*
X001944Y010014D01*
X000380Y010014D01*
X000380Y009936D02*
X002748Y009936D01*
X002827Y010014D02*
X002336Y010014D01*
X002407Y010050D01*
X002472Y010098D01*
X002529Y010154D01*
X002576Y010219D01*
X002613Y010291D01*
X002628Y010338D01*
X002691Y010186D01*
X002840Y010037D01*
X002847Y010034D01*
X002463Y009651D01*
X002239Y009651D01*
X002145Y009557D01*
X002145Y008952D01*
X002239Y008858D01*
X002687Y008858D01*
X002780Y008952D01*
X002780Y009176D01*
X003377Y009773D01*
X003420Y009876D01*
X003420Y010029D01*
X003440Y010037D01*
X003589Y010186D01*
X003598Y010207D01*
X004429Y010207D01*
X004429Y009739D01*
X004523Y009646D01*
X005206Y009646D01*
X005300Y009739D01*
X005300Y010207D01*
X005374Y010207D01*
X005374Y009739D01*
X005467Y009646D01*
X006151Y009646D01*
X006245Y009739D01*
X006245Y010207D01*
X007785Y010207D01*
X007726Y010147D01*
X007726Y010065D01*
X007662Y010065D01*
X007662Y010108D01*
X007568Y010202D01*
X007003Y010202D01*
X006937Y010136D01*
X006919Y010154D01*
X006887Y010172D01*
X006851Y010182D01*
X006656Y010182D01*
X006656Y009885D01*
X006576Y009885D01*
X006576Y009805D01*
X006260Y009805D01*
X006260Y009630D01*
X006269Y009594D01*
X006288Y009562D01*
X006314Y009536D01*
X006346Y009518D01*
X006381Y009508D01*
X006576Y009508D01*
X006576Y009805D01*
X006656Y009805D01*
X006656Y009508D01*
X006851Y009508D01*
X006887Y009518D01*
X006919Y009536D01*
X006937Y009554D01*
X007003Y009488D01*
X007568Y009488D01*
X007662Y009582D01*
X007662Y009625D01*
X007726Y009625D01*
X007726Y009542D01*
X007820Y009449D01*
X008169Y009449D01*
X008263Y009542D01*
X008263Y010147D01*
X008203Y010207D01*
X008522Y010207D01*
X008522Y010196D01*
X008474Y010147D01*
X008474Y009542D01*
X008568Y009449D01*
X008882Y009449D01*
X008650Y009217D01*
X008568Y009217D01*
X008535Y009185D01*
X008531Y009188D01*
X008495Y009197D01*
X008382Y009197D01*
X008382Y008835D01*
X008354Y008835D01*
X008354Y009197D01*
X008242Y009197D01*
X008206Y009188D01*
X008201Y009185D01*
X008169Y009217D01*
X007820Y009217D01*
X007726Y009124D01*
X007726Y009041D01*
X007662Y009041D01*
X007662Y009321D01*
X007568Y009414D01*
X007003Y009414D01*
X006951Y009363D01*
X006899Y009414D01*
X006334Y009414D01*
X006240Y009321D01*
X006240Y009168D01*
X006151Y009257D01*
X005467Y009257D01*
X005374Y009163D01*
X005374Y008558D01*
X005467Y008464D01*
X006151Y008464D01*
X006245Y008558D01*
X006245Y008641D01*
X006511Y008641D01*
X006571Y008701D01*
X006899Y008701D01*
X006951Y008753D01*
X007003Y008701D01*
X007331Y008701D01*
X007431Y008601D01*
X007726Y008601D01*
X006245Y008601D01*
X006209Y008523D02*
X007726Y008523D01*
X007726Y008519D02*
X007820Y008425D01*
X008169Y008425D01*
X008201Y008457D01*
X008206Y008455D01*
X008242Y008445D01*
X008354Y008445D01*
X008354Y008807D01*
X008382Y008807D01*
X008382Y008445D01*
X008495Y008445D01*
X008522Y008452D01*
X008522Y008314D01*
X007782Y008314D01*
X007774Y008322D01*
X007649Y008374D01*
X007513Y008374D01*
X007388Y008322D01*
X007293Y008227D01*
X007241Y008102D01*
X007241Y007966D01*
X007293Y007841D01*
X007388Y007746D01*
X007513Y007694D01*
X007649Y007694D01*
X007774Y007746D01*
X007782Y007754D01*
X008778Y007754D01*
X008881Y007797D01*
X008960Y007875D01*
X009003Y007978D01*
X009003Y008090D01*
X008962Y008187D01*
X008962Y008471D01*
X009011Y008519D01*
X009011Y008956D01*
X009153Y009098D01*
X009153Y008558D01*
X009247Y008464D01*
X009931Y008464D01*
X010024Y008558D01*
X010024Y008641D01*
X010256Y008641D01*
X010256Y008401D01*
X010349Y008307D01*
X010915Y008307D01*
X010967Y008359D01*
X011019Y008307D01*
X011510Y008307D01*
X011734Y008082D01*
X011549Y007898D01*
X011549Y007866D01*
X011542Y007862D01*
X011466Y007785D01*
X011766Y007485D01*
X011752Y007471D01*
X011451Y007771D01*
X011391Y007711D01*
X011006Y008096D01*
X010891Y008096D01*
X010891Y008140D01*
X010797Y008233D01*
X010231Y008233D01*
X010165Y008167D01*
X010147Y008185D01*
X010115Y008204D01*
X010080Y008213D01*
X009885Y008213D01*
X009885Y007916D01*
X009805Y007916D01*
X009805Y007836D01*
X009885Y007836D01*
X009885Y007540D01*
X010080Y007540D01*
X010084Y007541D01*
X010077Y007534D01*
X009048Y006505D01*
X009048Y007047D01*
X009028Y007067D01*
X009028Y007188D01*
X008641Y007188D01*
X008641Y007246D01*
X008584Y007246D01*
X008584Y007495D01*
X008318Y007495D01*
X008283Y007485D01*
X008251Y007467D01*
X008225Y007441D01*
X008206Y007409D01*
X008197Y007373D01*
X008197Y007246D01*
X008584Y007246D01*
X008584Y007188D01*
X008197Y007188D01*
X008197Y007067D01*
X008177Y007047D01*
X008177Y006739D01*
X008136Y006739D01*
X008128Y006747D01*
X008003Y006799D01*
X007868Y006799D01*
X007743Y006747D01*
X007647Y006652D01*
X007595Y006527D01*
X007595Y006391D01*
X007630Y006308D01*
X006727Y007211D01*
X006295Y007211D01*
X006324Y007239D01*
X006324Y007608D01*
X006230Y007702D01*
X005827Y007702D01*
X005827Y007836D01*
X004981Y007836D01*
X004981Y007500D01*
X005511Y007500D01*
X005511Y007239D01*
X005544Y007207D01*
X005511Y007175D01*
X005511Y006806D01*
X005558Y006759D01*
X005541Y006730D01*
X005531Y006694D01*
X005531Y006577D01*
X005898Y006577D01*
X005898Y006538D01*
X005531Y006538D01*
X005531Y006421D01*
X005541Y006385D01*
X005558Y006356D01*
X005511Y006309D01*
X005511Y005940D01*
X005520Y005931D01*
X003804Y005931D01*
X003804Y005974D01*
X003710Y006068D01*
X003145Y006068D01*
X003079Y006002D01*
X003061Y006020D01*
X003029Y006038D01*
X002993Y006048D01*
X002798Y006048D01*
X002798Y005751D01*
X002718Y005751D01*
X002718Y005671D01*
X002402Y005671D01*
X002402Y005496D01*
X002411Y005460D01*
X002430Y005428D01*
X002456Y005402D01*
X002488Y005384D01*
X002523Y005374D01*
X002718Y005374D01*
X002718Y005671D01*
X002798Y005671D01*
X002798Y005374D01*
X002993Y005374D01*
X003029Y005384D01*
X003061Y005402D01*
X003079Y005420D01*
X003145Y005354D01*
X003710Y005354D01*
X003804Y005448D01*
X003804Y005451D01*
X005520Y005451D01*
X005511Y005443D01*
X005511Y005074D01*
X005544Y005042D01*
X005511Y005010D01*
X005511Y004641D01*
X005544Y004609D01*
X005511Y004577D01*
X005511Y004208D01*
X005545Y004175D01*
X005532Y004178D01*
X005278Y004178D01*
X005278Y003792D01*
X005654Y003792D01*
X005654Y004056D01*
X005644Y004092D01*
X005632Y004114D01*
X006230Y004114D01*
X006324Y004208D01*
X006324Y004577D01*
X006295Y004605D01*
X006387Y004605D01*
X006455Y004537D01*
X006455Y003848D01*
X007144Y003159D01*
X007265Y003038D01*
X006543Y003038D01*
X006466Y003115D01*
X005900Y003115D01*
X005835Y003049D01*
X005817Y003067D01*
X005785Y003086D01*
X005749Y003095D01*
X005554Y003095D01*
X005554Y002798D01*
X005474Y002798D01*
X005474Y002718D01*
X005554Y002718D01*
X005554Y002421D01*
X005749Y002421D01*
X005785Y002431D01*
X005817Y002449D01*
X005835Y002467D01*
X005900Y002401D01*
X006466Y002401D01*
X006543Y002478D01*
X006949Y002478D01*
X006949Y002330D01*
X006464Y002330D01*
X006427Y002367D01*
X005979Y002367D01*
X005886Y002273D01*
X005886Y001668D01*
X005923Y001631D01*
X005923Y001582D01*
X004862Y001582D01*
X003921Y002523D01*
X003842Y002602D01*
X003739Y002645D01*
X002447Y002645D01*
X002344Y002602D01*
X001981Y002240D01*
X001903Y002161D01*
X001860Y002058D01*
X001860Y001944D01*
X001840Y001936D01*
X001691Y001787D01*
X001610Y001592D01*
X001610Y001381D01*
X001674Y001227D01*
X000380Y001227D01*
X000380Y001301D02*
X001643Y001301D01*
X001611Y001379D02*
X000380Y001379D01*
X000380Y001458D02*
X001610Y001458D01*
X001610Y001536D02*
X000380Y001536D01*
X000380Y001615D02*
X001619Y001615D01*
X001652Y001693D02*
X000380Y001693D01*
X000380Y001772D02*
X001684Y001772D01*
X001754Y001850D02*
X000380Y001850D01*
X000380Y001929D02*
X001832Y001929D01*
X001860Y002007D02*
X000380Y002007D01*
X000380Y002086D02*
X001871Y002086D01*
X001906Y002164D02*
X000380Y002164D01*
X000380Y002243D02*
X001984Y002243D01*
X002063Y002321D02*
X000380Y002321D01*
X000380Y002400D02*
X002141Y002400D01*
X002220Y002478D02*
X000380Y002478D01*
X000380Y002557D02*
X002298Y002557D01*
X002424Y002635D02*
X000380Y002635D01*
X000380Y002714D02*
X005157Y002714D01*
X005157Y002718D02*
X005157Y002543D01*
X005167Y002507D01*
X005185Y002476D01*
X005212Y002449D01*
X005243Y002431D01*
X005279Y002421D01*
X005474Y002421D01*
X005474Y002718D01*
X005157Y002718D01*
X005157Y002798D02*
X005474Y002798D01*
X005474Y003095D01*
X005279Y003095D01*
X005243Y003086D01*
X005212Y003067D01*
X005185Y003041D01*
X005167Y003009D01*
X005157Y002974D01*
X005157Y002798D01*
X005157Y002871D02*
X000380Y002871D01*
X000380Y002949D02*
X005157Y002949D01*
X005178Y003028D02*
X000380Y003028D01*
X000380Y003106D02*
X005892Y003106D01*
X005554Y003028D02*
X005474Y003028D01*
X005474Y002949D02*
X005554Y002949D01*
X005554Y002871D02*
X005474Y002871D01*
X005474Y002792D02*
X000380Y002792D01*
X000380Y003185D02*
X007119Y003185D01*
X007144Y003159D02*
X007144Y003159D01*
X007198Y003106D02*
X006475Y003106D01*
X006962Y003342D02*
X005577Y003342D01*
X005568Y003337D02*
X005600Y003355D01*
X005626Y003381D01*
X005644Y003413D01*
X005654Y003449D01*
X005654Y003712D01*
X005278Y003712D01*
X005278Y003327D01*
X005532Y003327D01*
X005568Y003337D01*
X005646Y003420D02*
X006884Y003420D01*
X006805Y003499D02*
X005654Y003499D01*
X005654Y003577D02*
X006727Y003577D01*
X006648Y003656D02*
X005654Y003656D01*
X005654Y003813D02*
X006491Y003813D01*
X006455Y003891D02*
X005654Y003891D01*
X005654Y003970D02*
X006455Y003970D01*
X006455Y004048D02*
X005654Y004048D01*
X005514Y004205D02*
X004690Y004205D01*
X004690Y004281D02*
X004690Y004021D01*
X004823Y004021D01*
X004823Y004056D01*
X004832Y004092D01*
X004851Y004124D01*
X004877Y004150D01*
X004909Y004168D01*
X004944Y004178D01*
X005198Y004178D01*
X005198Y003792D01*
X005278Y003792D01*
X005278Y003712D01*
X005198Y003712D01*
X005198Y003327D01*
X004951Y003327D01*
X004931Y003307D01*
X004562Y003307D01*
X004468Y003401D01*
X004468Y003681D01*
X004129Y003681D01*
X004035Y003775D01*
X004035Y004281D01*
X004129Y004375D01*
X004596Y004375D01*
X004690Y004281D01*
X004687Y004284D02*
X005511Y004284D01*
X005511Y004362D02*
X004609Y004362D01*
X004116Y004362D02*
X000380Y004362D01*
X000380Y004284D02*
X004038Y004284D01*
X004035Y004205D02*
X000380Y004205D01*
X000380Y004127D02*
X004035Y004127D01*
X004035Y004048D02*
X000380Y004048D01*
X000380Y003970D02*
X004035Y003970D01*
X004035Y003891D02*
X000380Y003891D01*
X000380Y003813D02*
X004035Y003813D01*
X004076Y003734D02*
X000380Y003734D01*
X000380Y003656D02*
X004468Y003656D01*
X004468Y003577D02*
X000380Y003577D01*
X000380Y003499D02*
X004468Y003499D01*
X004468Y003420D02*
X000380Y003420D01*
X000380Y003342D02*
X004527Y003342D01*
X005198Y003342D02*
X005278Y003342D01*
X005278Y003420D02*
X005198Y003420D01*
X005198Y003499D02*
X005278Y003499D01*
X005278Y003577D02*
X005198Y003577D01*
X005198Y003656D02*
X005278Y003656D01*
X005278Y003734D02*
X006570Y003734D01*
X006455Y004127D02*
X006243Y004127D01*
X006321Y004205D02*
X006455Y004205D01*
X006455Y004284D02*
X006324Y004284D01*
X006324Y004362D02*
X006455Y004362D01*
X006455Y004441D02*
X006324Y004441D01*
X006324Y004519D02*
X006455Y004519D01*
X006395Y004598D02*
X006303Y004598D01*
X005533Y004598D02*
X000380Y004598D01*
X000380Y004676D02*
X005511Y004676D01*
X005511Y004755D02*
X000380Y004755D01*
X000380Y004833D02*
X005511Y004833D01*
X005511Y004912D02*
X000380Y004912D01*
X000380Y004990D02*
X005511Y004990D01*
X005517Y005069D02*
X000380Y005069D01*
X000380Y005147D02*
X005511Y005147D01*
X005511Y005226D02*
X000380Y005226D01*
X000380Y005304D02*
X005511Y005304D01*
X005511Y005383D02*
X003739Y005383D01*
X003116Y005383D02*
X003025Y005383D01*
X002798Y005383D02*
X002718Y005383D01*
X002718Y005461D02*
X002798Y005461D01*
X002798Y005540D02*
X002718Y005540D01*
X002718Y005618D02*
X002798Y005618D01*
X002718Y005697D02*
X000380Y005697D01*
X000380Y005775D02*
X002402Y005775D01*
X002402Y005751D02*
X002718Y005751D01*
X002718Y006048D01*
X002523Y006048D01*
X002488Y006038D01*
X002456Y006020D01*
X002430Y005994D01*
X002411Y005962D01*
X002402Y005926D01*
X002402Y005751D01*
X002402Y005854D02*
X000380Y005854D01*
X000380Y005932D02*
X002403Y005932D01*
X002446Y006011D02*
X000380Y006011D01*
X000380Y006089D02*
X005511Y006089D01*
X005511Y006011D02*
X003767Y006011D01*
X003804Y005932D02*
X005519Y005932D01*
X005511Y006168D02*
X000380Y006168D01*
X000380Y006246D02*
X005511Y006246D01*
X005527Y006325D02*
X000380Y006325D01*
X000380Y006403D02*
X005536Y006403D01*
X005531Y006482D02*
X000380Y006482D01*
X000380Y006560D02*
X005898Y006560D01*
X005937Y006560D02*
X006755Y006560D01*
X006677Y006639D02*
X006304Y006639D01*
X006304Y006694D02*
X006294Y006730D01*
X006277Y006759D01*
X006288Y006771D01*
X006545Y006771D01*
X006971Y006344D01*
X006288Y006344D01*
X006277Y006356D01*
X006294Y006385D01*
X006304Y006421D01*
X006304Y006538D01*
X005937Y006538D01*
X005937Y006577D01*
X006304Y006577D01*
X006304Y006694D01*
X006297Y006717D02*
X006598Y006717D01*
X006834Y006482D02*
X006304Y006482D01*
X006299Y006403D02*
X006912Y006403D01*
X007221Y006717D02*
X007713Y006717D01*
X007642Y006639D02*
X007299Y006639D01*
X007378Y006560D02*
X007609Y006560D01*
X007595Y006482D02*
X007456Y006482D01*
X007535Y006403D02*
X007595Y006403D01*
X007613Y006325D02*
X007623Y006325D01*
X007859Y006796D02*
X007142Y006796D01*
X007064Y006874D02*
X008177Y006874D01*
X008177Y006796D02*
X008011Y006796D01*
X008177Y006953D02*
X006985Y006953D01*
X006907Y007031D02*
X008177Y007031D01*
X008197Y007110D02*
X006828Y007110D01*
X006750Y007188D02*
X008584Y007188D01*
X008641Y007188D02*
X009731Y007188D01*
X009653Y007110D02*
X009028Y007110D01*
X009048Y007031D02*
X009574Y007031D01*
X009496Y006953D02*
X009048Y006953D01*
X009048Y006874D02*
X009417Y006874D01*
X009339Y006796D02*
X009048Y006796D01*
X009048Y006717D02*
X009260Y006717D01*
X009182Y006639D02*
X009048Y006639D01*
X009048Y006560D02*
X009103Y006560D01*
X010042Y006168D02*
X010474Y006168D01*
X010396Y006246D02*
X010120Y006246D01*
X010199Y006325D02*
X010317Y006325D01*
X010258Y006384D02*
X010725Y005918D01*
X010781Y005918D01*
X010791Y005908D01*
X010781Y005898D01*
X010725Y005898D01*
X010213Y005387D01*
X010213Y005274D01*
X010155Y005332D01*
X010173Y005350D01*
X010192Y005381D01*
X010201Y005417D01*
X010201Y005612D01*
X009904Y005612D01*
X009904Y005692D01*
X009824Y005692D01*
X009824Y005951D01*
X010258Y006384D01*
X009963Y006089D02*
X010553Y006089D01*
X010631Y006011D02*
X009885Y006011D01*
X009904Y006009D02*
X009904Y005692D01*
X010201Y005692D01*
X010201Y005887D01*
X010192Y005923D01*
X010173Y005955D01*
X010147Y005981D01*
X010115Y005999D01*
X010080Y006009D01*
X009904Y006009D01*
X009904Y005932D02*
X009824Y005932D01*
X009824Y005854D02*
X009904Y005854D01*
X009904Y005775D02*
X009824Y005775D01*
X009824Y005697D02*
X009904Y005697D01*
X009904Y005618D02*
X010444Y005618D01*
X010366Y005540D02*
X010201Y005540D01*
X010201Y005461D02*
X010287Y005461D01*
X010213Y005383D02*
X010192Y005383D01*
X010183Y005304D02*
X010213Y005304D01*
X010201Y005697D02*
X010523Y005697D01*
X010601Y005775D02*
X010201Y005775D01*
X010201Y005854D02*
X010680Y005854D01*
X010710Y005932D02*
X010186Y005932D01*
X011264Y006325D02*
X011315Y006375D01*
X011538Y006598D01*
X011710Y006770D01*
X011876Y006604D01*
X012005Y006475D01*
X012123Y006475D01*
X012191Y006407D01*
X012316Y006355D01*
X012452Y006355D01*
X012577Y006407D01*
X012672Y006503D01*
X012724Y006628D01*
X012724Y006763D01*
X012672Y006888D01*
X012577Y006984D01*
X012452Y007035D01*
X012316Y007035D01*
X012191Y006984D01*
X012155Y006947D01*
X012007Y007096D01*
X012067Y007156D01*
X011766Y007456D01*
X011780Y007471D01*
X012081Y007170D01*
X012158Y007247D01*
X012162Y007254D01*
X012193Y007254D01*
X012428Y007489D01*
X012651Y007712D01*
X012874Y007934D01*
X013097Y008157D01*
X013109Y008169D01*
X013109Y006880D01*
X013238Y006751D01*
X013581Y006407D01*
X013710Y006278D01*
X014456Y006278D01*
X014948Y006770D01*
X015133Y006586D01*
X015355Y006363D01*
X015578Y006140D01*
X015801Y005918D01*
X015933Y005918D01*
X016294Y006278D01*
X016335Y006278D01*
X016335Y006234D01*
X016387Y006109D01*
X016483Y006013D01*
X016608Y005962D01*
X016743Y005962D01*
X016868Y006013D01*
X016936Y006082D01*
X016978Y006082D01*
X017430Y005629D01*
X017370Y005569D01*
X017352Y005587D01*
X017320Y005605D01*
X017284Y005615D01*
X017089Y005615D01*
X017089Y005318D01*
X017009Y005318D01*
X017009Y005238D01*
X016693Y005238D01*
X016693Y005082D01*
X016445Y005330D01*
X016445Y005387D01*
X015933Y005898D01*
X015801Y005898D01*
X015566Y005663D01*
X015343Y005440D01*
X015120Y005218D01*
X014898Y004995D01*
X014725Y004823D01*
X014653Y004895D01*
X014653Y004991D01*
X014601Y005116D01*
X014506Y005212D01*
X014381Y005264D01*
X014246Y005264D01*
X014121Y005212D01*
X014025Y005116D01*
X013973Y004991D01*
X013973Y004856D01*
X014025Y004731D01*
X014121Y004635D01*
X014246Y004584D01*
X014342Y004584D01*
X014428Y004497D01*
X014368Y004437D01*
X014669Y004137D01*
X014655Y004123D01*
X014354Y004423D01*
X014277Y004347D01*
X014273Y004339D01*
X014242Y004339D01*
X014007Y004104D01*
X013784Y003881D01*
X013561Y003659D01*
X013339Y003436D01*
X013339Y003303D01*
X013850Y002792D01*
X013982Y002792D01*
X014205Y003015D01*
X014390Y003200D01*
X014393Y003196D01*
X014430Y003159D01*
X014419Y003148D01*
X014367Y003023D01*
X014367Y002888D01*
X014419Y002763D01*
X014514Y002667D01*
X014639Y002615D01*
X014775Y002615D01*
X014900Y002667D01*
X014995Y002763D01*
X015047Y002888D01*
X015047Y003009D01*
X015168Y003009D01*
X015293Y003061D01*
X015389Y003156D01*
X015441Y003281D01*
X015441Y003417D01*
X015392Y003534D01*
X015531Y003395D01*
X015531Y003004D01*
X015597Y002938D01*
X015579Y002920D01*
X015561Y002888D01*
X015551Y002852D01*
X015551Y002657D01*
X015848Y002657D01*
X015848Y002577D01*
X015928Y002577D01*
X015928Y002261D01*
X016101Y002261D01*
X016101Y002077D01*
X016291Y001887D01*
X016191Y001787D01*
X016128Y001635D01*
X016113Y001682D01*
X016076Y001754D01*
X016029Y001819D01*
X015972Y001876D01*
X015907Y001923D01*
X015836Y001959D01*
X015759Y001984D01*
X015680Y001997D01*
X015680Y001527D01*
X015600Y001527D01*
X015600Y001997D01*
X015600Y001997D01*
X015521Y001984D01*
X015444Y001959D01*
X015373Y001923D01*
X015308Y001876D01*
X015251Y001819D01*
X015204Y001754D01*
X015167Y001682D01*
X015152Y001635D01*
X015089Y001787D01*
X014940Y001936D01*
X014745Y002017D01*
X014535Y002017D01*
X014444Y001979D01*
X013219Y003203D01*
X013319Y003303D01*
X013319Y003436D01*
X013084Y003671D01*
X012861Y003894D01*
X012639Y004117D01*
X012416Y004339D01*
X012193Y004562D01*
X012162Y004562D01*
X012158Y004569D01*
X012081Y004646D01*
X011780Y004345D01*
X011766Y004359D01*
X012067Y004660D01*
X011990Y004737D01*
X011983Y004741D01*
X011983Y004772D01*
X011748Y005007D01*
X011525Y005230D01*
X011302Y005453D01*
X011264Y005491D01*
X011296Y005491D01*
X011365Y005423D01*
X011490Y005371D01*
X011625Y005371D01*
X011750Y005423D01*
X011846Y005518D01*
X011897Y005643D01*
X011897Y005765D01*
X012019Y005765D01*
X012144Y005817D01*
X012239Y005912D01*
X012291Y006037D01*
X012291Y006172D01*
X012239Y006297D01*
X012144Y006393D01*
X012019Y006445D01*
X011883Y006445D01*
X011758Y006393D01*
X011690Y006325D01*
X011264Y006325D01*
X011343Y006403D02*
X011783Y006403D01*
X011920Y006560D02*
X011500Y006560D01*
X011578Y006639D02*
X011842Y006639D01*
X011763Y006717D02*
X011657Y006717D01*
X011421Y006482D02*
X011999Y006482D01*
X012119Y006403D02*
X012201Y006403D01*
X012212Y006325D02*
X013664Y006325D01*
X013586Y006403D02*
X012567Y006403D01*
X012651Y006482D02*
X013507Y006482D01*
X013429Y006560D02*
X012696Y006560D01*
X012724Y006639D02*
X013350Y006639D01*
X013272Y006717D02*
X012724Y006717D01*
X012711Y006796D02*
X013193Y006796D01*
X013238Y006751D02*
X013238Y006751D01*
X013115Y006874D02*
X012678Y006874D01*
X012608Y006953D02*
X013109Y006953D01*
X013109Y007031D02*
X012462Y007031D01*
X012306Y007031D02*
X012071Y007031D01*
X012021Y007110D02*
X013109Y007110D01*
X013109Y007188D02*
X012099Y007188D01*
X012063Y007188D02*
X012035Y007188D01*
X011984Y007267D02*
X011956Y007267D01*
X011906Y007345D02*
X011878Y007345D01*
X011827Y007424D02*
X011799Y007424D01*
X011749Y007502D02*
X011721Y007502D01*
X011670Y007581D02*
X011642Y007581D01*
X011592Y007659D02*
X011564Y007659D01*
X011513Y007738D02*
X011485Y007738D01*
X011418Y007738D02*
X011365Y007738D01*
X011286Y007816D02*
X011496Y007816D01*
X011549Y007895D02*
X011208Y007895D01*
X011129Y007973D02*
X011625Y007973D01*
X011703Y008052D02*
X011051Y008052D01*
X010891Y008130D02*
X011686Y008130D01*
X011608Y008209D02*
X010821Y008209D01*
X010291Y008366D02*
X008962Y008366D01*
X008962Y008444D02*
X010256Y008444D01*
X010256Y008523D02*
X009989Y008523D01*
X010024Y008601D02*
X010256Y008601D01*
X010207Y008209D02*
X010097Y008209D01*
X009885Y008209D02*
X009805Y008209D01*
X009805Y008213D02*
X009610Y008213D01*
X009574Y008204D01*
X009542Y008185D01*
X009516Y008159D01*
X009498Y008127D01*
X009488Y008092D01*
X009488Y007916D01*
X009805Y007916D01*
X009805Y008213D01*
X009805Y008130D02*
X009885Y008130D01*
X009885Y008052D02*
X009805Y008052D01*
X009805Y007973D02*
X009885Y007973D01*
X009805Y007895D02*
X008968Y007895D01*
X009001Y007973D02*
X009488Y007973D01*
X009488Y008052D02*
X009003Y008052D01*
X008986Y008130D02*
X009499Y008130D01*
X009593Y008209D02*
X008962Y008209D01*
X008962Y008287D02*
X011529Y008287D01*
X012677Y007738D02*
X013109Y007738D01*
X013109Y007816D02*
X012756Y007816D01*
X012834Y007895D02*
X013109Y007895D01*
X013109Y007973D02*
X012913Y007973D01*
X012991Y008052D02*
X013109Y008052D01*
X013109Y008130D02*
X013070Y008130D01*
X013549Y008130D02*
X013588Y008130D01*
X013574Y008145D02*
X013549Y008169D01*
X013549Y007062D01*
X013893Y006718D01*
X013932Y006718D01*
X013924Y006722D01*
X013828Y006818D01*
X013776Y006943D01*
X013776Y007078D01*
X013828Y007203D01*
X013924Y007299D01*
X014049Y007350D01*
X014184Y007350D01*
X014309Y007299D01*
X014359Y007249D01*
X014428Y007318D01*
X014368Y007378D01*
X014669Y007679D01*
X014655Y007693D01*
X014354Y007393D01*
X014277Y007469D01*
X014273Y007477D01*
X014242Y007477D01*
X014019Y007699D01*
X014019Y007699D01*
X013796Y007922D01*
X013796Y007922D01*
X013574Y008145D01*
X013549Y008052D02*
X013667Y008052D01*
X013745Y007973D02*
X013549Y007973D01*
X013549Y007895D02*
X013824Y007895D01*
X013902Y007816D02*
X013549Y007816D01*
X013549Y007738D02*
X013981Y007738D01*
X014059Y007659D02*
X013549Y007659D01*
X013549Y007581D02*
X014138Y007581D01*
X014216Y007502D02*
X013549Y007502D01*
X013549Y007424D02*
X014323Y007424D01*
X014385Y007424D02*
X014413Y007424D01*
X014402Y007345D02*
X014196Y007345D01*
X014036Y007345D02*
X013549Y007345D01*
X013549Y007267D02*
X013892Y007267D01*
X013822Y007188D02*
X013549Y007188D01*
X013549Y007110D02*
X013790Y007110D01*
X013776Y007031D02*
X013580Y007031D01*
X013658Y006953D02*
X013776Y006953D01*
X013805Y006874D02*
X013737Y006874D01*
X013815Y006796D02*
X013850Y006796D01*
X014581Y006403D02*
X015315Y006403D01*
X015237Y006482D02*
X014659Y006482D01*
X014738Y006560D02*
X015158Y006560D01*
X015080Y006639D02*
X014816Y006639D01*
X014895Y006717D02*
X015001Y006717D01*
X015394Y006325D02*
X014502Y006325D01*
X015472Y006246D02*
X012260Y006246D01*
X012291Y006168D02*
X015551Y006168D01*
X015629Y006089D02*
X012291Y006089D01*
X012280Y006011D02*
X015708Y006011D01*
X015786Y005932D02*
X012248Y005932D01*
X012181Y005854D02*
X015756Y005854D01*
X015678Y005775D02*
X012044Y005775D01*
X011897Y005697D02*
X015599Y005697D01*
X015521Y005618D02*
X011887Y005618D01*
X011854Y005540D02*
X015442Y005540D01*
X015364Y005461D02*
X011788Y005461D01*
X011653Y005383D02*
X015285Y005383D01*
X015207Y005304D02*
X011451Y005304D01*
X011462Y005383D02*
X011373Y005383D01*
X011326Y005461D02*
X011294Y005461D01*
X011530Y005226D02*
X014154Y005226D01*
X014056Y005147D02*
X011608Y005147D01*
X011687Y005069D02*
X014005Y005069D01*
X013973Y004990D02*
X011765Y004990D01*
X011844Y004912D02*
X013973Y004912D01*
X013983Y004833D02*
X011922Y004833D01*
X011983Y004755D02*
X014015Y004755D01*
X014080Y004676D02*
X012051Y004676D01*
X012033Y004598D02*
X012005Y004598D01*
X011954Y004519D02*
X011926Y004519D01*
X011876Y004441D02*
X011848Y004441D01*
X011797Y004362D02*
X011769Y004362D01*
X011752Y004345D02*
X011766Y004331D01*
X011466Y004030D01*
X011526Y003970D01*
X011062Y003506D01*
X011057Y003506D01*
X011023Y003469D01*
X010900Y003469D01*
X010807Y003376D01*
X010807Y002810D01*
X010873Y002744D01*
X010855Y002726D01*
X010836Y002694D01*
X010827Y002659D01*
X010827Y002464D01*
X011124Y002464D01*
X011124Y002384D01*
X011204Y002384D01*
X011204Y002464D01*
X011500Y002464D01*
X011500Y002659D01*
X011491Y002694D01*
X011472Y002726D01*
X011454Y002744D01*
X011520Y002810D01*
X011520Y003343D01*
X011613Y003435D01*
X011613Y002017D01*
X011535Y002017D01*
X011340Y001936D01*
X011191Y001787D01*
X011128Y001635D01*
X011113Y001682D01*
X011076Y001754D01*
X011029Y001819D01*
X010972Y001876D01*
X010907Y001923D01*
X010836Y001959D01*
X010759Y001984D01*
X010680Y001997D01*
X010680Y001527D01*
X010600Y001527D01*
X010600Y001997D01*
X010600Y001997D01*
X010521Y001984D01*
X010444Y001959D01*
X010373Y001923D01*
X010308Y001876D01*
X010251Y001819D01*
X010204Y001754D01*
X010167Y001682D01*
X010143Y001606D01*
X010130Y001527D01*
X010130Y001527D01*
X010600Y001527D01*
X010600Y001447D01*
X010130Y001447D01*
X010130Y001447D01*
X010143Y001367D01*
X010167Y001291D01*
X010200Y001227D01*
X009023Y001227D01*
X009032Y001235D01*
X009050Y001267D01*
X009060Y001303D01*
X009060Y001430D01*
X008732Y001430D01*
X008732Y001488D01*
X009060Y001488D01*
X009060Y001615D01*
X010145Y001615D01*
X010131Y001536D02*
X009060Y001536D01*
X009060Y001615D02*
X009050Y001651D01*
X009032Y001683D01*
X009005Y001709D01*
X008974Y001727D01*
X008938Y001737D01*
X008732Y001737D01*
X008732Y001488D01*
X008674Y001488D01*
X008674Y001430D01*
X008346Y001430D01*
X008346Y001303D01*
X008356Y001267D01*
X008374Y001235D01*
X008383Y001227D01*
X006475Y001227D01*
X006483Y001246D01*
X006483Y001631D01*
X006520Y001668D01*
X006520Y001770D01*
X006949Y001770D01*
X006949Y001590D01*
X007042Y001496D01*
X008277Y001496D01*
X008346Y001565D01*
X008346Y001488D01*
X008674Y001488D01*
X008674Y001737D01*
X008468Y001737D01*
X008432Y001727D01*
X008400Y001709D01*
X008374Y001683D01*
X008371Y001677D01*
X008371Y001752D01*
X008986Y001752D01*
X009080Y001846D01*
X009080Y002254D01*
X008988Y002345D01*
X009004Y002360D01*
X009133Y002360D01*
X009236Y002403D01*
X009251Y002418D01*
X009263Y002418D01*
X009388Y002470D01*
X009483Y002566D01*
X009535Y002691D01*
X009535Y002826D01*
X009483Y002951D01*
X009404Y003030D01*
X010317Y003030D01*
X011391Y004105D01*
X011451Y004045D01*
X011752Y004345D01*
X011719Y004284D02*
X011691Y004284D01*
X011640Y004205D02*
X011612Y004205D01*
X011562Y004127D02*
X011534Y004127D01*
X011483Y004048D02*
X011455Y004048D01*
X011448Y004048D02*
X011335Y004048D01*
X011256Y003970D02*
X011525Y003970D01*
X011447Y003891D02*
X011178Y003891D01*
X011099Y003813D02*
X011368Y003813D01*
X011290Y003734D02*
X011021Y003734D01*
X010942Y003656D02*
X011211Y003656D01*
X011133Y003577D02*
X010864Y003577D01*
X010785Y003499D02*
X011050Y003499D01*
X010851Y003420D02*
X010707Y003420D01*
X010628Y003342D02*
X010807Y003342D01*
X010807Y003263D02*
X010550Y003263D01*
X010471Y003185D02*
X010807Y003185D01*
X010807Y003106D02*
X010393Y003106D01*
X010807Y003028D02*
X009407Y003028D01*
X009484Y002949D02*
X010807Y002949D01*
X010807Y002871D02*
X009517Y002871D01*
X009535Y002792D02*
X010825Y002792D01*
X010848Y002714D02*
X009535Y002714D01*
X009512Y002635D02*
X010827Y002635D01*
X010827Y002557D02*
X009474Y002557D01*
X009396Y002478D02*
X010827Y002478D01*
X010827Y002384D02*
X010827Y002189D01*
X010836Y002153D01*
X010855Y002121D01*
X010881Y002095D01*
X010913Y002077D01*
X010948Y002067D01*
X011124Y002067D01*
X011124Y002384D01*
X010827Y002384D01*
X010827Y002321D02*
X009012Y002321D01*
X009080Y002243D02*
X010827Y002243D01*
X010833Y002164D02*
X009080Y002164D01*
X009080Y002086D02*
X010897Y002086D01*
X010896Y001929D02*
X011332Y001929D01*
X011254Y001850D02*
X010998Y001850D01*
X011063Y001772D02*
X011184Y001772D01*
X011152Y001693D02*
X011107Y001693D01*
X010680Y001693D02*
X010600Y001693D01*
X010600Y001615D02*
X010680Y001615D01*
X010680Y001536D02*
X010600Y001536D01*
X010600Y001458D02*
X008732Y001458D01*
X008674Y001458D02*
X006483Y001458D01*
X006483Y001536D02*
X007002Y001536D01*
X006949Y001615D02*
X006483Y001615D01*
X006520Y001693D02*
X006949Y001693D01*
X006483Y001379D02*
X008346Y001379D01*
X008347Y001301D02*
X006483Y001301D01*
X005923Y001615D02*
X005724Y001615D01*
X005738Y001623D02*
X005706Y001604D01*
X005670Y001595D01*
X005533Y001595D01*
X005533Y001932D01*
X005456Y001932D01*
X005456Y001595D01*
X005318Y001595D01*
X005283Y001604D01*
X005251Y001623D01*
X005225Y001649D01*
X005206Y001681D01*
X005197Y001716D01*
X005197Y001932D01*
X005456Y001932D01*
X005456Y002010D01*
X005533Y002010D01*
X005533Y002347D01*
X005670Y002347D01*
X005706Y002338D01*
X005738Y002319D01*
X005764Y002293D01*
X005782Y002261D01*
X005792Y002226D01*
X005792Y002010D01*
X005533Y002010D01*
X005533Y001932D01*
X005792Y001932D01*
X005792Y001716D01*
X005782Y001681D01*
X005764Y001649D01*
X005738Y001623D01*
X005786Y001693D02*
X005886Y001693D01*
X005886Y001772D02*
X005792Y001772D01*
X005792Y001850D02*
X005886Y001850D01*
X005886Y001929D02*
X005792Y001929D01*
X005886Y002007D02*
X005533Y002007D01*
X005456Y002007D02*
X004437Y002007D01*
X004515Y001929D02*
X005197Y001929D01*
X005197Y001850D02*
X004594Y001850D01*
X004672Y001772D02*
X005197Y001772D01*
X005203Y001693D02*
X004751Y001693D01*
X004829Y001615D02*
X005265Y001615D01*
X005456Y001615D02*
X005533Y001615D01*
X005533Y001693D02*
X005456Y001693D01*
X005456Y001772D02*
X005533Y001772D01*
X005533Y001850D02*
X005456Y001850D01*
X005456Y001929D02*
X005533Y001929D01*
X005456Y002010D02*
X005197Y002010D01*
X005197Y002226D01*
X005206Y002261D01*
X005225Y002293D01*
X005251Y002319D01*
X005283Y002338D01*
X005318Y002347D01*
X005456Y002347D01*
X005456Y002010D01*
X005456Y002086D02*
X005533Y002086D01*
X005533Y002164D02*
X005456Y002164D01*
X005456Y002243D02*
X005533Y002243D01*
X005533Y002321D02*
X005456Y002321D01*
X005474Y002478D02*
X005554Y002478D01*
X005554Y002557D02*
X005474Y002557D01*
X005474Y002635D02*
X005554Y002635D01*
X005554Y002714D02*
X005474Y002714D01*
X005157Y002635D02*
X003762Y002635D01*
X003887Y002557D02*
X005157Y002557D01*
X005184Y002478D02*
X003966Y002478D01*
X004044Y002400D02*
X006949Y002400D01*
X006949Y002478D02*
X006543Y002478D01*
X005933Y002321D02*
X005734Y002321D01*
X005787Y002243D02*
X005886Y002243D01*
X005886Y002164D02*
X005792Y002164D01*
X005792Y002086D02*
X005886Y002086D01*
X005254Y002321D02*
X004123Y002321D01*
X004201Y002243D02*
X005201Y002243D01*
X005197Y002164D02*
X004280Y002164D01*
X004358Y002086D02*
X005197Y002086D01*
X004194Y001458D02*
X003180Y001458D01*
X003180Y001447D02*
X003180Y001527D01*
X003100Y001527D01*
X003100Y001997D01*
X003100Y001997D01*
X003021Y001984D01*
X002944Y001959D01*
X002873Y001923D01*
X002808Y001876D01*
X002751Y001819D01*
X002704Y001754D01*
X002667Y001682D01*
X002652Y001635D01*
X002589Y001787D01*
X002455Y001921D01*
X002618Y002085D01*
X003567Y002085D01*
X004425Y001227D01*
X003580Y001227D01*
X003613Y001291D01*
X003637Y001367D01*
X003650Y001447D01*
X003180Y001447D01*
X003180Y001527D02*
X003650Y001527D01*
X003637Y001606D01*
X003613Y001682D01*
X003576Y001754D01*
X003529Y001819D01*
X003472Y001876D01*
X003407Y001923D01*
X003336Y001959D01*
X003259Y001984D01*
X003180Y001997D01*
X003180Y001527D01*
X003180Y001536D02*
X003100Y001536D01*
X003100Y001615D02*
X003180Y001615D01*
X003180Y001693D02*
X003100Y001693D01*
X003100Y001772D02*
X003180Y001772D01*
X003180Y001850D02*
X003100Y001850D01*
X003100Y001929D02*
X003180Y001929D01*
X003180Y001997D02*
X003180Y001997D01*
X003396Y001929D02*
X003723Y001929D01*
X003645Y002007D02*
X002541Y002007D01*
X002462Y001929D02*
X002884Y001929D01*
X002782Y001850D02*
X002526Y001850D01*
X002596Y001772D02*
X002717Y001772D01*
X002673Y001693D02*
X002628Y001693D01*
X003498Y001850D02*
X003802Y001850D01*
X003880Y001772D02*
X003563Y001772D01*
X003607Y001693D02*
X003959Y001693D01*
X004037Y001615D02*
X003635Y001615D01*
X003649Y001536D02*
X004116Y001536D01*
X004273Y001379D02*
X003639Y001379D01*
X003650Y001447D02*
X003650Y001447D01*
X003650Y001527D02*
X003650Y001527D01*
X003616Y001301D02*
X004351Y001301D01*
X008317Y001536D02*
X008346Y001536D01*
X008674Y001536D02*
X008732Y001536D01*
X008732Y001615D02*
X008674Y001615D01*
X008674Y001693D02*
X008732Y001693D01*
X009006Y001772D02*
X010217Y001772D01*
X010173Y001693D02*
X009021Y001693D01*
X009080Y001850D02*
X010282Y001850D01*
X010384Y001929D02*
X009080Y001929D01*
X009080Y002007D02*
X011512Y002007D01*
X011446Y002095D02*
X011472Y002121D01*
X011491Y002153D01*
X011500Y002189D01*
X011500Y002384D01*
X011204Y002384D01*
X011204Y002067D01*
X011379Y002067D01*
X011415Y002077D01*
X011446Y002095D01*
X011430Y002086D02*
X011613Y002086D01*
X011613Y002164D02*
X011494Y002164D01*
X011500Y002243D02*
X011613Y002243D01*
X011613Y002321D02*
X011500Y002321D01*
X011613Y002400D02*
X011204Y002400D01*
X011204Y002321D02*
X011124Y002321D01*
X011124Y002243D02*
X011204Y002243D01*
X011204Y002164D02*
X011124Y002164D01*
X011124Y002086D02*
X011204Y002086D01*
X011124Y002400D02*
X009228Y002400D01*
X008385Y001693D02*
X008371Y001693D01*
X009060Y001379D02*
X010141Y001379D01*
X010164Y001301D02*
X009059Y001301D01*
X010600Y001772D02*
X010680Y001772D01*
X010680Y001850D02*
X010600Y001850D01*
X010600Y001929D02*
X010680Y001929D01*
X010680Y001997D02*
X010680Y001997D01*
X011500Y002478D02*
X011613Y002478D01*
X011613Y002557D02*
X011500Y002557D01*
X011500Y002635D02*
X011613Y002635D01*
X011613Y002714D02*
X011480Y002714D01*
X011502Y002792D02*
X011613Y002792D01*
X011613Y002871D02*
X011520Y002871D01*
X011520Y002949D02*
X011613Y002949D01*
X011613Y003028D02*
X011520Y003028D01*
X011520Y003106D02*
X011613Y003106D01*
X011613Y003185D02*
X011520Y003185D01*
X011520Y003263D02*
X011613Y003263D01*
X011613Y003342D02*
X011520Y003342D01*
X011598Y003420D02*
X011613Y003420D01*
X012786Y003970D02*
X013872Y003970D01*
X013951Y004048D02*
X012707Y004048D01*
X012629Y004127D02*
X014029Y004127D01*
X014108Y004205D02*
X012550Y004205D01*
X012472Y004284D02*
X014186Y004284D01*
X014293Y004362D02*
X012393Y004362D01*
X012315Y004441D02*
X014372Y004441D01*
X014407Y004519D02*
X012236Y004519D01*
X012129Y004598D02*
X014212Y004598D01*
X014415Y004362D02*
X014443Y004362D01*
X014494Y004284D02*
X014522Y004284D01*
X014572Y004205D02*
X014600Y004205D01*
X014651Y004127D02*
X014659Y004127D01*
X014669Y004108D02*
X014683Y004123D01*
X014984Y003822D01*
X015044Y003882D01*
X015285Y003640D01*
X015168Y003689D01*
X015033Y003689D01*
X014987Y003670D01*
X014910Y003748D01*
X014970Y003808D01*
X014669Y004108D01*
X014729Y004048D02*
X014757Y004048D01*
X014808Y003970D02*
X014836Y003970D01*
X014886Y003891D02*
X014914Y003891D01*
X014965Y003813D02*
X015113Y003813D01*
X015192Y003734D02*
X014923Y003734D01*
X015248Y003656D02*
X015270Y003656D01*
X015407Y003499D02*
X015427Y003499D01*
X015439Y003420D02*
X015506Y003420D01*
X015531Y003342D02*
X015441Y003342D01*
X015433Y003263D02*
X015531Y003263D01*
X015531Y003185D02*
X015401Y003185D01*
X015339Y003106D02*
X015531Y003106D01*
X015531Y003028D02*
X015214Y003028D01*
X015047Y002949D02*
X015586Y002949D01*
X015556Y002871D02*
X015040Y002871D01*
X015007Y002792D02*
X015551Y002792D01*
X015551Y002714D02*
X014946Y002714D01*
X014823Y002635D02*
X015848Y002635D01*
X015848Y002577D02*
X015551Y002577D01*
X015551Y002382D01*
X015561Y002347D01*
X015579Y002315D01*
X015605Y002289D01*
X015637Y002270D01*
X015673Y002261D01*
X015848Y002261D01*
X015848Y002577D01*
X015848Y002557D02*
X015928Y002557D01*
X015928Y002478D02*
X015848Y002478D01*
X015848Y002400D02*
X015928Y002400D01*
X015928Y002321D02*
X015848Y002321D01*
X016101Y002243D02*
X014180Y002243D01*
X014101Y002321D02*
X015576Y002321D01*
X015551Y002400D02*
X014023Y002400D01*
X013944Y002478D02*
X015551Y002478D01*
X015551Y002557D02*
X013866Y002557D01*
X013787Y002635D02*
X014591Y002635D01*
X014468Y002714D02*
X013709Y002714D01*
X013630Y002792D02*
X013850Y002792D01*
X013771Y002871D02*
X013552Y002871D01*
X013473Y002949D02*
X013693Y002949D01*
X013614Y003028D02*
X013395Y003028D01*
X013316Y003106D02*
X013536Y003106D01*
X013457Y003185D02*
X013238Y003185D01*
X013279Y003263D02*
X013379Y003263D01*
X013339Y003342D02*
X013319Y003342D01*
X013319Y003420D02*
X013339Y003420D01*
X013401Y003499D02*
X013257Y003499D01*
X013178Y003577D02*
X013480Y003577D01*
X013558Y003656D02*
X013100Y003656D01*
X013021Y003734D02*
X013637Y003734D01*
X013715Y003813D02*
X012943Y003813D01*
X012864Y003891D02*
X013794Y003891D01*
X014375Y003185D02*
X014405Y003185D01*
X014401Y003106D02*
X014296Y003106D01*
X014369Y003028D02*
X014218Y003028D01*
X014139Y002949D02*
X014367Y002949D01*
X014374Y002871D02*
X014061Y002871D01*
X013982Y002792D02*
X014406Y002792D01*
X014258Y002164D02*
X016101Y002164D01*
X016101Y002086D02*
X014337Y002086D01*
X014415Y002007D02*
X014512Y002007D01*
X014768Y002007D02*
X016171Y002007D01*
X016249Y001929D02*
X015896Y001929D01*
X015998Y001850D02*
X016254Y001850D01*
X016184Y001772D02*
X016063Y001772D01*
X016107Y001693D02*
X016152Y001693D01*
X015680Y001693D02*
X015600Y001693D01*
X015600Y001615D02*
X015680Y001615D01*
X015680Y001536D02*
X015600Y001536D01*
X015600Y001772D02*
X015680Y001772D01*
X015680Y001850D02*
X015600Y001850D01*
X015600Y001929D02*
X015680Y001929D01*
X015680Y001997D02*
X015680Y001997D01*
X015384Y001929D02*
X014948Y001929D01*
X015026Y001850D02*
X015282Y001850D01*
X015217Y001772D02*
X015096Y001772D01*
X015128Y001693D02*
X015173Y001693D01*
X017920Y001944D02*
X017920Y002699D01*
X017923Y002696D01*
X018621Y001998D01*
X018621Y001998D01*
X018680Y001939D01*
X018680Y001527D01*
X018600Y001527D01*
X018600Y001997D01*
X018600Y001997D01*
X018521Y001984D01*
X018444Y001959D01*
X018373Y001923D01*
X018308Y001876D01*
X018251Y001819D01*
X018204Y001754D01*
X018167Y001682D01*
X018152Y001635D01*
X018089Y001787D01*
X017940Y001936D01*
X017920Y001944D01*
X017948Y001929D02*
X018384Y001929D01*
X018282Y001850D02*
X018026Y001850D01*
X018096Y001772D02*
X018217Y001772D01*
X018173Y001693D02*
X018128Y001693D01*
X017920Y002007D02*
X018612Y002007D01*
X018600Y001929D02*
X018680Y001929D01*
X018680Y001850D02*
X018600Y001850D01*
X018600Y001772D02*
X018680Y001772D01*
X018680Y001693D02*
X018600Y001693D01*
X018600Y001615D02*
X018680Y001615D01*
X018680Y001536D02*
X018600Y001536D01*
X018533Y002086D02*
X017920Y002086D01*
X017920Y002164D02*
X018455Y002164D01*
X018376Y002243D02*
X017920Y002243D01*
X017920Y002321D02*
X018298Y002321D01*
X018219Y002400D02*
X017920Y002400D01*
X017920Y002478D02*
X018141Y002478D01*
X018062Y002557D02*
X017920Y002557D01*
X017920Y002635D02*
X017984Y002635D01*
X017923Y002696D02*
X017923Y002696D01*
X018662Y003051D02*
X018801Y003051D01*
X018801Y003368D01*
X018881Y003368D01*
X018881Y003448D01*
X019178Y003448D01*
X019178Y003488D01*
X019288Y003378D01*
X019288Y003281D01*
X019340Y003156D01*
X019436Y003061D01*
X019561Y003009D01*
X019696Y003009D01*
X019821Y003061D01*
X019916Y003156D01*
X019923Y003173D01*
X019931Y003156D01*
X020026Y003061D01*
X020151Y003009D01*
X020286Y003009D01*
X020411Y003061D01*
X020507Y003156D01*
X020559Y003281D01*
X020559Y003417D01*
X020507Y003541D01*
X020411Y003637D01*
X020286Y003689D01*
X020269Y003689D01*
X020124Y003834D01*
X020124Y004267D01*
X019995Y004396D01*
X019739Y004652D01*
X019751Y004655D01*
X019783Y004674D01*
X019809Y004700D01*
X019828Y004732D01*
X019837Y004767D01*
X019837Y005081D01*
X019618Y005081D01*
X019618Y005081D01*
X019837Y005081D01*
X019837Y005277D01*
X019842Y005277D01*
X019865Y005301D01*
X019865Y005305D01*
X020061Y005305D01*
X020061Y005524D01*
X020061Y005524D01*
X020061Y005780D01*
X020061Y006036D01*
X020061Y006292D01*
X020061Y006511D01*
X019865Y006511D01*
X019865Y006515D01*
X019842Y006538D01*
X019837Y006538D01*
X019837Y006735D01*
X019837Y007048D01*
X019828Y007084D01*
X019809Y007116D01*
X019783Y007142D01*
X019751Y007160D01*
X019733Y007165D01*
X019891Y007165D01*
X019985Y007259D01*
X019985Y007825D01*
X019919Y007891D01*
X019937Y007909D01*
X019955Y007941D01*
X019965Y007976D01*
X019965Y008171D01*
X019668Y008171D01*
X019668Y008251D01*
X019588Y008251D01*
X019588Y008171D01*
X019291Y008171D01*
X019291Y007976D01*
X019301Y007941D01*
X019319Y007909D01*
X019337Y007891D01*
X019271Y007825D01*
X019271Y007496D01*
X019198Y007422D01*
X019198Y007825D01*
X019132Y007891D01*
X019150Y007909D01*
X019168Y007941D01*
X019178Y007976D01*
X019178Y008171D01*
X018881Y008171D01*
X018881Y008251D01*
X019178Y008251D01*
X019178Y008446D01*
X019168Y008482D01*
X019150Y008514D01*
X019124Y008540D01*
X019092Y008558D01*
X019056Y008568D01*
X018881Y008568D01*
X018881Y008251D01*
X018801Y008251D01*
X018801Y008568D01*
X018626Y008568D01*
X018590Y008558D01*
X018558Y008540D01*
X018532Y008514D01*
X018513Y008482D01*
X018504Y008446D01*
X018504Y008251D01*
X018801Y008251D01*
X018801Y008171D01*
X018504Y008171D01*
X018504Y007976D01*
X018513Y007941D01*
X018532Y007909D01*
X018550Y007891D01*
X018484Y007825D01*
X018484Y007388D01*
X018255Y007388D01*
X018255Y008581D01*
X018263Y008589D01*
X018315Y008714D01*
X018315Y008850D01*
X018263Y008975D01*
X018167Y009070D01*
X018042Y009122D01*
X017907Y009122D01*
X017782Y009070D01*
X017686Y008975D01*
X017635Y008850D01*
X017635Y008714D01*
X017686Y008589D01*
X017695Y008581D01*
X017695Y008165D01*
X017570Y008216D01*
X017435Y008216D01*
X017310Y008165D01*
X017214Y008069D01*
X017162Y007944D01*
X017162Y007848D01*
X017134Y007819D01*
X017134Y007826D01*
X017082Y007951D01*
X016986Y008047D01*
X016861Y008098D01*
X016726Y008098D01*
X016601Y008047D01*
X016579Y008025D01*
X016579Y008191D01*
X016263Y008191D01*
X016263Y008271D01*
X016579Y008271D01*
X016579Y008446D01*
X016570Y008482D01*
X016569Y008483D01*
X017042Y008483D01*
X017171Y008612D01*
X017171Y008776D01*
X017249Y008853D01*
X017249Y009162D01*
X017396Y009310D01*
X017987Y009310D01*
X018634Y009957D01*
X018745Y009957D01*
X018940Y010037D01*
X019089Y010186D01*
X019152Y010338D01*
X019167Y010291D01*
X019204Y010219D01*
X019251Y010154D01*
X019308Y010098D01*
X019373Y010050D01*
X019444Y010014D01*
X018884Y010014D01*
X018996Y010093D02*
X019315Y010093D01*
X019239Y010171D02*
X019074Y010171D01*
X019116Y010250D02*
X019188Y010250D01*
X019155Y010328D02*
X019148Y010328D01*
X019600Y010328D02*
X019680Y010328D01*
X019680Y010250D02*
X019600Y010250D01*
X019600Y010171D02*
X019680Y010171D01*
X019680Y010093D02*
X019600Y010093D01*
X019600Y010014D02*
X019680Y010014D01*
X019680Y009977D02*
X019759Y009989D01*
X019836Y010014D01*
X020396Y010014D01*
X020420Y010004D02*
X020420Y008978D01*
X020788Y008610D01*
X020742Y008610D01*
X020617Y008558D01*
X020521Y008463D01*
X020469Y008338D01*
X020469Y008216D01*
X020348Y008216D01*
X020223Y008165D01*
X020127Y008069D01*
X020076Y007944D01*
X020076Y007809D01*
X020127Y007684D01*
X020196Y007616D01*
X020196Y007273D01*
X020570Y006899D01*
X020570Y006061D01*
X020687Y005944D01*
X020923Y005708D01*
X021520Y005708D01*
X021520Y005650D01*
X021500Y005630D01*
X021500Y005399D01*
X021593Y005305D01*
X021950Y005305D01*
X021950Y005301D01*
X021974Y005277D01*
X022175Y005277D01*
X022175Y004920D01*
X022184Y004911D01*
X022184Y004838D01*
X022164Y004818D01*
X022164Y004636D01*
X022287Y004513D01*
X022241Y004401D01*
X022241Y004265D01*
X022293Y004141D01*
X022361Y004072D01*
X022361Y004060D01*
X022318Y004060D01*
X022224Y003966D01*
X022224Y003401D01*
X022290Y003335D01*
X022272Y003317D01*
X022254Y003285D01*
X022244Y003249D01*
X022244Y003054D01*
X022541Y003054D01*
X022541Y002974D01*
X022621Y002974D01*
X022621Y002658D01*
X022796Y002658D01*
X022832Y002667D01*
X022864Y002686D01*
X022890Y002712D01*
X022908Y002744D01*
X022918Y002779D01*
X022918Y002974D01*
X022621Y002974D01*
X022621Y003054D01*
X022918Y003054D01*
X022918Y003249D01*
X022908Y003285D01*
X022890Y003317D01*
X022872Y003335D01*
X022938Y003401D01*
X022938Y003966D01*
X022844Y004060D01*
X022801Y004060D01*
X022801Y004072D01*
X022842Y004113D01*
X023066Y004113D01*
X023195Y004242D01*
X023542Y004589D01*
X023542Y004060D01*
X023499Y004060D01*
X023405Y003966D01*
X023405Y003401D01*
X023471Y003335D01*
X023453Y003317D01*
X023435Y003285D01*
X023425Y003249D01*
X023425Y003054D01*
X023722Y003054D01*
X023722Y002974D01*
X023802Y002974D01*
X023802Y002658D01*
X023977Y002658D01*
X024013Y002667D01*
X024045Y002686D01*
X024071Y002712D01*
X024089Y002744D01*
X024099Y002779D01*
X024099Y002974D01*
X023802Y002974D01*
X023802Y003054D01*
X024099Y003054D01*
X024099Y003249D01*
X024089Y003285D01*
X024071Y003317D01*
X024053Y003335D01*
X024119Y003401D01*
X024119Y003966D01*
X024025Y004060D01*
X023982Y004060D01*
X023982Y004393D01*
X024013Y004362D01*
X024013Y004265D01*
X024064Y004141D01*
X024160Y004045D01*
X024285Y003993D01*
X024319Y003993D01*
X024261Y003935D01*
X024209Y003810D01*
X024209Y003675D01*
X024261Y003550D01*
X024357Y003454D01*
X024482Y003403D01*
X024617Y003403D01*
X024742Y003454D01*
X024838Y003550D01*
X024889Y003675D01*
X024889Y003771D01*
X024966Y003848D01*
X024966Y004779D01*
X024730Y005015D01*
X024730Y005251D01*
X024710Y005271D01*
X024710Y005467D01*
X024713Y005462D01*
X024739Y005436D01*
X024771Y005417D01*
X024807Y005408D01*
X025061Y005408D01*
X025061Y005548D01*
X025061Y005548D01*
X025061Y005408D01*
X025316Y005408D01*
X025352Y005417D01*
X025382Y005435D01*
X025657Y005435D01*
X025704Y005388D01*
X025806Y005388D01*
X025806Y005114D01*
X025246Y004553D01*
X025246Y004553D01*
X025117Y004424D01*
X025117Y004060D01*
X025074Y004060D01*
X024980Y003966D01*
X024980Y003401D01*
X025046Y003335D01*
X025028Y003317D01*
X025010Y003285D01*
X025000Y003249D01*
X025000Y003054D01*
X025297Y003054D01*
X025297Y002974D01*
X025377Y002974D01*
X025377Y002658D01*
X025552Y002658D01*
X025588Y002667D01*
X025620Y002686D01*
X025646Y002712D01*
X025664Y002744D01*
X025674Y002779D01*
X025674Y002974D01*
X025377Y002974D01*
X025377Y003054D01*
X025674Y003054D01*
X025674Y003249D01*
X025664Y003285D01*
X025646Y003317D01*
X025628Y003335D01*
X025694Y003401D01*
X025694Y003966D01*
X025600Y004060D01*
X025557Y004060D01*
X025557Y004242D01*
X025833Y004518D01*
X025784Y004401D01*
X025784Y004265D01*
X025836Y004141D01*
X025904Y004072D01*
X025904Y004060D01*
X025861Y004060D01*
X025767Y003966D01*
X025767Y003401D01*
X025833Y003335D01*
X025815Y003317D01*
X025797Y003285D01*
X025787Y003249D01*
X025787Y003054D01*
X026084Y003054D01*
X026084Y002974D01*
X026164Y002974D01*
X026164Y002658D01*
X026340Y002658D01*
X026375Y002667D01*
X026407Y002686D01*
X026433Y002712D01*
X026452Y002744D01*
X026461Y002779D01*
X026461Y002974D01*
X026164Y002974D01*
X026164Y003054D01*
X026461Y003054D01*
X026461Y003249D01*
X026452Y003285D01*
X026433Y003317D01*
X026415Y003335D01*
X026481Y003401D01*
X026481Y003966D01*
X026387Y004060D01*
X026344Y004060D01*
X026344Y004072D01*
X026412Y004141D01*
X026464Y004265D01*
X026464Y004362D01*
X026738Y004636D01*
X026738Y005015D01*
X026718Y005035D01*
X026718Y005715D01*
X026601Y005832D01*
X026525Y005908D01*
X026718Y006101D01*
X026718Y006387D01*
X026738Y006407D01*
X026738Y006977D01*
X026481Y007234D01*
X026481Y007431D01*
X026415Y007497D01*
X026433Y007515D01*
X026452Y007547D01*
X026461Y007582D01*
X026461Y007777D01*
X026164Y007777D01*
X026164Y007857D01*
X026461Y007857D01*
X026461Y008052D01*
X026900Y008052D01*
X026900Y008130D02*
X026423Y008130D01*
X026433Y008120D02*
X026407Y008146D01*
X026375Y008164D01*
X026340Y008174D01*
X026164Y008174D01*
X026164Y007857D01*
X026084Y007857D01*
X026084Y007777D01*
X025787Y007777D01*
X025787Y007582D01*
X025797Y007547D01*
X025815Y007515D01*
X025833Y007497D01*
X025767Y007431D01*
X025767Y006865D01*
X025861Y006772D01*
X026298Y006772D01*
X026298Y006407D01*
X026318Y006387D01*
X026318Y006386D01*
X026296Y006398D01*
X026261Y006408D01*
X026006Y006408D01*
X025751Y006408D01*
X025716Y006398D01*
X025686Y006381D01*
X025411Y006381D01*
X025364Y006428D01*
X025261Y006428D01*
X025261Y006581D01*
X025143Y006699D01*
X025143Y006808D01*
X025231Y006896D01*
X025283Y007021D01*
X025283Y007157D01*
X025231Y007282D01*
X025163Y007350D01*
X025163Y007362D01*
X025561Y007362D01*
X025654Y007456D01*
X025654Y008021D01*
X025602Y008073D01*
X025654Y008125D01*
X025654Y008691D01*
X025561Y008784D01*
X025517Y008784D01*
X025517Y009149D01*
X025389Y009278D01*
X025204Y009278D01*
X025136Y009346D01*
X025011Y009398D01*
X024876Y009398D01*
X024751Y009346D01*
X024655Y009250D01*
X024634Y009199D01*
X024601Y009199D01*
X024601Y009281D01*
X024507Y009375D01*
X024158Y009375D01*
X024126Y009343D01*
X024121Y009346D01*
X024086Y009355D01*
X023973Y009355D01*
X023973Y008993D01*
X023945Y008993D01*
X023945Y009355D01*
X023832Y009355D01*
X023797Y009346D01*
X023792Y009343D01*
X023759Y009375D01*
X023410Y009375D01*
X023317Y009281D01*
X023317Y008676D01*
X023410Y008583D01*
X023525Y008583D01*
X023525Y008351D01*
X023410Y008351D01*
X023317Y008258D01*
X023317Y007723D01*
X023019Y007723D01*
X022974Y007767D01*
X023017Y007810D01*
X023017Y008376D01*
X022965Y008428D01*
X023017Y008479D01*
X023017Y009045D01*
X022923Y009139D01*
X022907Y009139D01*
X022948Y009180D01*
X023000Y009305D01*
X023000Y009440D01*
X022948Y009565D01*
X022852Y009661D01*
X022727Y009712D01*
X022592Y009712D01*
X022467Y009661D01*
X022371Y009565D01*
X022368Y009556D01*
X022368Y009700D01*
X022239Y009829D01*
X021985Y010082D01*
X022089Y010186D01*
X022140Y010309D01*
X022191Y010186D01*
X022340Y010037D01*
X022535Y009957D01*
X022745Y009957D01*
X022940Y010037D01*
X023089Y010186D01*
X023152Y010338D01*
X023167Y010291D01*
X023204Y010219D01*
X023251Y010154D01*
X023308Y010098D01*
X023373Y010050D01*
X023444Y010014D01*
X022884Y010014D01*
X022996Y010093D02*
X023315Y010093D01*
X023239Y010171D02*
X023074Y010171D01*
X023116Y010250D02*
X023188Y010250D01*
X023155Y010328D02*
X023148Y010328D01*
X023444Y010014D02*
X023521Y009989D01*
X023600Y009977D01*
X023600Y010447D01*
X023680Y010447D01*
X023680Y010527D01*
X024150Y010527D01*
X024137Y010606D01*
X024113Y010682D01*
X024080Y010747D01*
X026900Y010747D01*
X026900Y001227D01*
X024080Y001227D01*
X024113Y001291D01*
X024137Y001367D01*
X024150Y001447D01*
X023680Y001447D01*
X023680Y001527D01*
X023600Y001527D01*
X023600Y001997D01*
X023600Y001997D01*
X023521Y001984D01*
X023444Y001959D01*
X023373Y001923D01*
X023308Y001876D01*
X023251Y001819D01*
X023204Y001754D01*
X023167Y001682D01*
X023152Y001635D01*
X023089Y001787D01*
X022940Y001936D01*
X022745Y002017D01*
X022734Y002017D01*
X021474Y003277D01*
X021474Y003956D01*
X021431Y004059D01*
X021337Y004153D01*
X021337Y004165D01*
X021285Y004289D01*
X021189Y004385D01*
X021064Y004437D01*
X020929Y004437D01*
X020804Y004385D01*
X020708Y004289D01*
X020657Y004165D01*
X020657Y004029D01*
X020708Y003904D01*
X020804Y003809D01*
X020914Y003763D01*
X020914Y003106D01*
X020457Y003106D01*
X020519Y003185D02*
X020914Y003185D01*
X020914Y003263D02*
X020551Y003263D01*
X020559Y003342D02*
X020914Y003342D01*
X020914Y003420D02*
X020557Y003420D01*
X020525Y003499D02*
X020914Y003499D01*
X020914Y003577D02*
X020471Y003577D01*
X020367Y003656D02*
X020914Y003656D01*
X020914Y003734D02*
X020223Y003734D01*
X020145Y003813D02*
X020800Y003813D01*
X020722Y003891D02*
X020124Y003891D01*
X020124Y003970D02*
X020681Y003970D01*
X020657Y004048D02*
X020124Y004048D01*
X020124Y004127D02*
X020657Y004127D01*
X020674Y004205D02*
X020124Y004205D01*
X020107Y004284D02*
X020706Y004284D01*
X020781Y004362D02*
X020028Y004362D01*
X019950Y004441D02*
X022257Y004441D01*
X022241Y004362D02*
X021212Y004362D01*
X021287Y004284D02*
X022241Y004284D01*
X022266Y004205D02*
X021320Y004205D01*
X021363Y004127D02*
X022307Y004127D01*
X022306Y004048D02*
X021435Y004048D01*
X021468Y003970D02*
X022227Y003970D01*
X022224Y003891D02*
X021474Y003891D01*
X021474Y003813D02*
X022224Y003813D01*
X022224Y003734D02*
X021474Y003734D01*
X021474Y003656D02*
X022224Y003656D01*
X022224Y003577D02*
X021474Y003577D01*
X021474Y003499D02*
X022224Y003499D01*
X022224Y003420D02*
X021474Y003420D01*
X021474Y003342D02*
X022283Y003342D01*
X022248Y003263D02*
X021488Y003263D01*
X021566Y003185D02*
X022244Y003185D01*
X022244Y003106D02*
X021645Y003106D01*
X021723Y003028D02*
X022541Y003028D01*
X022541Y002974D02*
X022244Y002974D01*
X022244Y002779D01*
X022254Y002744D01*
X022272Y002712D01*
X022298Y002686D01*
X022330Y002667D01*
X022366Y002658D01*
X022541Y002658D01*
X022541Y002974D01*
X022541Y002949D02*
X022621Y002949D01*
X022621Y002871D02*
X022541Y002871D01*
X022541Y002792D02*
X022621Y002792D01*
X022621Y002714D02*
X022541Y002714D01*
X022271Y002714D02*
X022037Y002714D01*
X021959Y002792D02*
X022244Y002792D01*
X022244Y002871D02*
X021880Y002871D01*
X021802Y002949D02*
X022244Y002949D01*
X022621Y003028D02*
X023722Y003028D01*
X023722Y002974D02*
X023425Y002974D01*
X023425Y002779D01*
X023435Y002744D01*
X023453Y002712D01*
X023479Y002686D01*
X023511Y002667D01*
X023547Y002658D01*
X023722Y002658D01*
X023722Y002974D01*
X023722Y002949D02*
X023802Y002949D01*
X023802Y002871D02*
X023722Y002871D01*
X023722Y002792D02*
X023802Y002792D01*
X023802Y002714D02*
X023722Y002714D01*
X023452Y002714D02*
X022891Y002714D01*
X022918Y002792D02*
X023425Y002792D01*
X023425Y002871D02*
X022918Y002871D01*
X022918Y002949D02*
X023425Y002949D01*
X023425Y003106D02*
X022918Y003106D01*
X022918Y003185D02*
X023425Y003185D01*
X023429Y003263D02*
X022914Y003263D01*
X022879Y003342D02*
X023464Y003342D01*
X023405Y003420D02*
X022938Y003420D01*
X022938Y003499D02*
X023405Y003499D01*
X023405Y003577D02*
X022938Y003577D01*
X022938Y003656D02*
X023405Y003656D01*
X023405Y003734D02*
X022938Y003734D01*
X022938Y003813D02*
X023405Y003813D01*
X023405Y003891D02*
X022938Y003891D01*
X022934Y003970D02*
X023409Y003970D01*
X023487Y004048D02*
X022856Y004048D01*
X023079Y004127D02*
X023542Y004127D01*
X023542Y004205D02*
X023158Y004205D01*
X023236Y004284D02*
X023542Y004284D01*
X023542Y004362D02*
X023315Y004362D01*
X023393Y004441D02*
X023542Y004441D01*
X023542Y004519D02*
X023472Y004519D01*
X023982Y004362D02*
X024012Y004362D01*
X024013Y004284D02*
X023982Y004284D01*
X023982Y004205D02*
X024038Y004205D01*
X024078Y004127D02*
X023982Y004127D01*
X024037Y004048D02*
X024157Y004048D01*
X024116Y003970D02*
X024296Y003970D01*
X024243Y003891D02*
X024119Y003891D01*
X024119Y003813D02*
X024210Y003813D01*
X024209Y003734D02*
X024119Y003734D01*
X024119Y003656D02*
X024217Y003656D01*
X024250Y003577D02*
X024119Y003577D01*
X024119Y003499D02*
X024313Y003499D01*
X024439Y003420D02*
X024119Y003420D01*
X024060Y003342D02*
X025039Y003342D01*
X025004Y003263D02*
X024095Y003263D01*
X024099Y003185D02*
X025000Y003185D01*
X025000Y003106D02*
X024099Y003106D01*
X024099Y002949D02*
X025000Y002949D01*
X025000Y002974D02*
X025000Y002779D01*
X025010Y002744D01*
X025028Y002712D01*
X025054Y002686D01*
X025086Y002667D01*
X025122Y002658D01*
X025297Y002658D01*
X025297Y002974D01*
X025000Y002974D01*
X025000Y002871D02*
X024099Y002871D01*
X024099Y002792D02*
X025000Y002792D01*
X025027Y002714D02*
X024072Y002714D01*
X023802Y003028D02*
X025297Y003028D01*
X025297Y002949D02*
X025377Y002949D01*
X025377Y002871D02*
X025297Y002871D01*
X025297Y002792D02*
X025377Y002792D01*
X025377Y002714D02*
X025297Y002714D01*
X025647Y002714D02*
X025814Y002714D01*
X025815Y002712D02*
X025841Y002686D01*
X025873Y002667D01*
X025909Y002658D01*
X026084Y002658D01*
X026084Y002974D01*
X025787Y002974D01*
X025787Y002779D01*
X025797Y002744D01*
X025815Y002712D01*
X025787Y002792D02*
X025674Y002792D01*
X025674Y002871D02*
X025787Y002871D01*
X025787Y002949D02*
X025674Y002949D01*
X025674Y003106D02*
X025787Y003106D01*
X025787Y003185D02*
X025674Y003185D01*
X025670Y003263D02*
X025791Y003263D01*
X025826Y003342D02*
X025635Y003342D01*
X025694Y003420D02*
X025767Y003420D01*
X025767Y003499D02*
X025694Y003499D01*
X025694Y003577D02*
X025767Y003577D01*
X025767Y003656D02*
X025694Y003656D01*
X025694Y003734D02*
X025767Y003734D01*
X025767Y003813D02*
X025694Y003813D01*
X025694Y003891D02*
X025767Y003891D01*
X025771Y003970D02*
X025690Y003970D01*
X025612Y004048D02*
X025849Y004048D01*
X025850Y004127D02*
X025557Y004127D01*
X025557Y004205D02*
X025809Y004205D01*
X025784Y004284D02*
X025599Y004284D01*
X025677Y004362D02*
X025784Y004362D01*
X025801Y004441D02*
X025756Y004441D01*
X025369Y004676D02*
X024966Y004676D01*
X024966Y004598D02*
X025290Y004598D01*
X025212Y004519D02*
X024966Y004519D01*
X024966Y004441D02*
X025133Y004441D01*
X025117Y004362D02*
X024966Y004362D01*
X024966Y004284D02*
X025117Y004284D01*
X025117Y004205D02*
X024966Y004205D01*
X024966Y004127D02*
X025117Y004127D01*
X025062Y004048D02*
X024966Y004048D01*
X024966Y003970D02*
X024983Y003970D01*
X024980Y003891D02*
X024966Y003891D01*
X024980Y003813D02*
X024931Y003813D01*
X024889Y003734D02*
X024980Y003734D01*
X024980Y003656D02*
X024881Y003656D01*
X024849Y003577D02*
X024980Y003577D01*
X024980Y003499D02*
X024786Y003499D01*
X024660Y003420D02*
X024980Y003420D01*
X025377Y003028D02*
X026084Y003028D01*
X026084Y002949D02*
X026164Y002949D01*
X026164Y002871D02*
X026084Y002871D01*
X026084Y002792D02*
X026164Y002792D01*
X026164Y002714D02*
X026084Y002714D01*
X026434Y002714D02*
X026900Y002714D01*
X026900Y002792D02*
X026461Y002792D01*
X026461Y002871D02*
X026900Y002871D01*
X026900Y002949D02*
X026461Y002949D01*
X026461Y003106D02*
X026900Y003106D01*
X026900Y003028D02*
X026164Y003028D01*
X026461Y003185D02*
X026900Y003185D01*
X026900Y003263D02*
X026457Y003263D01*
X026422Y003342D02*
X026900Y003342D01*
X026900Y003420D02*
X026481Y003420D01*
X026481Y003499D02*
X026900Y003499D01*
X026900Y003577D02*
X026481Y003577D01*
X026481Y003656D02*
X026900Y003656D01*
X026900Y003734D02*
X026481Y003734D01*
X026481Y003813D02*
X026900Y003813D01*
X026900Y003891D02*
X026481Y003891D01*
X026478Y003970D02*
X026900Y003970D01*
X026900Y004048D02*
X026399Y004048D01*
X026399Y004127D02*
X026900Y004127D01*
X026900Y004205D02*
X026439Y004205D01*
X026464Y004284D02*
X026900Y004284D01*
X026900Y004362D02*
X026464Y004362D01*
X026543Y004441D02*
X026900Y004441D01*
X026900Y004519D02*
X026621Y004519D01*
X026700Y004598D02*
X026900Y004598D01*
X026900Y004676D02*
X026738Y004676D01*
X026738Y004755D02*
X026900Y004755D01*
X026900Y004833D02*
X026738Y004833D01*
X026738Y004912D02*
X026900Y004912D01*
X026900Y004990D02*
X026738Y004990D01*
X026718Y005069D02*
X026900Y005069D01*
X026900Y005147D02*
X026718Y005147D01*
X026718Y005226D02*
X026900Y005226D01*
X026900Y005304D02*
X026718Y005304D01*
X026718Y005383D02*
X026900Y005383D01*
X026900Y005461D02*
X026718Y005461D01*
X026718Y005540D02*
X026900Y005540D01*
X026900Y005618D02*
X026718Y005618D01*
X026718Y005697D02*
X026900Y005697D01*
X026900Y005775D02*
X026658Y005775D01*
X026579Y005854D02*
X026900Y005854D01*
X026900Y005932D02*
X026549Y005932D01*
X026628Y006011D02*
X026900Y006011D01*
X026900Y006089D02*
X026706Y006089D01*
X026718Y006168D02*
X026900Y006168D01*
X026900Y006246D02*
X026718Y006246D01*
X026718Y006325D02*
X026900Y006325D01*
X026900Y006403D02*
X026734Y006403D01*
X026738Y006482D02*
X026900Y006482D01*
X026900Y006560D02*
X026738Y006560D01*
X026738Y006639D02*
X026900Y006639D01*
X026900Y006717D02*
X026738Y006717D01*
X026738Y006796D02*
X026900Y006796D01*
X026900Y006874D02*
X026738Y006874D01*
X026738Y006953D02*
X026900Y006953D01*
X026900Y007031D02*
X026684Y007031D01*
X026605Y007110D02*
X026900Y007110D01*
X026900Y007188D02*
X026527Y007188D01*
X026481Y007267D02*
X026900Y007267D01*
X026900Y007345D02*
X026481Y007345D01*
X026481Y007424D02*
X026900Y007424D01*
X026900Y007502D02*
X026420Y007502D01*
X026461Y007581D02*
X026900Y007581D01*
X026900Y007659D02*
X026461Y007659D01*
X026461Y007738D02*
X026900Y007738D01*
X026900Y007816D02*
X026164Y007816D01*
X026164Y007895D02*
X026084Y007895D01*
X026084Y007857D02*
X026084Y008174D01*
X025909Y008174D01*
X025873Y008164D01*
X025841Y008146D01*
X025815Y008120D01*
X025797Y008088D01*
X025787Y008052D01*
X025624Y008052D01*
X025654Y008130D02*
X025826Y008130D01*
X025787Y008052D02*
X025787Y007857D01*
X026084Y007857D01*
X026084Y007816D02*
X025654Y007816D01*
X025654Y007738D02*
X025787Y007738D01*
X025787Y007659D02*
X025654Y007659D01*
X025654Y007581D02*
X025788Y007581D01*
X025828Y007502D02*
X025654Y007502D01*
X025622Y007424D02*
X025767Y007424D01*
X025767Y007345D02*
X025168Y007345D01*
X025238Y007267D02*
X025767Y007267D01*
X025767Y007188D02*
X025270Y007188D01*
X025283Y007110D02*
X025767Y007110D01*
X025767Y007031D02*
X025283Y007031D01*
X025255Y006953D02*
X025767Y006953D01*
X025767Y006874D02*
X025209Y006874D01*
X025143Y006796D02*
X025837Y006796D01*
X026298Y006717D02*
X025143Y006717D01*
X025204Y006639D02*
X026298Y006639D01*
X026298Y006560D02*
X025261Y006560D01*
X025261Y006482D02*
X026298Y006482D01*
X026302Y006403D02*
X026278Y006403D01*
X026518Y006498D02*
X026518Y006184D01*
X026402Y006068D01*
X026006Y006068D01*
X026006Y006268D02*
X026006Y006408D01*
X026006Y006268D01*
X026006Y006268D01*
X026006Y006325D02*
X026006Y006325D01*
X026006Y006403D02*
X026006Y006403D01*
X025734Y006403D02*
X025388Y006403D01*
X025061Y006498D02*
X025061Y006228D01*
X025061Y006068D02*
X024389Y006068D01*
X024156Y006302D01*
X023916Y006401D02*
X023819Y006305D01*
X023642Y006305D01*
X023642Y006369D01*
X023633Y006405D01*
X023614Y006437D01*
X023588Y006463D01*
X023556Y006481D01*
X023521Y006491D01*
X023211Y006491D01*
X023211Y006515D01*
X023188Y006538D01*
X022987Y006538D01*
X022987Y006819D01*
X023013Y006845D01*
X023058Y006801D01*
X023183Y006749D01*
X023318Y006749D01*
X023443Y006801D01*
X023538Y006896D01*
X023590Y007021D01*
X023590Y007118D01*
X023916Y006793D01*
X023916Y006401D01*
X023916Y006403D02*
X023633Y006403D01*
X023642Y006325D02*
X023839Y006325D01*
X023723Y006380D02*
X023723Y006695D01*
X023916Y006717D02*
X022987Y006717D01*
X022987Y006639D02*
X023916Y006639D01*
X023916Y006560D02*
X022987Y006560D01*
X022778Y006534D02*
X022778Y006892D01*
X022975Y007089D01*
X023250Y007089D01*
X023562Y006953D02*
X023756Y006953D01*
X023677Y007031D02*
X023590Y007031D01*
X023590Y007110D02*
X023599Y007110D01*
X023516Y006874D02*
X023834Y006874D01*
X023913Y006796D02*
X023431Y006796D01*
X023070Y006796D02*
X022987Y006796D01*
X022581Y006892D02*
X022581Y006534D01*
X021955Y006573D02*
X021955Y006302D01*
X021955Y006105D02*
X021242Y006105D01*
X021242Y006341D01*
X021420Y006482D02*
X020970Y006482D01*
X020970Y006560D02*
X021342Y006560D01*
X021337Y006565D02*
X020986Y006916D01*
X020970Y006899D01*
X020970Y006227D01*
X021089Y006108D01*
X021520Y006108D01*
X021520Y006166D01*
X021500Y006186D01*
X021500Y006417D01*
X021519Y006436D01*
X021466Y006436D01*
X021337Y006565D01*
X021263Y006639D02*
X020970Y006639D01*
X020970Y006717D02*
X021185Y006717D01*
X021106Y006796D02*
X020970Y006796D01*
X020970Y006874D02*
X021028Y006874D01*
X020770Y007010D02*
X020770Y006144D01*
X021006Y005908D01*
X021955Y005908D01*
X021955Y005711D02*
X021085Y005711D01*
X021085Y005042D01*
X021516Y005383D02*
X020482Y005383D01*
X020487Y005391D02*
X020497Y005427D01*
X020497Y005524D01*
X020061Y005524D01*
X020061Y005524D01*
X020061Y005305D01*
X020375Y005305D01*
X020411Y005315D01*
X020442Y005333D01*
X020469Y005359D01*
X020487Y005391D01*
X020497Y005461D02*
X021500Y005461D01*
X021500Y005540D02*
X020497Y005540D01*
X020497Y005524D02*
X020497Y005621D01*
X020488Y005652D01*
X020497Y005683D01*
X020497Y005780D01*
X020497Y005877D01*
X020488Y005908D01*
X020497Y005939D01*
X020497Y006036D01*
X020497Y006133D01*
X020488Y006164D01*
X020497Y006195D01*
X020497Y006292D01*
X020497Y006389D01*
X020487Y006425D01*
X020469Y006456D01*
X020442Y006483D01*
X020411Y006501D01*
X020375Y006511D01*
X020061Y006511D01*
X020061Y006292D01*
X020061Y006292D01*
X020061Y006292D01*
X020497Y006292D01*
X020061Y006292D01*
X020061Y006292D01*
X020061Y006073D01*
X020061Y006036D01*
X020061Y006036D01*
X020061Y006036D01*
X020497Y006036D01*
X020061Y006036D01*
X020061Y006036D01*
X020061Y005817D01*
X020061Y005780D01*
X020061Y005780D01*
X020061Y005780D01*
X020061Y005561D01*
X020061Y005524D01*
X020061Y005524D01*
X020497Y005524D01*
X020497Y005618D02*
X021500Y005618D01*
X021520Y005697D02*
X020497Y005697D01*
X020497Y005775D02*
X020856Y005775D01*
X020778Y005854D02*
X020497Y005854D01*
X020497Y005780D02*
X020061Y005780D01*
X020061Y005780D01*
X020497Y005780D01*
X020495Y005932D02*
X020699Y005932D01*
X020621Y006011D02*
X020497Y006011D01*
X020497Y006089D02*
X020570Y006089D01*
X020570Y006168D02*
X020489Y006168D01*
X020497Y006246D02*
X020570Y006246D01*
X020570Y006325D02*
X020497Y006325D01*
X020493Y006403D02*
X020570Y006403D01*
X020570Y006482D02*
X020443Y006482D01*
X020570Y006560D02*
X019837Y006560D01*
X019837Y006639D02*
X020570Y006639D01*
X020570Y006717D02*
X019837Y006717D01*
X019837Y006735D02*
X019618Y006735D01*
X019837Y006735D01*
X019837Y006796D02*
X020570Y006796D01*
X020570Y006874D02*
X019837Y006874D01*
X019837Y006953D02*
X020516Y006953D01*
X020438Y007031D02*
X019837Y007031D01*
X019813Y007110D02*
X020359Y007110D01*
X020281Y007188D02*
X019914Y007188D01*
X019985Y007267D02*
X020202Y007267D01*
X020196Y007345D02*
X019985Y007345D01*
X019985Y007424D02*
X020196Y007424D01*
X020196Y007502D02*
X019985Y007502D01*
X019985Y007581D02*
X020196Y007581D01*
X020152Y007659D02*
X019985Y007659D01*
X019985Y007738D02*
X020105Y007738D01*
X020076Y007816D02*
X019985Y007816D01*
X019923Y007895D02*
X020076Y007895D01*
X020088Y007973D02*
X019964Y007973D01*
X019965Y008052D02*
X020120Y008052D01*
X020189Y008130D02*
X019965Y008130D01*
X019965Y008251D02*
X019668Y008251D01*
X019668Y008568D01*
X019843Y008568D01*
X019879Y008558D01*
X019911Y008540D01*
X019937Y008514D01*
X019955Y008482D01*
X019965Y008446D01*
X019965Y008251D01*
X019965Y008287D02*
X020469Y008287D01*
X020481Y008366D02*
X019965Y008366D01*
X019965Y008444D02*
X020513Y008444D01*
X020581Y008523D02*
X019928Y008523D01*
X019668Y008523D02*
X019588Y008523D01*
X019588Y008568D02*
X019413Y008568D01*
X019377Y008558D01*
X019345Y008540D01*
X019319Y008514D01*
X019301Y008482D01*
X019291Y008446D01*
X019291Y008251D01*
X019588Y008251D01*
X019588Y008568D01*
X019588Y008444D02*
X019668Y008444D01*
X019668Y008366D02*
X019588Y008366D01*
X019588Y008287D02*
X019668Y008287D01*
X019668Y008209D02*
X020329Y008209D01*
X020720Y008601D02*
X018268Y008601D01*
X018255Y008523D02*
X018541Y008523D01*
X018504Y008444D02*
X018255Y008444D01*
X018255Y008366D02*
X018504Y008366D01*
X018504Y008287D02*
X018255Y008287D01*
X018255Y008209D02*
X018801Y008209D01*
X018801Y008287D02*
X018881Y008287D01*
X018881Y008209D02*
X019588Y008209D01*
X019291Y008287D02*
X019178Y008287D01*
X019178Y008366D02*
X019291Y008366D01*
X019291Y008444D02*
X019178Y008444D01*
X019141Y008523D02*
X019328Y008523D01*
X018881Y008523D02*
X018801Y008523D01*
X018801Y008444D02*
X018881Y008444D01*
X018881Y008366D02*
X018801Y008366D01*
X018504Y008130D02*
X018255Y008130D01*
X018255Y008052D02*
X018504Y008052D01*
X018505Y007973D02*
X018255Y007973D01*
X018255Y007895D02*
X018546Y007895D01*
X018484Y007816D02*
X018255Y007816D01*
X018255Y007738D02*
X018484Y007738D01*
X018484Y007659D02*
X018255Y007659D01*
X018255Y007581D02*
X018484Y007581D01*
X018484Y007502D02*
X018255Y007502D01*
X018255Y007424D02*
X018484Y007424D01*
X019198Y007424D02*
X019199Y007424D01*
X019198Y007502D02*
X019271Y007502D01*
X019271Y007581D02*
X019198Y007581D01*
X019198Y007659D02*
X019271Y007659D01*
X019271Y007738D02*
X019198Y007738D01*
X019198Y007816D02*
X019271Y007816D01*
X019333Y007895D02*
X019136Y007895D01*
X019177Y007973D02*
X019292Y007973D01*
X019291Y008052D02*
X019178Y008052D01*
X019178Y008130D02*
X019291Y008130D01*
X018300Y008680D02*
X020719Y008680D01*
X020640Y008758D02*
X018315Y008758D01*
X018315Y008837D02*
X020562Y008837D01*
X020483Y008915D02*
X018287Y008915D01*
X018244Y008994D02*
X020420Y008994D01*
X020420Y009072D02*
X018162Y009072D01*
X017787Y009072D02*
X017249Y009072D01*
X017249Y008994D02*
X017706Y008994D01*
X017662Y008915D02*
X017249Y008915D01*
X017232Y008837D02*
X017635Y008837D01*
X017635Y008758D02*
X017171Y008758D01*
X017171Y008680D02*
X017649Y008680D01*
X017682Y008601D02*
X017160Y008601D01*
X017082Y008523D02*
X017695Y008523D01*
X017695Y008444D02*
X016579Y008444D01*
X016579Y008366D02*
X017695Y008366D01*
X017695Y008287D02*
X016579Y008287D01*
X016579Y008130D02*
X017275Y008130D01*
X017207Y008052D02*
X016974Y008052D01*
X017060Y007973D02*
X017174Y007973D01*
X017162Y007895D02*
X017105Y007895D01*
X016613Y008052D02*
X016579Y008052D01*
X016263Y008209D02*
X017416Y008209D01*
X017589Y008209D02*
X017695Y008209D01*
X017249Y009151D02*
X020420Y009151D01*
X020420Y009229D02*
X017316Y009229D01*
X017394Y009308D02*
X020420Y009308D01*
X020420Y009386D02*
X018063Y009386D01*
X018142Y009465D02*
X020420Y009465D01*
X020420Y009543D02*
X018220Y009543D01*
X018299Y009622D02*
X020420Y009622D01*
X020420Y009700D02*
X018377Y009700D01*
X018456Y009779D02*
X020420Y009779D01*
X020420Y009857D02*
X018534Y009857D01*
X018613Y009936D02*
X020420Y009936D01*
X020420Y010004D02*
X020340Y010037D01*
X020191Y010186D01*
X020128Y010338D01*
X020113Y010291D01*
X020076Y010219D01*
X020029Y010154D01*
X019972Y010098D01*
X019907Y010050D01*
X019836Y010014D01*
X019965Y010093D02*
X020284Y010093D01*
X020206Y010171D02*
X020041Y010171D01*
X020092Y010250D02*
X020164Y010250D01*
X020132Y010328D02*
X020125Y010328D01*
X019680Y010407D02*
X019600Y010407D01*
X019600Y010447D02*
X019680Y010447D01*
X019680Y009977D01*
X019680Y009977D01*
X019600Y009977D02*
X019600Y010447D01*
X019444Y010014D02*
X019521Y009989D01*
X019600Y009977D01*
X019600Y009977D01*
X020860Y010004D02*
X020940Y010037D01*
X021089Y010186D01*
X021140Y010309D01*
X021191Y010186D01*
X021340Y010037D01*
X021456Y009989D01*
X021928Y009518D01*
X021928Y009108D01*
X021926Y009109D01*
X021891Y009119D01*
X021715Y009119D01*
X021715Y008802D01*
X021635Y008802D01*
X021635Y008722D01*
X021339Y008722D01*
X021339Y008682D01*
X021294Y008726D01*
X020860Y009160D01*
X020860Y010004D01*
X020884Y010014D02*
X021396Y010014D01*
X021284Y010093D02*
X020996Y010093D01*
X021074Y010171D02*
X021206Y010171D01*
X021164Y010250D02*
X021116Y010250D01*
X020860Y009936D02*
X021510Y009936D01*
X021588Y009857D02*
X020860Y009857D01*
X020860Y009779D02*
X021667Y009779D01*
X021745Y009700D02*
X020860Y009700D01*
X020860Y009622D02*
X021824Y009622D01*
X021902Y009543D02*
X020860Y009543D01*
X020860Y009465D02*
X021928Y009465D01*
X021928Y009386D02*
X020860Y009386D01*
X020860Y009308D02*
X021928Y009308D01*
X021928Y009229D02*
X020860Y009229D01*
X020870Y009151D02*
X021928Y009151D01*
X021715Y009072D02*
X021635Y009072D01*
X021635Y009119D02*
X021460Y009119D01*
X021425Y009109D01*
X021393Y009091D01*
X021367Y009065D01*
X021348Y009033D01*
X021339Y008997D01*
X021339Y008802D01*
X021635Y008802D01*
X021635Y009119D01*
X021635Y008994D02*
X021715Y008994D01*
X021715Y008915D02*
X021635Y008915D01*
X021635Y008837D02*
X021715Y008837D01*
X021635Y008758D02*
X021262Y008758D01*
X021339Y008837D02*
X021184Y008837D01*
X021105Y008915D02*
X021339Y008915D01*
X021339Y008994D02*
X021027Y008994D01*
X020948Y009072D02*
X021374Y009072D01*
X022368Y009622D02*
X022428Y009622D01*
X022368Y009700D02*
X022562Y009700D01*
X022757Y009700D02*
X026900Y009700D01*
X026900Y009622D02*
X022891Y009622D01*
X022957Y009543D02*
X026900Y009543D01*
X026900Y009465D02*
X022990Y009465D01*
X023000Y009386D02*
X024848Y009386D01*
X024712Y009308D02*
X024575Y009308D01*
X024601Y009229D02*
X024646Y009229D01*
X025038Y009386D02*
X026900Y009386D01*
X026900Y009308D02*
X025174Y009308D01*
X025437Y009229D02*
X026900Y009229D01*
X026900Y009151D02*
X025515Y009151D01*
X025517Y009072D02*
X026900Y009072D01*
X026900Y008994D02*
X025517Y008994D01*
X025517Y008915D02*
X026900Y008915D01*
X026900Y008837D02*
X025517Y008837D01*
X025587Y008758D02*
X026900Y008758D01*
X026900Y008680D02*
X025654Y008680D01*
X025654Y008601D02*
X026900Y008601D01*
X026900Y008523D02*
X025654Y008523D01*
X025654Y008444D02*
X026900Y008444D01*
X026900Y008366D02*
X025654Y008366D01*
X025654Y008287D02*
X026900Y008287D01*
X026900Y008209D02*
X025654Y008209D01*
X026084Y008130D02*
X026164Y008130D01*
X026164Y008052D02*
X026084Y008052D01*
X026084Y007973D02*
X026164Y007973D01*
X026461Y007973D02*
X026900Y007973D01*
X026900Y007895D02*
X026461Y007895D01*
X026461Y008052D02*
X026452Y008088D01*
X026433Y008120D01*
X025787Y007973D02*
X025654Y007973D01*
X025654Y007895D02*
X025787Y007895D01*
X024943Y007089D02*
X024943Y006617D01*
X025061Y006498D01*
X025061Y005908D02*
X024353Y005908D01*
X024156Y005711D01*
X024156Y005514D01*
X024510Y005593D02*
X024510Y005160D01*
X024730Y005147D02*
X025806Y005147D01*
X025806Y005226D02*
X024730Y005226D01*
X024710Y005304D02*
X025806Y005304D01*
X025806Y005383D02*
X024710Y005383D01*
X024710Y005461D02*
X024714Y005461D01*
X024510Y005593D02*
X024665Y005748D01*
X025061Y005748D01*
X025061Y005540D02*
X025061Y005540D01*
X025061Y005461D02*
X025061Y005461D01*
X024730Y005069D02*
X025761Y005069D01*
X025683Y004990D02*
X024755Y004990D01*
X024833Y004912D02*
X025604Y004912D01*
X025526Y004833D02*
X024912Y004833D01*
X024966Y004755D02*
X025447Y004755D01*
X025927Y004924D02*
X026006Y005002D01*
X026006Y005588D01*
X026006Y005748D02*
X026402Y005748D01*
X026518Y005632D01*
X026518Y004924D01*
X023959Y006105D02*
X023207Y006105D01*
X023207Y006302D02*
X023644Y006302D01*
X023723Y006380D01*
X023555Y006482D02*
X023916Y006482D01*
X023605Y005711D02*
X023207Y005711D01*
X023605Y005711D02*
X023762Y005554D01*
X023368Y005396D02*
X023368Y005042D01*
X023368Y005396D02*
X023250Y005514D01*
X023207Y005514D01*
X022384Y005282D02*
X022384Y004727D01*
X022164Y004755D02*
X019834Y004755D01*
X019837Y004833D02*
X022179Y004833D01*
X022184Y004912D02*
X019837Y004912D01*
X019837Y004990D02*
X022175Y004990D01*
X022175Y005069D02*
X019837Y005069D01*
X019837Y005147D02*
X022175Y005147D01*
X022175Y005226D02*
X019837Y005226D01*
X019865Y005304D02*
X021950Y005304D01*
X022164Y004676D02*
X019785Y004676D01*
X019793Y004598D02*
X022202Y004598D01*
X022281Y004519D02*
X019871Y004519D01*
X020061Y005383D02*
X020061Y005383D01*
X020061Y005461D02*
X020061Y005461D01*
X020061Y005540D02*
X020061Y005540D01*
X020061Y005618D02*
X020061Y005618D01*
X020061Y005697D02*
X020061Y005697D01*
X020061Y005775D02*
X020061Y005775D01*
X020061Y005854D02*
X020061Y005854D01*
X020061Y005932D02*
X020061Y005932D01*
X020061Y006011D02*
X020061Y006011D01*
X020061Y006089D02*
X020061Y006089D01*
X020061Y006168D02*
X020061Y006168D01*
X020061Y006246D02*
X020061Y006246D01*
X020061Y006325D02*
X020061Y006325D01*
X020061Y006403D02*
X020061Y006403D01*
X020061Y006482D02*
X020061Y006482D01*
X019618Y006735D02*
X019618Y006735D01*
X020970Y006403D02*
X021500Y006403D01*
X021500Y006325D02*
X020970Y006325D01*
X020970Y006246D02*
X021500Y006246D01*
X021518Y006168D02*
X021029Y006168D01*
X021872Y006656D02*
X021955Y006573D01*
X023004Y007738D02*
X023317Y007738D01*
X023317Y007816D02*
X023017Y007816D01*
X023017Y007895D02*
X023317Y007895D01*
X023317Y007973D02*
X023017Y007973D01*
X023017Y008052D02*
X023317Y008052D01*
X023317Y008130D02*
X023017Y008130D01*
X023017Y008209D02*
X023317Y008209D01*
X023346Y008287D02*
X023017Y008287D01*
X023017Y008366D02*
X023525Y008366D01*
X023525Y008444D02*
X022981Y008444D01*
X023017Y008523D02*
X023525Y008523D01*
X023392Y008601D02*
X023017Y008601D01*
X023017Y008680D02*
X023317Y008680D01*
X023317Y008758D02*
X023017Y008758D01*
X023017Y008837D02*
X023317Y008837D01*
X023317Y008915D02*
X023017Y008915D01*
X023017Y008994D02*
X023317Y008994D01*
X023317Y009072D02*
X022989Y009072D01*
X022919Y009151D02*
X023317Y009151D01*
X023317Y009229D02*
X022968Y009229D01*
X023000Y009308D02*
X023343Y009308D01*
X023945Y009308D02*
X023973Y009308D01*
X023973Y009229D02*
X023945Y009229D01*
X023945Y009151D02*
X023973Y009151D01*
X023973Y009072D02*
X023945Y009072D01*
X023945Y008994D02*
X023973Y008994D01*
X022289Y009779D02*
X026900Y009779D01*
X026900Y009857D02*
X022211Y009857D01*
X022132Y009936D02*
X026900Y009936D01*
X026900Y010014D02*
X023836Y010014D01*
X023907Y010050D01*
X023972Y010098D01*
X024029Y010154D01*
X024076Y010219D01*
X024113Y010291D01*
X024137Y010367D01*
X024150Y010447D01*
X023680Y010447D01*
X023680Y009977D01*
X023680Y009977D01*
X023759Y009989D01*
X023836Y010014D01*
X023965Y010093D02*
X026900Y010093D01*
X026900Y010171D02*
X024041Y010171D01*
X024092Y010250D02*
X026900Y010250D01*
X026900Y010328D02*
X024125Y010328D01*
X024144Y010407D02*
X026900Y010407D01*
X026900Y010485D02*
X023680Y010485D01*
X023680Y010407D02*
X023600Y010407D01*
X023600Y010328D02*
X023680Y010328D01*
X023680Y010250D02*
X023600Y010250D01*
X023600Y010171D02*
X023680Y010171D01*
X023680Y010093D02*
X023600Y010093D01*
X023600Y010014D02*
X023680Y010014D01*
X023600Y009977D02*
X023600Y009977D01*
X024150Y010447D02*
X024150Y010447D01*
X024150Y010527D02*
X024150Y010527D01*
X024144Y010564D02*
X026900Y010564D01*
X026900Y010642D02*
X024126Y010642D01*
X024093Y010721D02*
X026900Y010721D01*
X022396Y010014D02*
X022054Y010014D01*
X021996Y010093D02*
X022284Y010093D01*
X022206Y010171D02*
X022074Y010171D01*
X022116Y010250D02*
X022164Y010250D01*
X018216Y010161D02*
X017805Y009750D01*
X017214Y009750D01*
X017184Y009720D01*
X017155Y009749D01*
X016747Y009749D01*
X016700Y009702D01*
X016670Y009719D01*
X016635Y009729D01*
X016507Y009729D01*
X016507Y009283D01*
X016450Y009283D01*
X016450Y009729D01*
X016322Y009729D01*
X016287Y009719D01*
X016257Y009702D01*
X016226Y009733D01*
X016226Y009762D01*
X016454Y009990D01*
X016535Y009957D01*
X016745Y009957D01*
X016940Y010037D01*
X017089Y010186D01*
X017152Y010338D01*
X017167Y010291D01*
X017204Y010219D01*
X017251Y010154D01*
X017308Y010098D01*
X017373Y010050D01*
X017444Y010014D01*
X016884Y010014D01*
X016996Y010093D02*
X017315Y010093D01*
X017239Y010171D02*
X017074Y010171D01*
X017116Y010250D02*
X017188Y010250D01*
X017155Y010328D02*
X017148Y010328D01*
X017444Y010014D02*
X017521Y009989D01*
X017600Y009977D01*
X017600Y010447D01*
X017680Y010447D01*
X017680Y009977D01*
X017680Y009977D01*
X017759Y009989D01*
X017836Y010014D01*
X018069Y010014D01*
X017991Y009936D02*
X016400Y009936D01*
X016322Y009857D02*
X017912Y009857D01*
X017834Y009779D02*
X016243Y009779D01*
X016450Y009700D02*
X016507Y009700D01*
X016507Y009622D02*
X016450Y009622D01*
X016450Y009543D02*
X016507Y009543D01*
X016507Y009465D02*
X016450Y009465D01*
X016450Y009386D02*
X016507Y009386D01*
X016507Y009308D02*
X016450Y009308D01*
X017600Y009977D02*
X017600Y009977D01*
X017600Y010014D02*
X017680Y010014D01*
X017680Y010093D02*
X017600Y010093D01*
X017600Y010171D02*
X017680Y010171D01*
X017680Y010250D02*
X017600Y010250D01*
X017600Y010328D02*
X017680Y010328D01*
X017680Y010407D02*
X017600Y010407D01*
X017972Y010098D02*
X018029Y010154D01*
X018076Y010219D01*
X018113Y010291D01*
X018128Y010338D01*
X018191Y010186D01*
X018216Y010161D01*
X018206Y010171D02*
X018041Y010171D01*
X018092Y010250D02*
X018164Y010250D01*
X018132Y010328D02*
X018125Y010328D01*
X018148Y010093D02*
X017965Y010093D01*
X017972Y010098D02*
X017907Y010050D01*
X017836Y010014D01*
X014420Y010004D02*
X014420Y009537D01*
X013907Y009024D01*
X013850Y009024D01*
X013549Y008723D01*
X013549Y008912D01*
X013322Y009139D01*
X013343Y009160D01*
X013361Y009142D01*
X013393Y009124D01*
X013429Y009114D01*
X013624Y009114D01*
X013624Y009411D01*
X013704Y009411D01*
X013704Y009491D01*
X014020Y009491D01*
X014020Y009667D01*
X014011Y009702D01*
X013992Y009734D01*
X013966Y009760D01*
X013934Y009779D01*
X014420Y009779D01*
X014420Y009857D02*
X010321Y009857D01*
X010370Y009808D02*
X010270Y009907D01*
X010024Y009907D01*
X010024Y010344D01*
X009931Y010438D01*
X009247Y010438D01*
X009153Y010344D01*
X009153Y009739D01*
X009163Y009730D01*
X009011Y009578D01*
X009011Y010147D01*
X008962Y010196D01*
X008962Y010322D01*
X009003Y010419D01*
X009003Y010542D01*
X008960Y010645D01*
X008881Y010724D01*
X008827Y010747D01*
X010200Y010747D01*
X010167Y010682D01*
X010143Y010606D01*
X010130Y010527D01*
X010130Y010527D01*
X010600Y010527D01*
X010600Y010447D01*
X010130Y010447D01*
X010130Y010447D01*
X010143Y010367D01*
X010167Y010291D01*
X010204Y010219D01*
X010251Y010154D01*
X010308Y010098D01*
X010373Y010050D01*
X010444Y010014D01*
X010024Y010014D01*
X010024Y009936D02*
X014420Y009936D01*
X014420Y010004D02*
X014340Y010037D01*
X014191Y010186D01*
X014140Y010309D01*
X014089Y010186D01*
X013940Y010037D01*
X013745Y009957D01*
X013535Y009957D01*
X013340Y010037D01*
X013191Y010186D01*
X013140Y010309D01*
X013089Y010186D01*
X012940Y010037D01*
X012745Y009957D01*
X012535Y009957D01*
X012340Y010037D01*
X012191Y010186D01*
X012140Y010309D01*
X012089Y010186D01*
X011940Y010037D01*
X011745Y009957D01*
X011535Y009957D01*
X011340Y010037D01*
X011191Y010186D01*
X011128Y010338D01*
X011113Y010291D01*
X011076Y010219D01*
X011029Y010154D01*
X010972Y010098D01*
X010907Y010050D01*
X010836Y010014D01*
X011396Y010014D01*
X011284Y010093D02*
X010965Y010093D01*
X011041Y010171D02*
X011206Y010171D01*
X011164Y010250D02*
X011092Y010250D01*
X011125Y010328D02*
X011132Y010328D01*
X010680Y010328D02*
X010600Y010328D01*
X010600Y010250D02*
X010680Y010250D01*
X010680Y010171D02*
X010600Y010171D01*
X010600Y010093D02*
X010680Y010093D01*
X010680Y010014D02*
X010600Y010014D01*
X010600Y009977D02*
X010600Y010447D01*
X010680Y010447D01*
X010680Y009977D01*
X010680Y009977D01*
X010759Y009989D01*
X010836Y010014D01*
X010600Y009977D02*
X010600Y009977D01*
X010521Y009989D01*
X010444Y010014D01*
X010315Y010093D02*
X010024Y010093D01*
X010024Y010171D02*
X010239Y010171D01*
X010188Y010250D02*
X010024Y010250D01*
X010024Y010328D02*
X010155Y010328D01*
X010136Y010407D02*
X009962Y010407D01*
X010136Y010564D02*
X008994Y010564D01*
X009003Y010485D02*
X010600Y010485D01*
X010600Y010407D02*
X010680Y010407D01*
X010154Y010642D02*
X008961Y010642D01*
X008885Y010721D02*
X010187Y010721D01*
X009216Y010407D02*
X008998Y010407D01*
X008965Y010328D02*
X009153Y010328D01*
X009153Y010250D02*
X008962Y010250D01*
X008987Y010171D02*
X009153Y010171D01*
X009153Y010093D02*
X009011Y010093D01*
X009011Y010014D02*
X009153Y010014D01*
X009153Y009936D02*
X009011Y009936D01*
X009011Y009857D02*
X009153Y009857D01*
X009153Y009779D02*
X009011Y009779D01*
X009011Y009700D02*
X009133Y009700D01*
X009054Y009622D02*
X009011Y009622D01*
X008819Y009386D02*
X007597Y009386D01*
X007662Y009308D02*
X008740Y009308D01*
X008662Y009229D02*
X007662Y009229D01*
X007662Y009151D02*
X007753Y009151D01*
X007726Y009072D02*
X007662Y009072D01*
X008354Y009072D02*
X008382Y009072D01*
X008382Y008994D02*
X008354Y008994D01*
X008354Y008915D02*
X008382Y008915D01*
X008382Y008837D02*
X008354Y008837D01*
X008354Y008758D02*
X008382Y008758D01*
X008382Y008680D02*
X008354Y008680D01*
X008354Y008601D02*
X008382Y008601D01*
X008382Y008523D02*
X008354Y008523D01*
X008188Y008444D02*
X008522Y008444D01*
X008522Y008366D02*
X007668Y008366D01*
X007801Y008444D02*
X000380Y008444D01*
X000380Y008366D02*
X007493Y008366D01*
X007353Y008287D02*
X000380Y008287D01*
X000380Y008209D02*
X004093Y008209D01*
X004083Y008199D02*
X004109Y008225D01*
X004141Y008243D01*
X004177Y008253D01*
X004901Y008253D01*
X004901Y007916D01*
X004901Y007836D01*
X004981Y007836D01*
X004981Y007916D01*
X005827Y007916D01*
X005827Y008131D01*
X005818Y008167D01*
X005799Y008199D01*
X005773Y008225D01*
X005741Y008243D01*
X005706Y008253D01*
X004981Y008253D01*
X004981Y007916D01*
X004901Y007916D01*
X004055Y007916D01*
X004055Y008131D01*
X004065Y008167D01*
X004083Y008199D01*
X004055Y008130D02*
X000380Y008130D01*
X000380Y008052D02*
X004055Y008052D01*
X004055Y007973D02*
X000380Y007973D01*
X000380Y007895D02*
X004901Y007895D01*
X004901Y007836D02*
X004055Y007836D01*
X004055Y007622D01*
X004065Y007586D01*
X004083Y007554D01*
X004109Y007528D01*
X004141Y007510D01*
X004177Y007500D01*
X004901Y007500D01*
X004901Y007836D01*
X004901Y007816D02*
X004981Y007816D01*
X004981Y007738D02*
X004901Y007738D01*
X004901Y007659D02*
X004981Y007659D01*
X004981Y007581D02*
X004901Y007581D01*
X004901Y007502D02*
X004981Y007502D01*
X005511Y007424D02*
X000380Y007424D01*
X000380Y007502D02*
X004169Y007502D01*
X004068Y007581D02*
X000380Y007581D01*
X000380Y007659D02*
X004055Y007659D01*
X004055Y007738D02*
X000380Y007738D01*
X000380Y007816D02*
X004055Y007816D01*
X004901Y007973D02*
X004981Y007973D01*
X004981Y007895D02*
X007271Y007895D01*
X007241Y007973D02*
X005827Y007973D01*
X005827Y008052D02*
X007241Y008052D01*
X007253Y008130D02*
X005827Y008130D01*
X005789Y008209D02*
X007285Y008209D01*
X007726Y008519D02*
X007726Y008601D01*
X007352Y008680D02*
X006550Y008680D01*
X006240Y009229D02*
X006179Y009229D01*
X006240Y009308D02*
X002912Y009308D01*
X002991Y009386D02*
X006305Y009386D01*
X006307Y009543D02*
X003148Y009543D01*
X003226Y009622D02*
X006262Y009622D01*
X006260Y009700D02*
X006206Y009700D01*
X006245Y009779D02*
X006260Y009779D01*
X006245Y009857D02*
X006576Y009857D01*
X006576Y009885D02*
X006260Y009885D01*
X006260Y010060D01*
X006269Y010096D01*
X006288Y010128D01*
X006314Y010154D01*
X006346Y010172D01*
X006381Y010182D01*
X006576Y010182D01*
X006576Y009885D01*
X006576Y009936D02*
X006656Y009936D01*
X006656Y010014D02*
X006576Y010014D01*
X006576Y010093D02*
X006656Y010093D01*
X006656Y010171D02*
X006576Y010171D01*
X006344Y010171D02*
X006245Y010171D01*
X006245Y010093D02*
X006269Y010093D01*
X006260Y010014D02*
X006245Y010014D01*
X006245Y009936D02*
X006260Y009936D01*
X006576Y009779D02*
X006656Y009779D01*
X006656Y009700D02*
X006576Y009700D01*
X006576Y009622D02*
X006656Y009622D01*
X006656Y009543D02*
X006576Y009543D01*
X006926Y009543D02*
X006948Y009543D01*
X006927Y009386D02*
X006975Y009386D01*
X007624Y009543D02*
X007726Y009543D01*
X007726Y009622D02*
X007662Y009622D01*
X007804Y009465D02*
X003069Y009465D01*
X003114Y009198D02*
X003078Y009188D01*
X003046Y009170D01*
X003020Y009143D01*
X003002Y009112D01*
X002992Y009076D01*
X002992Y008901D01*
X003309Y008901D01*
X003309Y009198D01*
X003114Y009198D01*
X003027Y009151D02*
X002780Y009151D01*
X002780Y009072D02*
X002992Y009072D01*
X002992Y008994D02*
X002780Y008994D01*
X002744Y008915D02*
X002992Y008915D01*
X002992Y008821D02*
X002992Y008645D01*
X003002Y008610D01*
X003020Y008578D01*
X003046Y008552D01*
X003078Y008533D01*
X003114Y008524D01*
X003309Y008524D01*
X003309Y008821D01*
X003389Y008821D01*
X003389Y008524D01*
X003584Y008524D01*
X003619Y008533D01*
X003651Y008552D01*
X003669Y008570D01*
X003735Y008504D01*
X004301Y008504D01*
X004394Y008598D01*
X004394Y008641D01*
X004429Y008641D01*
X004429Y008558D01*
X004523Y008464D01*
X005206Y008464D01*
X005300Y008558D01*
X005300Y009163D01*
X005206Y009257D01*
X004523Y009257D01*
X004429Y009163D01*
X004429Y009081D01*
X004394Y009081D01*
X004394Y009124D01*
X004301Y009218D01*
X003735Y009218D01*
X003669Y009152D01*
X003651Y009170D01*
X003619Y009188D01*
X003584Y009198D01*
X003389Y009198D01*
X003389Y008901D01*
X003309Y008901D01*
X003309Y008821D01*
X002992Y008821D01*
X002992Y008758D02*
X000380Y008758D01*
X000380Y008680D02*
X002992Y008680D01*
X003007Y008601D02*
X000380Y008601D01*
X000380Y008523D02*
X003716Y008523D01*
X003389Y008601D02*
X003309Y008601D01*
X003309Y008680D02*
X003389Y008680D01*
X003389Y008758D02*
X003309Y008758D01*
X003309Y008837D02*
X000380Y008837D01*
X000380Y008915D02*
X001502Y008915D01*
X001511Y008906D02*
X001485Y008932D01*
X001466Y008964D01*
X001457Y009000D01*
X001457Y009216D01*
X001715Y009216D01*
X001715Y009293D01*
X001457Y009293D01*
X001457Y009509D01*
X001466Y009545D01*
X001485Y009577D01*
X001511Y009603D01*
X001543Y009621D01*
X001578Y009631D01*
X001715Y009631D01*
X001715Y009293D01*
X001793Y009293D01*
X002052Y009293D01*
X002052Y009509D01*
X002042Y009545D01*
X002024Y009577D01*
X001998Y009603D01*
X001966Y009621D01*
X001930Y009631D01*
X001793Y009631D01*
X001793Y009293D01*
X001793Y009216D01*
X002052Y009216D01*
X002052Y009000D01*
X002042Y008964D01*
X002024Y008932D01*
X001998Y008906D01*
X001966Y008888D01*
X001930Y008878D01*
X001793Y008878D01*
X001793Y009216D01*
X001715Y009216D01*
X001715Y008878D01*
X001578Y008878D01*
X001543Y008888D01*
X001511Y008906D01*
X001458Y008994D02*
X000380Y008994D01*
X000380Y009072D02*
X001457Y009072D01*
X001457Y009151D02*
X000380Y009151D01*
X000380Y009229D02*
X001715Y009229D01*
X001793Y009229D02*
X002145Y009229D01*
X002145Y009151D02*
X002052Y009151D01*
X002052Y009072D02*
X002145Y009072D01*
X002145Y008994D02*
X002050Y008994D01*
X002007Y008915D02*
X002182Y008915D01*
X001793Y008915D02*
X001715Y008915D01*
X001715Y008994D02*
X001793Y008994D01*
X001793Y009072D02*
X001715Y009072D01*
X001715Y009151D02*
X001793Y009151D01*
X001793Y009308D02*
X001715Y009308D01*
X001715Y009386D02*
X001793Y009386D01*
X001793Y009465D02*
X001715Y009465D01*
X001715Y009543D02*
X001793Y009543D01*
X001793Y009622D02*
X001715Y009622D01*
X001545Y009622D02*
X000380Y009622D01*
X000380Y009700D02*
X002513Y009700D01*
X002591Y009779D02*
X000380Y009779D01*
X000380Y009857D02*
X002670Y009857D01*
X002336Y010014D02*
X002259Y009989D01*
X002180Y009977D01*
X002180Y009977D01*
X002180Y010447D01*
X002100Y010447D01*
X002100Y009977D01*
X002100Y009977D01*
X002021Y009989D01*
X001944Y010014D01*
X001815Y010093D02*
X000380Y010093D01*
X000380Y010171D02*
X001739Y010171D01*
X001688Y010250D02*
X000380Y010250D01*
X000380Y010328D02*
X001655Y010328D01*
X001636Y010407D02*
X000380Y010407D01*
X000380Y010485D02*
X002100Y010485D01*
X002100Y010407D02*
X002180Y010407D01*
X002180Y010328D02*
X002100Y010328D01*
X002100Y010250D02*
X002180Y010250D01*
X002180Y010171D02*
X002100Y010171D01*
X002100Y010093D02*
X002180Y010093D01*
X002180Y010014D02*
X002100Y010014D01*
X002465Y010093D02*
X002784Y010093D01*
X002706Y010171D02*
X002541Y010171D01*
X002592Y010250D02*
X002664Y010250D01*
X002632Y010328D02*
X002625Y010328D01*
X003420Y010014D02*
X004429Y010014D01*
X004429Y009936D02*
X003420Y009936D01*
X003412Y009857D02*
X004429Y009857D01*
X004429Y009779D02*
X003380Y009779D01*
X003305Y009700D02*
X004468Y009700D01*
X004429Y010093D02*
X003496Y010093D01*
X003574Y010171D02*
X004429Y010171D01*
X005300Y010171D02*
X005374Y010171D01*
X005374Y010093D02*
X005300Y010093D01*
X005300Y010014D02*
X005374Y010014D01*
X005374Y009936D02*
X005300Y009936D01*
X005300Y009857D02*
X005374Y009857D01*
X005374Y009779D02*
X005300Y009779D01*
X005261Y009700D02*
X005413Y009700D01*
X005440Y009229D02*
X005234Y009229D01*
X005300Y009151D02*
X005374Y009151D01*
X005374Y009072D02*
X005300Y009072D01*
X005300Y008994D02*
X005374Y008994D01*
X005374Y008915D02*
X005300Y008915D01*
X005300Y008837D02*
X005374Y008837D01*
X005374Y008758D02*
X005300Y008758D01*
X005300Y008680D02*
X005374Y008680D01*
X005374Y008601D02*
X005300Y008601D01*
X005265Y008523D02*
X005409Y008523D01*
X004981Y008209D02*
X004901Y008209D01*
X004901Y008130D02*
X004981Y008130D01*
X004981Y008052D02*
X004901Y008052D01*
X004464Y008523D02*
X004320Y008523D01*
X004394Y008601D02*
X004429Y008601D01*
X003389Y008915D02*
X003309Y008915D01*
X003309Y008994D02*
X003389Y008994D01*
X003389Y009072D02*
X003309Y009072D01*
X003309Y009151D02*
X003389Y009151D01*
X002834Y009229D02*
X004495Y009229D01*
X004429Y009151D02*
X004368Y009151D01*
X002210Y009622D02*
X001963Y009622D01*
X002043Y009543D02*
X002145Y009543D01*
X002145Y009465D02*
X002052Y009465D01*
X002052Y009386D02*
X002145Y009386D01*
X002145Y009308D02*
X002052Y009308D01*
X001457Y009308D02*
X000380Y009308D01*
X000380Y009386D02*
X001457Y009386D01*
X001457Y009465D02*
X000380Y009465D01*
X000380Y009543D02*
X001466Y009543D01*
X001636Y010564D02*
X000380Y010564D01*
X000380Y010642D02*
X001654Y010642D01*
X001687Y010721D02*
X000380Y010721D01*
X006889Y010171D02*
X006972Y010171D01*
X007599Y010171D02*
X007750Y010171D01*
X007726Y010093D02*
X007662Y010093D01*
X008239Y010171D02*
X008498Y010171D01*
X008474Y010093D02*
X008263Y010093D01*
X008263Y010014D02*
X008474Y010014D01*
X008474Y009936D02*
X008263Y009936D01*
X008263Y009857D02*
X008474Y009857D01*
X008474Y009779D02*
X008263Y009779D01*
X008263Y009700D02*
X008474Y009700D01*
X008474Y009622D02*
X008263Y009622D01*
X008263Y009543D02*
X008474Y009543D01*
X008552Y009465D02*
X008185Y009465D01*
X008354Y009151D02*
X008382Y009151D01*
X009011Y008915D02*
X009153Y008915D01*
X009153Y008837D02*
X009011Y008837D01*
X009011Y008758D02*
X009153Y008758D01*
X009153Y008680D02*
X009011Y008680D01*
X009011Y008601D02*
X009153Y008601D01*
X009189Y008523D02*
X009011Y008523D01*
X009049Y008994D02*
X009153Y008994D01*
X009153Y009072D02*
X009127Y009072D01*
X010370Y009808D02*
X010915Y009808D01*
X010967Y009756D01*
X011019Y009808D01*
X011584Y009808D01*
X011678Y009714D01*
X011678Y009671D01*
X012618Y009671D01*
X012618Y009714D01*
X012712Y009808D01*
X013277Y009808D01*
X013343Y009742D01*
X013361Y009760D01*
X013393Y009779D01*
X013429Y009788D01*
X013624Y009788D01*
X013624Y009491D01*
X013704Y009491D01*
X013704Y009788D01*
X013899Y009788D01*
X013934Y009779D01*
X014011Y009700D02*
X014420Y009700D01*
X014420Y009622D02*
X014020Y009622D01*
X014020Y009543D02*
X014420Y009543D01*
X014348Y009465D02*
X013704Y009465D01*
X013704Y009411D02*
X014020Y009411D01*
X014020Y009236D01*
X014011Y009200D01*
X013992Y009168D01*
X013966Y009142D01*
X013934Y009124D01*
X013899Y009114D01*
X013704Y009114D01*
X013704Y009411D01*
X013704Y009386D02*
X013624Y009386D01*
X013624Y009308D02*
X013704Y009308D01*
X013704Y009229D02*
X013624Y009229D01*
X013624Y009151D02*
X013704Y009151D01*
X013955Y009072D02*
X013389Y009072D01*
X013353Y009151D02*
X013333Y009151D01*
X013468Y008994D02*
X013820Y008994D01*
X013741Y008915D02*
X013546Y008915D01*
X013549Y008837D02*
X013663Y008837D01*
X013584Y008758D02*
X013549Y008758D01*
X013974Y009151D02*
X014034Y009151D01*
X014018Y009229D02*
X014112Y009229D01*
X014191Y009308D02*
X014020Y009308D01*
X014020Y009386D02*
X014269Y009386D01*
X013704Y009543D02*
X013624Y009543D01*
X013624Y009622D02*
X013704Y009622D01*
X013704Y009700D02*
X013624Y009700D01*
X013624Y009779D02*
X013704Y009779D01*
X013394Y009779D02*
X013307Y009779D01*
X013396Y010014D02*
X012884Y010014D01*
X012996Y010093D02*
X013284Y010093D01*
X013206Y010171D02*
X013074Y010171D01*
X013116Y010250D02*
X013164Y010250D01*
X013884Y010014D02*
X014396Y010014D01*
X014284Y010093D02*
X013996Y010093D01*
X014074Y010171D02*
X014206Y010171D01*
X014164Y010250D02*
X014116Y010250D01*
X012682Y009779D02*
X011614Y009779D01*
X011678Y009700D02*
X012618Y009700D01*
X012396Y010014D02*
X011884Y010014D01*
X011996Y010093D02*
X012284Y010093D01*
X012206Y010171D02*
X012074Y010171D01*
X012116Y010250D02*
X012164Y010250D01*
X010989Y009779D02*
X010944Y009779D01*
X014910Y008068D02*
X015177Y008336D01*
X015177Y008067D01*
X015044Y007934D01*
X014984Y007994D01*
X014683Y007693D01*
X014669Y007707D01*
X014970Y008008D01*
X014910Y008068D01*
X014926Y008052D02*
X015162Y008052D01*
X015177Y008130D02*
X014972Y008130D01*
X015050Y008209D02*
X015177Y008209D01*
X015177Y008287D02*
X015129Y008287D01*
X015083Y007973D02*
X015005Y007973D01*
X014963Y007973D02*
X014935Y007973D01*
X014884Y007895D02*
X014856Y007895D01*
X014806Y007816D02*
X014778Y007816D01*
X014727Y007738D02*
X014699Y007738D01*
X014649Y007659D02*
X014621Y007659D01*
X014570Y007581D02*
X014542Y007581D01*
X014492Y007502D02*
X014464Y007502D01*
X014377Y007267D02*
X014341Y007267D01*
X013109Y007267D02*
X012206Y007267D01*
X012285Y007345D02*
X013109Y007345D01*
X013109Y007424D02*
X012363Y007424D01*
X012442Y007502D02*
X013109Y007502D01*
X013109Y007581D02*
X012520Y007581D01*
X012599Y007659D02*
X013109Y007659D01*
X012161Y006953D02*
X012150Y006953D01*
X010045Y007502D02*
X006324Y007502D01*
X006324Y007424D02*
X008215Y007424D01*
X008197Y007345D02*
X006324Y007345D01*
X006324Y007267D02*
X008197Y007267D01*
X008584Y007267D02*
X008641Y007267D01*
X008641Y007246D02*
X008641Y007495D01*
X008906Y007495D01*
X008942Y007485D01*
X008974Y007467D01*
X009000Y007441D01*
X009018Y007409D01*
X009028Y007373D01*
X009028Y007246D01*
X008641Y007246D01*
X008641Y007345D02*
X008584Y007345D01*
X008584Y007424D02*
X008641Y007424D01*
X009010Y007424D02*
X009967Y007424D01*
X009888Y007345D02*
X009028Y007345D01*
X009028Y007267D02*
X009810Y007267D01*
X009805Y007540D02*
X009805Y007836D01*
X009488Y007836D01*
X009488Y007661D01*
X009498Y007626D01*
X009516Y007594D01*
X009542Y007568D01*
X009574Y007549D01*
X009610Y007540D01*
X009805Y007540D01*
X009805Y007581D02*
X009885Y007581D01*
X009885Y007659D02*
X009805Y007659D01*
X009805Y007738D02*
X009885Y007738D01*
X009885Y007816D02*
X009805Y007816D01*
X009488Y007816D02*
X008901Y007816D01*
X009488Y007738D02*
X007754Y007738D01*
X007408Y007738D02*
X005827Y007738D01*
X005827Y007816D02*
X007318Y007816D01*
X006324Y007581D02*
X009529Y007581D01*
X009489Y007659D02*
X006272Y007659D01*
X005511Y007345D02*
X000380Y007345D01*
X000380Y007267D02*
X005511Y007267D01*
X005525Y007188D02*
X000380Y007188D01*
X000380Y007110D02*
X005511Y007110D01*
X005511Y007031D02*
X000380Y007031D01*
X000380Y006953D02*
X005511Y006953D01*
X005511Y006874D02*
X000380Y006874D01*
X000380Y006796D02*
X005522Y006796D01*
X005538Y006717D02*
X000380Y006717D01*
X000380Y006639D02*
X005531Y006639D01*
X003087Y006011D02*
X003070Y006011D01*
X002798Y006011D02*
X002718Y006011D01*
X002718Y005932D02*
X002798Y005932D01*
X002798Y005854D02*
X002718Y005854D01*
X002718Y005775D02*
X002798Y005775D01*
X002402Y005618D02*
X000380Y005618D01*
X000380Y005540D02*
X002402Y005540D01*
X002411Y005461D02*
X000380Y005461D01*
X000380Y005383D02*
X002492Y005383D01*
X000380Y004519D02*
X005511Y004519D01*
X005511Y004441D02*
X000380Y004441D01*
X000380Y003263D02*
X007041Y003263D01*
X005278Y003813D02*
X005198Y003813D01*
X005198Y003891D02*
X005278Y003891D01*
X005278Y003970D02*
X005198Y003970D01*
X005198Y004048D02*
X005278Y004048D01*
X005278Y004127D02*
X005198Y004127D01*
X004854Y004127D02*
X004690Y004127D01*
X004690Y004048D02*
X004823Y004048D01*
X014473Y005226D02*
X015128Y005226D01*
X015050Y005147D02*
X014571Y005147D01*
X014621Y005069D02*
X014971Y005069D01*
X014893Y004990D02*
X014653Y004990D01*
X014653Y004912D02*
X014814Y004912D01*
X014736Y004833D02*
X014715Y004833D01*
X016214Y005618D02*
X017419Y005618D01*
X017363Y005697D02*
X016135Y005697D01*
X016057Y005775D02*
X017284Y005775D01*
X017206Y005854D02*
X015978Y005854D01*
X015948Y005932D02*
X017127Y005932D01*
X017049Y006011D02*
X016861Y006011D01*
X016489Y006011D02*
X016027Y006011D01*
X016105Y006089D02*
X016407Y006089D01*
X016363Y006168D02*
X016184Y006168D01*
X016262Y006246D02*
X016335Y006246D01*
X016292Y005540D02*
X016709Y005540D01*
X016702Y005529D02*
X016721Y005561D01*
X016747Y005587D01*
X016779Y005605D01*
X016814Y005615D01*
X017009Y005615D01*
X017009Y005318D01*
X016693Y005318D01*
X016693Y005493D01*
X016702Y005529D01*
X016693Y005461D02*
X016371Y005461D01*
X016445Y005383D02*
X016693Y005383D01*
X016693Y005226D02*
X016549Y005226D01*
X016471Y005304D02*
X017009Y005304D01*
X017009Y005383D02*
X017089Y005383D01*
X017089Y005461D02*
X017009Y005461D01*
X017009Y005540D02*
X017089Y005540D01*
X016693Y005147D02*
X016628Y005147D01*
X018881Y003420D02*
X019246Y003420D01*
X019178Y003368D02*
X018881Y003368D01*
X018881Y003051D01*
X019056Y003051D01*
X019092Y003061D01*
X019124Y003079D01*
X019150Y003105D01*
X019168Y003137D01*
X019178Y003173D01*
X019178Y003368D01*
X019178Y003342D02*
X019288Y003342D01*
X019296Y003263D02*
X019178Y003263D01*
X019178Y003185D02*
X019328Y003185D01*
X019390Y003106D02*
X019150Y003106D01*
X018881Y003106D02*
X018801Y003106D01*
X018801Y003185D02*
X018881Y003185D01*
X018881Y003263D02*
X018801Y003263D01*
X018801Y003342D02*
X018881Y003342D01*
X018662Y003051D02*
X019089Y002624D01*
X020231Y002624D01*
X020731Y002124D01*
X020860Y001995D01*
X020860Y001969D01*
X020940Y001936D01*
X021089Y001787D01*
X021140Y001665D01*
X021191Y001787D01*
X021340Y001936D01*
X021535Y002017D01*
X021745Y002017D01*
X021940Y001936D01*
X022089Y001787D01*
X022140Y001665D01*
X022185Y001774D01*
X021035Y002924D01*
X021035Y002924D01*
X020956Y003003D01*
X020914Y003106D01*
X020946Y003028D02*
X020332Y003028D01*
X020106Y003028D02*
X019741Y003028D01*
X019866Y003106D02*
X019981Y003106D01*
X019515Y003028D02*
X018686Y003028D01*
X018764Y002949D02*
X021010Y002949D01*
X021088Y002871D02*
X018843Y002871D01*
X018921Y002792D02*
X021167Y002792D01*
X021245Y002714D02*
X019000Y002714D01*
X019078Y002635D02*
X021324Y002635D01*
X021402Y002557D02*
X020298Y002557D01*
X020377Y002478D02*
X021481Y002478D01*
X021559Y002400D02*
X020455Y002400D01*
X020534Y002321D02*
X021638Y002321D01*
X021716Y002243D02*
X020612Y002243D01*
X020691Y002164D02*
X021795Y002164D01*
X021873Y002086D02*
X020769Y002086D01*
X020848Y002007D02*
X021512Y002007D01*
X021332Y001929D02*
X020948Y001929D01*
X021026Y001850D02*
X021254Y001850D01*
X021184Y001772D02*
X021096Y001772D01*
X021128Y001693D02*
X021152Y001693D01*
X021768Y002007D02*
X021952Y002007D01*
X021948Y001929D02*
X022030Y001929D01*
X022026Y001850D02*
X022109Y001850D01*
X022096Y001772D02*
X022184Y001772D01*
X022152Y001693D02*
X022128Y001693D01*
X022768Y002007D02*
X026900Y002007D01*
X026900Y001929D02*
X023896Y001929D01*
X023907Y001923D02*
X023836Y001959D01*
X023759Y001984D01*
X023680Y001997D01*
X023680Y001527D01*
X024150Y001527D01*
X024137Y001606D01*
X024113Y001682D01*
X024076Y001754D01*
X024029Y001819D01*
X023972Y001876D01*
X023907Y001923D01*
X023998Y001850D02*
X026900Y001850D01*
X026900Y001772D02*
X024063Y001772D01*
X024107Y001693D02*
X026900Y001693D01*
X026900Y001615D02*
X024135Y001615D01*
X024149Y001536D02*
X026900Y001536D01*
X026900Y001458D02*
X023680Y001458D01*
X023680Y001536D02*
X023600Y001536D01*
X023600Y001615D02*
X023680Y001615D01*
X023680Y001693D02*
X023600Y001693D01*
X023600Y001772D02*
X023680Y001772D01*
X023680Y001850D02*
X023600Y001850D01*
X023600Y001929D02*
X023680Y001929D01*
X023680Y001997D02*
X023680Y001997D01*
X023384Y001929D02*
X022948Y001929D01*
X023026Y001850D02*
X023282Y001850D01*
X023217Y001772D02*
X023096Y001772D01*
X023128Y001693D02*
X023173Y001693D01*
X022665Y002086D02*
X026900Y002086D01*
X026900Y002164D02*
X022587Y002164D01*
X022508Y002243D02*
X026900Y002243D01*
X026900Y002321D02*
X022430Y002321D01*
X022351Y002400D02*
X026900Y002400D01*
X026900Y002478D02*
X022273Y002478D01*
X022194Y002557D02*
X026900Y002557D01*
X026900Y002635D02*
X022116Y002635D01*
X024150Y001527D02*
X024150Y001527D01*
X024150Y001447D02*
X024150Y001447D01*
X024139Y001379D02*
X026900Y001379D01*
X026900Y001301D02*
X024116Y001301D01*
D35*
X020640Y001487D02*
X020640Y001904D01*
X020140Y002404D01*
X018998Y002404D01*
X018329Y003073D01*
X018329Y004294D01*
X017778Y004845D01*
X016619Y004845D01*
X016005Y005459D01*
X015783Y005236D02*
X016449Y004569D01*
X017660Y004569D01*
X018014Y004215D01*
X018014Y002916D01*
X018841Y002089D01*
X019195Y002089D01*
X019640Y001644D01*
X019640Y001487D01*
X017148Y002561D02*
X017148Y003821D01*
X016675Y004294D01*
X016279Y004294D01*
X015560Y005013D01*
X015337Y004791D02*
X016110Y004018D01*
X016400Y004018D01*
X016675Y003743D01*
X016321Y003624D02*
X016321Y002168D01*
X016640Y001849D01*
X016640Y001487D01*
X014640Y001487D02*
X014625Y001487D01*
X012880Y003232D01*
X012657Y003454D02*
X012384Y003181D01*
X012384Y002758D01*
X013640Y001502D01*
X013640Y001487D01*
X012640Y001487D02*
X012109Y002018D01*
X012109Y003351D01*
X012434Y003677D01*
X012212Y003900D02*
X011833Y003521D01*
X011833Y001680D01*
X011640Y001487D01*
X014707Y002955D02*
X014707Y003191D01*
X014549Y003351D01*
X014224Y003677D01*
X014446Y003900D02*
X014997Y003349D01*
X015101Y003349D01*
X015888Y003349D02*
X015888Y003287D01*
X015888Y003349D02*
X014892Y004345D01*
X014313Y004924D01*
X014313Y004924D01*
X015114Y004568D02*
X015940Y003743D01*
X016203Y003743D01*
X016321Y003624D01*
X018841Y004077D02*
X018851Y004087D01*
X018851Y005081D01*
X019107Y005081D02*
X019107Y004540D01*
X019392Y004254D01*
X019392Y003585D01*
X019628Y003349D01*
X019904Y003743D02*
X020219Y003428D01*
X020219Y003349D01*
X019904Y003743D02*
X019904Y004176D01*
X019362Y004717D01*
X019362Y005081D01*
X018408Y005524D02*
X018162Y005278D01*
X017719Y005278D01*
X017591Y005780D02*
X018408Y005780D01*
X018408Y006036D02*
X017729Y006036D01*
X016872Y006892D01*
X016095Y006892D01*
X015783Y006580D01*
X016005Y006357D02*
X016147Y006498D01*
X016479Y006498D01*
X016675Y006302D01*
X017069Y006302D01*
X017591Y005780D01*
X018408Y006292D02*
X018408Y006538D01*
X018290Y006656D01*
X017975Y006656D01*
X017975Y007168D02*
X018841Y007168D01*
X018851Y007168D01*
X018851Y006735D01*
X019107Y006735D02*
X019107Y007168D01*
X018851Y007168D01*
X018841Y007168D02*
X018841Y007542D01*
X019362Y007276D02*
X019628Y007542D01*
X019362Y007276D02*
X019362Y006735D01*
X020416Y007365D02*
X020770Y007010D01*
X020809Y007404D02*
X021557Y006656D01*
X021872Y006656D01*
X022581Y006892D02*
X022581Y006971D01*
X021675Y007876D01*
X021675Y008093D01*
X022148Y008270D02*
X022325Y008093D01*
X022660Y008093D01*
X022660Y007601D01*
X022778Y007483D01*
X023585Y007463D02*
X023605Y007443D01*
X023585Y007463D02*
X023585Y007955D01*
X024333Y007955D02*
X024333Y007739D01*
X025297Y007739D01*
X024943Y007739D01*
X024943Y007089D01*
X026124Y007148D02*
X026256Y007148D01*
X026518Y006886D01*
X026518Y006498D01*
X024156Y005514D02*
X024156Y004530D01*
X024353Y004333D01*
X024746Y004687D02*
X024746Y003939D01*
X024549Y003743D01*
X023762Y003684D02*
X023762Y005554D01*
X024510Y005160D02*
X024510Y004924D01*
X024746Y004687D01*
X025337Y004333D02*
X025337Y003684D01*
X026124Y003684D02*
X026124Y004333D01*
X026518Y004727D01*
X026518Y004924D01*
X025927Y004924D02*
X025337Y004333D01*
X023368Y004727D02*
X022975Y004333D01*
X022581Y004333D01*
X022581Y004530D01*
X022384Y004727D01*
X023368Y004727D02*
X023368Y005042D01*
X022581Y004333D02*
X022581Y003684D01*
X018841Y004077D02*
X018851Y004205D01*
X015114Y007248D02*
X014365Y006498D01*
X013801Y006498D01*
X013329Y006971D01*
X013329Y008821D01*
X012994Y009156D01*
X012994Y009451D01*
X011301Y009451D01*
X010632Y009451D02*
X010416Y009451D01*
X010179Y009687D01*
X009746Y009687D01*
X009589Y009845D01*
X009589Y010042D01*
X009589Y009845D02*
X008742Y008998D01*
X008742Y008821D01*
X008742Y008034D01*
X008723Y008034D01*
X009353Y007365D02*
X009225Y007217D01*
X008612Y007217D01*
X008949Y006095D02*
X010297Y007443D01*
X010903Y007443D01*
X011321Y007025D01*
X011536Y007248D02*
X011544Y007248D01*
X010915Y007876D01*
X010514Y007876D01*
X011544Y007248D02*
X012096Y006695D01*
X012384Y006695D01*
X011951Y006105D02*
X010905Y006105D01*
X010653Y006357D01*
X010875Y006580D02*
X010602Y006853D01*
X010416Y006853D01*
X009510Y005947D01*
X009510Y005711D01*
X009146Y005347D01*
X008612Y005347D01*
X008612Y005721D02*
X009087Y005721D01*
X009195Y005829D01*
X009195Y005987D01*
X010376Y007168D01*
X010733Y007168D01*
X011098Y006802D01*
X008949Y006095D02*
X008612Y006095D01*
X007876Y005750D02*
X007876Y004274D01*
X008014Y004136D01*
X009776Y004136D01*
X010875Y005236D01*
X010653Y005459D02*
X010905Y005711D01*
X011557Y005711D01*
X011098Y005013D02*
X009926Y003841D01*
X007719Y003841D01*
X007463Y004097D01*
X007463Y005573D01*
X006912Y006124D01*
X005918Y006124D01*
X005918Y005258D02*
X006813Y005258D01*
X007049Y005022D01*
X007049Y004038D01*
X007542Y003546D01*
X010076Y003546D01*
X011321Y004791D01*
X011544Y004568D02*
X010226Y003250D01*
X007364Y003250D01*
X006675Y003939D01*
X006675Y004628D01*
X006479Y004825D01*
X005918Y004825D01*
X007876Y005750D02*
X006636Y006991D01*
X005918Y006991D01*
X005809Y008861D02*
X006420Y008861D01*
X006616Y009058D01*
X007286Y009058D02*
X007522Y008821D01*
X007994Y008821D01*
X009589Y008861D02*
X010435Y008861D01*
X010632Y008664D01*
X011301Y008664D02*
X011464Y008664D01*
X012212Y007916D01*
X013841Y007483D02*
X013959Y007483D01*
X014038Y007404D01*
X014380Y007404D01*
X014669Y007693D01*
X014892Y007471D02*
X015553Y008132D01*
X015553Y008231D01*
X015233Y008703D02*
X016951Y008703D01*
X016951Y009254D01*
X017030Y009254D01*
X017305Y009530D01*
X017896Y009530D01*
X018640Y010274D01*
X018640Y010487D01*
X020640Y010487D02*
X020640Y009069D01*
X021203Y008506D01*
X021203Y007640D01*
X021754Y007089D01*
X020809Y007404D02*
X020809Y008270D01*
X020416Y007876D02*
X020416Y007365D01*
X022148Y008270D02*
X022148Y009609D01*
X021640Y010117D01*
X021640Y010487D01*
X023959Y009648D02*
X024549Y010239D01*
X025140Y010239D01*
X023959Y009648D02*
X023959Y008979D01*
X024333Y008979D02*
X024943Y008979D01*
X024943Y009058D01*
X025297Y009058D01*
X025297Y008408D01*
X022660Y008762D02*
X022660Y009372D01*
X017502Y007876D02*
X016951Y007325D01*
X016083Y007325D01*
X015560Y006802D01*
X015337Y007025D02*
X015991Y007680D01*
X016715Y007680D01*
X016794Y007758D01*
X014892Y007471D02*
X014431Y007010D01*
X014116Y007010D01*
X014446Y007916D02*
X015233Y008703D01*
X015339Y009254D02*
X016006Y009254D01*
X016006Y009853D01*
X016640Y010487D01*
X015640Y010487D02*
X015640Y010187D01*
X015061Y009609D01*
X015061Y009422D01*
X014001Y008361D01*
X014224Y008139D02*
X015339Y009254D01*
X014640Y009446D02*
X014640Y010487D01*
X014640Y009446D02*
X013778Y008584D01*
X008742Y009845D02*
X008742Y010475D01*
X008723Y010475D01*
X007994Y009845D02*
X007286Y009845D01*
X007286Y009845D01*
X005809Y010042D02*
X005809Y010487D01*
X004904Y010487D02*
X004864Y010487D01*
X004864Y010042D01*
X004864Y008861D02*
X004018Y008861D01*
X009569Y004609D02*
X009864Y004983D01*
X009569Y004609D02*
X009195Y004609D01*
X009195Y004599D01*
X008612Y004599D01*
X011156Y003290D02*
X011164Y003093D01*
X011156Y003290D02*
X011989Y004123D01*
D36*
X009195Y002758D02*
X009077Y002640D01*
X008703Y002640D01*
X008526Y002640D01*
X008408Y002758D01*
X006183Y002758D01*
X006282Y002050D02*
X006203Y001971D01*
X006203Y001302D01*
X004746Y001302D01*
X003683Y002365D01*
X002502Y002365D01*
X002140Y002002D01*
X002140Y001487D01*
X006282Y002050D02*
X008565Y002050D01*
X017345Y004136D02*
X017640Y003841D01*
X017640Y001487D01*
X021194Y003161D02*
X021194Y003900D01*
X020997Y004097D01*
X021194Y003161D02*
X022640Y001715D01*
X022640Y001487D01*
X017975Y006656D02*
X017975Y007168D01*
X017975Y008782D01*
X008723Y008034D02*
X007581Y008034D01*
X007935Y006459D02*
X008603Y006459D01*
X008612Y006469D01*
X003140Y009932D02*
X002463Y009254D01*
X003140Y009932D02*
X003140Y010487D01*
X004864Y010487D01*
X004904Y010487D02*
X005809Y010487D01*
X008723Y010487D01*
X008723Y010475D01*
M02*
