G75*
G70*
%OFA0B0*%
%FSLAX24Y24*%
%IPPOS*%
%LPD*%
%AMOC8*
5,1,8,0,0,1.08239X$1,22.5*
%
%ADD10R,0.0474X0.0513*%
%ADD11R,0.0513X0.0474*%
%ADD12R,0.0297X0.0552*%
%ADD13C,0.0820*%
%ADD14R,0.0395X0.0552*%
%ADD15R,0.0415X0.0454*%
%ADD16R,0.0316X0.0474*%
%ADD17R,0.0631X0.0651*%
%ADD18R,0.1572X0.0552*%
%ADD19R,0.0572X0.0316*%
%ADD20R,0.0631X0.0356*%
%ADD21R,0.0356X0.0749*%
%ADD22R,0.0552X0.0160*%
%ADD23R,0.0671X0.0178*%
%ADD24R,0.0178X0.0671*%
%ADD25R,0.0513X0.0356*%
%ADD26R,0.1182X0.0867*%
%ADD27R,0.0512X0.0354*%
%ADD28R,0.0280X0.0671*%
%ADD29R,0.0631X0.0552*%
%ADD30R,0.0671X0.0237*%
%ADD31R,0.0237X0.0671*%
D10*
X011164Y002424D03*
X011164Y003093D03*
X009864Y004983D03*
X009864Y005652D03*
X015888Y003287D03*
X015888Y002617D03*
X018841Y003408D03*
X018841Y004077D03*
X022581Y003684D03*
X022581Y003014D03*
X023762Y003014D03*
X023762Y003684D03*
X025337Y003684D03*
X026124Y003684D03*
X026124Y003014D03*
X025337Y003014D03*
X026124Y007148D03*
X026124Y007817D03*
X025297Y007739D03*
X025297Y008408D03*
X022660Y008093D03*
X021675Y008093D03*
X021675Y008762D03*
X022660Y008762D03*
X019628Y008211D03*
X018841Y008211D03*
X018841Y007542D03*
X019628Y007542D03*
D11*
X016223Y008231D03*
X015553Y008231D03*
X013664Y009451D03*
X012994Y009451D03*
X011301Y009451D03*
X010632Y009451D03*
X010632Y008664D03*
X011301Y008664D03*
X010514Y007876D03*
X009845Y007876D03*
X007286Y009058D03*
X006616Y009058D03*
X006616Y009845D03*
X007286Y009845D03*
X004018Y008861D03*
X003349Y008861D03*
X003427Y005711D03*
X002758Y005711D03*
X005514Y002758D03*
X006183Y002758D03*
X017049Y005278D03*
X017719Y005278D03*
D12*
X023585Y007955D03*
X024333Y007955D03*
X024333Y008979D03*
X023959Y008979D03*
X023585Y008979D03*
X008742Y008821D03*
X008368Y008821D03*
X007994Y008821D03*
X007994Y009845D03*
X008742Y009845D03*
D13*
X002140Y001487D03*
X003140Y001487D03*
X010640Y001487D03*
X011640Y001487D03*
X012640Y001487D03*
X013640Y001487D03*
X014640Y001487D03*
X015640Y001487D03*
X016640Y001487D03*
X017640Y001487D03*
X018640Y001487D03*
X019640Y001487D03*
X020640Y001487D03*
X021640Y001487D03*
X022640Y001487D03*
X023640Y001487D03*
X023640Y010487D03*
X022640Y010487D03*
X021640Y010487D03*
X020640Y010487D03*
X019640Y010487D03*
X018640Y010487D03*
X017640Y010487D03*
X016640Y010487D03*
X015640Y010487D03*
X014640Y010487D03*
X013640Y010487D03*
X012640Y010487D03*
X011640Y010487D03*
X010640Y010487D03*
X003140Y010487D03*
X002140Y010487D03*
D14*
X002463Y009254D03*
X001754Y009254D03*
X005494Y001971D03*
X006203Y001971D03*
D15*
X004362Y004028D03*
D16*
X004746Y003664D03*
D17*
X005238Y003752D03*
D18*
X004941Y007876D03*
D19*
X005918Y007424D03*
X005918Y006991D03*
X005918Y006558D03*
X005918Y006124D03*
X005918Y005691D03*
X005918Y005258D03*
X005918Y004825D03*
X005918Y004392D03*
D20*
X008612Y004599D03*
X008612Y004973D03*
X008612Y005347D03*
X008612Y005721D03*
X008612Y006095D03*
X008612Y006469D03*
X008612Y006843D03*
X008612Y007217D03*
D21*
X016006Y009254D03*
X016479Y009254D03*
X016951Y009254D03*
D22*
X025061Y006228D03*
X025061Y006068D03*
X025061Y005908D03*
X025061Y005748D03*
X025061Y005588D03*
X026006Y005588D03*
X026006Y005748D03*
X026006Y005908D03*
X026006Y006068D03*
X026006Y006228D03*
D23*
X023207Y006302D03*
X023207Y006105D03*
X023207Y005908D03*
X023207Y005711D03*
X023207Y005514D03*
X021955Y005514D03*
X021955Y005711D03*
X021955Y005908D03*
X021955Y006105D03*
X021955Y006302D03*
D24*
X022384Y006534D03*
X022581Y006534D03*
X022778Y006534D03*
X022778Y005282D03*
X022581Y005282D03*
X022384Y005282D03*
D25*
X008703Y002640D03*
X008703Y001459D03*
D26*
X007660Y002050D03*
D27*
X008703Y002050D03*
D28*
G36*
X012571Y004012D02*
X012769Y003814D01*
X012297Y003342D01*
X012099Y003540D01*
X012571Y004012D01*
G37*
G36*
X012349Y004235D02*
X012547Y004037D01*
X012075Y003565D01*
X011877Y003763D01*
X012349Y004235D01*
G37*
G36*
X012126Y004458D02*
X012324Y004260D01*
X011852Y003788D01*
X011654Y003986D01*
X012126Y004458D01*
G37*
G36*
X011903Y004680D02*
X012101Y004482D01*
X011629Y004010D01*
X011431Y004208D01*
X011903Y004680D01*
G37*
G36*
X011681Y004903D02*
X011879Y004705D01*
X011407Y004233D01*
X011209Y004431D01*
X011681Y004903D01*
G37*
G36*
X011458Y005126D02*
X011656Y004928D01*
X011184Y004456D01*
X010986Y004654D01*
X011458Y005126D01*
G37*
G36*
X011235Y005348D02*
X011433Y005150D01*
X010961Y004678D01*
X010763Y004876D01*
X011235Y005348D01*
G37*
G36*
X011012Y005571D02*
X011210Y005373D01*
X010738Y004901D01*
X010540Y005099D01*
X011012Y005571D01*
G37*
G36*
X010790Y005794D02*
X010988Y005596D01*
X010516Y005124D01*
X010318Y005322D01*
X010790Y005794D01*
G37*
G36*
X010988Y006220D02*
X010790Y006022D01*
X010318Y006494D01*
X010516Y006692D01*
X010988Y006220D01*
G37*
G36*
X011210Y006443D02*
X011012Y006245D01*
X010540Y006717D01*
X010738Y006915D01*
X011210Y006443D01*
G37*
G36*
X011433Y006665D02*
X011235Y006467D01*
X010763Y006939D01*
X010961Y007137D01*
X011433Y006665D01*
G37*
G36*
X011656Y006888D02*
X011458Y006690D01*
X010986Y007162D01*
X011184Y007360D01*
X011656Y006888D01*
G37*
G36*
X011879Y007111D02*
X011681Y006913D01*
X011209Y007385D01*
X011407Y007583D01*
X011879Y007111D01*
G37*
G36*
X012101Y007334D02*
X011903Y007136D01*
X011431Y007608D01*
X011629Y007806D01*
X012101Y007334D01*
G37*
G36*
X012324Y007556D02*
X012126Y007358D01*
X011654Y007830D01*
X011852Y008028D01*
X012324Y007556D01*
G37*
G36*
X012547Y007779D02*
X012349Y007581D01*
X011877Y008053D01*
X012075Y008251D01*
X012547Y007779D01*
G37*
G36*
X012769Y008002D02*
X012571Y007804D01*
X012099Y008276D01*
X012297Y008474D01*
X012769Y008002D01*
G37*
G36*
X012992Y008224D02*
X012794Y008026D01*
X012322Y008498D01*
X012520Y008696D01*
X012992Y008224D01*
G37*
G36*
X013215Y008447D02*
X013017Y008249D01*
X012545Y008721D01*
X012743Y008919D01*
X013215Y008447D01*
G37*
G36*
X013915Y008919D02*
X014113Y008721D01*
X013641Y008249D01*
X013443Y008447D01*
X013915Y008919D01*
G37*
G36*
X014138Y008696D02*
X014336Y008498D01*
X013864Y008026D01*
X013666Y008224D01*
X014138Y008696D01*
G37*
G36*
X014361Y008474D02*
X014559Y008276D01*
X014087Y007804D01*
X013889Y008002D01*
X014361Y008474D01*
G37*
G36*
X014583Y008251D02*
X014781Y008053D01*
X014309Y007581D01*
X014111Y007779D01*
X014583Y008251D01*
G37*
G36*
X014806Y008028D02*
X015004Y007830D01*
X014532Y007358D01*
X014334Y007556D01*
X014806Y008028D01*
G37*
G36*
X015029Y007806D02*
X015227Y007608D01*
X014755Y007136D01*
X014557Y007334D01*
X015029Y007806D01*
G37*
G36*
X015251Y007583D02*
X015449Y007385D01*
X014977Y006913D01*
X014779Y007111D01*
X015251Y007583D01*
G37*
G36*
X015474Y007360D02*
X015672Y007162D01*
X015200Y006690D01*
X015002Y006888D01*
X015474Y007360D01*
G37*
G36*
X015697Y007137D02*
X015895Y006939D01*
X015423Y006467D01*
X015225Y006665D01*
X015697Y007137D01*
G37*
G36*
X015920Y006915D02*
X016118Y006717D01*
X015646Y006245D01*
X015448Y006443D01*
X015920Y006915D01*
G37*
G36*
X016142Y006692D02*
X016340Y006494D01*
X015868Y006022D01*
X015670Y006220D01*
X016142Y006692D01*
G37*
G36*
X016340Y005322D02*
X016142Y005124D01*
X015670Y005596D01*
X015868Y005794D01*
X016340Y005322D01*
G37*
G36*
X016118Y005099D02*
X015920Y004901D01*
X015448Y005373D01*
X015646Y005571D01*
X016118Y005099D01*
G37*
G36*
X015895Y004876D02*
X015697Y004678D01*
X015225Y005150D01*
X015423Y005348D01*
X015895Y004876D01*
G37*
G36*
X015672Y004654D02*
X015474Y004456D01*
X015002Y004928D01*
X015200Y005126D01*
X015672Y004654D01*
G37*
G36*
X015449Y004431D02*
X015251Y004233D01*
X014779Y004705D01*
X014977Y004903D01*
X015449Y004431D01*
G37*
G36*
X015227Y004208D02*
X015029Y004010D01*
X014557Y004482D01*
X014755Y004680D01*
X015227Y004208D01*
G37*
G36*
X015004Y003986D02*
X014806Y003788D01*
X014334Y004260D01*
X014532Y004458D01*
X015004Y003986D01*
G37*
G36*
X014781Y003763D02*
X014583Y003565D01*
X014111Y004037D01*
X014309Y004235D01*
X014781Y003763D01*
G37*
G36*
X014559Y003540D02*
X014361Y003342D01*
X013889Y003814D01*
X014087Y004012D01*
X014559Y003540D01*
G37*
G36*
X014336Y003317D02*
X014138Y003119D01*
X013666Y003591D01*
X013864Y003789D01*
X014336Y003317D01*
G37*
G36*
X014113Y003095D02*
X013915Y002897D01*
X013443Y003369D01*
X013641Y003567D01*
X014113Y003095D01*
G37*
G36*
X013017Y003567D02*
X013215Y003369D01*
X012743Y002897D01*
X012545Y003095D01*
X013017Y003567D01*
G37*
G36*
X012794Y003789D02*
X012992Y003591D01*
X012520Y003119D01*
X012322Y003317D01*
X012794Y003789D01*
G37*
D29*
X009589Y008861D03*
X009589Y010042D03*
X005809Y010042D03*
X004864Y010042D03*
X004864Y008861D03*
X005809Y008861D03*
D30*
X018408Y006292D03*
X018408Y006036D03*
X018408Y005780D03*
X018408Y005524D03*
X020061Y005524D03*
X020061Y005780D03*
X020061Y006036D03*
X020061Y006292D03*
D31*
X019618Y006735D03*
X019362Y006735D03*
X019107Y006735D03*
X018851Y006735D03*
X018851Y005081D03*
X019107Y005081D03*
X019362Y005081D03*
X019618Y005081D03*
M02*
