G75*
G70*
%OFA0B0*%
%FSLAX24Y24*%
%IPPOS*%
%LPD*%
%AMOC8*
5,1,8,0,0,1.08239X$1,22.5*
%
%ADD10C,0.0080*%
%ADD11C,0.0030*%
%ADD12C,0.0040*%
%ADD13R,0.0010X0.0030*%
%ADD14R,0.0010X0.0020*%
%ADD15R,0.0010X0.0080*%
%ADD16R,0.0010X0.0010*%
%ADD17R,0.0010X0.0090*%
%ADD18R,0.0010X0.0050*%
%ADD19R,0.0010X0.0070*%
%ADD20R,0.0010X0.0040*%
%ADD21R,0.0010X0.0060*%
%ADD22R,0.0010X0.0100*%
%ADD23R,0.0010X0.0120*%
%ADD24R,0.0010X0.0110*%
%ADD25R,0.0010X0.0130*%
%ADD26R,0.0010X0.0140*%
%ADD27R,0.0010X0.0150*%
%ADD28R,0.0010X0.0190*%
%ADD29R,0.0010X0.0200*%
%ADD30R,0.0010X0.0220*%
%ADD31R,0.0010X0.0210*%
%ADD32R,0.0010X0.0230*%
%ADD33R,0.0010X0.0270*%
%ADD34R,0.0010X0.0280*%
%ADD35R,0.0010X0.0180*%
%ADD36R,0.0010X0.0170*%
%ADD37R,0.0010X0.0160*%
%ADD38R,0.0010X0.0260*%
%ADD39R,0.0010X0.0290*%
%ADD40R,0.0010X0.0370*%
%ADD41R,0.0010X0.0380*%
%ADD42R,0.0010X0.0560*%
%ADD43R,0.0010X0.0520*%
%ADD44R,0.0010X0.0500*%
%ADD45R,0.0010X0.0490*%
%ADD46R,0.0010X0.0460*%
%ADD47R,0.0010X0.0450*%
%ADD48R,0.0010X0.0240*%
%ADD49R,0.0010X0.0410*%
%ADD50R,0.0010X0.0620*%
%ADD51R,0.0010X0.0580*%
%ADD52R,0.0010X0.0670*%
%ADD53R,0.0010X0.0540*%
%ADD54R,0.0010X0.0530*%
%ADD55R,0.0010X0.0510*%
%ADD56R,0.0010X0.0390*%
%ADD57R,0.0010X0.0350*%
%ADD58R,0.0010X0.0330*%
%ADD59R,0.0010X0.0420*%
%ADD60R,0.0010X0.0400*%
%ADD61R,0.0010X0.0250*%
%ADD62R,0.0010X0.0320*%
%ADD63R,0.0010X0.0300*%
%ADD64R,0.0010X0.0340*%
%ADD65R,0.0010X0.0310*%
%ADD66R,0.0010X0.0360*%
%ADD67R,0.0010X0.0430*%
%ADD68R,0.0010X0.0440*%
%ADD69R,0.0010X0.0470*%
%ADD70R,0.0010X0.0480*%
%ADD71R,0.0010X0.0550*%
%ADD72R,0.0010X0.0570*%
%ADD73R,0.0010X0.0590*%
%ADD74R,0.0010X0.0600*%
%ADD75R,0.0010X0.0630*%
%ADD76R,0.0010X0.0640*%
%ADD77R,0.0010X0.0650*%
%ADD78R,0.0010X0.0660*%
%ADD79R,0.0010X0.0610*%
%ADD80R,0.0010X0.0680*%
%ADD81R,0.0010X0.0710*%
%ADD82R,0.0010X0.0790*%
%ADD83R,0.0010X0.0830*%
%ADD84R,0.0010X0.0940*%
%ADD85R,0.0010X0.0960*%
%ADD86R,0.0010X0.1030*%
%ADD87R,0.0010X0.1100*%
%ADD88R,0.0010X0.1120*%
%ADD89R,0.0010X0.1150*%
%ADD90R,0.0010X0.1180*%
%ADD91R,0.0010X0.1170*%
%ADD92R,0.0010X0.1210*%
%ADD93R,0.0010X0.1240*%
%ADD94R,0.0010X0.1260*%
%ADD95R,0.0010X0.1250*%
%ADD96R,0.0010X0.1200*%
%ADD97R,0.0010X0.1070*%
%ADD98R,0.0010X0.1090*%
%ADD99R,0.0010X0.1140*%
%ADD100R,0.0010X0.1050*%
%ADD101R,0.0010X0.1010*%
%ADD102R,0.0010X0.0980*%
%ADD103R,0.0010X0.0910*%
%ADD104R,0.0010X0.0800*%
D10*
X000290Y000987D02*
X026990Y000987D01*
X027013Y000989D01*
X027036Y000994D01*
X027058Y001003D01*
X027078Y001016D01*
X027096Y001031D01*
X027111Y001049D01*
X027124Y001069D01*
X027133Y001091D01*
X027138Y001114D01*
X027140Y001137D01*
X027140Y010837D01*
X027138Y010860D01*
X027133Y010883D01*
X027124Y010905D01*
X027111Y010925D01*
X027096Y010943D01*
X027078Y010958D01*
X027058Y010971D01*
X027036Y010980D01*
X027013Y010985D01*
X026990Y010987D01*
X000290Y010987D01*
X000267Y010985D01*
X000244Y010980D01*
X000222Y010971D01*
X000202Y010958D01*
X000184Y010943D01*
X000169Y010925D01*
X000156Y010905D01*
X000147Y010883D01*
X000142Y010860D01*
X000140Y010837D01*
X000140Y001137D01*
X000142Y001114D01*
X000147Y001091D01*
X000156Y001069D01*
X000169Y001049D01*
X000184Y001031D01*
X000202Y001016D01*
X000222Y001003D01*
X000244Y000994D01*
X000267Y000989D01*
X000290Y000987D01*
D11*
X002495Y002150D02*
X002495Y002247D01*
X002543Y002295D01*
X002640Y002295D01*
X002640Y002198D01*
X002543Y002102D02*
X002495Y002150D01*
X002543Y002102D02*
X002737Y002102D01*
X002785Y002150D01*
X002785Y002247D01*
X002737Y002295D01*
X002785Y002396D02*
X002495Y002590D01*
X002785Y002590D01*
X002785Y002691D02*
X002495Y002691D01*
X002495Y002836D01*
X002543Y002884D01*
X002737Y002884D01*
X002785Y002836D01*
X002785Y002691D01*
X003495Y002739D02*
X003543Y002691D01*
X003592Y002739D01*
X003592Y002884D01*
X003640Y002884D02*
X003495Y002884D01*
X003495Y002739D01*
X003543Y002590D02*
X003640Y002590D01*
X003688Y002541D01*
X003688Y002396D01*
X003785Y002396D02*
X003495Y002396D01*
X003495Y002541D01*
X003543Y002590D01*
X003688Y002739D02*
X003688Y002836D01*
X003640Y002884D01*
X003688Y002986D02*
X003688Y003082D01*
X003737Y003034D02*
X003543Y003034D01*
X003495Y003082D01*
X003592Y002295D02*
X003785Y002295D01*
X003592Y002295D02*
X003495Y002198D01*
X003592Y002102D01*
X003785Y002102D01*
X002785Y002396D02*
X002495Y002396D01*
X010495Y002396D02*
X010785Y002396D01*
X010495Y002590D01*
X010785Y002590D01*
X010785Y002691D02*
X010495Y002691D01*
X010495Y002836D01*
X010543Y002884D01*
X010737Y002884D01*
X010785Y002836D01*
X010785Y002691D01*
X010737Y002295D02*
X010785Y002247D01*
X010785Y002150D01*
X010737Y002102D01*
X010543Y002102D01*
X010495Y002150D01*
X010495Y002247D01*
X010543Y002295D01*
X010640Y002295D01*
X010640Y002198D01*
X011495Y002102D02*
X011785Y002102D01*
X011785Y002247D01*
X011737Y002295D01*
X011640Y002295D01*
X011592Y002247D01*
X011592Y002102D01*
X011592Y002198D02*
X011495Y002295D01*
X011495Y002396D02*
X011785Y002396D01*
X011785Y002541D01*
X011737Y002590D01*
X011640Y002590D01*
X011592Y002541D01*
X011592Y002396D01*
X011688Y002691D02*
X011785Y002788D01*
X011495Y002788D01*
X011495Y002884D02*
X011495Y002691D01*
X011543Y002986D02*
X011737Y003179D01*
X011543Y003179D01*
X011495Y003131D01*
X011495Y003034D01*
X011543Y002986D01*
X011737Y002986D01*
X011785Y003034D01*
X011785Y003131D01*
X011737Y003179D01*
X012495Y003179D02*
X012495Y002986D01*
X012495Y003082D02*
X012785Y003082D01*
X012688Y002986D01*
X012495Y002884D02*
X012495Y002691D01*
X012495Y002788D02*
X012785Y002788D01*
X012688Y002691D01*
X012640Y002590D02*
X012592Y002541D01*
X012592Y002396D01*
X012495Y002396D02*
X012785Y002396D01*
X012785Y002541D01*
X012737Y002590D01*
X012640Y002590D01*
X012640Y002295D02*
X012592Y002247D01*
X012592Y002102D01*
X012592Y002198D02*
X012495Y002295D01*
X012640Y002295D02*
X012737Y002295D01*
X012785Y002247D01*
X012785Y002102D01*
X012495Y002102D01*
X013495Y002102D02*
X013688Y002102D01*
X013785Y002198D01*
X013688Y002295D01*
X013495Y002295D01*
X013495Y002396D02*
X013785Y002396D01*
X013495Y002590D01*
X013785Y002590D01*
X013688Y002691D02*
X013785Y002788D01*
X013495Y002788D01*
X013495Y002884D02*
X013495Y002691D01*
X013495Y002986D02*
X013688Y003179D01*
X013737Y003179D01*
X013785Y003131D01*
X013785Y003034D01*
X013737Y002986D01*
X013495Y002986D02*
X013495Y003179D01*
X014495Y003179D02*
X014495Y002986D01*
X014495Y003082D02*
X014785Y003082D01*
X014688Y002986D01*
X014495Y002884D02*
X014495Y002691D01*
X014495Y002788D02*
X014785Y002788D01*
X014688Y002691D01*
X014785Y002590D02*
X014495Y002590D01*
X014785Y002396D01*
X014495Y002396D01*
X014495Y002295D02*
X014688Y002295D01*
X014785Y002198D01*
X014688Y002102D01*
X014495Y002102D01*
X014640Y002102D02*
X014640Y002295D01*
X015495Y002247D02*
X015495Y002150D01*
X015543Y002102D01*
X015737Y002102D01*
X015785Y002150D01*
X015785Y002247D01*
X015737Y002295D01*
X015640Y002295D02*
X015640Y002198D01*
X015640Y002295D02*
X015543Y002295D01*
X015495Y002247D01*
X015495Y002396D02*
X015785Y002396D01*
X015495Y002590D01*
X015785Y002590D01*
X015785Y002691D02*
X015495Y002691D01*
X015495Y002836D01*
X015543Y002884D01*
X015737Y002884D01*
X015785Y002836D01*
X015785Y002691D01*
X016495Y002691D02*
X016495Y002884D01*
X016495Y002986D02*
X016785Y002986D01*
X016785Y003131D01*
X016737Y003179D01*
X016640Y003179D01*
X016592Y003131D01*
X016592Y002986D01*
X016592Y003082D02*
X016495Y003179D01*
X016495Y002691D02*
X016785Y002691D01*
X016737Y002590D02*
X016785Y002541D01*
X016785Y002445D01*
X016737Y002396D01*
X016543Y002396D01*
X016495Y002445D01*
X016495Y002541D01*
X016543Y002590D01*
X016495Y002295D02*
X016785Y002295D01*
X016688Y002198D01*
X016785Y002102D01*
X016495Y002102D01*
X017495Y002198D02*
X017592Y002102D01*
X017785Y002102D01*
X017592Y002295D02*
X017495Y002198D01*
X017592Y002295D02*
X017785Y002295D01*
X017640Y002396D02*
X017688Y002445D01*
X017688Y002590D01*
X017785Y002590D02*
X017495Y002590D01*
X017495Y002445D01*
X017543Y002396D01*
X017640Y002396D01*
X017640Y002691D02*
X017688Y002739D01*
X017688Y002884D01*
X017785Y002884D02*
X017495Y002884D01*
X017495Y002739D01*
X017543Y002691D01*
X017640Y002691D01*
X018495Y002691D02*
X018495Y002836D01*
X018543Y002884D01*
X018737Y002884D01*
X018785Y002836D01*
X018785Y002691D01*
X018495Y002691D01*
X018495Y002590D02*
X018785Y002590D01*
X018785Y002396D02*
X018495Y002590D01*
X018495Y002396D02*
X018785Y002396D01*
X018737Y002295D02*
X018785Y002247D01*
X018785Y002150D01*
X018737Y002102D01*
X018543Y002102D01*
X018495Y002150D01*
X018495Y002247D01*
X018543Y002295D01*
X018640Y002295D01*
X018640Y002198D01*
X019495Y002102D02*
X019785Y002102D01*
X019785Y002247D01*
X019737Y002295D01*
X019640Y002295D01*
X019592Y002247D01*
X019592Y002102D01*
X019543Y002396D02*
X019495Y002445D01*
X019495Y002541D01*
X019543Y002590D01*
X019640Y002590D01*
X019640Y002493D01*
X019737Y002396D02*
X019543Y002396D01*
X019737Y002396D02*
X019785Y002445D01*
X019785Y002541D01*
X019737Y002590D01*
X019785Y002691D02*
X019495Y002691D01*
X019495Y002836D01*
X019543Y002884D01*
X019737Y002884D01*
X019785Y002836D01*
X019785Y002691D01*
X020495Y002739D02*
X020495Y002836D01*
X020543Y002884D01*
X020495Y002739D02*
X020543Y002691D01*
X020737Y002691D01*
X020785Y002739D01*
X020785Y002836D01*
X020737Y002884D01*
X020737Y002590D02*
X020785Y002541D01*
X020785Y002445D01*
X020737Y002396D01*
X020543Y002396D01*
X020495Y002445D01*
X020495Y002541D01*
X020543Y002590D01*
X020640Y002590D01*
X020640Y002493D01*
X020640Y002295D02*
X020592Y002247D01*
X020592Y002102D01*
X020495Y002102D02*
X020785Y002102D01*
X020785Y002247D01*
X020737Y002295D01*
X020640Y002295D01*
X021495Y002295D02*
X021688Y002295D01*
X021785Y002198D01*
X021688Y002102D01*
X021495Y002102D01*
X021640Y002102D02*
X021640Y002295D01*
X021495Y002396D02*
X021785Y002396D01*
X021495Y002590D01*
X021785Y002590D01*
X021688Y002691D02*
X021785Y002788D01*
X021495Y002788D01*
X021495Y002884D02*
X021495Y002691D01*
X023495Y002691D02*
X023495Y002836D01*
X023543Y002884D01*
X023737Y002884D01*
X023785Y002836D01*
X023785Y002691D01*
X023495Y002691D01*
X023495Y002590D02*
X023785Y002590D01*
X023785Y002396D02*
X023495Y002590D01*
X023495Y002396D02*
X023785Y002396D01*
X023737Y002295D02*
X023785Y002247D01*
X023785Y002150D01*
X023737Y002102D01*
X023543Y002102D01*
X023495Y002150D01*
X023495Y002247D01*
X023543Y002295D01*
X023640Y002295D01*
X023640Y002198D01*
X013640Y002102D02*
X013640Y002295D01*
X012737Y008723D02*
X012688Y008723D01*
X012640Y008771D01*
X012640Y008868D01*
X012592Y008917D01*
X012543Y008917D01*
X012495Y008868D01*
X012495Y008771D01*
X012543Y008723D01*
X012737Y008723D02*
X012785Y008771D01*
X012785Y008868D01*
X012737Y008917D01*
X012737Y009018D02*
X012543Y009018D01*
X012495Y009066D01*
X012495Y009163D01*
X012543Y009211D01*
X012495Y009312D02*
X012495Y009506D01*
X012495Y009607D02*
X012495Y009801D01*
X012495Y009704D02*
X012785Y009704D01*
X012688Y009607D01*
X012785Y009312D02*
X012495Y009312D01*
X012737Y009211D02*
X012785Y009163D01*
X012785Y009066D01*
X012737Y009018D01*
X013495Y009114D02*
X013592Y009018D01*
X013785Y009018D01*
X013592Y009211D02*
X013495Y009114D01*
X013592Y009211D02*
X013785Y009211D01*
X013640Y009312D02*
X013543Y009312D01*
X013495Y009361D01*
X013495Y009506D01*
X013785Y009506D01*
X013688Y009506D02*
X013688Y009361D01*
X013640Y009312D01*
X013640Y009607D02*
X013543Y009607D01*
X013495Y009655D01*
X013495Y009801D01*
X013785Y009801D01*
X013688Y009801D02*
X013688Y009655D01*
X013640Y009607D01*
X014495Y009752D02*
X014785Y009752D01*
X014640Y009607D01*
X014640Y009801D01*
X014640Y009506D02*
X014592Y009457D01*
X014592Y009312D01*
X014495Y009312D02*
X014785Y009312D01*
X014785Y009457D01*
X014737Y009506D01*
X014640Y009506D01*
X014640Y009211D02*
X014592Y009163D01*
X014592Y009018D01*
X014592Y009114D02*
X014495Y009211D01*
X014640Y009211D02*
X014737Y009211D01*
X014785Y009163D01*
X014785Y009018D01*
X014495Y009018D01*
X015495Y009018D02*
X015785Y009018D01*
X015785Y009163D01*
X015737Y009211D01*
X015640Y009211D01*
X015592Y009163D01*
X015592Y009018D01*
X015592Y009114D02*
X015495Y009211D01*
X015495Y009312D02*
X015688Y009312D01*
X015785Y009409D01*
X015688Y009506D01*
X015495Y009506D01*
X015543Y009607D02*
X015592Y009607D01*
X015640Y009655D01*
X015640Y009752D01*
X015592Y009801D01*
X015543Y009801D01*
X015495Y009752D01*
X015495Y009655D01*
X015543Y009607D01*
X015640Y009655D02*
X015688Y009607D01*
X015737Y009607D01*
X015785Y009655D01*
X015785Y009752D01*
X015737Y009801D01*
X015688Y009801D01*
X015640Y009752D01*
X015640Y009506D02*
X015640Y009312D01*
X016495Y009312D02*
X016688Y009312D01*
X016785Y009409D01*
X016688Y009506D01*
X016495Y009506D01*
X016543Y009607D02*
X016495Y009655D01*
X016495Y009752D01*
X016543Y009801D01*
X016592Y009801D01*
X016640Y009752D01*
X016640Y009704D01*
X016640Y009752D02*
X016688Y009801D01*
X016737Y009801D01*
X016785Y009752D01*
X016785Y009655D01*
X016737Y009607D01*
X016640Y009506D02*
X016640Y009312D01*
X016640Y009211D02*
X016592Y009163D01*
X016592Y009018D01*
X016592Y009114D02*
X016495Y009211D01*
X016640Y009211D02*
X016737Y009211D01*
X016785Y009163D01*
X016785Y009018D01*
X016495Y009018D01*
X017495Y009066D02*
X017543Y009018D01*
X017737Y009018D01*
X017785Y009066D01*
X017785Y009163D01*
X017737Y009211D01*
X017640Y009211D02*
X017640Y009114D01*
X017640Y009211D02*
X017543Y009211D01*
X017495Y009163D01*
X017495Y009066D01*
X017495Y009312D02*
X017785Y009312D01*
X017495Y009506D01*
X017785Y009506D01*
X017785Y009607D02*
X017495Y009607D01*
X017495Y009752D01*
X017543Y009801D01*
X017737Y009801D01*
X017785Y009752D01*
X017785Y009607D01*
X018495Y009607D02*
X018495Y009801D01*
X018688Y009801D02*
X018737Y009801D01*
X018785Y009752D01*
X018785Y009655D01*
X018737Y009607D01*
X018688Y009506D02*
X018495Y009506D01*
X018495Y009607D02*
X018688Y009801D01*
X018688Y009506D02*
X018785Y009409D01*
X018688Y009312D01*
X018495Y009312D01*
X018495Y009211D02*
X018592Y009114D01*
X018592Y009163D02*
X018592Y009018D01*
X018495Y009018D02*
X018785Y009018D01*
X018785Y009163D01*
X018737Y009211D01*
X018640Y009211D01*
X018592Y009163D01*
X018640Y009312D02*
X018640Y009506D01*
X019495Y009506D02*
X019785Y009506D01*
X019785Y009607D02*
X019495Y009607D01*
X019495Y009752D01*
X019543Y009801D01*
X019737Y009801D01*
X019785Y009752D01*
X019785Y009607D01*
X019785Y009312D02*
X019495Y009506D01*
X019495Y009312D02*
X019785Y009312D01*
X019737Y009211D02*
X019785Y009163D01*
X019785Y009066D01*
X019737Y009018D01*
X019543Y009018D01*
X019495Y009066D01*
X019495Y009163D01*
X019543Y009211D01*
X019640Y009211D01*
X019640Y009114D01*
X020495Y009066D02*
X020543Y009018D01*
X020495Y009066D02*
X020495Y009163D01*
X020543Y009211D01*
X020592Y009211D01*
X020640Y009163D01*
X020640Y009066D01*
X020688Y009018D01*
X020737Y009018D01*
X020785Y009066D01*
X020785Y009163D01*
X020737Y009211D01*
X020785Y009312D02*
X020495Y009312D01*
X020495Y009457D01*
X020543Y009506D01*
X020737Y009506D01*
X020785Y009457D01*
X020785Y009312D01*
X020688Y009607D02*
X020785Y009704D01*
X020688Y009801D01*
X020495Y009801D01*
X020640Y009801D02*
X020640Y009607D01*
X020688Y009607D02*
X020495Y009607D01*
X021495Y009607D02*
X021495Y009801D01*
X021495Y009607D02*
X021785Y009607D01*
X021737Y009506D02*
X021785Y009457D01*
X021785Y009361D01*
X021737Y009312D01*
X021543Y009312D01*
X021495Y009361D01*
X021495Y009457D01*
X021543Y009506D01*
X021543Y009211D02*
X021495Y009163D01*
X021495Y009066D01*
X021543Y009018D01*
X021640Y009066D02*
X021640Y009163D01*
X021592Y009211D01*
X021543Y009211D01*
X021640Y009066D02*
X021688Y009018D01*
X021737Y009018D01*
X021785Y009066D01*
X021785Y009163D01*
X021737Y009211D01*
X022495Y009114D02*
X022592Y009018D01*
X022785Y009018D01*
X022592Y009211D02*
X022495Y009114D01*
X022592Y009211D02*
X022785Y009211D01*
X022640Y009312D02*
X022688Y009361D01*
X022688Y009506D01*
X022785Y009506D02*
X022495Y009506D01*
X022495Y009361D01*
X022543Y009312D01*
X022640Y009312D01*
X022640Y009607D02*
X022688Y009655D01*
X022688Y009801D01*
X022785Y009801D02*
X022495Y009801D01*
X022495Y009655D01*
X022543Y009607D01*
X022640Y009607D01*
X023495Y009607D02*
X023495Y009752D01*
X023543Y009801D01*
X023737Y009801D01*
X023785Y009752D01*
X023785Y009607D01*
X023495Y009607D01*
X023495Y009506D02*
X023785Y009506D01*
X023785Y009312D02*
X023495Y009312D01*
X023543Y009211D02*
X023640Y009211D01*
X023640Y009114D01*
X023543Y009018D02*
X023495Y009066D01*
X023495Y009163D01*
X023543Y009211D01*
X023737Y009211D02*
X023785Y009163D01*
X023785Y009066D01*
X023737Y009018D01*
X023543Y009018D01*
X023785Y009312D02*
X023495Y009506D01*
X011785Y009409D02*
X011688Y009506D01*
X011495Y009506D01*
X011495Y009607D02*
X011495Y009801D01*
X011495Y009704D02*
X011785Y009704D01*
X011688Y009607D01*
X011640Y009506D02*
X011640Y009312D01*
X011688Y009312D02*
X011785Y009409D01*
X011688Y009312D02*
X011495Y009312D01*
X011543Y009211D02*
X011737Y009211D01*
X011785Y009163D01*
X011785Y009018D01*
X011495Y009018D01*
X011495Y009163D01*
X011543Y009211D01*
X011543Y008917D02*
X011495Y008868D01*
X011495Y008771D01*
X011543Y008723D01*
X011640Y008771D02*
X011640Y008868D01*
X011592Y008917D01*
X011543Y008917D01*
X011737Y008917D02*
X011785Y008868D01*
X011785Y008771D01*
X011737Y008723D01*
X011688Y008723D01*
X011640Y008771D01*
X010285Y009166D02*
X010237Y009118D01*
X010043Y009118D01*
X009995Y009166D01*
X009995Y009263D01*
X010043Y009311D01*
X010140Y009311D01*
X010140Y009214D01*
X010237Y009311D02*
X010285Y009263D01*
X010285Y009166D01*
X010285Y009412D02*
X009995Y009412D01*
X009995Y009606D02*
X010285Y009606D01*
X010285Y009707D02*
X009995Y009707D01*
X009995Y009852D01*
X010043Y009901D01*
X010237Y009901D01*
X010285Y009852D01*
X010285Y009707D01*
X010285Y009412D02*
X009995Y009606D01*
X006285Y009607D02*
X006092Y009607D01*
X005995Y009704D01*
X006092Y009801D01*
X006285Y009801D01*
X006285Y009506D02*
X006285Y009312D01*
X006140Y009312D01*
X006188Y009409D01*
X006188Y009457D01*
X006140Y009506D01*
X006043Y009506D01*
X005995Y009457D01*
X005995Y009361D01*
X006043Y009312D01*
X002785Y009312D02*
X002495Y009506D01*
X002785Y009506D01*
X002785Y009607D02*
X002495Y009607D01*
X002495Y009752D01*
X002543Y009801D01*
X002737Y009801D01*
X002785Y009752D01*
X002785Y009607D01*
X002785Y009312D02*
X002495Y009312D01*
X002543Y009211D02*
X002640Y009211D01*
X002640Y009114D01*
X002543Y009018D02*
X002495Y009066D01*
X002495Y009163D01*
X002543Y009211D01*
X002737Y009211D02*
X002785Y009163D01*
X002785Y009066D01*
X002737Y009018D01*
X002543Y009018D01*
D12*
X013486Y005355D02*
X013775Y005355D01*
X013630Y005355D02*
X013630Y005788D01*
X013775Y005644D01*
X013921Y005716D02*
X013921Y005428D01*
X013993Y005355D01*
X014137Y005355D01*
X014210Y005428D01*
X013921Y005716D01*
X013993Y005788D01*
X014137Y005788D01*
X014210Y005716D01*
X014210Y005428D01*
X014791Y005500D02*
X015008Y005500D01*
X015080Y005428D01*
X015008Y005355D01*
X014791Y005355D01*
X014791Y005572D01*
X014863Y005644D01*
X015008Y005644D01*
X015226Y005644D02*
X015515Y005355D01*
X015226Y005355D01*
X015226Y005644D02*
X015515Y005644D01*
X015661Y005644D02*
X015661Y005355D01*
X015878Y005355D01*
X015950Y005428D01*
X015950Y005644D01*
X016096Y005644D02*
X016313Y005644D01*
X016385Y005572D01*
X016385Y005428D01*
X016313Y005355D01*
X016096Y005355D01*
X016096Y005788D01*
X016531Y005572D02*
X016531Y005500D01*
X016820Y005500D01*
X016820Y005428D02*
X016820Y005572D01*
X016748Y005644D01*
X016603Y005644D01*
X016531Y005572D01*
X016748Y005355D02*
X016820Y005428D01*
X016748Y005355D02*
X016603Y005355D01*
X016966Y005355D02*
X016966Y005572D01*
X017038Y005644D01*
X017110Y005572D01*
X017110Y005355D01*
X017255Y005355D02*
X017255Y005644D01*
X017183Y005644D01*
X017110Y005572D01*
D13*
X017638Y005374D03*
X017758Y005444D03*
X017898Y005374D03*
X017978Y005544D03*
X017978Y005594D03*
X017918Y005614D03*
X018018Y005694D03*
X018158Y005834D03*
X018178Y005844D03*
X018318Y005884D03*
X018328Y005864D03*
X018308Y005914D03*
X018528Y005974D03*
X018618Y006014D03*
X018628Y005994D03*
X018548Y006094D03*
X018558Y006104D03*
X018718Y006154D03*
X018748Y006194D03*
X018728Y006244D03*
X018708Y006274D03*
X018848Y006374D03*
X018938Y006344D03*
X018958Y006524D03*
X018968Y006524D03*
X018948Y006534D03*
X018938Y006534D03*
X018618Y006644D03*
X018548Y006614D03*
X018488Y006664D03*
X018628Y006774D03*
X018648Y006934D03*
X018628Y006954D03*
X018598Y006984D03*
X018578Y007004D03*
X018558Y007014D03*
X018548Y007024D03*
X018538Y007034D03*
X018528Y007044D03*
X018768Y007184D03*
X018638Y007444D03*
X018628Y007474D03*
X018598Y007534D03*
X018588Y007564D03*
X018578Y007594D03*
X018248Y007874D03*
X017538Y007614D03*
X017508Y007614D03*
X017498Y007614D03*
X017488Y007614D03*
X017638Y007574D03*
X017758Y007544D03*
X017768Y007524D03*
X017818Y007504D03*
X017898Y007434D03*
X017888Y007404D03*
X017948Y007364D03*
X017958Y007354D03*
X017978Y007284D03*
X017708Y007234D03*
X017338Y007324D03*
X017328Y007324D03*
X017248Y007254D03*
X017308Y007154D03*
X017318Y007154D03*
X017118Y007154D03*
X017098Y007144D03*
X017088Y007144D03*
X017078Y007144D03*
X017038Y007244D03*
X017128Y007344D03*
X016908Y007324D03*
X016808Y007444D03*
X016748Y007514D03*
X016468Y007424D03*
X016458Y007424D03*
X016448Y007424D03*
X016438Y007424D03*
X016418Y007414D03*
X016408Y007414D03*
X016398Y007414D03*
X016458Y007384D03*
X016138Y007364D03*
X016128Y007364D03*
X015908Y007374D03*
X015898Y007374D03*
X015888Y007374D03*
X015888Y007334D03*
X015898Y007334D03*
X015758Y007414D03*
X015748Y007414D03*
X015728Y007364D03*
X015668Y007474D03*
X015658Y007474D03*
X015598Y007404D03*
X015568Y007274D03*
X015558Y007274D03*
X015548Y007274D03*
X015428Y007314D03*
X015418Y007314D03*
X015458Y007454D03*
X015398Y007504D03*
X015388Y007504D03*
X015378Y007504D03*
X015268Y007554D03*
X015258Y007554D03*
X015168Y007464D03*
X015108Y007494D03*
X015118Y007544D03*
X015048Y007464D03*
X014968Y007524D03*
X014948Y007514D03*
X014918Y007454D03*
X014808Y007454D03*
X014798Y007494D03*
X014788Y007494D03*
X014718Y007474D03*
X014648Y007474D03*
X015068Y007314D03*
X015118Y007324D03*
X015128Y007324D03*
X015138Y007324D03*
X015128Y007284D03*
X015188Y007224D03*
X015178Y007214D03*
X015158Y007204D03*
X015208Y007234D03*
X015228Y007244D03*
X015358Y007164D03*
X015388Y007154D03*
X015398Y007154D03*
X015408Y007154D03*
X015598Y007104D03*
X015618Y007094D03*
X015628Y007094D03*
X015768Y007044D03*
X015778Y007034D03*
X015808Y007024D03*
X015848Y007014D03*
X015858Y007014D03*
X015868Y007014D03*
X015888Y007014D03*
X015988Y007124D03*
X016008Y007124D03*
X016118Y007154D03*
X016218Y007004D03*
X016388Y007004D03*
X016398Y007004D03*
X016408Y007004D03*
X016468Y007014D03*
X016378Y007084D03*
X016498Y007174D03*
X016628Y007084D03*
X016728Y007114D03*
X016828Y007154D03*
X016828Y007074D03*
X016898Y006914D03*
X016918Y006774D03*
X016938Y006764D03*
X016858Y006764D03*
X016718Y006704D03*
X016638Y006654D03*
X016578Y006614D03*
X016578Y006564D03*
X016628Y006784D03*
X016568Y006824D03*
X016558Y006824D03*
X017068Y006784D03*
X017108Y006774D03*
X017168Y006804D03*
X017218Y006794D03*
X017268Y006784D03*
X017288Y006784D03*
X017338Y006794D03*
X017388Y006744D03*
X017418Y006684D03*
X017438Y006664D03*
X017458Y006704D03*
X017508Y006674D03*
X017518Y006664D03*
X017528Y006654D03*
X017488Y006584D03*
X017498Y006564D03*
X017508Y006544D03*
X017558Y006454D03*
X017568Y006434D03*
X017608Y006334D03*
X017618Y006314D03*
X017628Y006284D03*
X017758Y006344D03*
X017768Y006324D03*
X017738Y006384D03*
X017718Y006414D03*
X017708Y006434D03*
X017678Y006494D03*
X017648Y006544D03*
X017638Y006564D03*
X017618Y006574D03*
X017628Y006594D03*
X017618Y006624D03*
X017948Y006704D03*
X017978Y006674D03*
X017988Y006664D03*
X018008Y006644D03*
X018038Y006594D03*
X018078Y006554D03*
X018098Y006524D03*
X018138Y006474D03*
X018198Y006384D03*
X018248Y006334D03*
X018258Y006314D03*
X017828Y006174D03*
X017798Y006254D03*
X017878Y006094D03*
X017898Y006064D03*
X017908Y006044D03*
X018018Y005964D03*
X018008Y005944D03*
X017768Y005914D03*
X017758Y005924D03*
X017748Y005944D03*
X017688Y006104D03*
X017348Y005984D03*
X017338Y006004D03*
X017328Y006024D03*
X017268Y006104D03*
X017258Y006114D03*
X017238Y006134D03*
X017228Y006144D03*
X017208Y006164D03*
X017448Y006324D03*
X017428Y006354D03*
X018318Y006784D03*
X018038Y007004D03*
X018038Y007094D03*
X017948Y007074D03*
X017938Y007084D03*
X017838Y006994D03*
X017538Y006964D03*
X017168Y007644D03*
X016888Y007734D03*
X016848Y007754D03*
X016878Y007834D03*
X014978Y007174D03*
X014958Y007164D03*
X014748Y007144D03*
X014738Y007144D03*
X014708Y007134D03*
X014518Y007204D03*
X014508Y007204D03*
X014498Y007204D03*
X014488Y007204D03*
X014488Y007134D03*
X014478Y007134D03*
X014368Y007144D03*
X014328Y007144D03*
X014318Y007204D03*
X014278Y007204D03*
X014268Y007204D03*
X014238Y007214D03*
X014228Y007214D03*
X014218Y007214D03*
X014208Y007224D03*
X014198Y007224D03*
X014188Y007184D03*
X014168Y007194D03*
X014218Y007174D03*
X014248Y007164D03*
X014378Y007204D03*
X014028Y007264D03*
X014088Y007424D03*
X013648Y007374D03*
X013508Y007374D03*
X013488Y007364D03*
X013388Y007354D03*
X013378Y007354D03*
X013348Y007344D03*
X013338Y007344D03*
X013308Y007334D03*
X013298Y007334D03*
X013278Y007324D03*
X013248Y007314D03*
X013198Y007294D03*
X012958Y007244D03*
X012478Y007234D03*
X012458Y007214D03*
X012438Y007214D03*
X011888Y007544D03*
X011868Y007514D03*
X011858Y007494D03*
X013468Y006804D03*
X014668Y006684D03*
X014678Y006674D03*
X014688Y006664D03*
X014698Y006654D03*
X014708Y006654D03*
X014728Y006764D03*
X014868Y006654D03*
X014878Y006654D03*
X014858Y006614D03*
X014878Y006604D03*
X014938Y006684D03*
X015028Y006684D03*
X015038Y006644D03*
X015028Y006634D03*
X015058Y006714D03*
X015128Y006674D03*
X015208Y006764D03*
X015248Y006724D03*
X015328Y006744D03*
X015338Y006744D03*
X015348Y006744D03*
X015478Y006764D03*
X015488Y006764D03*
X015498Y006724D03*
X015508Y006724D03*
X015518Y006714D03*
X015538Y006704D03*
X016038Y006654D03*
X016048Y006654D03*
X016048Y006574D03*
X016058Y006574D03*
X016068Y006574D03*
X019248Y005944D03*
X019388Y006154D03*
X019398Y006184D03*
X019408Y006214D03*
X019418Y006244D03*
X019448Y006344D03*
X019648Y006634D03*
X019598Y005404D03*
X019598Y005254D03*
X019568Y005124D03*
X019438Y004964D03*
X019418Y004944D03*
X019408Y004944D03*
X019398Y004934D03*
X019378Y004924D03*
X019248Y005254D03*
X017838Y004884D03*
X017808Y004954D03*
D14*
X017828Y004889D03*
X018058Y005049D03*
X018068Y005049D03*
X018178Y005079D03*
X018218Y005089D03*
X018228Y005099D03*
X018268Y005119D03*
X018278Y005129D03*
X018308Y005159D03*
X018388Y005199D03*
X018608Y005339D03*
X018628Y005349D03*
X018708Y005409D03*
X018728Y005429D03*
X018738Y005439D03*
X018788Y005469D03*
X018848Y005499D03*
X018858Y005519D03*
X018928Y005579D03*
X018948Y005599D03*
X018968Y005619D03*
X018978Y005629D03*
X019088Y005739D03*
X019098Y005749D03*
X019108Y005759D03*
X019128Y005789D03*
X019138Y005809D03*
X019178Y005849D03*
X019208Y005879D03*
X019228Y005909D03*
X019258Y005959D03*
X019268Y005979D03*
X019278Y005999D03*
X019318Y006049D03*
X019328Y006069D03*
X019358Y006099D03*
X019368Y006119D03*
X019378Y006139D03*
X019428Y006259D03*
X019068Y006479D03*
X019008Y006529D03*
X018998Y006529D03*
X018988Y006529D03*
X018978Y006529D03*
X018928Y006469D03*
X018898Y006359D03*
X018888Y006359D03*
X018878Y006359D03*
X018838Y006319D03*
X018828Y006329D03*
X018818Y006339D03*
X018818Y006389D03*
X018728Y006379D03*
X018708Y006359D03*
X018698Y006349D03*
X018718Y006259D03*
X018688Y006199D03*
X018698Y006189D03*
X018708Y006179D03*
X018728Y006139D03*
X018738Y006129D03*
X018758Y006169D03*
X018868Y006279D03*
X019008Y006299D03*
X019068Y006589D03*
X019078Y006589D03*
X019088Y006589D03*
X018598Y006619D03*
X018588Y006609D03*
X018578Y006599D03*
X018538Y006629D03*
X018528Y006639D03*
X018508Y006649D03*
X018468Y006679D03*
X018448Y006689D03*
X018428Y006699D03*
X018418Y006709D03*
X018408Y006719D03*
X018398Y006729D03*
X018388Y006739D03*
X018378Y006749D03*
X018358Y006759D03*
X018338Y006769D03*
X018298Y006799D03*
X018288Y006809D03*
X018278Y006819D03*
X018238Y006849D03*
X018218Y006869D03*
X018208Y006879D03*
X018198Y006889D03*
X018178Y006899D03*
X018168Y006909D03*
X018148Y006919D03*
X018128Y006929D03*
X018098Y006949D03*
X018258Y007059D03*
X018238Y007089D03*
X018198Y007119D03*
X018188Y007129D03*
X018168Y007149D03*
X018148Y007159D03*
X018138Y007169D03*
X018128Y007179D03*
X018108Y007189D03*
X018058Y007209D03*
X018028Y007219D03*
X018008Y007239D03*
X017988Y007269D03*
X017938Y007369D03*
X017928Y007379D03*
X017908Y007389D03*
X017898Y007389D03*
X017878Y007409D03*
X017868Y007419D03*
X017868Y007449D03*
X017858Y007449D03*
X017848Y007459D03*
X017838Y007459D03*
X017808Y007509D03*
X017798Y007509D03*
X017788Y007519D03*
X017778Y007519D03*
X017738Y007559D03*
X017728Y007559D03*
X017708Y007559D03*
X017618Y007599D03*
X017608Y007609D03*
X017598Y007619D03*
X017588Y007619D03*
X017568Y007629D03*
X017558Y007599D03*
X017478Y007619D03*
X017468Y007609D03*
X017458Y007599D03*
X017408Y007649D03*
X017388Y007659D03*
X017368Y007669D03*
X017318Y007669D03*
X017308Y007669D03*
X017298Y007669D03*
X017288Y007669D03*
X017278Y007669D03*
X017248Y007669D03*
X017228Y007659D03*
X017218Y007659D03*
X017208Y007649D03*
X017198Y007649D03*
X017188Y007649D03*
X017178Y007649D03*
X017138Y007659D03*
X017118Y007669D03*
X017098Y007709D03*
X017088Y007709D03*
X017078Y007699D03*
X017068Y007699D03*
X017058Y007699D03*
X017048Y007699D03*
X016998Y007689D03*
X016988Y007689D03*
X016978Y007689D03*
X016968Y007699D03*
X016948Y007699D03*
X016938Y007689D03*
X016918Y007679D03*
X016898Y007689D03*
X016888Y007689D03*
X016858Y007749D03*
X016838Y007749D03*
X016828Y007749D03*
X016848Y007819D03*
X016858Y007819D03*
X016868Y007849D03*
X016508Y008049D03*
X016488Y008039D03*
X016458Y008029D03*
X016568Y008069D03*
X016618Y008089D03*
X016748Y008139D03*
X016968Y008159D03*
X017088Y008129D03*
X017138Y008089D03*
X017268Y008029D03*
X017368Y007999D03*
X017558Y007999D03*
X017618Y007829D03*
X017668Y007799D03*
X017908Y007669D03*
X018178Y007609D03*
X018248Y007589D03*
X018268Y007579D03*
X018298Y007539D03*
X018308Y007519D03*
X018328Y007489D03*
X018338Y007469D03*
X018348Y007459D03*
X018368Y007399D03*
X018398Y007359D03*
X018418Y007309D03*
X018438Y007259D03*
X018688Y007379D03*
X018698Y007359D03*
X018708Y007339D03*
X018608Y007509D03*
X018568Y007619D03*
X018558Y007639D03*
X018528Y007679D03*
X018518Y007689D03*
X018488Y007719D03*
X018438Y007749D03*
X018358Y007799D03*
X018128Y007949D03*
X017908Y007439D03*
X017688Y007249D03*
X017678Y007259D03*
X017748Y007179D03*
X017918Y007089D03*
X017928Y007089D03*
X017858Y006939D03*
X017618Y006929D03*
X017598Y006939D03*
X017588Y006949D03*
X017518Y006949D03*
X017508Y006959D03*
X017488Y006969D03*
X017478Y006979D03*
X017448Y007009D03*
X017398Y007029D03*
X017378Y007039D03*
X017358Y007049D03*
X017318Y006999D03*
X017338Y006969D03*
X017308Y006949D03*
X017228Y007009D03*
X017168Y007019D03*
X017048Y007049D03*
X017008Y007039D03*
X016988Y007009D03*
X016908Y007099D03*
X016828Y007219D03*
X016718Y007109D03*
X016638Y007079D03*
X016518Y007039D03*
X016508Y007029D03*
X016458Y007009D03*
X016448Y007009D03*
X016438Y007009D03*
X016428Y007009D03*
X016418Y007009D03*
X016448Y006909D03*
X016498Y006919D03*
X016508Y006929D03*
X016558Y006939D03*
X016628Y006919D03*
X016738Y006979D03*
X016868Y006879D03*
X016878Y006879D03*
X016888Y006879D03*
X016898Y006879D03*
X016888Y006909D03*
X016888Y006779D03*
X016898Y006779D03*
X016908Y006769D03*
X016958Y006779D03*
X016968Y006789D03*
X016978Y006789D03*
X017018Y006789D03*
X017028Y006799D03*
X017038Y006799D03*
X017048Y006799D03*
X017078Y006779D03*
X017098Y006779D03*
X017128Y006799D03*
X017138Y006799D03*
X017148Y006799D03*
X017178Y006809D03*
X017188Y006809D03*
X017198Y006809D03*
X017228Y006789D03*
X017248Y006779D03*
X017258Y006779D03*
X017308Y006789D03*
X017318Y006789D03*
X017328Y006789D03*
X017348Y006779D03*
X017358Y006779D03*
X017398Y006719D03*
X017428Y006679D03*
X017448Y006639D03*
X017458Y006619D03*
X017468Y006609D03*
X017478Y006599D03*
X017548Y006639D03*
X017568Y006619D03*
X017578Y006609D03*
X017598Y006599D03*
X017608Y006589D03*
X017658Y006529D03*
X017668Y006509D03*
X017728Y006399D03*
X017748Y006359D03*
X017788Y006269D03*
X017838Y006159D03*
X017848Y006139D03*
X017858Y006129D03*
X017868Y006109D03*
X017888Y006079D03*
X017918Y006029D03*
X017938Y006009D03*
X017948Y005999D03*
X017958Y005989D03*
X017978Y005979D03*
X018028Y005969D03*
X018038Y005979D03*
X018058Y005989D03*
X018068Y005989D03*
X018078Y005989D03*
X018098Y005989D03*
X017998Y005929D03*
X017988Y005919D03*
X017938Y005899D03*
X017928Y005889D03*
X017918Y005879D03*
X017858Y005869D03*
X017788Y005889D03*
X017778Y005899D03*
X017728Y005999D03*
X017698Y006089D03*
X017648Y006219D03*
X017598Y006349D03*
X017588Y006369D03*
X017538Y006499D03*
X017528Y006519D03*
X017518Y006529D03*
X017368Y006409D03*
X017338Y006419D03*
X017418Y006369D03*
X017438Y006339D03*
X017218Y006159D03*
X017198Y006169D03*
X017188Y006169D03*
X017178Y006169D03*
X017168Y006179D03*
X017158Y006179D03*
X017148Y006179D03*
X016908Y006169D03*
X016818Y006209D03*
X016798Y006219D03*
X016618Y006299D03*
X016458Y006299D03*
X016398Y006279D03*
X016378Y006269D03*
X016338Y006259D03*
X016268Y006229D03*
X016238Y006319D03*
X016268Y006339D03*
X016308Y006369D03*
X016318Y006379D03*
X016328Y006389D03*
X016388Y006409D03*
X016418Y006419D03*
X016478Y006429D03*
X016558Y006449D03*
X016608Y006459D03*
X016668Y006469D03*
X016808Y006479D03*
X016858Y006489D03*
X016608Y006619D03*
X016598Y006619D03*
X016588Y006619D03*
X016618Y006629D03*
X016648Y006679D03*
X016658Y006699D03*
X016698Y006689D03*
X016758Y006719D03*
X016768Y006719D03*
X016778Y006719D03*
X016788Y006719D03*
X016798Y006719D03*
X016818Y006739D03*
X016828Y006739D03*
X016838Y006749D03*
X016848Y006759D03*
X016638Y006779D03*
X016258Y006869D03*
X016228Y006859D03*
X016218Y006859D03*
X016198Y006849D03*
X016178Y006859D03*
X016008Y006799D03*
X016018Y006659D03*
X016028Y006659D03*
X016048Y006609D03*
X015728Y006669D03*
X015738Y006819D03*
X015818Y006909D03*
X015818Y007019D03*
X015828Y007019D03*
X015838Y007019D03*
X015878Y007019D03*
X015798Y007029D03*
X015748Y007039D03*
X015608Y007099D03*
X015588Y007099D03*
X015588Y007159D03*
X015578Y007199D03*
X015578Y007269D03*
X015588Y007319D03*
X015628Y007299D03*
X015698Y007269D03*
X015738Y007259D03*
X015768Y007409D03*
X015778Y007409D03*
X015878Y007339D03*
X015918Y007379D03*
X016148Y007369D03*
X016158Y007369D03*
X016168Y007369D03*
X016178Y007379D03*
X016188Y007379D03*
X016368Y007409D03*
X016378Y007409D03*
X016388Y007409D03*
X016428Y007419D03*
X016448Y007389D03*
X016388Y007279D03*
X016128Y007209D03*
X016108Y007159D03*
X016028Y007199D03*
X015998Y007129D03*
X015608Y006949D03*
X015388Y006919D03*
X015338Y006779D03*
X015358Y006739D03*
X015368Y006739D03*
X015378Y006739D03*
X015448Y006739D03*
X015458Y006739D03*
X015468Y006729D03*
X015478Y006729D03*
X015488Y006729D03*
X015188Y006749D03*
X015038Y006679D03*
X014898Y006929D03*
X014998Y006999D03*
X015038Y007009D03*
X015068Y007019D03*
X015148Y007039D03*
X015198Y007039D03*
X015188Y006939D03*
X015208Y007169D03*
X015218Y007169D03*
X015148Y007199D03*
X015138Y007199D03*
X015128Y007199D03*
X015238Y007249D03*
X015348Y007249D03*
X015368Y007159D03*
X015378Y007159D03*
X015528Y007339D03*
X015478Y007349D03*
X015588Y007409D03*
X015538Y007529D03*
X015398Y007549D03*
X015368Y007499D03*
X015158Y007459D03*
X015158Y007329D03*
X015148Y007329D03*
X014968Y007169D03*
X014908Y007149D03*
X014728Y007139D03*
X014718Y007139D03*
X014698Y007129D03*
X014688Y007129D03*
X014678Y007129D03*
X014648Y007119D03*
X014608Y007119D03*
X014588Y007119D03*
X014468Y007129D03*
X014458Y007129D03*
X014448Y007129D03*
X014438Y007129D03*
X014418Y007129D03*
X014378Y007139D03*
X014318Y007149D03*
X014308Y007149D03*
X014278Y007159D03*
X014268Y007159D03*
X014258Y007159D03*
X014238Y007169D03*
X014228Y007169D03*
X014208Y007179D03*
X014198Y007179D03*
X014178Y007189D03*
X014188Y007229D03*
X014328Y007209D03*
X014338Y007209D03*
X014368Y007209D03*
X014308Y007009D03*
X014348Y006999D03*
X014658Y006979D03*
X014668Y006979D03*
X014688Y006799D03*
X014698Y006799D03*
X014698Y006749D03*
X014688Y006749D03*
X014728Y006629D03*
X014488Y006819D03*
X014158Y006849D03*
X014108Y006859D03*
X013918Y006949D03*
X013818Y006959D03*
X013748Y006939D03*
X013728Y006919D03*
X013668Y006879D03*
X013658Y006869D03*
X013608Y006819D03*
X013598Y006809D03*
X013578Y006799D03*
X013498Y006879D03*
X013488Y006869D03*
X013478Y006859D03*
X013468Y006849D03*
X013338Y007049D03*
X013348Y007059D03*
X013318Y007039D03*
X013298Y007029D03*
X013228Y006989D03*
X013448Y007109D03*
X013488Y007129D03*
X013548Y007139D03*
X013718Y007149D03*
X013578Y007359D03*
X013568Y007359D03*
X013558Y007359D03*
X013548Y007359D03*
X013548Y007389D03*
X013538Y007389D03*
X013528Y007389D03*
X013558Y007389D03*
X013598Y007389D03*
X013538Y007539D03*
X013348Y007519D03*
X013098Y007459D03*
X012998Y007439D03*
X012958Y007429D03*
X012778Y007429D03*
X012758Y007439D03*
X012968Y007239D03*
X012998Y007199D03*
X013018Y007209D03*
X013038Y007219D03*
X013058Y007229D03*
X013078Y007239D03*
X013098Y007249D03*
X013158Y007279D03*
X013168Y007279D03*
X013178Y007289D03*
X013188Y007289D03*
X013208Y007299D03*
X013218Y007299D03*
X013228Y007309D03*
X013238Y007309D03*
X013258Y007319D03*
X013268Y007319D03*
X013288Y007329D03*
X013318Y007339D03*
X013328Y007339D03*
X012958Y007189D03*
X012948Y007189D03*
X012948Y006969D03*
X012888Y006969D03*
X012628Y006969D03*
X012458Y007079D03*
X012448Y007099D03*
X012468Y007219D03*
X011928Y007489D03*
X011868Y007479D03*
X011898Y007569D03*
X011908Y007579D03*
X011938Y007599D03*
X012008Y007619D03*
X013738Y007569D03*
X014018Y007469D03*
X014378Y007559D03*
X014398Y007539D03*
X014398Y007619D03*
X014408Y007619D03*
X014418Y007619D03*
X014398Y007649D03*
X014378Y007639D03*
X014518Y007469D03*
X014528Y007469D03*
X014538Y007469D03*
X014548Y007469D03*
X014768Y007489D03*
X014778Y007489D03*
X014808Y007499D03*
X014818Y007499D03*
X014798Y007459D03*
X014738Y007339D03*
X014618Y007299D03*
X015538Y006409D03*
X015558Y006399D03*
X015578Y006379D03*
X015588Y006369D03*
X015608Y006349D03*
X016108Y006269D03*
X016118Y006289D03*
X016188Y006299D03*
X017938Y006669D03*
X017938Y006729D03*
X017928Y006739D03*
X017998Y006659D03*
X018018Y006629D03*
X018028Y006599D03*
X018048Y006589D03*
X018068Y006559D03*
X018088Y006539D03*
X018108Y006509D03*
X018118Y006499D03*
X018128Y006489D03*
X018158Y006449D03*
X018168Y006439D03*
X018178Y006419D03*
X018188Y006399D03*
X018218Y006369D03*
X018228Y006359D03*
X018238Y006349D03*
X018268Y006299D03*
X018278Y006289D03*
X018568Y006109D03*
X018588Y006059D03*
X018598Y006049D03*
X018518Y005989D03*
X018498Y005999D03*
X018538Y005959D03*
X018548Y005949D03*
X018558Y005939D03*
X018568Y005929D03*
X018578Y005919D03*
X018378Y005779D03*
X018368Y005789D03*
X018358Y005799D03*
X018348Y005819D03*
X018338Y005839D03*
X018318Y005919D03*
X018218Y005809D03*
X018228Y005799D03*
X018238Y005789D03*
X018258Y005769D03*
X018268Y005759D03*
X018288Y005729D03*
X018298Y005719D03*
X018398Y005759D03*
X018198Y005639D03*
X018188Y005649D03*
X018158Y005719D03*
X018148Y005829D03*
X017908Y005619D03*
X017968Y005549D03*
X017738Y005449D03*
X017708Y005459D03*
X017648Y005389D03*
X017888Y005379D03*
X019118Y004809D03*
X019148Y004849D03*
X019188Y004889D03*
X019388Y004919D03*
X019428Y004949D03*
X019378Y004989D03*
X019558Y005199D03*
X019578Y005279D03*
X019608Y005329D03*
X019608Y005359D03*
X019618Y005359D03*
X019588Y005369D03*
X019578Y005379D03*
X019718Y005379D03*
X019718Y005409D03*
X019728Y005409D03*
X019448Y005269D03*
X019648Y006599D03*
X018618Y006799D03*
X018568Y006839D03*
X018558Y006849D03*
X018538Y006859D03*
X018508Y006879D03*
X018488Y006889D03*
X018458Y006919D03*
X018448Y006929D03*
X018438Y006939D03*
X018388Y006979D03*
X018318Y007019D03*
X018588Y006999D03*
X018608Y006979D03*
X018618Y006969D03*
X017578Y007319D03*
X017538Y007339D03*
X017478Y007409D03*
X017468Y007409D03*
X017458Y007419D03*
X017278Y007409D03*
X017218Y007409D03*
X017138Y007349D03*
X017088Y007409D03*
X016908Y007379D03*
X016738Y007359D03*
X016708Y007349D03*
X017108Y007149D03*
X017238Y007259D03*
D15*
X017228Y007319D03*
X017218Y007319D03*
X017208Y007319D03*
X017198Y007319D03*
X017188Y007319D03*
X017058Y007319D03*
X017048Y007319D03*
X017038Y007319D03*
X017068Y007239D03*
X017078Y007239D03*
X017158Y007179D03*
X017298Y007249D03*
X017388Y007149D03*
X017398Y007149D03*
X017518Y007159D03*
X017528Y007159D03*
X017538Y007159D03*
X017548Y007159D03*
X017568Y007169D03*
X017578Y007169D03*
X017528Y007249D03*
X017518Y007249D03*
X017678Y007149D03*
X017558Y007049D03*
X017668Y006939D03*
X017678Y006929D03*
X017698Y006919D03*
X017868Y006839D03*
X017888Y006739D03*
X017908Y006719D03*
X017428Y006849D03*
X017418Y006859D03*
X017408Y006869D03*
X017388Y006889D03*
X017368Y006899D03*
X017358Y006909D03*
X017348Y006909D03*
X017438Y006929D03*
X017448Y006919D03*
X017088Y006949D03*
X017078Y006949D03*
X017068Y006949D03*
X016968Y006939D03*
X016958Y006939D03*
X016948Y006929D03*
X016708Y006839D03*
X016458Y006719D03*
X016448Y006719D03*
X016368Y006669D03*
X016358Y006669D03*
X016358Y006759D03*
X016348Y006769D03*
X016338Y006769D03*
X016328Y006769D03*
X016318Y006769D03*
X016308Y006769D03*
X015898Y006679D03*
X015888Y006689D03*
X015868Y006699D03*
X015858Y006709D03*
X015848Y006709D03*
X015878Y006599D03*
X016008Y006599D03*
X016018Y006599D03*
X016028Y006599D03*
X015738Y006629D03*
X015688Y006639D03*
X015678Y006649D03*
X015668Y006649D03*
X015658Y006659D03*
X015638Y006669D03*
X015258Y006749D03*
X014908Y006629D03*
X014898Y006629D03*
X014888Y006629D03*
X015678Y007099D03*
X015688Y007099D03*
X015668Y007209D03*
X015508Y007169D03*
X015278Y007299D03*
X015268Y007299D03*
X015098Y007229D03*
X015068Y007219D03*
X015058Y007219D03*
X015038Y007209D03*
X014988Y007279D03*
X014868Y007179D03*
X014858Y007179D03*
X014698Y007209D03*
X014688Y007209D03*
X014678Y007199D03*
X014598Y007189D03*
X014008Y007289D03*
X014988Y007499D03*
X014998Y007499D03*
X015018Y007509D03*
X015318Y007529D03*
X015568Y007489D03*
X015578Y007489D03*
X015678Y007439D03*
X015688Y007439D03*
X015958Y007339D03*
X015968Y007339D03*
X015978Y007339D03*
X015988Y007339D03*
X016078Y007109D03*
X016068Y007099D03*
X016058Y007099D03*
X016048Y007099D03*
X016038Y007099D03*
X016008Y007019D03*
X015988Y007029D03*
X016108Y007009D03*
X016118Y007009D03*
X016128Y007009D03*
X016138Y007009D03*
X016138Y007129D03*
X016298Y007119D03*
X016368Y007139D03*
X016438Y007079D03*
X016448Y007079D03*
X016568Y007079D03*
X016588Y007089D03*
X016608Y007099D03*
X016628Y007219D03*
X016728Y007269D03*
X016858Y007299D03*
X016908Y007249D03*
X016898Y007129D03*
X016888Y007129D03*
X016878Y007119D03*
X016328Y007019D03*
X016318Y007019D03*
X016278Y007359D03*
X016298Y007369D03*
X016668Y007469D03*
X016858Y007529D03*
X016868Y007529D03*
X016878Y007529D03*
X016888Y007529D03*
X016918Y007539D03*
X016928Y007539D03*
X016948Y007549D03*
X016958Y007549D03*
X016988Y007479D03*
X016998Y007479D03*
X016968Y007469D03*
X017128Y007559D03*
X017138Y007559D03*
X017148Y007559D03*
X017158Y007559D03*
X017168Y007559D03*
X017178Y007559D03*
X017198Y007559D03*
X017208Y007559D03*
X017348Y007559D03*
X017638Y007489D03*
X017648Y007489D03*
X017968Y007319D03*
X018008Y007059D03*
X018638Y006729D03*
X018768Y006649D03*
X019088Y006499D03*
X019168Y006649D03*
X019238Y006759D03*
X019458Y006649D03*
X019618Y006609D03*
X018148Y005999D03*
X018138Y005999D03*
X017678Y005819D03*
X017668Y005829D03*
X017658Y005849D03*
X017648Y005869D03*
X017638Y005889D03*
X017618Y005919D03*
X017548Y006119D03*
X017538Y006139D03*
X017508Y005639D03*
X017518Y005619D03*
X017778Y005449D03*
X017788Y005449D03*
X017878Y005619D03*
X017868Y005629D03*
X017898Y005269D03*
X017988Y005039D03*
X017918Y004889D03*
X017908Y004889D03*
X019168Y004849D03*
X019198Y004859D03*
X019208Y004859D03*
X019548Y005109D03*
X019558Y005119D03*
X011918Y007499D03*
X011878Y007499D03*
D16*
X011888Y007484D03*
X011898Y007484D03*
X011908Y007484D03*
X011908Y007464D03*
X011898Y007464D03*
X011888Y007464D03*
X011898Y007534D03*
X011908Y007534D03*
X011918Y007584D03*
X011928Y007594D03*
X011948Y007604D03*
X011958Y007604D03*
X011968Y007604D03*
X011978Y007604D03*
X011988Y007604D03*
X011998Y007614D03*
X012018Y007624D03*
X012028Y007624D03*
X012038Y007624D03*
X012048Y007624D03*
X012058Y007624D03*
X012068Y007624D03*
X012078Y007624D03*
X012088Y007624D03*
X012098Y007624D03*
X012108Y007624D03*
X012118Y007624D03*
X012128Y007624D03*
X012138Y007624D03*
X012148Y007624D03*
X012158Y007624D03*
X012168Y007624D03*
X012178Y007614D03*
X012188Y007614D03*
X012198Y007614D03*
X012208Y007614D03*
X012218Y007614D03*
X012228Y007614D03*
X012238Y007614D03*
X012248Y007604D03*
X012258Y007604D03*
X012268Y007604D03*
X012278Y007594D03*
X012288Y007594D03*
X012298Y007594D03*
X012308Y007594D03*
X012318Y007594D03*
X012328Y007594D03*
X012338Y007584D03*
X012348Y007584D03*
X012358Y007584D03*
X012368Y007574D03*
X012378Y007574D03*
X012388Y007564D03*
X012398Y007564D03*
X012408Y007554D03*
X012418Y007554D03*
X012428Y007554D03*
X012438Y007544D03*
X012448Y007534D03*
X012458Y007534D03*
X012468Y007524D03*
X012478Y007514D03*
X012488Y007514D03*
X012498Y007514D03*
X012508Y007504D03*
X012518Y007504D03*
X012528Y007494D03*
X012538Y007494D03*
X012548Y007494D03*
X012558Y007484D03*
X012568Y007484D03*
X012578Y007484D03*
X012588Y007474D03*
X012598Y007474D03*
X012608Y007474D03*
X012618Y007464D03*
X012628Y007464D03*
X012638Y007454D03*
X012648Y007454D03*
X012658Y007454D03*
X012668Y007454D03*
X012678Y007454D03*
X012688Y007444D03*
X012698Y007444D03*
X012708Y007444D03*
X012718Y007444D03*
X012728Y007444D03*
X012738Y007444D03*
X012748Y007444D03*
X012768Y007434D03*
X012788Y007424D03*
X012798Y007424D03*
X012808Y007424D03*
X012818Y007424D03*
X012828Y007424D03*
X012838Y007424D03*
X012848Y007424D03*
X012858Y007424D03*
X012868Y007424D03*
X012878Y007424D03*
X012888Y007424D03*
X012898Y007424D03*
X012908Y007424D03*
X012918Y007424D03*
X012928Y007424D03*
X012938Y007424D03*
X012948Y007424D03*
X012968Y007434D03*
X012978Y007434D03*
X012988Y007434D03*
X013008Y007444D03*
X013018Y007444D03*
X013028Y007444D03*
X013038Y007444D03*
X013048Y007454D03*
X013058Y007454D03*
X013068Y007454D03*
X013078Y007454D03*
X013088Y007454D03*
X013108Y007464D03*
X013118Y007464D03*
X013128Y007464D03*
X013138Y007464D03*
X013148Y007464D03*
X013158Y007464D03*
X013168Y007474D03*
X013178Y007474D03*
X013188Y007474D03*
X013198Y007474D03*
X013208Y007484D03*
X013218Y007484D03*
X013228Y007494D03*
X013238Y007494D03*
X013248Y007504D03*
X013258Y007504D03*
X013268Y007504D03*
X013278Y007504D03*
X013288Y007504D03*
X013298Y007514D03*
X013308Y007514D03*
X013318Y007514D03*
X013328Y007514D03*
X013338Y007514D03*
X013358Y007524D03*
X013368Y007524D03*
X013378Y007524D03*
X013388Y007524D03*
X013398Y007524D03*
X013408Y007524D03*
X013418Y007534D03*
X013428Y007534D03*
X013438Y007534D03*
X013448Y007534D03*
X013458Y007534D03*
X013468Y007534D03*
X013478Y007534D03*
X013488Y007534D03*
X013498Y007534D03*
X013508Y007534D03*
X013518Y007534D03*
X013528Y007534D03*
X013548Y007544D03*
X013558Y007544D03*
X013568Y007544D03*
X013578Y007554D03*
X013588Y007554D03*
X013598Y007554D03*
X013608Y007554D03*
X013618Y007554D03*
X013628Y007554D03*
X013638Y007564D03*
X013648Y007564D03*
X013658Y007564D03*
X013668Y007564D03*
X013678Y007564D03*
X013688Y007564D03*
X013698Y007564D03*
X013708Y007564D03*
X013718Y007564D03*
X013728Y007564D03*
X013748Y007564D03*
X013758Y007564D03*
X013768Y007564D03*
X013778Y007574D03*
X013788Y007574D03*
X013798Y007574D03*
X013808Y007574D03*
X013818Y007564D03*
X013828Y007564D03*
X013838Y007564D03*
X013848Y007564D03*
X013858Y007564D03*
X013868Y007554D03*
X013878Y007554D03*
X013888Y007554D03*
X013898Y007554D03*
X013908Y007554D03*
X013918Y007554D03*
X013928Y007544D03*
X013938Y007534D03*
X013948Y007534D03*
X013958Y007524D03*
X013968Y007524D03*
X013978Y007514D03*
X013988Y007504D03*
X013998Y007494D03*
X014008Y007484D03*
X014028Y007464D03*
X014038Y007454D03*
X014048Y007454D03*
X014058Y007444D03*
X014068Y007434D03*
X014078Y007434D03*
X014098Y007414D03*
X014108Y007414D03*
X014118Y007404D03*
X014128Y007394D03*
X014138Y007384D03*
X014148Y007384D03*
X014158Y007374D03*
X014168Y007374D03*
X014178Y007364D03*
X014188Y007354D03*
X014198Y007354D03*
X014208Y007344D03*
X014218Y007344D03*
X014228Y007344D03*
X014238Y007344D03*
X014248Y007344D03*
X014258Y007334D03*
X014268Y007334D03*
X014278Y007334D03*
X014288Y007334D03*
X014298Y007334D03*
X014308Y007324D03*
X014318Y007324D03*
X014328Y007324D03*
X014338Y007324D03*
X014348Y007314D03*
X014358Y007314D03*
X014368Y007304D03*
X014378Y007304D03*
X014388Y007304D03*
X014398Y007304D03*
X014408Y007304D03*
X014418Y007294D03*
X014428Y007294D03*
X014438Y007294D03*
X014448Y007294D03*
X014458Y007294D03*
X014468Y007294D03*
X014478Y007294D03*
X014488Y007294D03*
X014498Y007294D03*
X014508Y007294D03*
X014518Y007294D03*
X014528Y007294D03*
X014538Y007294D03*
X014548Y007294D03*
X014558Y007294D03*
X014568Y007294D03*
X014578Y007294D03*
X014588Y007294D03*
X014598Y007294D03*
X014608Y007294D03*
X014628Y007304D03*
X014638Y007304D03*
X014648Y007304D03*
X014658Y007304D03*
X014668Y007314D03*
X014678Y007314D03*
X014688Y007324D03*
X014698Y007324D03*
X014708Y007334D03*
X014718Y007334D03*
X014728Y007334D03*
X014748Y007334D03*
X014758Y007334D03*
X014768Y007334D03*
X014778Y007334D03*
X014788Y007334D03*
X014798Y007334D03*
X014808Y007334D03*
X014818Y007334D03*
X014828Y007334D03*
X014838Y007334D03*
X014848Y007344D03*
X014858Y007344D03*
X014868Y007344D03*
X014878Y007354D03*
X014888Y007354D03*
X014898Y007354D03*
X014908Y007354D03*
X014918Y007354D03*
X014928Y007364D03*
X014938Y007364D03*
X014948Y007364D03*
X014958Y007364D03*
X014968Y007364D03*
X014978Y007364D03*
X014988Y007364D03*
X014998Y007364D03*
X015008Y007364D03*
X015018Y007364D03*
X015028Y007364D03*
X015038Y007374D03*
X015048Y007374D03*
X015058Y007374D03*
X015068Y007374D03*
X015078Y007374D03*
X015088Y007374D03*
X015098Y007374D03*
X015108Y007374D03*
X015118Y007374D03*
X015128Y007374D03*
X015138Y007374D03*
X015148Y007374D03*
X015158Y007374D03*
X015168Y007374D03*
X015178Y007374D03*
X015188Y007374D03*
X015198Y007374D03*
X015208Y007374D03*
X015218Y007374D03*
X015228Y007374D03*
X015238Y007374D03*
X015248Y007374D03*
X015258Y007374D03*
X015268Y007374D03*
X015278Y007374D03*
X015288Y007374D03*
X015298Y007374D03*
X015308Y007374D03*
X015318Y007374D03*
X015328Y007374D03*
X015338Y007374D03*
X015348Y007374D03*
X015358Y007374D03*
X015368Y007374D03*
X015378Y007374D03*
X015388Y007374D03*
X015398Y007364D03*
X015408Y007364D03*
X015418Y007364D03*
X015428Y007364D03*
X015438Y007364D03*
X015448Y007354D03*
X015458Y007354D03*
X015468Y007354D03*
X015488Y007344D03*
X015498Y007344D03*
X015508Y007344D03*
X015518Y007344D03*
X015538Y007334D03*
X015548Y007324D03*
X015558Y007324D03*
X015568Y007324D03*
X015578Y007324D03*
X015598Y007314D03*
X015608Y007304D03*
X015618Y007304D03*
X015638Y007294D03*
X015648Y007284D03*
X015658Y007284D03*
X015668Y007274D03*
X015678Y007274D03*
X015688Y007274D03*
X015708Y007264D03*
X015718Y007264D03*
X015728Y007264D03*
X015748Y007254D03*
X015758Y007254D03*
X015768Y007254D03*
X015778Y007254D03*
X015788Y007244D03*
X015798Y007244D03*
X015808Y007244D03*
X015818Y007234D03*
X015828Y007234D03*
X015838Y007234D03*
X015848Y007234D03*
X015858Y007224D03*
X015868Y007224D03*
X015878Y007214D03*
X015888Y007214D03*
X015898Y007214D03*
X015908Y007204D03*
X015918Y007204D03*
X015928Y007204D03*
X015938Y007204D03*
X015948Y007204D03*
X015958Y007204D03*
X015968Y007204D03*
X015978Y007204D03*
X015988Y007204D03*
X015998Y007204D03*
X016008Y007204D03*
X016018Y007194D03*
X016038Y007204D03*
X016048Y007204D03*
X016058Y007204D03*
X016068Y007204D03*
X016078Y007204D03*
X016088Y007204D03*
X016098Y007204D03*
X016108Y007204D03*
X016118Y007204D03*
X016138Y007214D03*
X016148Y007214D03*
X016158Y007214D03*
X016168Y007214D03*
X016178Y007224D03*
X016188Y007224D03*
X016198Y007224D03*
X016208Y007224D03*
X016218Y007224D03*
X016228Y007224D03*
X016238Y007224D03*
X016248Y007234D03*
X016258Y007234D03*
X016268Y007234D03*
X016278Y007244D03*
X016288Y007254D03*
X016298Y007254D03*
X016308Y007254D03*
X016318Y007264D03*
X016328Y007264D03*
X016338Y007264D03*
X016348Y007274D03*
X016358Y007274D03*
X016368Y007274D03*
X016378Y007274D03*
X016398Y007284D03*
X016408Y007284D03*
X016418Y007294D03*
X016428Y007294D03*
X016438Y007294D03*
X016448Y007294D03*
X016458Y007294D03*
X016468Y007294D03*
X016478Y007294D03*
X016488Y007304D03*
X016498Y007304D03*
X016508Y007304D03*
X016518Y007304D03*
X016528Y007304D03*
X016538Y007314D03*
X016548Y007314D03*
X016558Y007314D03*
X016568Y007324D03*
X016578Y007324D03*
X016588Y007324D03*
X016598Y007324D03*
X016608Y007324D03*
X016618Y007324D03*
X016628Y007324D03*
X016638Y007334D03*
X016648Y007334D03*
X016658Y007344D03*
X016668Y007344D03*
X016678Y007344D03*
X016688Y007344D03*
X016698Y007344D03*
X016718Y007354D03*
X016728Y007354D03*
X016748Y007364D03*
X016758Y007364D03*
X016768Y007364D03*
X016778Y007364D03*
X016788Y007364D03*
X016798Y007364D03*
X016808Y007374D03*
X016818Y007374D03*
X016828Y007374D03*
X016838Y007374D03*
X016848Y007374D03*
X016858Y007374D03*
X016868Y007374D03*
X016878Y007374D03*
X016888Y007374D03*
X016898Y007374D03*
X016918Y007384D03*
X016928Y007384D03*
X016938Y007384D03*
X016948Y007384D03*
X016958Y007394D03*
X016968Y007394D03*
X016978Y007394D03*
X016988Y007394D03*
X016998Y007394D03*
X017008Y007394D03*
X017018Y007404D03*
X017028Y007404D03*
X017038Y007404D03*
X017048Y007404D03*
X017058Y007404D03*
X017068Y007404D03*
X017078Y007404D03*
X017098Y007414D03*
X017108Y007414D03*
X017118Y007414D03*
X017128Y007414D03*
X017138Y007414D03*
X017148Y007414D03*
X017158Y007414D03*
X017168Y007414D03*
X017178Y007414D03*
X017188Y007414D03*
X017198Y007404D03*
X017208Y007404D03*
X017228Y007414D03*
X017238Y007414D03*
X017248Y007414D03*
X017258Y007414D03*
X017268Y007414D03*
X017288Y007404D03*
X017298Y007404D03*
X017308Y007404D03*
X017318Y007394D03*
X017328Y007384D03*
X017338Y007384D03*
X017348Y007384D03*
X017358Y007384D03*
X017368Y007374D03*
X017378Y007374D03*
X017388Y007374D03*
X017398Y007374D03*
X017408Y007364D03*
X017418Y007364D03*
X017428Y007364D03*
X017438Y007364D03*
X017448Y007364D03*
X017458Y007364D03*
X017468Y007354D03*
X017478Y007354D03*
X017488Y007354D03*
X017498Y007354D03*
X017508Y007344D03*
X017518Y007344D03*
X017528Y007344D03*
X017548Y007334D03*
X017558Y007324D03*
X017568Y007324D03*
X017588Y007304D03*
X017598Y007304D03*
X017608Y007304D03*
X017618Y007294D03*
X017628Y007294D03*
X017638Y007284D03*
X017648Y007274D03*
X017658Y007264D03*
X017668Y007264D03*
X017698Y007244D03*
X017718Y007244D03*
X017718Y007214D03*
X017738Y007194D03*
X017758Y007174D03*
X017778Y007154D03*
X017798Y007154D03*
X017778Y007124D03*
X017848Y007124D03*
X017858Y007124D03*
X017868Y007114D03*
X017878Y007114D03*
X017888Y007104D03*
X017908Y007094D03*
X017848Y006974D03*
X017868Y006914D03*
X017848Y006884D03*
X017908Y006794D03*
X017918Y006774D03*
X017948Y006654D03*
X017968Y006644D03*
X017988Y006634D03*
X017998Y006624D03*
X018018Y006604D03*
X018028Y006624D03*
X018248Y006844D03*
X018258Y006834D03*
X018268Y006824D03*
X018308Y006794D03*
X018328Y006774D03*
X018348Y006764D03*
X018368Y006754D03*
X018438Y006694D03*
X018458Y006684D03*
X018478Y006674D03*
X018498Y006654D03*
X018518Y006644D03*
X018568Y006594D03*
X018608Y006634D03*
X018608Y006804D03*
X018598Y006814D03*
X018588Y006824D03*
X018578Y006834D03*
X018548Y006854D03*
X018528Y006864D03*
X018518Y006874D03*
X018498Y006884D03*
X018478Y006904D03*
X018468Y006914D03*
X018428Y006944D03*
X018418Y006954D03*
X018408Y006954D03*
X018398Y006964D03*
X018378Y006984D03*
X018368Y006994D03*
X018358Y007004D03*
X018348Y007004D03*
X018338Y007014D03*
X018328Y007014D03*
X018308Y007024D03*
X018298Y007034D03*
X018288Y007034D03*
X018278Y007044D03*
X018268Y007054D03*
X018248Y007074D03*
X018228Y007094D03*
X018218Y007104D03*
X018208Y007114D03*
X018178Y007134D03*
X018158Y007154D03*
X018118Y007184D03*
X018098Y007194D03*
X018088Y007194D03*
X018078Y007194D03*
X018068Y007204D03*
X018048Y007214D03*
X018038Y007214D03*
X017958Y007314D03*
X017918Y007384D03*
X017888Y007444D03*
X017878Y007444D03*
X017858Y007424D03*
X017748Y007554D03*
X017718Y007564D03*
X017698Y007564D03*
X017688Y007574D03*
X017678Y007564D03*
X017668Y007564D03*
X017658Y007564D03*
X017648Y007564D03*
X017628Y007594D03*
X017578Y007594D03*
X017568Y007594D03*
X017548Y007594D03*
X017528Y007604D03*
X017518Y007604D03*
X017518Y007624D03*
X017528Y007624D03*
X017548Y007624D03*
X017558Y007624D03*
X017578Y007624D03*
X017448Y007594D03*
X017378Y007664D03*
X017358Y007664D03*
X017348Y007664D03*
X017338Y007664D03*
X017328Y007664D03*
X017268Y007674D03*
X017258Y007674D03*
X017238Y007664D03*
X017158Y007654D03*
X017148Y007654D03*
X017128Y007654D03*
X017158Y007634D03*
X017038Y007684D03*
X017028Y007684D03*
X017018Y007684D03*
X017008Y007684D03*
X016958Y007694D03*
X016928Y007684D03*
X016908Y007684D03*
X016868Y007744D03*
X016868Y007814D03*
X016838Y007834D03*
X016858Y007854D03*
X017098Y007764D03*
X017358Y007904D03*
X017368Y007904D03*
X017378Y007894D03*
X017388Y007894D03*
X017398Y007884D03*
X017408Y007884D03*
X017418Y007874D03*
X017428Y007874D03*
X017438Y007864D03*
X017448Y007864D03*
X017458Y007854D03*
X017468Y007854D03*
X017478Y007854D03*
X017488Y007854D03*
X017498Y007844D03*
X017508Y007844D03*
X017518Y007844D03*
X017528Y007844D03*
X017538Y007844D03*
X017548Y007844D03*
X017558Y007844D03*
X017568Y007844D03*
X017578Y007834D03*
X017588Y007834D03*
X017598Y007834D03*
X017608Y007834D03*
X017628Y007824D03*
X017638Y007824D03*
X017648Y007814D03*
X017658Y007804D03*
X017678Y007794D03*
X017688Y007794D03*
X017698Y007784D03*
X017708Y007774D03*
X017718Y007774D03*
X017728Y007764D03*
X017738Y007754D03*
X017748Y007744D03*
X017758Y007734D03*
X017768Y007724D03*
X017778Y007724D03*
X017788Y007714D03*
X017798Y007704D03*
X017808Y007704D03*
X017818Y007694D03*
X017828Y007694D03*
X017838Y007694D03*
X017848Y007694D03*
X017858Y007684D03*
X017868Y007674D03*
X017878Y007674D03*
X017888Y007674D03*
X017898Y007674D03*
X017918Y007664D03*
X017928Y007664D03*
X017938Y007664D03*
X017948Y007664D03*
X017958Y007654D03*
X017968Y007654D03*
X017978Y007644D03*
X017988Y007644D03*
X017998Y007644D03*
X018008Y007644D03*
X018018Y007644D03*
X018028Y007644D03*
X018038Y007644D03*
X018048Y007634D03*
X018058Y007634D03*
X018068Y007634D03*
X018078Y007634D03*
X018088Y007634D03*
X018098Y007634D03*
X018108Y007634D03*
X018118Y007624D03*
X018128Y007624D03*
X018138Y007624D03*
X018148Y007614D03*
X018158Y007614D03*
X018168Y007614D03*
X018188Y007604D03*
X018198Y007604D03*
X018208Y007594D03*
X018218Y007594D03*
X018228Y007594D03*
X018238Y007594D03*
X018258Y007584D03*
X018278Y007564D03*
X018288Y007554D03*
X018318Y007504D03*
X018378Y007384D03*
X018388Y007374D03*
X018618Y007494D03*
X018648Y007424D03*
X018658Y007414D03*
X018668Y007404D03*
X018678Y007394D03*
X018548Y007654D03*
X018538Y007664D03*
X018508Y007694D03*
X018498Y007704D03*
X018478Y007734D03*
X018468Y007734D03*
X018458Y007744D03*
X018448Y007744D03*
X018428Y007764D03*
X018418Y007764D03*
X018408Y007774D03*
X018398Y007774D03*
X018388Y007784D03*
X018378Y007784D03*
X018368Y007794D03*
X018348Y007814D03*
X018338Y007824D03*
X018328Y007824D03*
X018318Y007834D03*
X018308Y007844D03*
X018298Y007844D03*
X018288Y007844D03*
X018278Y007854D03*
X018268Y007854D03*
X018258Y007864D03*
X018238Y007884D03*
X018228Y007884D03*
X018218Y007894D03*
X018208Y007904D03*
X018198Y007904D03*
X018188Y007904D03*
X018178Y007914D03*
X018168Y007914D03*
X018158Y007924D03*
X018148Y007934D03*
X018138Y007934D03*
X018118Y007964D03*
X018108Y007964D03*
X018098Y007964D03*
X018088Y007964D03*
X018078Y007974D03*
X018068Y007974D03*
X018058Y007974D03*
X018048Y007984D03*
X018038Y007994D03*
X018028Y008004D03*
X018018Y008004D03*
X018008Y008004D03*
X017998Y008014D03*
X017988Y008014D03*
X017978Y008014D03*
X017968Y008014D03*
X017958Y008014D03*
X017948Y008014D03*
X017938Y008014D03*
X017928Y008024D03*
X017918Y008024D03*
X017908Y008024D03*
X017898Y008024D03*
X017888Y008024D03*
X017878Y008024D03*
X017868Y008024D03*
X017858Y008024D03*
X017848Y008024D03*
X017838Y008024D03*
X017828Y008024D03*
X017818Y008024D03*
X017808Y008034D03*
X017798Y008034D03*
X017788Y008034D03*
X017778Y008034D03*
X017768Y008034D03*
X017758Y008034D03*
X017748Y008034D03*
X017738Y008034D03*
X017728Y008034D03*
X017718Y008024D03*
X017708Y008024D03*
X017698Y008024D03*
X017688Y008014D03*
X017678Y008014D03*
X017668Y008014D03*
X017658Y008014D03*
X017648Y008014D03*
X017638Y008014D03*
X017628Y008014D03*
X017618Y008014D03*
X017608Y008014D03*
X017598Y008014D03*
X017588Y008004D03*
X017578Y008004D03*
X017568Y008004D03*
X017548Y007994D03*
X017538Y007994D03*
X017528Y007994D03*
X017518Y007994D03*
X017508Y007984D03*
X017498Y007984D03*
X017488Y007984D03*
X017478Y007984D03*
X017468Y007984D03*
X017458Y007984D03*
X017448Y007984D03*
X017438Y007984D03*
X017428Y007984D03*
X017418Y007984D03*
X017408Y007984D03*
X017398Y007984D03*
X017388Y007994D03*
X017378Y007994D03*
X017358Y008004D03*
X017348Y008004D03*
X017338Y008004D03*
X017328Y008004D03*
X017318Y008004D03*
X017308Y008004D03*
X017298Y008004D03*
X017288Y008014D03*
X017278Y008014D03*
X017258Y008034D03*
X017248Y008034D03*
X017238Y008034D03*
X017228Y008034D03*
X017218Y008044D03*
X017208Y008044D03*
X017198Y008054D03*
X017188Y008054D03*
X017178Y008064D03*
X017168Y008064D03*
X017158Y008074D03*
X017148Y008084D03*
X017128Y008104D03*
X017118Y008104D03*
X017108Y008114D03*
X017098Y008124D03*
X017078Y008134D03*
X017068Y008134D03*
X017058Y008134D03*
X017048Y008144D03*
X017038Y008144D03*
X017028Y008144D03*
X017018Y008154D03*
X017008Y008154D03*
X016998Y008154D03*
X016988Y008154D03*
X016978Y008154D03*
X016958Y008164D03*
X016948Y008164D03*
X016938Y008164D03*
X016928Y008164D03*
X016918Y008164D03*
X016908Y008164D03*
X016898Y008164D03*
X016888Y008164D03*
X016878Y008164D03*
X016868Y008164D03*
X016858Y008164D03*
X016848Y008164D03*
X016838Y008164D03*
X016828Y008164D03*
X016818Y008164D03*
X016808Y008154D03*
X016798Y008154D03*
X016788Y008154D03*
X016778Y008144D03*
X016768Y008144D03*
X016758Y008144D03*
X016738Y008134D03*
X016728Y008124D03*
X016718Y008124D03*
X016708Y008114D03*
X016698Y008114D03*
X016688Y008104D03*
X016678Y008104D03*
X016668Y008104D03*
X016658Y008104D03*
X016648Y008094D03*
X016638Y008094D03*
X016628Y008094D03*
X016608Y008084D03*
X016598Y008084D03*
X016588Y008074D03*
X016578Y008074D03*
X016558Y008064D03*
X016548Y008064D03*
X016538Y008054D03*
X016528Y008054D03*
X016518Y008054D03*
X016498Y008044D03*
X016478Y008034D03*
X016468Y008034D03*
X016448Y008024D03*
X016438Y008024D03*
X017368Y007464D03*
X017448Y007424D03*
X017028Y007254D03*
X016708Y007104D03*
X016698Y007094D03*
X016688Y007094D03*
X016658Y007074D03*
X016648Y007074D03*
X016648Y006964D03*
X016658Y006964D03*
X016668Y006964D03*
X016678Y006964D03*
X016688Y006964D03*
X016698Y006964D03*
X016708Y006974D03*
X016718Y006974D03*
X016728Y006974D03*
X016728Y006954D03*
X016718Y006954D03*
X016708Y006944D03*
X016698Y006944D03*
X016688Y006944D03*
X016678Y006934D03*
X016668Y006934D03*
X016658Y006934D03*
X016648Y006934D03*
X016638Y006934D03*
X016638Y006954D03*
X016628Y006954D03*
X016618Y006954D03*
X016608Y006954D03*
X016598Y006954D03*
X016588Y006944D03*
X016578Y006944D03*
X016568Y006944D03*
X016548Y006934D03*
X016538Y006934D03*
X016528Y006934D03*
X016518Y006934D03*
X016488Y006914D03*
X016478Y006914D03*
X016468Y006914D03*
X016458Y006914D03*
X016438Y006904D03*
X016428Y006904D03*
X016418Y006904D03*
X016408Y006904D03*
X016398Y006904D03*
X016388Y006904D03*
X016378Y006904D03*
X016368Y006904D03*
X016358Y006904D03*
X016348Y006904D03*
X016338Y006894D03*
X016328Y006894D03*
X016318Y006894D03*
X016308Y006894D03*
X016298Y006894D03*
X016288Y006894D03*
X016278Y006884D03*
X016268Y006884D03*
X016248Y006874D03*
X016238Y006874D03*
X016238Y006854D03*
X016248Y006854D03*
X016268Y006854D03*
X016278Y006854D03*
X016288Y006854D03*
X016298Y006854D03*
X016308Y006854D03*
X016318Y006854D03*
X016328Y006854D03*
X016338Y006854D03*
X016348Y006854D03*
X016358Y006854D03*
X016368Y006854D03*
X016378Y006864D03*
X016388Y006864D03*
X016398Y006864D03*
X016408Y006864D03*
X016418Y006874D03*
X016428Y006874D03*
X016438Y006874D03*
X016448Y006874D03*
X016458Y006874D03*
X016468Y006884D03*
X016478Y006884D03*
X016488Y006884D03*
X016498Y006884D03*
X016508Y006884D03*
X016518Y006894D03*
X016528Y006894D03*
X016538Y006894D03*
X016548Y006894D03*
X016558Y006904D03*
X016568Y006904D03*
X016578Y006904D03*
X016588Y006904D03*
X016598Y006904D03*
X016608Y006914D03*
X016618Y006914D03*
X016548Y006814D03*
X016668Y006694D03*
X016678Y006694D03*
X016688Y006694D03*
X016708Y006704D03*
X016728Y006714D03*
X016738Y006714D03*
X016748Y006714D03*
X016808Y006724D03*
X016868Y006774D03*
X016878Y006774D03*
X016928Y006764D03*
X016948Y006774D03*
X016988Y006794D03*
X016998Y006794D03*
X017008Y006794D03*
X017058Y006794D03*
X017088Y006774D03*
X017118Y006784D03*
X017158Y006804D03*
X017208Y006804D03*
X017238Y006784D03*
X017278Y006784D03*
X017298Y006794D03*
X017398Y006744D03*
X017448Y006744D03*
X017478Y006704D03*
X017478Y006684D03*
X017408Y006694D03*
X017558Y006624D03*
X017588Y006604D03*
X017628Y006564D03*
X017688Y006474D03*
X017408Y006374D03*
X017398Y006384D03*
X017388Y006394D03*
X017378Y006404D03*
X017358Y006414D03*
X017348Y006414D03*
X017328Y006424D03*
X017318Y006434D03*
X017308Y006434D03*
X017298Y006434D03*
X017288Y006444D03*
X017278Y006444D03*
X017268Y006444D03*
X017258Y006444D03*
X017248Y006444D03*
X017238Y006444D03*
X017228Y006444D03*
X017218Y006444D03*
X017208Y006454D03*
X017198Y006454D03*
X017188Y006454D03*
X017178Y006464D03*
X017168Y006464D03*
X017158Y006474D03*
X017148Y006474D03*
X017138Y006474D03*
X017128Y006474D03*
X017118Y006474D03*
X017108Y006474D03*
X017098Y006484D03*
X017088Y006484D03*
X017078Y006494D03*
X017068Y006494D03*
X017058Y006494D03*
X017048Y006494D03*
X017038Y006504D03*
X017028Y006504D03*
X017018Y006504D03*
X017008Y006504D03*
X016998Y006504D03*
X016988Y006504D03*
X016978Y006504D03*
X016968Y006504D03*
X016958Y006504D03*
X016948Y006504D03*
X016938Y006504D03*
X016928Y006504D03*
X016918Y006504D03*
X016908Y006504D03*
X016898Y006494D03*
X016888Y006494D03*
X016878Y006494D03*
X016868Y006494D03*
X016848Y006484D03*
X016838Y006484D03*
X016828Y006484D03*
X016818Y006484D03*
X016798Y006474D03*
X016788Y006474D03*
X016778Y006474D03*
X016768Y006474D03*
X016758Y006474D03*
X016748Y006474D03*
X016738Y006474D03*
X016728Y006474D03*
X016718Y006474D03*
X016708Y006474D03*
X016698Y006474D03*
X016688Y006474D03*
X016678Y006474D03*
X016658Y006464D03*
X016648Y006464D03*
X016638Y006464D03*
X016628Y006464D03*
X016618Y006464D03*
X016598Y006454D03*
X016588Y006454D03*
X016578Y006454D03*
X016568Y006454D03*
X016548Y006444D03*
X016538Y006444D03*
X016528Y006444D03*
X016518Y006444D03*
X016508Y006444D03*
X016498Y006434D03*
X016488Y006434D03*
X016468Y006424D03*
X016458Y006424D03*
X016448Y006424D03*
X016438Y006424D03*
X016428Y006424D03*
X016408Y006414D03*
X016398Y006414D03*
X016378Y006404D03*
X016368Y006404D03*
X016358Y006404D03*
X016348Y006394D03*
X016338Y006394D03*
X016298Y006354D03*
X016288Y006344D03*
X016278Y006344D03*
X016258Y006324D03*
X016248Y006324D03*
X016228Y006314D03*
X016218Y006304D03*
X016208Y006304D03*
X016198Y006304D03*
X016178Y006294D03*
X016168Y006294D03*
X016158Y006294D03*
X016148Y006294D03*
X016138Y006294D03*
X016128Y006294D03*
X016098Y006264D03*
X016088Y006264D03*
X016078Y006264D03*
X016068Y006274D03*
X016058Y006274D03*
X016048Y006274D03*
X016038Y006274D03*
X016028Y006274D03*
X016018Y006274D03*
X016008Y006274D03*
X015998Y006274D03*
X015988Y006274D03*
X015978Y006274D03*
X015968Y006274D03*
X015958Y006274D03*
X015948Y006274D03*
X015938Y006274D03*
X015928Y006274D03*
X015918Y006274D03*
X015908Y006274D03*
X015898Y006274D03*
X015888Y006274D03*
X015878Y006274D03*
X015868Y006274D03*
X015858Y006274D03*
X015848Y006284D03*
X015838Y006284D03*
X015828Y006284D03*
X015818Y006284D03*
X015808Y006284D03*
X015798Y006294D03*
X015788Y006294D03*
X015778Y006294D03*
X015768Y006294D03*
X015758Y006294D03*
X015748Y006294D03*
X015738Y006294D03*
X015728Y006294D03*
X015718Y006304D03*
X015708Y006304D03*
X015698Y006304D03*
X015688Y006314D03*
X015678Y006314D03*
X015668Y006324D03*
X015658Y006324D03*
X015648Y006324D03*
X015638Y006334D03*
X015628Y006334D03*
X015618Y006344D03*
X015598Y006354D03*
X015568Y006384D03*
X015548Y006404D03*
X015528Y006414D03*
X015718Y006674D03*
X015758Y006804D03*
X015768Y006804D03*
X015778Y006804D03*
X015788Y006804D03*
X015798Y006794D03*
X015808Y006794D03*
X015818Y006794D03*
X015828Y006794D03*
X015838Y006794D03*
X015848Y006794D03*
X015858Y006794D03*
X015868Y006794D03*
X015878Y006794D03*
X015888Y006794D03*
X015898Y006794D03*
X015908Y006794D03*
X015918Y006794D03*
X015928Y006794D03*
X015938Y006794D03*
X015948Y006794D03*
X015958Y006794D03*
X015968Y006794D03*
X015978Y006794D03*
X015988Y006794D03*
X015998Y006794D03*
X016018Y006804D03*
X016028Y006804D03*
X016038Y006804D03*
X016048Y006804D03*
X016058Y006804D03*
X016068Y006804D03*
X016078Y006814D03*
X016088Y006814D03*
X016098Y006814D03*
X016108Y006824D03*
X016118Y006824D03*
X016128Y006824D03*
X016138Y006834D03*
X016148Y006834D03*
X016158Y006834D03*
X016168Y006834D03*
X016178Y006834D03*
X016188Y006834D03*
X016188Y006854D03*
X016208Y006854D03*
X016168Y006864D03*
X016158Y006864D03*
X016148Y006864D03*
X016138Y006874D03*
X016128Y006874D03*
X016118Y006874D03*
X016108Y006874D03*
X016098Y006874D03*
X016088Y006874D03*
X016078Y006874D03*
X016068Y006874D03*
X016058Y006874D03*
X016048Y006874D03*
X016038Y006874D03*
X016028Y006874D03*
X016018Y006874D03*
X016008Y006874D03*
X015998Y006874D03*
X015988Y006884D03*
X015978Y006884D03*
X015968Y006884D03*
X015958Y006884D03*
X015948Y006884D03*
X015938Y006884D03*
X015928Y006884D03*
X015918Y006884D03*
X015908Y006894D03*
X015898Y006894D03*
X015888Y006894D03*
X015878Y006894D03*
X015868Y006894D03*
X015858Y006894D03*
X015848Y006904D03*
X015838Y006904D03*
X015828Y006904D03*
X015808Y006914D03*
X015798Y006914D03*
X015788Y006914D03*
X015778Y006914D03*
X015768Y006914D03*
X015758Y006914D03*
X015748Y006914D03*
X015738Y006914D03*
X015728Y006924D03*
X015718Y006924D03*
X015708Y006924D03*
X015698Y006924D03*
X015688Y006934D03*
X015678Y006934D03*
X015668Y006934D03*
X015658Y006944D03*
X015648Y006944D03*
X015638Y006944D03*
X015628Y006944D03*
X015618Y006944D03*
X015598Y006954D03*
X015588Y006954D03*
X015578Y006954D03*
X015568Y006954D03*
X015558Y006964D03*
X015548Y006974D03*
X015538Y006974D03*
X015528Y006974D03*
X015518Y006974D03*
X015508Y006974D03*
X015498Y006984D03*
X015488Y006994D03*
X015478Y007004D03*
X015468Y007004D03*
X015458Y007004D03*
X015448Y007014D03*
X015438Y007014D03*
X015428Y007014D03*
X015418Y007014D03*
X015408Y007014D03*
X015398Y007014D03*
X015388Y007014D03*
X015378Y007024D03*
X015368Y007024D03*
X015358Y007024D03*
X015348Y007034D03*
X015338Y007034D03*
X015328Y007034D03*
X015318Y007034D03*
X015308Y007034D03*
X015298Y007034D03*
X015288Y007034D03*
X015278Y007034D03*
X015268Y007034D03*
X015258Y007034D03*
X015248Y007034D03*
X015238Y007034D03*
X015228Y007034D03*
X015218Y007034D03*
X015208Y007034D03*
X015188Y007044D03*
X015178Y007044D03*
X015168Y007044D03*
X015158Y007044D03*
X015138Y007034D03*
X015128Y007034D03*
X015118Y007034D03*
X015108Y007024D03*
X015098Y007024D03*
X015088Y007024D03*
X015078Y007024D03*
X015058Y007014D03*
X015048Y007014D03*
X015028Y007004D03*
X015018Y007004D03*
X015008Y007004D03*
X014988Y006994D03*
X014978Y006994D03*
X014968Y006994D03*
X014958Y006994D03*
X014948Y006994D03*
X014938Y006994D03*
X014928Y006994D03*
X014918Y006994D03*
X014908Y006994D03*
X014898Y006984D03*
X014888Y006984D03*
X014878Y006984D03*
X014868Y006984D03*
X014858Y006984D03*
X014848Y006984D03*
X014838Y006974D03*
X014828Y006974D03*
X014818Y006974D03*
X014808Y006974D03*
X014798Y006974D03*
X014788Y006974D03*
X014778Y006964D03*
X014768Y006964D03*
X014758Y006964D03*
X014748Y006964D03*
X014738Y006964D03*
X014728Y006964D03*
X014718Y006964D03*
X014708Y006964D03*
X014698Y006964D03*
X014688Y006974D03*
X014678Y006974D03*
X014648Y006974D03*
X014638Y006974D03*
X014628Y006974D03*
X014618Y006974D03*
X014608Y006974D03*
X014598Y006974D03*
X014588Y006974D03*
X014578Y006974D03*
X014568Y006974D03*
X014558Y006974D03*
X014548Y006974D03*
X014538Y006974D03*
X014528Y006974D03*
X014518Y006974D03*
X014508Y006974D03*
X014498Y006984D03*
X014488Y006984D03*
X014478Y006984D03*
X014468Y006984D03*
X014458Y006984D03*
X014448Y006984D03*
X014438Y006984D03*
X014428Y006984D03*
X014418Y006984D03*
X014408Y006984D03*
X014398Y006984D03*
X014388Y006984D03*
X014378Y006994D03*
X014368Y006994D03*
X014358Y006994D03*
X014338Y007004D03*
X014328Y007004D03*
X014318Y007004D03*
X014298Y007014D03*
X014288Y007014D03*
X014278Y007014D03*
X014268Y007024D03*
X014258Y007024D03*
X014248Y007024D03*
X014238Y007034D03*
X014228Y007034D03*
X014218Y007034D03*
X014208Y007034D03*
X014198Y007034D03*
X014188Y007044D03*
X014178Y007044D03*
X014168Y007044D03*
X014158Y007044D03*
X014148Y007044D03*
X014138Y007054D03*
X014128Y007054D03*
X014118Y007054D03*
X014108Y007054D03*
X014098Y007064D03*
X014088Y007064D03*
X014078Y007064D03*
X014068Y007074D03*
X014058Y007074D03*
X014048Y007084D03*
X014038Y007084D03*
X014028Y007084D03*
X014018Y007084D03*
X014008Y007084D03*
X013998Y007094D03*
X013988Y007094D03*
X013978Y007104D03*
X013968Y007104D03*
X013958Y007104D03*
X013948Y007114D03*
X013938Y007114D03*
X013928Y007114D03*
X013918Y007114D03*
X013908Y007114D03*
X013898Y007114D03*
X013888Y007124D03*
X013878Y007124D03*
X013868Y007124D03*
X013858Y007124D03*
X013848Y007124D03*
X013838Y007134D03*
X013828Y007134D03*
X013818Y007134D03*
X013808Y007134D03*
X013798Y007144D03*
X013788Y007144D03*
X013778Y007144D03*
X013768Y007144D03*
X013758Y007144D03*
X013748Y007144D03*
X013738Y007144D03*
X013728Y007154D03*
X013708Y007144D03*
X013698Y007144D03*
X013688Y007144D03*
X013678Y007144D03*
X013668Y007144D03*
X013658Y007154D03*
X013648Y007154D03*
X013638Y007154D03*
X013628Y007154D03*
X013618Y007154D03*
X013608Y007144D03*
X013598Y007144D03*
X013588Y007144D03*
X013578Y007144D03*
X013568Y007144D03*
X013558Y007144D03*
X013538Y007134D03*
X013528Y007134D03*
X013518Y007134D03*
X013508Y007134D03*
X013498Y007134D03*
X013478Y007124D03*
X013468Y007114D03*
X013458Y007114D03*
X013438Y007094D03*
X013428Y007094D03*
X013418Y007084D03*
X013408Y007084D03*
X013398Y007084D03*
X013388Y007074D03*
X013378Y007074D03*
X013368Y007064D03*
X013358Y007064D03*
X013328Y007044D03*
X013308Y007034D03*
X013288Y007024D03*
X013278Y007024D03*
X013268Y007024D03*
X013258Y007014D03*
X013248Y007004D03*
X013238Y006994D03*
X013218Y006984D03*
X013208Y006984D03*
X013198Y006984D03*
X013188Y006984D03*
X013178Y006984D03*
X013168Y006984D03*
X013158Y006984D03*
X013148Y006974D03*
X013138Y006974D03*
X013128Y006974D03*
X013118Y006974D03*
X013108Y006974D03*
X013098Y006974D03*
X013088Y006974D03*
X013078Y006974D03*
X013068Y006974D03*
X013058Y006974D03*
X013048Y006974D03*
X013038Y006974D03*
X013028Y006974D03*
X013018Y006974D03*
X013008Y006974D03*
X012998Y006974D03*
X012988Y006974D03*
X012978Y006974D03*
X012968Y006974D03*
X012958Y006974D03*
X012938Y006964D03*
X012928Y006964D03*
X012918Y006964D03*
X012908Y006964D03*
X012898Y006974D03*
X012878Y006964D03*
X012868Y006964D03*
X012858Y006964D03*
X012848Y006964D03*
X012838Y006964D03*
X012828Y006954D03*
X012818Y006954D03*
X012808Y006954D03*
X012798Y006954D03*
X012788Y006954D03*
X012778Y006954D03*
X012768Y006954D03*
X012758Y006954D03*
X012748Y006954D03*
X012738Y006954D03*
X012728Y006954D03*
X012718Y006954D03*
X012708Y006954D03*
X012698Y006954D03*
X012688Y006954D03*
X012678Y006964D03*
X012668Y006964D03*
X012658Y006964D03*
X012648Y006964D03*
X012638Y006964D03*
X012618Y006974D03*
X012608Y006974D03*
X012598Y006984D03*
X012588Y006984D03*
X012578Y006994D03*
X012568Y006994D03*
X012558Y007004D03*
X012548Y007014D03*
X012538Y007024D03*
X012528Y007024D03*
X012518Y007034D03*
X012508Y007034D03*
X012498Y007044D03*
X012488Y007044D03*
X012478Y007054D03*
X012468Y007064D03*
X012448Y007204D03*
X012448Y007224D03*
X012448Y007244D03*
X012438Y007244D03*
X012458Y007244D03*
X012468Y007244D03*
X012488Y007234D03*
X012968Y007194D03*
X012978Y007194D03*
X012988Y007194D03*
X013008Y007204D03*
X013028Y007214D03*
X013048Y007224D03*
X013068Y007234D03*
X013088Y007244D03*
X013108Y007254D03*
X013118Y007254D03*
X013128Y007264D03*
X013138Y007264D03*
X013148Y007274D03*
X013518Y007364D03*
X013528Y007364D03*
X013538Y007364D03*
X013518Y007394D03*
X013588Y007404D03*
X013588Y007384D03*
X013588Y007364D03*
X014028Y007294D03*
X014108Y007264D03*
X014178Y007234D03*
X014288Y007154D03*
X014298Y007154D03*
X014348Y007214D03*
X014358Y007214D03*
X014388Y007134D03*
X014398Y007134D03*
X014408Y007134D03*
X014428Y007124D03*
X014598Y007124D03*
X014618Y007114D03*
X014628Y007114D03*
X014638Y007114D03*
X014658Y007124D03*
X014668Y007124D03*
X014888Y007144D03*
X014898Y007144D03*
X014918Y007154D03*
X014928Y007154D03*
X014938Y007154D03*
X014948Y007154D03*
X014948Y007174D03*
X015028Y007174D03*
X015188Y007164D03*
X015198Y007164D03*
X015248Y007254D03*
X015178Y007334D03*
X015168Y007334D03*
X015438Y007314D03*
X015448Y007314D03*
X015508Y007114D03*
X015708Y007234D03*
X015718Y007394D03*
X015868Y007344D03*
X016158Y007344D03*
X016438Y007394D03*
X016498Y007204D03*
X016328Y007164D03*
X016318Y007164D03*
X016358Y006984D03*
X016478Y007024D03*
X016488Y007024D03*
X016498Y007024D03*
X016738Y006954D03*
X016748Y006954D03*
X016758Y006954D03*
X016768Y006964D03*
X016778Y006964D03*
X016788Y006964D03*
X016798Y006964D03*
X016808Y006974D03*
X016818Y006974D03*
X016828Y006974D03*
X016838Y006974D03*
X016848Y006974D03*
X016858Y006974D03*
X016868Y006984D03*
X016878Y006984D03*
X016888Y006984D03*
X016898Y006984D03*
X016908Y006994D03*
X016918Y006994D03*
X016928Y006994D03*
X016938Y006994D03*
X016948Y006994D03*
X016958Y006994D03*
X016968Y007004D03*
X016978Y007004D03*
X016998Y007014D03*
X017008Y007014D03*
X017018Y007014D03*
X017028Y007014D03*
X017038Y007014D03*
X017048Y007014D03*
X017058Y007014D03*
X017068Y007014D03*
X017078Y007014D03*
X017088Y007014D03*
X017098Y007014D03*
X017108Y007014D03*
X017118Y007014D03*
X017128Y007014D03*
X017138Y007014D03*
X017148Y007014D03*
X017158Y007014D03*
X017178Y007024D03*
X017188Y007024D03*
X017198Y007014D03*
X017208Y007014D03*
X017218Y007014D03*
X017238Y007004D03*
X017248Y007004D03*
X017258Y007004D03*
X017268Y007004D03*
X017278Y007004D03*
X017288Y007004D03*
X017298Y007004D03*
X017308Y007004D03*
X017318Y007054D03*
X017328Y007054D03*
X017338Y007054D03*
X017348Y007054D03*
X017368Y007044D03*
X017388Y007034D03*
X017408Y007024D03*
X017418Y007024D03*
X017428Y007014D03*
X017438Y007014D03*
X017458Y007004D03*
X017468Y006994D03*
X017498Y006964D03*
X017558Y006964D03*
X017568Y006954D03*
X017578Y006954D03*
X017608Y006934D03*
X017628Y006924D03*
X017568Y006884D03*
X017318Y006944D03*
X017298Y006954D03*
X017258Y006964D03*
X017268Y007064D03*
X017278Y007064D03*
X017288Y007064D03*
X017298Y007064D03*
X017308Y007064D03*
X017258Y007074D03*
X017248Y007074D03*
X017238Y007074D03*
X017228Y007074D03*
X017218Y007074D03*
X017208Y007074D03*
X017198Y007074D03*
X017188Y007074D03*
X017178Y007074D03*
X017168Y007074D03*
X017158Y007074D03*
X017148Y007074D03*
X017138Y007074D03*
X017128Y007074D03*
X017118Y007074D03*
X017108Y007064D03*
X017098Y007054D03*
X017088Y007054D03*
X017078Y007054D03*
X017068Y007054D03*
X017058Y007054D03*
X017038Y007044D03*
X017028Y007044D03*
X017018Y007044D03*
X016998Y007034D03*
X016988Y007034D03*
X016978Y007034D03*
X016968Y007034D03*
X016958Y007034D03*
X016948Y007034D03*
X016938Y007034D03*
X016928Y007034D03*
X016918Y007034D03*
X016908Y007024D03*
X016898Y007024D03*
X016888Y007024D03*
X016878Y007024D03*
X016868Y007014D03*
X016858Y007004D03*
X016848Y007004D03*
X016838Y007004D03*
X016828Y006994D03*
X016818Y006994D03*
X016808Y006994D03*
X016798Y006984D03*
X016788Y006984D03*
X016778Y006984D03*
X016768Y006984D03*
X016758Y006984D03*
X016748Y006984D03*
X016878Y006904D03*
X016628Y006644D03*
X016548Y006574D03*
X016548Y006304D03*
X016538Y006304D03*
X016528Y006304D03*
X016518Y006304D03*
X016508Y006304D03*
X016498Y006304D03*
X016488Y006304D03*
X016478Y006304D03*
X016468Y006304D03*
X016448Y006294D03*
X016438Y006294D03*
X016428Y006284D03*
X016418Y006284D03*
X016408Y006284D03*
X016388Y006274D03*
X016368Y006264D03*
X016358Y006264D03*
X016348Y006264D03*
X016328Y006254D03*
X016318Y006254D03*
X016308Y006244D03*
X016298Y006244D03*
X016288Y006234D03*
X016278Y006234D03*
X016258Y006224D03*
X016248Y006224D03*
X016238Y006224D03*
X016228Y006234D03*
X016218Y006234D03*
X016558Y006304D03*
X016568Y006304D03*
X016578Y006304D03*
X016588Y006304D03*
X016598Y006304D03*
X016608Y006304D03*
X016628Y006294D03*
X016638Y006294D03*
X016648Y006284D03*
X016658Y006284D03*
X016668Y006274D03*
X016678Y006274D03*
X016688Y006264D03*
X016698Y006264D03*
X016708Y006254D03*
X016718Y006244D03*
X016728Y006244D03*
X016738Y006234D03*
X016748Y006234D03*
X016758Y006234D03*
X016768Y006224D03*
X016778Y006224D03*
X016788Y006224D03*
X016808Y006214D03*
X016828Y006204D03*
X016838Y006194D03*
X016848Y006194D03*
X016858Y006184D03*
X016868Y006184D03*
X016878Y006174D03*
X016888Y006174D03*
X016898Y006174D03*
X016918Y006164D03*
X016928Y006164D03*
X016938Y006164D03*
X016948Y006164D03*
X016958Y006164D03*
X016968Y006164D03*
X016978Y006164D03*
X016988Y006164D03*
X016998Y006174D03*
X017008Y006174D03*
X017018Y006174D03*
X017028Y006184D03*
X017038Y006184D03*
X017048Y006184D03*
X017058Y006184D03*
X017068Y006184D03*
X017078Y006184D03*
X017088Y006184D03*
X017098Y006184D03*
X017108Y006184D03*
X017118Y006184D03*
X017128Y006184D03*
X017138Y006184D03*
X017668Y006154D03*
X017928Y006014D03*
X017968Y005984D03*
X017988Y005974D03*
X017998Y005974D03*
X018008Y005974D03*
X018048Y005984D03*
X018088Y005984D03*
X017978Y005914D03*
X017968Y005914D03*
X017958Y005914D03*
X017948Y005904D03*
X017908Y005874D03*
X017898Y005874D03*
X017888Y005874D03*
X017878Y005874D03*
X017868Y005874D03*
X017848Y005864D03*
X017838Y005864D03*
X017818Y005864D03*
X017808Y005864D03*
X017798Y005874D03*
X018008Y005684D03*
X017958Y005554D03*
X017838Y005504D03*
X017798Y005484D03*
X017728Y005454D03*
X017718Y005454D03*
X017648Y005364D03*
X017628Y005374D03*
X018168Y005644D03*
X018178Y005654D03*
X018168Y005664D03*
X018208Y005624D03*
X018138Y005744D03*
X018148Y005784D03*
X018148Y005804D03*
X018168Y005844D03*
X018188Y005844D03*
X018208Y005814D03*
X018248Y005784D03*
X018278Y005744D03*
X018388Y005764D03*
X018508Y005994D03*
X018488Y006004D03*
X018478Y006014D03*
X018608Y006034D03*
X018748Y006124D03*
X018768Y006164D03*
X018878Y006264D03*
X018858Y006294D03*
X018848Y006304D03*
X018858Y006364D03*
X018868Y006364D03*
X018838Y006384D03*
X018828Y006384D03*
X018808Y006394D03*
X018788Y006394D03*
X018778Y006394D03*
X018768Y006394D03*
X018758Y006394D03*
X018748Y006394D03*
X018738Y006384D03*
X018808Y006354D03*
X018918Y006464D03*
X019048Y006484D03*
X019058Y006484D03*
X019058Y006584D03*
X019048Y006584D03*
X019038Y006584D03*
X018998Y006314D03*
X019218Y006364D03*
X019448Y006274D03*
X019478Y006354D03*
X019528Y006414D03*
X019578Y006484D03*
X019658Y006644D03*
X018878Y007024D03*
X018228Y006864D03*
X018188Y006894D03*
X018158Y006914D03*
X018138Y006924D03*
X018118Y006934D03*
X018108Y006934D03*
X018088Y006954D03*
X018048Y006984D03*
X017478Y007194D03*
X016218Y006974D03*
X016108Y007084D03*
X016118Y007124D03*
X016098Y007144D03*
X016088Y007144D03*
X015958Y007144D03*
X015918Y007154D03*
X015788Y007044D03*
X015788Y007024D03*
X015608Y006864D03*
X015598Y006864D03*
X015588Y006864D03*
X015578Y006864D03*
X015568Y006874D03*
X015558Y006874D03*
X015548Y006874D03*
X015538Y006884D03*
X015528Y006884D03*
X015518Y006894D03*
X015508Y006894D03*
X015498Y006894D03*
X015488Y006894D03*
X015478Y006894D03*
X015468Y006894D03*
X015458Y006904D03*
X015448Y006904D03*
X015438Y006904D03*
X015428Y006904D03*
X015418Y006904D03*
X015408Y006904D03*
X015398Y006914D03*
X015378Y006914D03*
X015368Y006914D03*
X015358Y006914D03*
X015348Y006924D03*
X015338Y006924D03*
X015328Y006924D03*
X015318Y006924D03*
X015308Y006924D03*
X015298Y006924D03*
X015288Y006924D03*
X015278Y006924D03*
X015268Y006924D03*
X015258Y006924D03*
X015248Y006924D03*
X015238Y006924D03*
X015228Y006934D03*
X015218Y006934D03*
X015208Y006934D03*
X015198Y006934D03*
X015178Y006944D03*
X015168Y006944D03*
X015158Y006944D03*
X015148Y006944D03*
X015138Y006944D03*
X015128Y006944D03*
X015118Y006944D03*
X015108Y006944D03*
X015098Y006944D03*
X015088Y006944D03*
X015078Y006944D03*
X015068Y006944D03*
X015058Y006944D03*
X015048Y006944D03*
X015038Y006944D03*
X015028Y006944D03*
X015018Y006944D03*
X015008Y006944D03*
X014998Y006934D03*
X014988Y006934D03*
X014978Y006934D03*
X014968Y006934D03*
X014958Y006934D03*
X014948Y006934D03*
X014938Y006934D03*
X014928Y006934D03*
X014918Y006934D03*
X014908Y006934D03*
X014888Y006924D03*
X014878Y006924D03*
X014868Y006924D03*
X014858Y006924D03*
X014848Y006924D03*
X014838Y006924D03*
X014828Y006924D03*
X014818Y006924D03*
X014808Y006924D03*
X014798Y006914D03*
X014788Y006914D03*
X014778Y006914D03*
X014768Y006914D03*
X014758Y006914D03*
X014748Y006904D03*
X014738Y006904D03*
X014728Y006904D03*
X014718Y006904D03*
X014708Y006904D03*
X014698Y006894D03*
X014688Y006894D03*
X014678Y006884D03*
X014668Y006884D03*
X014658Y006874D03*
X014648Y006864D03*
X014638Y006854D03*
X014628Y006854D03*
X014618Y006844D03*
X014608Y006844D03*
X014598Y006844D03*
X014588Y006834D03*
X014578Y006834D03*
X014568Y006834D03*
X014558Y006824D03*
X014548Y006824D03*
X014538Y006824D03*
X014528Y006824D03*
X014518Y006824D03*
X014508Y006824D03*
X014498Y006824D03*
X014478Y006814D03*
X014468Y006814D03*
X014458Y006814D03*
X014448Y006814D03*
X014438Y006814D03*
X014428Y006814D03*
X014418Y006814D03*
X014408Y006814D03*
X014398Y006814D03*
X014388Y006814D03*
X014378Y006814D03*
X014368Y006814D03*
X014358Y006814D03*
X014348Y006814D03*
X014338Y006814D03*
X014328Y006814D03*
X014318Y006814D03*
X014308Y006824D03*
X014298Y006824D03*
X014288Y006824D03*
X014278Y006824D03*
X014268Y006824D03*
X014258Y006824D03*
X014248Y006824D03*
X014238Y006824D03*
X014228Y006824D03*
X014218Y006834D03*
X014208Y006834D03*
X014198Y006834D03*
X014188Y006834D03*
X014178Y006834D03*
X014168Y006844D03*
X014148Y006854D03*
X014138Y006854D03*
X014128Y006854D03*
X014118Y006854D03*
X014098Y006864D03*
X014088Y006864D03*
X014078Y006874D03*
X014068Y006874D03*
X014058Y006884D03*
X014048Y006894D03*
X014038Y006894D03*
X014028Y006894D03*
X014018Y006904D03*
X014008Y006904D03*
X013998Y006904D03*
X013988Y006914D03*
X013978Y006914D03*
X013968Y006914D03*
X013958Y006924D03*
X013948Y006934D03*
X013938Y006934D03*
X013928Y006944D03*
X013908Y006954D03*
X013898Y006964D03*
X013888Y006964D03*
X013878Y006964D03*
X013868Y006964D03*
X013858Y006964D03*
X013848Y006964D03*
X013838Y006964D03*
X013828Y006964D03*
X013808Y006954D03*
X013798Y006954D03*
X013788Y006944D03*
X013778Y006944D03*
X013768Y006944D03*
X013758Y006944D03*
X013738Y006924D03*
X013718Y006904D03*
X013708Y006904D03*
X013698Y006894D03*
X013688Y006884D03*
X013678Y006884D03*
X013648Y006854D03*
X013638Y006844D03*
X013628Y006834D03*
X013618Y006824D03*
X013588Y006804D03*
X013568Y006794D03*
X013558Y006794D03*
X013548Y006794D03*
X013538Y006784D03*
X013528Y006784D03*
X013518Y006784D03*
X013508Y006784D03*
X013498Y006784D03*
X013488Y006784D03*
X013478Y006794D03*
X013508Y006884D03*
X013518Y006884D03*
X013528Y006884D03*
X013538Y006894D03*
X013548Y006894D03*
X013558Y006894D03*
X014718Y006654D03*
X014728Y006654D03*
X014718Y006634D03*
X014848Y006654D03*
X014858Y006654D03*
X014928Y006694D03*
X015048Y006704D03*
X015158Y006744D03*
X015168Y006744D03*
X015198Y006754D03*
X015328Y006774D03*
X015458Y006764D03*
X015468Y006764D03*
X015618Y006854D03*
X015628Y006854D03*
X015638Y006854D03*
X015648Y006844D03*
X015658Y006844D03*
X015668Y006844D03*
X015678Y006844D03*
X015688Y006844D03*
X015698Y006834D03*
X015708Y006834D03*
X015718Y006824D03*
X015728Y006824D03*
X015748Y006814D03*
X016008Y006664D03*
X016058Y006604D03*
X015458Y007494D03*
X015168Y007494D03*
X015158Y007494D03*
X015148Y007494D03*
X014908Y007464D03*
X014788Y007464D03*
X014778Y007464D03*
X014768Y007464D03*
X014508Y007474D03*
X014498Y007474D03*
X014488Y007474D03*
X014478Y007484D03*
X014468Y007484D03*
X014458Y007484D03*
X014448Y007494D03*
X014438Y007494D03*
X014428Y007504D03*
X014418Y007514D03*
X014408Y007524D03*
X014388Y007544D03*
X018148Y006454D03*
X018208Y006374D03*
X019148Y005824D03*
X019158Y005834D03*
X019168Y005834D03*
X019188Y005864D03*
X019198Y005864D03*
X019218Y005894D03*
X019238Y005924D03*
X019288Y006014D03*
X019298Y006024D03*
X019308Y006034D03*
X019338Y006074D03*
X019348Y006084D03*
X019118Y005774D03*
X019078Y005724D03*
X019068Y005714D03*
X019058Y005704D03*
X019048Y005694D03*
X019038Y005684D03*
X019028Y005674D03*
X019018Y005664D03*
X019008Y005654D03*
X018998Y005644D03*
X018988Y005644D03*
X018958Y005604D03*
X018938Y005584D03*
X018918Y005564D03*
X018908Y005554D03*
X018898Y005544D03*
X018888Y005534D03*
X018878Y005534D03*
X018868Y005524D03*
X018838Y005494D03*
X018828Y005494D03*
X018818Y005484D03*
X018808Y005484D03*
X018798Y005474D03*
X018778Y005464D03*
X018768Y005454D03*
X018758Y005454D03*
X018748Y005444D03*
X018718Y005414D03*
X018698Y005394D03*
X018688Y005384D03*
X018678Y005374D03*
X018668Y005374D03*
X018658Y005364D03*
X018648Y005354D03*
X018638Y005354D03*
X018618Y005344D03*
X018598Y005324D03*
X018588Y005324D03*
X018578Y005314D03*
X018568Y005314D03*
X018558Y005304D03*
X018548Y005294D03*
X018538Y005294D03*
X018528Y005284D03*
X018518Y005284D03*
X018508Y005274D03*
X018498Y005264D03*
X018488Y005254D03*
X018478Y005254D03*
X018468Y005244D03*
X018458Y005234D03*
X018448Y005234D03*
X018438Y005224D03*
X018428Y005214D03*
X018418Y005214D03*
X018408Y005214D03*
X018398Y005204D03*
X018378Y005194D03*
X018368Y005194D03*
X018358Y005184D03*
X018348Y005184D03*
X018338Y005174D03*
X018328Y005174D03*
X018318Y005164D03*
X018298Y005144D03*
X018288Y005134D03*
X018258Y005114D03*
X018248Y005104D03*
X018238Y005104D03*
X018208Y005084D03*
X018198Y005084D03*
X018188Y005084D03*
X018168Y005074D03*
X018098Y005054D03*
X018088Y005054D03*
X018078Y005054D03*
X017818Y004884D03*
X019118Y004864D03*
X019158Y004854D03*
X019158Y004824D03*
X019178Y004884D03*
X019328Y004934D03*
X019388Y005004D03*
X019388Y005024D03*
X019388Y005044D03*
X019388Y005074D03*
X019428Y005064D03*
X019418Y005044D03*
X019418Y004974D03*
X019428Y004974D03*
X019308Y005124D03*
X019298Y005144D03*
X019288Y005144D03*
X019258Y005164D03*
X019258Y005184D03*
X019248Y005204D03*
X019248Y005224D03*
X019238Y005234D03*
X019228Y005234D03*
X019208Y005234D03*
X019208Y005254D03*
X019228Y005254D03*
X019238Y005264D03*
X019268Y005304D03*
X019298Y005334D03*
X019368Y005304D03*
X019378Y005304D03*
X019408Y005264D03*
X019418Y005264D03*
X019418Y005244D03*
X019428Y005224D03*
X019458Y005224D03*
X019458Y005244D03*
X019428Y005284D03*
X019448Y005194D03*
X019528Y005174D03*
X019598Y005194D03*
X019608Y005214D03*
X019598Y005224D03*
X019578Y005354D03*
X019628Y005434D03*
X019648Y005454D03*
X019718Y005434D03*
X019748Y005454D03*
X019228Y005174D03*
D17*
X018018Y005534D03*
X018008Y005534D03*
X017908Y005364D03*
X017498Y005654D03*
X017418Y005804D03*
X017608Y005954D03*
X017598Y005974D03*
X017558Y006094D03*
X018638Y006314D03*
X018978Y006374D03*
X019228Y006604D03*
X019178Y006644D03*
X019228Y006764D03*
X019448Y006654D03*
X018748Y006694D03*
X017898Y006734D03*
X017888Y006834D03*
X017838Y006894D03*
X017708Y006914D03*
X017688Y006924D03*
X017658Y006944D03*
X017548Y006934D03*
X017448Y006824D03*
X017398Y006884D03*
X017378Y006894D03*
X017058Y006954D03*
X017048Y006954D03*
X017038Y006954D03*
X017028Y006954D03*
X017018Y006954D03*
X017008Y006954D03*
X016988Y006944D03*
X016978Y006944D03*
X016698Y006844D03*
X016438Y006714D03*
X016428Y006714D03*
X016228Y006634D03*
X016148Y006614D03*
X016138Y006614D03*
X016128Y006614D03*
X016118Y006614D03*
X016108Y006614D03*
X016098Y006614D03*
X015998Y006604D03*
X015988Y006604D03*
X015978Y006604D03*
X015868Y006604D03*
X015878Y006694D03*
X015758Y006624D03*
X015748Y006624D03*
X015648Y006664D03*
X015628Y006674D03*
X015718Y007094D03*
X015728Y007094D03*
X015708Y007104D03*
X015698Y007104D03*
X015658Y007204D03*
X015648Y007204D03*
X015488Y007164D03*
X015478Y007164D03*
X015468Y007164D03*
X015458Y007274D03*
X015298Y007194D03*
X015288Y007194D03*
X015088Y007224D03*
X015078Y007224D03*
X014978Y007274D03*
X014668Y007194D03*
X014658Y007194D03*
X014618Y007184D03*
X014608Y007184D03*
X014978Y007494D03*
X015308Y007524D03*
X015548Y007494D03*
X015558Y007494D03*
X015788Y007374D03*
X015928Y007344D03*
X015938Y007344D03*
X015948Y007344D03*
X016198Y007344D03*
X016208Y007344D03*
X016218Y007344D03*
X016228Y007344D03*
X016248Y007354D03*
X016258Y007354D03*
X016268Y007354D03*
X016638Y007224D03*
X016618Y007214D03*
X016608Y007214D03*
X016598Y007214D03*
X016588Y007204D03*
X016568Y007194D03*
X016658Y007234D03*
X016668Y007234D03*
X016678Y007244D03*
X016688Y007244D03*
X016698Y007254D03*
X016708Y007254D03*
X016718Y007264D03*
X016738Y007274D03*
X016838Y007294D03*
X016848Y007294D03*
X016978Y007304D03*
X017008Y007314D03*
X017018Y007314D03*
X017028Y007314D03*
X017118Y007254D03*
X017128Y007264D03*
X017138Y007274D03*
X017168Y007314D03*
X017178Y007314D03*
X017168Y007184D03*
X017228Y007184D03*
X017308Y007244D03*
X017318Y007244D03*
X017408Y007144D03*
X017418Y007144D03*
X017448Y007134D03*
X017468Y007114D03*
X017488Y007254D03*
X017618Y007394D03*
X017628Y007394D03*
X017638Y007394D03*
X017648Y007394D03*
X017628Y007494D03*
X017618Y007494D03*
X017488Y007524D03*
X017478Y007534D03*
X017458Y007534D03*
X017448Y007534D03*
X017338Y007554D03*
X017328Y007554D03*
X017318Y007554D03*
X017308Y007554D03*
X017298Y007554D03*
X017288Y007554D03*
X017248Y007554D03*
X017238Y007554D03*
X017228Y007554D03*
X017218Y007554D03*
X017188Y007554D03*
X017118Y007554D03*
X017108Y007554D03*
X017098Y007554D03*
X017088Y007554D03*
X016978Y007474D03*
X016908Y007534D03*
X016898Y007534D03*
X016658Y007464D03*
X016498Y007104D03*
X016468Y007084D03*
X016458Y007084D03*
X016348Y007024D03*
X016338Y007024D03*
X016308Y007124D03*
X016158Y007114D03*
X016148Y007124D03*
X015998Y007024D03*
X015928Y007114D03*
X015908Y007114D03*
X015898Y007114D03*
X016918Y007144D03*
X016928Y007144D03*
X017028Y007164D03*
X017658Y007154D03*
X017668Y007154D03*
X017668Y007054D03*
X017798Y007214D03*
X017778Y007224D03*
X018018Y007194D03*
X017928Y004894D03*
X012428Y007204D03*
D18*
X012438Y007134D03*
X012908Y007224D03*
X013678Y007374D03*
X013698Y007374D03*
X013708Y007374D03*
X013728Y007364D03*
X013738Y007364D03*
X013788Y007364D03*
X013818Y007354D03*
X013828Y007354D03*
X013868Y007344D03*
X013898Y007334D03*
X013908Y007334D03*
X014068Y007254D03*
X014078Y007254D03*
X014158Y007204D03*
X014348Y007154D03*
X014388Y007194D03*
X014448Y007194D03*
X014458Y007194D03*
X014528Y007144D03*
X014538Y007144D03*
X014548Y007144D03*
X014558Y007144D03*
X014578Y007134D03*
X014778Y007154D03*
X014788Y007154D03*
X014778Y007234D03*
X014768Y007234D03*
X014788Y007244D03*
X014798Y007244D03*
X014808Y007254D03*
X014818Y007254D03*
X014828Y007254D03*
X014838Y007254D03*
X014848Y007254D03*
X014858Y007264D03*
X014868Y007264D03*
X014878Y007264D03*
X014898Y007274D03*
X014908Y007274D03*
X014898Y007204D03*
X014988Y007184D03*
X014998Y007194D03*
X015028Y007214D03*
X015038Y007304D03*
X015118Y007214D03*
X015168Y007284D03*
X015178Y007294D03*
X015188Y007304D03*
X015198Y007304D03*
X015208Y007314D03*
X015218Y007314D03*
X015228Y007314D03*
X015238Y007314D03*
X015248Y007314D03*
X015258Y007314D03*
X015358Y007234D03*
X015388Y007304D03*
X015528Y007274D03*
X015538Y007274D03*
X015588Y007254D03*
X015688Y007204D03*
X015758Y007184D03*
X015778Y007174D03*
X015778Y007114D03*
X015648Y007094D03*
X015638Y007094D03*
X015428Y007164D03*
X015248Y007184D03*
X015608Y007414D03*
X015618Y007414D03*
X015628Y007414D03*
X015638Y007414D03*
X015648Y007414D03*
X015668Y007424D03*
X015708Y007434D03*
X015718Y007434D03*
X015728Y007424D03*
X015738Y007364D03*
X015838Y007374D03*
X016048Y007344D03*
X016058Y007344D03*
X016068Y007344D03*
X016088Y007354D03*
X016168Y007324D03*
X016178Y007324D03*
X016338Y007384D03*
X016348Y007394D03*
X016478Y007374D03*
X016488Y007374D03*
X016528Y007384D03*
X016538Y007384D03*
X016558Y007394D03*
X016538Y007444D03*
X016528Y007444D03*
X016508Y007434D03*
X016498Y007434D03*
X016558Y007454D03*
X016718Y007494D03*
X016728Y007504D03*
X016788Y007524D03*
X016798Y007524D03*
X016808Y007524D03*
X016818Y007524D03*
X016868Y007454D03*
X016878Y007454D03*
X016888Y007454D03*
X016898Y007454D03*
X016908Y007454D03*
X016888Y007314D03*
X017048Y007244D03*
X017048Y007154D03*
X017138Y007164D03*
X017278Y007164D03*
X017278Y007254D03*
X017268Y007254D03*
X017258Y007254D03*
X017288Y007324D03*
X017298Y007324D03*
X017308Y007324D03*
X017318Y007324D03*
X017108Y007334D03*
X016758Y007134D03*
X016748Y007124D03*
X016838Y007094D03*
X016648Y007144D03*
X016538Y007054D03*
X016488Y007184D03*
X016398Y007074D03*
X016278Y006994D03*
X016268Y006994D03*
X016258Y006994D03*
X016248Y006994D03*
X016238Y006994D03*
X016228Y006994D03*
X016208Y006994D03*
X016198Y006994D03*
X016188Y006994D03*
X016178Y006994D03*
X016168Y006994D03*
X016078Y007004D03*
X016068Y007004D03*
X016058Y007004D03*
X016048Y007004D03*
X016098Y007104D03*
X016018Y007114D03*
X015958Y007104D03*
X016258Y006744D03*
X016388Y006674D03*
X016498Y006734D03*
X016578Y006774D03*
X016588Y006774D03*
X016598Y006774D03*
X016598Y006834D03*
X016588Y006834D03*
X016738Y006844D03*
X016748Y006844D03*
X016758Y006844D03*
X016768Y006854D03*
X016778Y006854D03*
X016838Y006874D03*
X017128Y006944D03*
X017138Y006944D03*
X017148Y006944D03*
X017158Y006934D03*
X017168Y006934D03*
X017178Y006934D03*
X017188Y006934D03*
X017198Y006934D03*
X017208Y006934D03*
X017218Y006934D03*
X017228Y006934D03*
X017238Y006934D03*
X017258Y006924D03*
X017268Y006924D03*
X017278Y006924D03*
X017288Y006924D03*
X017298Y006914D03*
X017348Y006984D03*
X017508Y007064D03*
X017518Y007064D03*
X017728Y007134D03*
X017728Y007224D03*
X017738Y007234D03*
X017568Y007244D03*
X017558Y007244D03*
X017378Y007504D03*
X017348Y007484D03*
X017328Y007474D03*
X017318Y007474D03*
X017288Y007464D03*
X017278Y007464D03*
X017268Y007464D03*
X017258Y007464D03*
X017248Y007464D03*
X017378Y007564D03*
X017108Y007684D03*
X016818Y007764D03*
X016828Y007814D03*
X015638Y007474D03*
X015518Y007464D03*
X015508Y007464D03*
X015508Y007524D03*
X015498Y007524D03*
X015488Y007524D03*
X015478Y007524D03*
X015468Y007534D03*
X015458Y007534D03*
X015448Y007534D03*
X015518Y007524D03*
X015358Y007544D03*
X015348Y007544D03*
X015238Y007544D03*
X015208Y007534D03*
X015198Y007534D03*
X015188Y007534D03*
X015178Y007534D03*
X015168Y007534D03*
X015158Y007534D03*
X015148Y007534D03*
X015088Y007534D03*
X015068Y007524D03*
X015058Y007524D03*
X015048Y007524D03*
X015038Y007524D03*
X015078Y007474D03*
X015178Y007474D03*
X015188Y007474D03*
X015198Y007474D03*
X015208Y007474D03*
X015218Y007474D03*
X015238Y007484D03*
X014968Y007474D03*
X014918Y007504D03*
X014908Y007504D03*
X014898Y007504D03*
X014888Y007494D03*
X014608Y007454D03*
X014598Y007454D03*
X014588Y007454D03*
X014578Y007454D03*
X014438Y007634D03*
X014428Y007634D03*
X015298Y006744D03*
X015308Y006744D03*
X015358Y006794D03*
X015408Y006764D03*
X015518Y006764D03*
X015798Y006714D03*
X015728Y006614D03*
X015718Y006614D03*
X016068Y006634D03*
X016558Y006584D03*
X017438Y006714D03*
X017898Y006814D03*
X017968Y007064D03*
X017978Y007064D03*
X018508Y007074D03*
X018668Y006914D03*
X018678Y006894D03*
X018848Y007044D03*
X018858Y007034D03*
X018838Y007064D03*
X018808Y007114D03*
X018758Y007214D03*
X018928Y006944D03*
X018938Y006934D03*
X018948Y006924D03*
X018958Y006914D03*
X018968Y006904D03*
X018978Y006894D03*
X018998Y006884D03*
X019008Y006874D03*
X019028Y006864D03*
X019038Y006854D03*
X019048Y006844D03*
X019058Y006844D03*
X019078Y006834D03*
X019088Y006824D03*
X019108Y006814D03*
X019118Y006814D03*
X019138Y006804D03*
X019148Y006804D03*
X019158Y006804D03*
X019168Y006794D03*
X019178Y006794D03*
X019198Y006784D03*
X018898Y006534D03*
X018868Y006554D03*
X018798Y006614D03*
X018628Y006674D03*
X018938Y006484D03*
X018978Y006474D03*
X018958Y006354D03*
X018538Y006094D03*
X018118Y005994D03*
X018108Y005994D03*
X018048Y005704D03*
X017988Y005544D03*
X017818Y005674D03*
X017808Y005684D03*
X017798Y005694D03*
X017778Y005714D03*
X017648Y005484D03*
X017438Y005754D03*
X017368Y005934D03*
X017358Y005954D03*
X017488Y006244D03*
X017478Y006264D03*
X017468Y006284D03*
X017458Y006304D03*
X017658Y006184D03*
X019578Y005134D03*
X019608Y005174D03*
X019378Y005034D03*
X019368Y004924D03*
X019318Y004904D03*
X017868Y004884D03*
X015208Y006714D03*
X015178Y006704D03*
X015168Y006704D03*
X015158Y006704D03*
X015128Y006734D03*
X015088Y006734D03*
X015078Y006734D03*
X015088Y006674D03*
X015098Y006674D03*
X015108Y006674D03*
X015078Y006664D03*
X015068Y006664D03*
X014998Y006634D03*
X014988Y006634D03*
X014978Y006634D03*
X014968Y006634D03*
X014968Y006694D03*
X014978Y006694D03*
X014988Y006694D03*
X014818Y006624D03*
X014808Y006624D03*
X014778Y006624D03*
D19*
X014918Y006634D03*
X015138Y006704D03*
X015268Y006744D03*
X015278Y006744D03*
X015388Y006774D03*
X015698Y006634D03*
X015828Y006714D03*
X015838Y006714D03*
X015888Y006594D03*
X016038Y006594D03*
X016158Y006614D03*
X016168Y006614D03*
X016178Y006614D03*
X016188Y006614D03*
X016208Y006624D03*
X016218Y006624D03*
X016268Y006754D03*
X016278Y006754D03*
X016288Y006764D03*
X016298Y006764D03*
X016368Y006754D03*
X016378Y006754D03*
X016388Y006744D03*
X016378Y006674D03*
X016468Y006724D03*
X016478Y006724D03*
X016538Y006754D03*
X016628Y006844D03*
X016638Y006844D03*
X016718Y006844D03*
X016918Y006914D03*
X016928Y006924D03*
X016938Y006924D03*
X017328Y006914D03*
X017338Y006914D03*
X017398Y006974D03*
X017408Y006964D03*
X017418Y006954D03*
X017428Y006944D03*
X017438Y006834D03*
X017538Y007054D03*
X017548Y007054D03*
X017508Y007154D03*
X017558Y007164D03*
X017548Y007244D03*
X017538Y007244D03*
X017598Y007394D03*
X017608Y007394D03*
X017578Y007404D03*
X017568Y007404D03*
X017528Y007414D03*
X017508Y007424D03*
X017498Y007424D03*
X017488Y007434D03*
X017238Y007314D03*
X017238Y007174D03*
X017248Y007174D03*
X017148Y007174D03*
X017058Y007234D03*
X017068Y007324D03*
X017078Y007324D03*
X016898Y007244D03*
X016888Y007234D03*
X016878Y007224D03*
X016868Y007224D03*
X016858Y007214D03*
X016868Y007304D03*
X016798Y007144D03*
X016788Y007144D03*
X016778Y007144D03*
X016698Y007164D03*
X016678Y007154D03*
X016658Y007144D03*
X016618Y007094D03*
X016598Y007094D03*
X016578Y007084D03*
X016558Y007074D03*
X016428Y007074D03*
X016418Y007074D03*
X016398Y007144D03*
X016388Y007144D03*
X016378Y007144D03*
X016338Y007134D03*
X016418Y007154D03*
X016428Y007154D03*
X016448Y007164D03*
X016308Y007014D03*
X016148Y007004D03*
X016098Y007004D03*
X016088Y007004D03*
X016028Y007004D03*
X015978Y007024D03*
X016028Y007104D03*
X015948Y007114D03*
X015938Y007114D03*
X015918Y007104D03*
X015748Y007094D03*
X015718Y007204D03*
X015678Y007204D03*
X015498Y007274D03*
X015488Y007274D03*
X015478Y007274D03*
X015468Y007274D03*
X015448Y007264D03*
X015428Y007254D03*
X015408Y007244D03*
X015398Y007234D03*
X015388Y007234D03*
X015378Y007234D03*
X015368Y007234D03*
X015338Y007184D03*
X015278Y007194D03*
X015268Y007194D03*
X015288Y007304D03*
X015348Y007304D03*
X015358Y007304D03*
X015448Y007164D03*
X015458Y007164D03*
X015108Y007224D03*
X015048Y007214D03*
X014998Y007284D03*
X014848Y007174D03*
X014738Y007224D03*
X014718Y007214D03*
X014708Y007214D03*
X014128Y007224D03*
X014018Y007284D03*
X013998Y007294D03*
X013978Y007304D03*
X013948Y007314D03*
X014368Y007604D03*
X014828Y007474D03*
X014838Y007484D03*
X014848Y007484D03*
X015008Y007504D03*
X015028Y007514D03*
X015128Y007524D03*
X015138Y007524D03*
X015268Y007494D03*
X015328Y007534D03*
X015408Y007524D03*
X015418Y007524D03*
X015588Y007494D03*
X015608Y007484D03*
X015698Y007434D03*
X015798Y007374D03*
X015808Y007374D03*
X015998Y007344D03*
X016008Y007344D03*
X016018Y007344D03*
X016028Y007344D03*
X016288Y007364D03*
X016308Y007374D03*
X016588Y007404D03*
X016678Y007474D03*
X016838Y007524D03*
X016848Y007524D03*
X016938Y007544D03*
X016968Y007554D03*
X016958Y007464D03*
X016948Y007464D03*
X017398Y007634D03*
X017748Y007234D03*
X017698Y007144D03*
X017688Y007144D03*
X017818Y007024D03*
X018058Y007004D03*
X017838Y006784D03*
X017848Y006774D03*
X017878Y006744D03*
X018568Y006544D03*
X018778Y006644D03*
X018818Y006604D03*
X018838Y006584D03*
X018848Y006574D03*
X018858Y006564D03*
X019078Y006504D03*
X019108Y006384D03*
X019118Y006384D03*
X018968Y006364D03*
X019218Y006604D03*
X019468Y006654D03*
X019278Y006764D03*
X019268Y006764D03*
X019258Y006764D03*
X019248Y006764D03*
X018828Y007084D03*
X018688Y006874D03*
X017508Y006204D03*
X017528Y006164D03*
X017378Y005904D03*
X017688Y005804D03*
X017698Y005794D03*
X017708Y005784D03*
X017718Y005774D03*
X017738Y005754D03*
X017748Y005744D03*
X017828Y005664D03*
X017838Y005644D03*
X017848Y005644D03*
X017858Y005634D03*
X017928Y005604D03*
X017998Y005534D03*
X017798Y005434D03*
X017768Y005454D03*
X017598Y005524D03*
X017588Y005534D03*
X017538Y005594D03*
X017528Y005604D03*
X017488Y005664D03*
X017478Y005684D03*
X017468Y005694D03*
X017458Y005714D03*
X017448Y005734D03*
X018068Y005704D03*
X018528Y006094D03*
X019258Y005234D03*
X019588Y005154D03*
X019608Y005264D03*
X019278Y004884D03*
X019268Y004884D03*
X019258Y004884D03*
X019248Y004874D03*
X019238Y004874D03*
X019228Y004874D03*
X019218Y004864D03*
X018018Y005044D03*
X018008Y005044D03*
X017998Y005044D03*
X017898Y004884D03*
X014708Y006774D03*
X014658Y006764D03*
X016128Y007134D03*
X016858Y007104D03*
X016868Y007114D03*
X012938Y007224D03*
X012928Y007224D03*
X012918Y007224D03*
D20*
X012948Y007239D03*
X013358Y007349D03*
X013368Y007349D03*
X013398Y007359D03*
X013408Y007359D03*
X013418Y007359D03*
X013428Y007359D03*
X013438Y007369D03*
X013448Y007369D03*
X013458Y007369D03*
X013468Y007369D03*
X013478Y007369D03*
X013498Y007369D03*
X013608Y007379D03*
X013618Y007379D03*
X013628Y007379D03*
X013638Y007379D03*
X013658Y007379D03*
X013668Y007379D03*
X013688Y007369D03*
X013718Y007369D03*
X013748Y007369D03*
X013758Y007369D03*
X013768Y007369D03*
X013778Y007369D03*
X013798Y007359D03*
X013808Y007359D03*
X013838Y007349D03*
X013848Y007349D03*
X013858Y007349D03*
X013878Y007339D03*
X013888Y007339D03*
X014108Y007229D03*
X014248Y007209D03*
X014258Y007209D03*
X014288Y007199D03*
X014298Y007199D03*
X014308Y007199D03*
X014338Y007149D03*
X014358Y007149D03*
X014468Y007199D03*
X014478Y007199D03*
X014528Y007209D03*
X014538Y007209D03*
X014548Y007209D03*
X014558Y007209D03*
X014568Y007209D03*
X014578Y007209D03*
X014588Y007209D03*
X014568Y007149D03*
X014518Y007139D03*
X014508Y007139D03*
X014498Y007139D03*
X014758Y007149D03*
X014768Y007149D03*
X015048Y007309D03*
X015058Y007309D03*
X015078Y007319D03*
X015088Y007319D03*
X015098Y007319D03*
X015108Y007319D03*
X015168Y007209D03*
X015198Y007229D03*
X015218Y007239D03*
X015228Y007179D03*
X015238Y007179D03*
X015348Y007169D03*
X015418Y007159D03*
X015408Y007309D03*
X015398Y007309D03*
X015578Y007109D03*
X015708Y007199D03*
X015758Y007049D03*
X015898Y007019D03*
X015908Y007019D03*
X015918Y007019D03*
X015928Y007019D03*
X015938Y007019D03*
X015978Y007119D03*
X015918Y007329D03*
X015908Y007329D03*
X015878Y007379D03*
X015868Y007379D03*
X015858Y007379D03*
X015848Y007379D03*
X015738Y007419D03*
X015648Y007479D03*
X015528Y007529D03*
X015388Y007549D03*
X015378Y007549D03*
X015368Y007549D03*
X015248Y007549D03*
X015228Y007539D03*
X015218Y007539D03*
X015118Y007499D03*
X015098Y007489D03*
X015088Y007479D03*
X015068Y007469D03*
X015058Y007469D03*
X015078Y007529D03*
X015098Y007539D03*
X015108Y007539D03*
X014958Y007519D03*
X014938Y007509D03*
X014928Y007509D03*
X014948Y007469D03*
X014958Y007469D03*
X014938Y007459D03*
X014928Y007459D03*
X014818Y007459D03*
X014758Y007479D03*
X014748Y007479D03*
X014738Y007479D03*
X014728Y007479D03*
X014708Y007469D03*
X014698Y007469D03*
X014688Y007469D03*
X014678Y007469D03*
X014668Y007469D03*
X014658Y007469D03*
X014638Y007469D03*
X014628Y007459D03*
X014618Y007459D03*
X014568Y007459D03*
X014558Y007459D03*
X014388Y007639D03*
X016078Y007349D03*
X016098Y007359D03*
X016108Y007359D03*
X016118Y007359D03*
X016358Y007399D03*
X016468Y007379D03*
X016498Y007379D03*
X016508Y007379D03*
X016518Y007379D03*
X016488Y007429D03*
X016478Y007429D03*
X016518Y007439D03*
X016548Y007449D03*
X016568Y007459D03*
X016578Y007459D03*
X016588Y007469D03*
X016598Y007469D03*
X016608Y007469D03*
X016738Y007509D03*
X016758Y007519D03*
X016768Y007519D03*
X016778Y007519D03*
X016878Y007719D03*
X017338Y007479D03*
X017358Y007489D03*
X017368Y007499D03*
X017118Y007339D03*
X017128Y007159D03*
X017068Y007149D03*
X017058Y007149D03*
X016838Y007219D03*
X016818Y007159D03*
X016738Y007199D03*
X016738Y007119D03*
X016638Y007149D03*
X016528Y007049D03*
X016388Y007079D03*
X016378Y007009D03*
X016808Y006869D03*
X016818Y006869D03*
X016828Y006869D03*
X016848Y006879D03*
X016858Y006879D03*
X016798Y006859D03*
X016788Y006859D03*
X016908Y006919D03*
X016618Y006779D03*
X016608Y006779D03*
X016578Y006829D03*
X016058Y006649D03*
X015788Y006709D03*
X015528Y006709D03*
X015508Y006769D03*
X015498Y006769D03*
X015438Y006749D03*
X015428Y006749D03*
X015418Y006759D03*
X015348Y006789D03*
X015248Y006769D03*
X015238Y006769D03*
X015228Y006769D03*
X015218Y006769D03*
X015218Y006719D03*
X015228Y006719D03*
X015238Y006719D03*
X015198Y006709D03*
X015188Y006709D03*
X015118Y006679D03*
X015068Y006719D03*
X015018Y006689D03*
X015008Y006699D03*
X014998Y006699D03*
X014958Y006689D03*
X014948Y006689D03*
X015008Y006639D03*
X015018Y006639D03*
X014868Y006609D03*
X014848Y006619D03*
X014838Y006619D03*
X014828Y006619D03*
X014768Y006629D03*
X014758Y006629D03*
X014748Y006629D03*
X014738Y006639D03*
X014658Y006699D03*
X013458Y006829D03*
X016898Y007319D03*
X017288Y007159D03*
X017298Y007159D03*
X017328Y007149D03*
X017338Y007149D03*
X017348Y007149D03*
X017358Y007149D03*
X017478Y007089D03*
X017488Y007079D03*
X017498Y007069D03*
X017318Y006909D03*
X017308Y006909D03*
X017248Y006929D03*
X017368Y006759D03*
X017378Y006749D03*
X017408Y006729D03*
X017418Y006729D03*
X017428Y006719D03*
X017448Y006709D03*
X017468Y006699D03*
X017488Y006689D03*
X017498Y006679D03*
X017608Y006639D03*
X017858Y006839D03*
X017928Y006689D03*
X017958Y006689D03*
X017968Y006679D03*
X018058Y006569D03*
X017698Y006459D03*
X017578Y006399D03*
X017548Y006479D03*
X017778Y006289D03*
X017808Y006229D03*
X017818Y006199D03*
X017678Y006129D03*
X017708Y006059D03*
X017718Y006029D03*
X017738Y005969D03*
X017788Y005699D03*
X018028Y005699D03*
X018038Y005699D03*
X018068Y005609D03*
X018168Y005589D03*
X017658Y005379D03*
X018038Y005049D03*
X018048Y005049D03*
X017858Y004889D03*
X017848Y004889D03*
X019328Y004899D03*
X019338Y004909D03*
X019348Y004909D03*
X019358Y004919D03*
X019598Y005159D03*
X019568Y005249D03*
X019578Y005319D03*
X018578Y006079D03*
X018738Y006219D03*
X018798Y006379D03*
X018908Y006349D03*
X018918Y006349D03*
X018928Y006349D03*
X018948Y006349D03*
X018948Y006479D03*
X018958Y006479D03*
X018968Y006479D03*
X019028Y006519D03*
X019038Y006519D03*
X019048Y006519D03*
X019058Y006519D03*
X019068Y006519D03*
X019098Y006589D03*
X019188Y006609D03*
X019198Y006609D03*
X019098Y006819D03*
X019018Y006869D03*
X018988Y006889D03*
X018878Y006989D03*
X018818Y007099D03*
X018798Y007129D03*
X018788Y007149D03*
X018778Y007169D03*
X018738Y007269D03*
X018728Y007289D03*
X018718Y007319D03*
X018468Y007169D03*
X018428Y007279D03*
X018408Y007329D03*
X018358Y007429D03*
X017998Y007249D03*
X017578Y007239D03*
X017828Y007479D03*
X017958Y007069D03*
X018028Y007019D03*
X018068Y006979D03*
X018078Y006969D03*
X018518Y007059D03*
X018568Y007009D03*
X018638Y006949D03*
X018658Y006919D03*
X018558Y006589D03*
X018288Y006269D03*
X017318Y006039D03*
X017308Y006059D03*
X017298Y006069D03*
X017288Y006089D03*
X017278Y006099D03*
X017248Y006119D03*
D21*
X017498Y006219D03*
X017518Y006179D03*
X017638Y006249D03*
X018128Y005989D03*
X018138Y005799D03*
X018058Y005709D03*
X017958Y005609D03*
X017968Y005599D03*
X017848Y005499D03*
X017668Y005459D03*
X017658Y005469D03*
X017638Y005489D03*
X017628Y005499D03*
X017618Y005509D03*
X017608Y005519D03*
X017578Y005539D03*
X017568Y005559D03*
X017558Y005569D03*
X017548Y005579D03*
X017728Y005759D03*
X017758Y005729D03*
X017768Y005719D03*
X017428Y005779D03*
X017408Y005829D03*
X017398Y005859D03*
X017388Y005879D03*
X017668Y005379D03*
X018028Y005049D03*
X017888Y004889D03*
X017878Y004889D03*
X019178Y004839D03*
X019188Y004839D03*
X019288Y004889D03*
X019298Y004899D03*
X019308Y004909D03*
X018698Y006269D03*
X018888Y006539D03*
X018878Y006549D03*
X018908Y006529D03*
X018918Y006529D03*
X018928Y006519D03*
X018828Y006589D03*
X018808Y006609D03*
X018788Y006629D03*
X019068Y006839D03*
X019128Y006809D03*
X019188Y006789D03*
X019208Y006779D03*
X019218Y006779D03*
X018918Y006949D03*
X018908Y006959D03*
X018898Y006969D03*
X018888Y006989D03*
X018868Y007019D03*
X018748Y007239D03*
X018488Y007119D03*
X018478Y007139D03*
X018498Y007099D03*
X018458Y007189D03*
X018448Y007219D03*
X018028Y007129D03*
X018048Y007059D03*
X018018Y007039D03*
X017828Y007019D03*
X017718Y007139D03*
X017708Y007139D03*
X017528Y007059D03*
X017498Y007159D03*
X017488Y007159D03*
X017378Y007149D03*
X017368Y007149D03*
X017268Y007169D03*
X017258Y007169D03*
X017288Y007249D03*
X017278Y007319D03*
X017268Y007319D03*
X017258Y007319D03*
X017248Y007319D03*
X017098Y007329D03*
X017088Y007329D03*
X017038Y007159D03*
X016908Y007149D03*
X016848Y007099D03*
X016808Y007159D03*
X016768Y007139D03*
X016718Y007179D03*
X016708Y007169D03*
X016688Y007159D03*
X016668Y007149D03*
X016728Y007189D03*
X016848Y007209D03*
X016878Y007309D03*
X016858Y007449D03*
X016848Y007449D03*
X016838Y007449D03*
X016828Y007449D03*
X016818Y007459D03*
X016828Y007519D03*
X016918Y007459D03*
X016928Y007459D03*
X016938Y007459D03*
X016978Y007559D03*
X016988Y007559D03*
X016998Y007559D03*
X017218Y007469D03*
X017228Y007469D03*
X017238Y007469D03*
X017298Y007469D03*
X017308Y007469D03*
X017358Y007559D03*
X017368Y007559D03*
X017518Y007419D03*
X017538Y007409D03*
X017548Y007409D03*
X017558Y007409D03*
X017588Y007399D03*
X017368Y006989D03*
X017358Y006989D03*
X017378Y006979D03*
X017388Y006979D03*
X017118Y006949D03*
X017108Y006949D03*
X017098Y006949D03*
X016728Y006839D03*
X016618Y006839D03*
X016608Y006839D03*
X016568Y006769D03*
X016558Y006769D03*
X016548Y006759D03*
X016528Y006749D03*
X016518Y006739D03*
X016508Y006739D03*
X016488Y006729D03*
X016568Y006589D03*
X016198Y006619D03*
X015898Y006589D03*
X015818Y006719D03*
X015808Y006719D03*
X015708Y006629D03*
X015538Y006769D03*
X015528Y006769D03*
X015398Y006769D03*
X015378Y006789D03*
X015368Y006789D03*
X015318Y006749D03*
X015288Y006749D03*
X015148Y006699D03*
X015118Y006739D03*
X015108Y006739D03*
X015098Y006739D03*
X015058Y006659D03*
X015048Y006659D03*
X014958Y006629D03*
X014948Y006629D03*
X014938Y006629D03*
X014928Y006629D03*
X014798Y006629D03*
X014788Y006629D03*
X014718Y006769D03*
X014678Y006779D03*
X014668Y006769D03*
X014638Y006749D03*
X014798Y007159D03*
X014808Y007159D03*
X014818Y007169D03*
X014828Y007169D03*
X014838Y007169D03*
X014878Y007169D03*
X014908Y007209D03*
X014888Y007269D03*
X015008Y007289D03*
X015018Y007299D03*
X015028Y007299D03*
X015018Y007199D03*
X015008Y007199D03*
X015138Y007269D03*
X015148Y007279D03*
X015158Y007279D03*
X015258Y007189D03*
X015298Y007309D03*
X015308Y007309D03*
X015318Y007309D03*
X015328Y007309D03*
X015338Y007309D03*
X015368Y007309D03*
X015378Y007309D03*
X015418Y007249D03*
X015438Y007259D03*
X015508Y007269D03*
X015518Y007269D03*
X015438Y007159D03*
X015658Y007099D03*
X015668Y007099D03*
X015698Y007209D03*
X015728Y007199D03*
X015738Y007199D03*
X015748Y007189D03*
X015768Y007179D03*
X015968Y007119D03*
X015968Y007019D03*
X015958Y007019D03*
X015948Y007019D03*
X016018Y007009D03*
X016038Y006999D03*
X016088Y007099D03*
X016158Y006999D03*
X016288Y006999D03*
X016298Y007009D03*
X016358Y007029D03*
X016368Y007009D03*
X016408Y007079D03*
X016408Y007149D03*
X016438Y007159D03*
X016458Y007169D03*
X016468Y007169D03*
X016478Y007179D03*
X016358Y007139D03*
X016348Y007139D03*
X016328Y007119D03*
X016318Y007119D03*
X016548Y007059D03*
X016188Y007329D03*
X016318Y007379D03*
X016328Y007379D03*
X016548Y007389D03*
X016568Y007399D03*
X016578Y007399D03*
X016598Y007409D03*
X016608Y007409D03*
X016688Y007479D03*
X016698Y007489D03*
X016708Y007489D03*
X016038Y007349D03*
X015828Y007379D03*
X015818Y007379D03*
X015778Y007359D03*
X015768Y007359D03*
X015758Y007359D03*
X015748Y007359D03*
X015658Y007419D03*
X015628Y007479D03*
X015618Y007479D03*
X015598Y007489D03*
X015538Y007469D03*
X015528Y007469D03*
X015498Y007459D03*
X015488Y007459D03*
X015478Y007459D03*
X015468Y007459D03*
X015438Y007529D03*
X015428Y007529D03*
X015338Y007539D03*
X015258Y007489D03*
X015248Y007489D03*
X015228Y007479D03*
X014878Y007489D03*
X014868Y007489D03*
X014858Y007489D03*
X014758Y007229D03*
X014748Y007229D03*
X014728Y007219D03*
X014438Y007189D03*
X014428Y007189D03*
X014418Y007189D03*
X014408Y007189D03*
X014398Y007189D03*
X014148Y007219D03*
X014138Y007219D03*
X014118Y007229D03*
X014098Y007239D03*
X014088Y007249D03*
X014058Y007259D03*
X014048Y007269D03*
X014038Y007269D03*
X013988Y007299D03*
X013968Y007309D03*
X013958Y007309D03*
X013938Y007319D03*
X013928Y007329D03*
X013918Y007329D03*
X017588Y006659D03*
X017598Y006649D03*
X017858Y006759D03*
X017868Y006749D03*
X017918Y006699D03*
X019208Y006609D03*
X019628Y006619D03*
X019638Y006619D03*
D22*
X019608Y006609D03*
X019438Y006659D03*
X019428Y006669D03*
X019098Y006499D03*
X019098Y006389D03*
X018758Y006679D03*
X018698Y006849D03*
X017858Y007189D03*
X017848Y007189D03*
X017828Y007189D03*
X017788Y007219D03*
X017758Y007249D03*
X017648Y007169D03*
X017678Y007049D03*
X017688Y007049D03*
X017568Y007049D03*
X017458Y007129D03*
X017438Y007139D03*
X017428Y007139D03*
X017458Y007259D03*
X017468Y007259D03*
X017478Y007259D03*
X017498Y007249D03*
X017508Y007249D03*
X017448Y007269D03*
X017438Y007269D03*
X017428Y007269D03*
X017338Y007249D03*
X017328Y007249D03*
X017218Y007189D03*
X017188Y007189D03*
X017178Y007189D03*
X017098Y007239D03*
X017088Y007239D03*
X017018Y007169D03*
X016938Y007149D03*
X016958Y007299D03*
X016968Y007299D03*
X016988Y007309D03*
X016998Y007309D03*
X016828Y007289D03*
X016818Y007279D03*
X016808Y007279D03*
X016648Y007229D03*
X016578Y007199D03*
X016558Y007189D03*
X016548Y007179D03*
X016488Y007099D03*
X016478Y007089D03*
X016288Y007109D03*
X016278Y007109D03*
X016168Y007109D03*
X016238Y007349D03*
X016638Y007449D03*
X016648Y007459D03*
X017078Y007549D03*
X017258Y007549D03*
X017268Y007549D03*
X017278Y007549D03*
X017398Y007539D03*
X017468Y007529D03*
X017498Y007519D03*
X017508Y007519D03*
X017518Y007519D03*
X017578Y007499D03*
X017588Y007499D03*
X017608Y007489D03*
X017718Y006909D03*
X017728Y006909D03*
X017578Y006689D03*
X016998Y006949D03*
X016418Y006709D03*
X016348Y006669D03*
X016338Y006669D03*
X016328Y006669D03*
X016318Y006669D03*
X016258Y006649D03*
X016248Y006649D03*
X016088Y006609D03*
X016078Y006609D03*
X015858Y006609D03*
X015848Y006609D03*
X015838Y006609D03*
X015768Y006629D03*
X015738Y007089D03*
X015638Y007199D03*
X015518Y007159D03*
X015498Y007159D03*
X015328Y007199D03*
X015318Y007199D03*
X015308Y007199D03*
X014968Y007269D03*
X014958Y007269D03*
X014948Y007259D03*
X014648Y007189D03*
X014638Y007189D03*
X014628Y007189D03*
X015298Y007519D03*
X014648Y006739D03*
X017588Y006009D03*
X017628Y005899D03*
X017948Y005599D03*
X017808Y005429D03*
X017938Y004889D03*
X019348Y005029D03*
X019528Y005089D03*
X019538Y005099D03*
X019698Y005369D03*
X019708Y005389D03*
X018628Y006319D03*
X018618Y006319D03*
D23*
X018608Y006319D03*
X018598Y006319D03*
X018688Y006299D03*
X019068Y006399D03*
X019588Y006599D03*
X019598Y006599D03*
X018728Y006759D03*
X017978Y007169D03*
X017838Y007179D03*
X017868Y007309D03*
X017608Y007189D03*
X017598Y007189D03*
X017588Y007039D03*
X017778Y007049D03*
X017798Y007049D03*
X017748Y006899D03*
X017378Y007279D03*
X016988Y007169D03*
X016978Y007169D03*
X016788Y007269D03*
X016778Y007269D03*
X016768Y007259D03*
X016758Y007259D03*
X016518Y007159D03*
X015858Y007119D03*
X015848Y007119D03*
X015838Y007119D03*
X015818Y007129D03*
X015798Y007139D03*
X015788Y007139D03*
X015628Y007199D03*
X015538Y007159D03*
X014928Y007239D03*
X014918Y007239D03*
X015548Y006739D03*
X015598Y006709D03*
X015608Y006699D03*
X015948Y006609D03*
X016398Y006709D03*
X016668Y006839D03*
X017038Y007529D03*
X017408Y007549D03*
X017578Y006039D03*
X018168Y005989D03*
X019268Y005229D03*
X019508Y005079D03*
X019358Y005029D03*
X019318Y005029D03*
X017968Y004899D03*
D24*
X017958Y004894D03*
X017948Y004894D03*
X019368Y005034D03*
X019518Y005084D03*
X018158Y005994D03*
X017568Y006064D03*
X018648Y006304D03*
X019078Y006394D03*
X019088Y006394D03*
X019238Y006604D03*
X019408Y006674D03*
X019418Y006674D03*
X018738Y006734D03*
X017878Y006844D03*
X017738Y006904D03*
X017728Y007044D03*
X017718Y007044D03*
X017708Y007044D03*
X017698Y007044D03*
X017808Y007044D03*
X017808Y007194D03*
X017818Y007194D03*
X017868Y007184D03*
X017768Y007234D03*
X017638Y007174D03*
X017628Y007174D03*
X017618Y007184D03*
X017578Y007044D03*
X017208Y007194D03*
X017198Y007194D03*
X017108Y007244D03*
X017148Y007304D03*
X017158Y007304D03*
X017008Y007174D03*
X016998Y007174D03*
X016968Y007164D03*
X016958Y007164D03*
X016948Y007154D03*
X016918Y007284D03*
X016928Y007294D03*
X016938Y007294D03*
X016948Y007294D03*
X016798Y007274D03*
X016628Y007444D03*
X016618Y007444D03*
X016538Y007174D03*
X016528Y007164D03*
X016268Y007104D03*
X016258Y007104D03*
X016248Y007104D03*
X016238Y007104D03*
X016228Y007104D03*
X016218Y007104D03*
X016208Y007104D03*
X016198Y007104D03*
X016188Y007104D03*
X016178Y007104D03*
X015888Y007114D03*
X015878Y007114D03*
X015868Y007114D03*
X015528Y007164D03*
X014938Y007254D03*
X015278Y007514D03*
X015288Y007514D03*
X016648Y006834D03*
X016658Y006834D03*
X016678Y006844D03*
X016688Y006844D03*
X016408Y006714D03*
X016308Y006664D03*
X016298Y006664D03*
X016288Y006664D03*
X016278Y006654D03*
X016268Y006654D03*
X016238Y006644D03*
X015968Y006604D03*
X015958Y006604D03*
X015828Y006614D03*
X015818Y006624D03*
X015808Y006624D03*
X015798Y006624D03*
X015788Y006624D03*
X015778Y006624D03*
X015618Y006694D03*
X017388Y007274D03*
X017398Y007274D03*
X017408Y007274D03*
X017418Y007274D03*
X017388Y007534D03*
X017418Y007544D03*
X017428Y007544D03*
X017438Y007544D03*
X017528Y007514D03*
X017538Y007514D03*
X017548Y007504D03*
X017558Y007504D03*
X017568Y007504D03*
X017598Y007494D03*
X017068Y007544D03*
X017058Y007544D03*
X017048Y007534D03*
D25*
X017028Y007524D03*
X016748Y007254D03*
X017358Y007274D03*
X017368Y007274D03*
X017588Y007194D03*
X017598Y007034D03*
X017758Y006894D03*
X017998Y007084D03*
X017858Y007314D03*
X017758Y007394D03*
X017748Y007404D03*
X017738Y007404D03*
X018708Y006804D03*
X018718Y006794D03*
X019288Y006734D03*
X019378Y006694D03*
X019258Y006444D03*
X019058Y006404D03*
X019048Y006404D03*
X018658Y006294D03*
X018588Y006324D03*
X017568Y006714D03*
X015938Y006614D03*
X015928Y006614D03*
X015578Y006724D03*
X015568Y006734D03*
X015558Y006734D03*
X015558Y007164D03*
X015548Y007164D03*
X015568Y007164D03*
X015608Y007204D03*
X015618Y007204D03*
X015808Y007134D03*
X015828Y007124D03*
X017858Y005504D03*
X017818Y005424D03*
X017718Y005364D03*
X017708Y005374D03*
X017978Y004894D03*
X019308Y005034D03*
X019428Y005144D03*
X019498Y005074D03*
X019288Y005224D03*
X019278Y005214D03*
D26*
X019298Y005229D03*
X019328Y005029D03*
X019338Y005029D03*
X019688Y005359D03*
X017998Y004899D03*
X017988Y004899D03*
X017688Y005409D03*
X017678Y005409D03*
X017868Y005499D03*
X018668Y006289D03*
X019248Y006439D03*
X019248Y006599D03*
X019298Y006729D03*
X019578Y006589D03*
X017968Y007169D03*
X017848Y007319D03*
X017728Y007409D03*
X017718Y007419D03*
X017708Y007419D03*
X017348Y007269D03*
X017608Y007029D03*
X017618Y007019D03*
X017768Y007059D03*
X017768Y006889D03*
X017018Y007519D03*
X017008Y007519D03*
X016508Y007149D03*
X015598Y007209D03*
X015588Y006719D03*
X015918Y006619D03*
D27*
X015908Y006624D03*
X017628Y007014D03*
X017758Y007064D03*
X017778Y006884D03*
X017838Y007324D03*
X017778Y007364D03*
X017768Y007374D03*
X017698Y007424D03*
X019368Y006704D03*
X019428Y006534D03*
X019438Y006524D03*
X019568Y006584D03*
X019238Y006444D03*
X019038Y006414D03*
X018578Y006324D03*
X018178Y005984D03*
X017878Y005494D03*
X017728Y005354D03*
X017698Y005394D03*
X018008Y004904D03*
X019288Y005034D03*
X019298Y005034D03*
X019418Y005154D03*
X019308Y005214D03*
X019678Y005344D03*
D28*
X019388Y005194D03*
X019368Y005194D03*
X019468Y005074D03*
X018158Y005594D03*
X018048Y004904D03*
X018988Y006414D03*
X019118Y006524D03*
X019368Y006524D03*
X019548Y006574D03*
X017938Y007204D03*
X017818Y006864D03*
X017828Y006854D03*
X017468Y006854D03*
X017458Y006864D03*
D29*
X017478Y006849D03*
X017488Y006839D03*
X017928Y007209D03*
X019338Y006729D03*
X019348Y006519D03*
X019358Y006519D03*
X018548Y006329D03*
X018538Y006319D03*
X018528Y006299D03*
X019828Y005889D03*
X019648Y005319D03*
X019638Y005299D03*
X019348Y005209D03*
X019458Y005079D03*
X019248Y005039D03*
X019238Y005049D03*
X018068Y004909D03*
X018058Y004909D03*
X018088Y005379D03*
X017758Y005319D03*
D30*
X017768Y005299D03*
X017898Y005529D03*
X018218Y005979D03*
X018228Y005989D03*
X018398Y006179D03*
X018408Y006189D03*
X018418Y006189D03*
X019018Y006439D03*
X019188Y006469D03*
X019198Y006469D03*
X019328Y006519D03*
X017908Y007219D03*
X017498Y006829D03*
X017548Y006769D03*
X018108Y004919D03*
X018098Y004909D03*
D31*
X018088Y004914D03*
X018078Y004914D03*
X017748Y005344D03*
X019228Y005044D03*
X019438Y005094D03*
X019448Y005074D03*
X019628Y005294D03*
X019448Y006494D03*
X019338Y006514D03*
X019208Y006464D03*
X019538Y006564D03*
X017918Y007214D03*
X017508Y006824D03*
D32*
X017518Y006814D03*
X018388Y006174D03*
X018428Y006194D03*
X018248Y006004D03*
X018238Y005994D03*
X018208Y005954D03*
X018078Y005624D03*
X018078Y005364D03*
X018118Y004924D03*
X019168Y006474D03*
X019178Y006474D03*
X019308Y006514D03*
X019318Y006514D03*
X019528Y006554D03*
D33*
X019508Y006544D03*
X019458Y006464D03*
X018358Y006144D03*
X017528Y006814D03*
X018068Y005364D03*
X018188Y004924D03*
X018198Y004924D03*
X018208Y004924D03*
X018218Y004924D03*
X018228Y004924D03*
X019208Y005074D03*
D34*
X018248Y004919D03*
X018238Y004919D03*
X018148Y004939D03*
X018348Y006129D03*
X018558Y006379D03*
X017538Y006779D03*
D35*
X017558Y006739D03*
X017808Y006869D03*
X017638Y006999D03*
X017948Y007189D03*
X019318Y006729D03*
X019328Y006729D03*
X019348Y006719D03*
X019378Y006519D03*
X019218Y006469D03*
X018998Y006419D03*
X018568Y006329D03*
X017908Y005509D03*
X018038Y004909D03*
X019258Y005039D03*
X019338Y005209D03*
X019328Y005219D03*
X019358Y005199D03*
X019378Y005199D03*
D36*
X019398Y005184D03*
X019478Y005074D03*
X019268Y005034D03*
X019618Y005254D03*
X019658Y005334D03*
X018188Y005974D03*
X019228Y006454D03*
X019108Y006524D03*
X019408Y006524D03*
X019358Y006714D03*
X017798Y006874D03*
X017648Y006994D03*
X017788Y007074D03*
X017668Y007434D03*
X017658Y007434D03*
X017738Y005344D03*
X018028Y004904D03*
D37*
X018018Y004899D03*
X019278Y005029D03*
X019408Y005169D03*
X019318Y005219D03*
X019488Y005079D03*
X019668Y005339D03*
X018678Y006279D03*
X019008Y006409D03*
X019028Y006409D03*
X019258Y006599D03*
X019308Y006729D03*
X019418Y006529D03*
X019558Y006589D03*
X017988Y007109D03*
X017958Y007179D03*
X017828Y007329D03*
X017818Y007339D03*
X017808Y007339D03*
X017798Y007349D03*
X017788Y007359D03*
X017688Y007429D03*
X017678Y007429D03*
X017738Y007069D03*
X017748Y007069D03*
X017788Y006879D03*
D38*
X019288Y006519D03*
X019468Y006469D03*
X018278Y006029D03*
X017778Y005269D03*
X017898Y005089D03*
X017908Y005089D03*
X018158Y004929D03*
X018168Y004929D03*
X018178Y004929D03*
D39*
X018258Y004914D03*
X018268Y004914D03*
X017788Y005254D03*
X019218Y005444D03*
X018458Y006174D03*
X019128Y006494D03*
D40*
X019288Y005524D03*
X019278Y005514D03*
X018498Y004914D03*
X018488Y004914D03*
X018478Y004914D03*
X017818Y005124D03*
X017798Y005184D03*
X017998Y005304D03*
D41*
X018108Y005509D03*
X017808Y005169D03*
X018508Y004919D03*
X018518Y004919D03*
X018528Y004919D03*
D42*
X018948Y005029D03*
X018958Y005029D03*
X017948Y005259D03*
X017828Y005209D03*
D43*
X017838Y005199D03*
X018888Y005009D03*
X018898Y005009D03*
X019348Y005589D03*
D44*
X019338Y005579D03*
X018858Y004999D03*
X018848Y004999D03*
X018828Y004989D03*
X017848Y005189D03*
D45*
X017858Y005184D03*
X018818Y004984D03*
X018838Y004994D03*
D46*
X017868Y005179D03*
D47*
X017878Y005174D03*
X018688Y004944D03*
X018718Y004954D03*
X018728Y004954D03*
D48*
X018128Y004929D03*
X017888Y005529D03*
X018198Y005949D03*
X018258Y006009D03*
X018378Y006169D03*
X018438Y006199D03*
X018448Y006199D03*
X019298Y006519D03*
X017898Y007229D03*
X017888Y007239D03*
X017878Y007249D03*
D49*
X019308Y005554D03*
X018098Y005504D03*
X017888Y005154D03*
X018608Y004934D03*
X018618Y004934D03*
X018628Y004934D03*
D50*
X019028Y005069D03*
X017918Y005279D03*
D51*
X017928Y005259D03*
X018978Y005039D03*
X018988Y005049D03*
X018998Y005049D03*
X019128Y005179D03*
X019138Y005189D03*
X019158Y005209D03*
X019368Y005609D03*
D52*
X017938Y005314D03*
D53*
X017958Y005259D03*
X018928Y005019D03*
D54*
X018918Y005014D03*
X018908Y005014D03*
X017968Y005254D03*
D55*
X017978Y005254D03*
X018868Y005004D03*
X018878Y005004D03*
D56*
X018588Y004934D03*
X018578Y004934D03*
X018568Y004924D03*
X018558Y004924D03*
X018548Y004924D03*
X018538Y004924D03*
X017988Y005304D03*
X018058Y005414D03*
X019298Y005544D03*
X018298Y006094D03*
D57*
X018118Y005524D03*
X018008Y005304D03*
X018438Y004914D03*
X018448Y004914D03*
X018458Y004914D03*
D58*
X018408Y004914D03*
X018398Y004914D03*
X018388Y004914D03*
X018378Y004914D03*
X018018Y005314D03*
X018138Y005564D03*
X019248Y005474D03*
X018508Y006214D03*
X018498Y006204D03*
X018488Y006194D03*
X018518Y006224D03*
X019158Y006514D03*
D59*
X018028Y005379D03*
D60*
X018038Y005389D03*
X018048Y005399D03*
X018598Y004929D03*
D61*
X018138Y004924D03*
X019218Y005054D03*
X018088Y005614D03*
X018268Y006014D03*
X018368Y006164D03*
X019518Y006554D03*
D62*
X019278Y006549D03*
X019148Y006509D03*
X018468Y006169D03*
X018318Y006109D03*
X018148Y005609D03*
X018128Y005539D03*
X019198Y005399D03*
X018368Y004909D03*
X018358Y004909D03*
X018348Y004909D03*
X018338Y004909D03*
X018328Y004909D03*
X018318Y004909D03*
D63*
X018308Y004909D03*
X018298Y004909D03*
X018288Y004909D03*
X018278Y004909D03*
X019198Y005079D03*
X019208Y005419D03*
X018288Y006049D03*
X018338Y006119D03*
X019138Y006499D03*
X019398Y006589D03*
X019498Y006529D03*
D64*
X018308Y006109D03*
X019258Y005489D03*
X018428Y004919D03*
X018418Y004919D03*
D65*
X019228Y005444D03*
X019238Y005464D03*
X018328Y006114D03*
X018478Y006184D03*
X019268Y006534D03*
X019388Y006594D03*
X019478Y006524D03*
X019488Y006524D03*
D66*
X019268Y005499D03*
X018468Y004919D03*
D67*
X018638Y004934D03*
X018648Y004934D03*
X018658Y004934D03*
X019318Y005564D03*
D68*
X018708Y004949D03*
X018698Y004949D03*
X018678Y004939D03*
X018668Y004939D03*
D69*
X018738Y004954D03*
X018748Y004954D03*
X018778Y004974D03*
X018788Y004974D03*
X019328Y005564D03*
X019818Y005894D03*
D70*
X018808Y004979D03*
X018798Y004979D03*
X018768Y004959D03*
X018758Y004959D03*
D71*
X018938Y005024D03*
X019358Y005604D03*
D72*
X019148Y005204D03*
X019118Y005174D03*
X018968Y005034D03*
D73*
X019008Y005054D03*
X019378Y005634D03*
X019808Y005904D03*
D74*
X019168Y005219D03*
X019018Y005059D03*
D75*
X019038Y005074D03*
X019048Y005084D03*
X019058Y005084D03*
D76*
X019068Y005089D03*
X019078Y005099D03*
D77*
X019088Y005104D03*
X019108Y005124D03*
X019388Y005644D03*
D78*
X019098Y005109D03*
D79*
X019178Y005224D03*
X019188Y005234D03*
D80*
X019398Y005659D03*
D81*
X019408Y005674D03*
X019798Y005924D03*
D82*
X019418Y005684D03*
D83*
X019428Y005714D03*
X019778Y005934D03*
D84*
X019438Y005749D03*
D85*
X019448Y005769D03*
D86*
X019458Y005774D03*
D87*
X019468Y005769D03*
X019608Y005979D03*
X019618Y005989D03*
X019648Y006019D03*
D88*
X019658Y006019D03*
X019638Y005999D03*
X019588Y005949D03*
X019718Y006029D03*
X019478Y005769D03*
D89*
X019488Y005764D03*
X019678Y006044D03*
X019698Y006044D03*
X019708Y006024D03*
D90*
X019498Y005769D03*
D91*
X019508Y005774D03*
X019688Y006044D03*
D92*
X019528Y005794D03*
X019518Y005784D03*
D93*
X019538Y005809D03*
D94*
X019548Y005819D03*
D95*
X019558Y005844D03*
D96*
X019568Y005879D03*
D97*
X019578Y005934D03*
D98*
X019598Y005974D03*
X019628Y005994D03*
X019728Y005994D03*
D99*
X019668Y006029D03*
D100*
X019738Y005984D03*
D101*
X019748Y005974D03*
D102*
X019758Y005949D03*
D103*
X019768Y005934D03*
D104*
X019788Y005929D03*
M02*
