%
M48
M72
T01C0.0200
T02C0.0400
%
T01
X4668Y2365
X3683Y3349
X2699Y3349
X3683Y4333
X6046Y3546
X9195Y2758
X10376Y2561
X9392Y1577
X13329Y3939
X12463Y4806
X14313Y4924
X16557Y5711
X15297Y5908
X16675Y6302
X17975Y6656
X16872Y6892
X16794Y7758
X17502Y7876
X16754Y8310
X17975Y8782
X18841Y9451
X20022Y9451
X21203Y9451
X22660Y9372
X24943Y9058
X26321Y9058
X26321Y10239
X25140Y10239
X20809Y8270
X20416Y7876
X21754Y7089
X22778Y7483
X23250Y7089
X23723Y6695
X24943Y7089
X25534Y6695
X25219Y5042
X24353Y4333
X24549Y3743
X26124Y4333
X23171Y2955
X25140Y1774
X26321Y1774
X20997Y4097
X22581Y4333
X21085Y5042
X21242Y6341
X20258Y6695
X17345Y4136
X16675Y3743
X15101Y3349
X14707Y2955
X15101Y2286
X17148Y2561
X19628Y3349
X20219Y3349
X13329Y5908
X11951Y6105
X11557Y5711
X10376Y5869
X12384Y6695
X14116Y7010
X13841Y7483
X9353Y7365
X7581Y8034
X6833Y8270
X3683Y7286
X2699Y7286
X1715Y7286
X731Y7286
X731Y8270
X1715Y8270
X2699Y8270
X731Y9254
X731Y10239
X6518Y6538
X7935Y6459
X6518Y5672
X9195Y4609
X2699Y6302
X1715Y6302
X731Y6302
X14195Y9609
T02
X2140Y1487
X3140Y1487
X10640Y1487
X11640Y1487
X12640Y1487
X13640Y1487
X14640Y1487
X15640Y1487
X16640Y1487
X17640Y1487
X18640Y1487
X19640Y1487
X20640Y1487
X21640Y1487
X22640Y1487
X23640Y1487
X23640Y10487
X22640Y10487
X21640Y10487
X20640Y10487
X19640Y10487
X18640Y10487
X17640Y10487
X16640Y10487
X15640Y10487
X14640Y10487
X13640Y10487
X12640Y10487
X11640Y10487
X10640Y10487
X3140Y10487
X2140Y10487
M30
